%TF.GenerationSoftware,KiCad,Pcbnew,(5.1.6)-1*%
%TF.CreationDate,2020-09-22T13:28:35-07:00*%
%TF.ProjectId,awg-tx-shunt,6177672d-7478-42d7-9368-756e742e6b69,rev?*%
%TF.SameCoordinates,Original*%
%TF.FileFunction,Copper,L1,Top*%
%TF.FilePolarity,Positive*%
%FSLAX46Y46*%
G04 Gerber Fmt 4.6, Leading zero omitted, Abs format (unit mm)*
G04 Created by KiCad (PCBNEW (5.1.6)-1) date 2020-09-22 13:28:35*
%MOMM*%
%LPD*%
G01*
G04 APERTURE LIST*
%TA.AperFunction,ComponentPad*%
%ADD10C,0.800000*%
%TD*%
%TA.AperFunction,ComponentPad*%
%ADD11C,6.400000*%
%TD*%
%TA.AperFunction,SMDPad,CuDef*%
%ADD12R,7.620000X2.946400*%
%TD*%
%TA.AperFunction,SMDPad,CuDef*%
%ADD13R,1.676400X2.946400*%
%TD*%
%TA.AperFunction,SMDPad,CuDef*%
%ADD14R,2.946400X7.620000*%
%TD*%
%TA.AperFunction,SMDPad,CuDef*%
%ADD15R,2.946400X1.676400*%
%TD*%
%TA.AperFunction,ComponentPad*%
%ADD16C,1.701800*%
%TD*%
%TA.AperFunction,ComponentPad*%
%ADD17C,3.015000*%
%TD*%
%TA.AperFunction,ComponentPad*%
%ADD18C,1.398000*%
%TD*%
%TA.AperFunction,ComponentPad*%
%ADD19R,1.398000X1.398000*%
%TD*%
%TA.AperFunction,SMDPad,CuDef*%
%ADD20R,2.540000X1.300000*%
%TD*%
%TA.AperFunction,ViaPad*%
%ADD21C,2.500000*%
%TD*%
%TA.AperFunction,Conductor*%
%ADD22C,1.400000*%
%TD*%
%TA.AperFunction,Conductor*%
%ADD23C,0.250000*%
%TD*%
%TA.AperFunction,Conductor*%
%ADD24C,0.600000*%
%TD*%
%TA.AperFunction,Conductor*%
%ADD25C,0.254000*%
%TD*%
G04 APERTURE END LIST*
D10*
%TO.P,H4,1*%
%TO.N,N/C*%
X175687056Y-153242944D03*
X173990000Y-152540000D03*
X172292944Y-153242944D03*
X171590000Y-154940000D03*
X172292944Y-156637056D03*
X173990000Y-157340000D03*
X175687056Y-156637056D03*
X176390000Y-154940000D03*
D11*
X173990000Y-154940000D03*
%TD*%
D10*
%TO.P,H3,1*%
%TO.N,N/C*%
X121077056Y-153242944D03*
X119380000Y-152540000D03*
X117682944Y-153242944D03*
X116980000Y-154940000D03*
X117682944Y-156637056D03*
X119380000Y-157340000D03*
X121077056Y-156637056D03*
X121780000Y-154940000D03*
D11*
X119380000Y-154940000D03*
%TD*%
D10*
%TO.P,H2,1*%
%TO.N,N/C*%
X175687056Y-47832944D03*
X173990000Y-47130000D03*
X172292944Y-47832944D03*
X171590000Y-49530000D03*
X172292944Y-51227056D03*
X173990000Y-51930000D03*
X175687056Y-51227056D03*
X176390000Y-49530000D03*
D11*
X173990000Y-49530000D03*
%TD*%
D10*
%TO.P,H1,1*%
%TO.N,N/C*%
X121077056Y-47832944D03*
X119380000Y-47130000D03*
X117682944Y-47832944D03*
X116980000Y-49530000D03*
X117682944Y-51227056D03*
X119380000Y-51930000D03*
X121077056Y-51227056D03*
X121780000Y-49530000D03*
D11*
X119380000Y-49530000D03*
%TD*%
D12*
%TO.P,R10,4*%
%TO.N,/POWERAMP_IN_P*%
X159994600Y-108026200D03*
D13*
%TO.P,R10,3*%
%TO.N,/LOW_SHUNT__ISO_N*%
X154533600Y-108026200D03*
%TO.P,R10,2*%
%TO.N,/LOW_SHUNT__ISO_P*%
X154533600Y-115493800D03*
D12*
%TO.P,R10,1*%
%TO.N,Net-(L1-PadP$9)*%
X159994600Y-115493800D03*
%TD*%
%TO.P,R4,4*%
%TO.N,Net-(L1-PadP$2)*%
X137134600Y-115646200D03*
D13*
%TO.P,R4,3*%
%TO.N,/INSHUNT_N*%
X131673600Y-115646200D03*
%TO.P,R4,2*%
%TO.N,/INSHUNT_P*%
X131673600Y-123113800D03*
D12*
%TO.P,R4,1*%
%TO.N,Net-(C1-Pad1)*%
X137134600Y-123113800D03*
%TD*%
D14*
%TO.P,R3,1*%
%TO.N,/POWERAMP_OUT_P*%
X163753800Y-69875400D03*
D15*
%TO.P,R3,2*%
%TO.N,Net-(C2-Pad2)*%
X163753800Y-75336400D03*
%TO.P,R3,3*%
%TO.N,Net-(L2-PadP$4)*%
X156286200Y-75336400D03*
D14*
%TO.P,R3,4*%
%TO.N,/TX1_OUT*%
X156286200Y-69875400D03*
%TD*%
D16*
%TO.P,E1,1*%
%TO.N,/POWERAMP_IN_N*%
X170180000Y-113030000D03*
%TO.P,E1,2*%
%TO.N,/POWERAMP_IN_P*%
X170180000Y-109529997D03*
%TO.P,E1,3*%
%TO.N,GNDS*%
X170180000Y-106029996D03*
%TO.P,E1,4*%
%TO.N,GNDREF*%
X170180000Y-102529995D03*
%TO.P,E1,5*%
%TO.N,/TX2_OUT*%
X170180000Y-99029995D03*
%TO.P,E1,6*%
%TO.N,/POWERAMP_OUT_P*%
X170180000Y-95529994D03*
%TD*%
%TO.P,R9,1*%
%TO.N,/HI_SHUNT_N*%
%TA.AperFunction,SMDPad,CuDef*%
G36*
G01*
X131455000Y-81620000D02*
X132705000Y-81620000D01*
G75*
G02*
X132955000Y-81870000I0J-250000D01*
G01*
X132955000Y-82795000D01*
G75*
G02*
X132705000Y-83045000I-250000J0D01*
G01*
X131455000Y-83045000D01*
G75*
G02*
X131205000Y-82795000I0J250000D01*
G01*
X131205000Y-81870000D01*
G75*
G02*
X131455000Y-81620000I250000J0D01*
G01*
G37*
%TD.AperFunction*%
%TO.P,R9,2*%
%TO.N,/HI_SHUNT_P*%
%TA.AperFunction,SMDPad,CuDef*%
G36*
G01*
X131455000Y-84595000D02*
X132705000Y-84595000D01*
G75*
G02*
X132955000Y-84845000I0J-250000D01*
G01*
X132955000Y-85770000D01*
G75*
G02*
X132705000Y-86020000I-250000J0D01*
G01*
X131455000Y-86020000D01*
G75*
G02*
X131205000Y-85770000I0J250000D01*
G01*
X131205000Y-84845000D01*
G75*
G02*
X131455000Y-84595000I250000J0D01*
G01*
G37*
%TD.AperFunction*%
%TD*%
%TO.P,R8,2*%
%TO.N,/POWERAMP_IN_N*%
%TA.AperFunction,SMDPad,CuDef*%
G36*
G01*
X169405000Y-123835000D02*
X169405000Y-125085000D01*
G75*
G02*
X169155000Y-125335000I-250000J0D01*
G01*
X168230000Y-125335000D01*
G75*
G02*
X167980000Y-125085000I0J250000D01*
G01*
X167980000Y-123835000D01*
G75*
G02*
X168230000Y-123585000I250000J0D01*
G01*
X169155000Y-123585000D01*
G75*
G02*
X169405000Y-123835000I0J-250000D01*
G01*
G37*
%TD.AperFunction*%
%TO.P,R8,1*%
%TO.N,GNDREF*%
%TA.AperFunction,SMDPad,CuDef*%
G36*
G01*
X172380000Y-123835000D02*
X172380000Y-125085000D01*
G75*
G02*
X172130000Y-125335000I-250000J0D01*
G01*
X171205000Y-125335000D01*
G75*
G02*
X170955000Y-125085000I0J250000D01*
G01*
X170955000Y-123835000D01*
G75*
G02*
X171205000Y-123585000I250000J0D01*
G01*
X172130000Y-123585000D01*
G75*
G02*
X172380000Y-123835000I0J-250000D01*
G01*
G37*
%TD.AperFunction*%
%TD*%
%TO.P,R7,2*%
%TO.N,Net-(L1-PadP$9)*%
%TA.AperFunction,SMDPad,CuDef*%
G36*
G01*
X165595000Y-120025000D02*
X165595000Y-121275000D01*
G75*
G02*
X165345000Y-121525000I-250000J0D01*
G01*
X164420000Y-121525000D01*
G75*
G02*
X164170000Y-121275000I0J250000D01*
G01*
X164170000Y-120025000D01*
G75*
G02*
X164420000Y-119775000I250000J0D01*
G01*
X165345000Y-119775000D01*
G75*
G02*
X165595000Y-120025000I0J-250000D01*
G01*
G37*
%TD.AperFunction*%
%TO.P,R7,1*%
%TO.N,/POWERAMP_IN_N*%
%TA.AperFunction,SMDPad,CuDef*%
G36*
G01*
X168570000Y-120025000D02*
X168570000Y-121275000D01*
G75*
G02*
X168320000Y-121525000I-250000J0D01*
G01*
X167395000Y-121525000D01*
G75*
G02*
X167145000Y-121275000I0J250000D01*
G01*
X167145000Y-120025000D01*
G75*
G02*
X167395000Y-119775000I250000J0D01*
G01*
X168320000Y-119775000D01*
G75*
G02*
X168570000Y-120025000I0J-250000D01*
G01*
G37*
%TD.AperFunction*%
%TD*%
%TO.P,R6,2*%
%TO.N,/TX2_IN*%
%TA.AperFunction,SMDPad,CuDef*%
G36*
G01*
X132705000Y-140195000D02*
X131455000Y-140195000D01*
G75*
G02*
X131205000Y-139945000I0J250000D01*
G01*
X131205000Y-139020000D01*
G75*
G02*
X131455000Y-138770000I250000J0D01*
G01*
X132705000Y-138770000D01*
G75*
G02*
X132955000Y-139020000I0J-250000D01*
G01*
X132955000Y-139945000D01*
G75*
G02*
X132705000Y-140195000I-250000J0D01*
G01*
G37*
%TD.AperFunction*%
%TO.P,R6,1*%
%TO.N,GNDPWR*%
%TA.AperFunction,SMDPad,CuDef*%
G36*
G01*
X132705000Y-143170000D02*
X131455000Y-143170000D01*
G75*
G02*
X131205000Y-142920000I0J250000D01*
G01*
X131205000Y-141995000D01*
G75*
G02*
X131455000Y-141745000I250000J0D01*
G01*
X132705000Y-141745000D01*
G75*
G02*
X132955000Y-141995000I0J-250000D01*
G01*
X132955000Y-142920000D01*
G75*
G02*
X132705000Y-143170000I-250000J0D01*
G01*
G37*
%TD.AperFunction*%
%TD*%
%TO.P,R5,1*%
%TO.N,Net-(L2-PadP$4)*%
%TA.AperFunction,SMDPad,CuDef*%
G36*
G01*
X156855000Y-81620000D02*
X158105000Y-81620000D01*
G75*
G02*
X158355000Y-81870000I0J-250000D01*
G01*
X158355000Y-82795000D01*
G75*
G02*
X158105000Y-83045000I-250000J0D01*
G01*
X156855000Y-83045000D01*
G75*
G02*
X156605000Y-82795000I0J250000D01*
G01*
X156605000Y-81870000D01*
G75*
G02*
X156855000Y-81620000I250000J0D01*
G01*
G37*
%TD.AperFunction*%
%TO.P,R5,2*%
%TO.N,Net-(C2-Pad1)*%
%TA.AperFunction,SMDPad,CuDef*%
G36*
G01*
X156855000Y-84595000D02*
X158105000Y-84595000D01*
G75*
G02*
X158355000Y-84845000I0J-250000D01*
G01*
X158355000Y-85770000D01*
G75*
G02*
X158105000Y-86020000I-250000J0D01*
G01*
X156855000Y-86020000D01*
G75*
G02*
X156605000Y-85770000I0J250000D01*
G01*
X156605000Y-84845000D01*
G75*
G02*
X156855000Y-84595000I250000J0D01*
G01*
G37*
%TD.AperFunction*%
%TD*%
%TO.P,R2,2*%
%TO.N,Net-(C1-Pad1)*%
%TA.AperFunction,SMDPad,CuDef*%
G36*
G01*
X132855000Y-127625000D02*
X132855000Y-126375000D01*
G75*
G02*
X133105000Y-126125000I250000J0D01*
G01*
X134030000Y-126125000D01*
G75*
G02*
X134280000Y-126375000I0J-250000D01*
G01*
X134280000Y-127625000D01*
G75*
G02*
X134030000Y-127875000I-250000J0D01*
G01*
X133105000Y-127875000D01*
G75*
G02*
X132855000Y-127625000I0J250000D01*
G01*
G37*
%TD.AperFunction*%
%TO.P,R2,1*%
%TO.N,GNDPWR*%
%TA.AperFunction,SMDPad,CuDef*%
G36*
G01*
X129880000Y-127625000D02*
X129880000Y-126375000D01*
G75*
G02*
X130130000Y-126125000I250000J0D01*
G01*
X131055000Y-126125000D01*
G75*
G02*
X131305000Y-126375000I0J-250000D01*
G01*
X131305000Y-127625000D01*
G75*
G02*
X131055000Y-127875000I-250000J0D01*
G01*
X130130000Y-127875000D01*
G75*
G02*
X129880000Y-127625000I0J250000D01*
G01*
G37*
%TD.AperFunction*%
%TD*%
%TO.P,R1,2*%
%TO.N,/TX1_IN*%
%TA.AperFunction,SMDPad,CuDef*%
G36*
G01*
X126225000Y-130185000D02*
X126225000Y-131435000D01*
G75*
G02*
X125975000Y-131685000I-250000J0D01*
G01*
X125050000Y-131685000D01*
G75*
G02*
X124800000Y-131435000I0J250000D01*
G01*
X124800000Y-130185000D01*
G75*
G02*
X125050000Y-129935000I250000J0D01*
G01*
X125975000Y-129935000D01*
G75*
G02*
X126225000Y-130185000I0J-250000D01*
G01*
G37*
%TD.AperFunction*%
%TO.P,R1,1*%
%TO.N,Net-(C1-Pad2)*%
%TA.AperFunction,SMDPad,CuDef*%
G36*
G01*
X129200000Y-130185000D02*
X129200000Y-131435000D01*
G75*
G02*
X128950000Y-131685000I-250000J0D01*
G01*
X128025000Y-131685000D01*
G75*
G02*
X127775000Y-131435000I0J250000D01*
G01*
X127775000Y-130185000D01*
G75*
G02*
X128025000Y-129935000I250000J0D01*
G01*
X128950000Y-129935000D01*
G75*
G02*
X129200000Y-130185000I0J-250000D01*
G01*
G37*
%TD.AperFunction*%
%TD*%
D17*
%TO.P,J5,P2*%
%TO.N,GNDREF*%
X121920000Y-90170000D03*
%TO.P,J5,P1*%
X121920000Y-80010000D03*
D18*
%TO.P,J5,2*%
%TO.N,/HI_SHUNT_N*%
X127000000Y-82550000D03*
D19*
%TO.P,J5,1*%
%TO.N,/HI_SHUNT_P*%
X127000000Y-85090000D03*
%TD*%
D17*
%TO.P,J4,P2*%
%TO.N,GNDS*%
X121920000Y-69850000D03*
%TO.P,J4,P1*%
X121920000Y-59690000D03*
D18*
%TO.P,J4,2*%
%TO.N,/TX2_OUT*%
X127000000Y-62230000D03*
D19*
%TO.P,J4,1*%
%TO.N,/TX1_OUT*%
X127000000Y-64770000D03*
%TD*%
D17*
%TO.P,J3,P2*%
%TO.N,GNDS*%
X121920000Y-107950000D03*
%TO.P,J3,P1*%
X121920000Y-97790000D03*
D18*
%TO.P,J3,2*%
%TO.N,/LOW_SHUNT__ISO_N*%
X127000000Y-100330000D03*
D19*
%TO.P,J3,1*%
%TO.N,/LOW_SHUNT__ISO_P*%
X127000000Y-102870000D03*
%TD*%
D17*
%TO.P,J2,P2*%
%TO.N,GNDPWR*%
X121920000Y-125730000D03*
%TO.P,J2,P1*%
X121920000Y-115570000D03*
D18*
%TO.P,J2,2*%
%TO.N,/INSHUNT_N*%
X127000000Y-118110000D03*
D19*
%TO.P,J2,1*%
%TO.N,/INSHUNT_P*%
X127000000Y-120650000D03*
%TD*%
D17*
%TO.P,J1,P2*%
%TO.N,GNDPWR*%
X121920000Y-146050000D03*
%TO.P,J1,P1*%
X121920000Y-135890000D03*
D18*
%TO.P,J1,2*%
%TO.N,/TX2_IN*%
X127000000Y-138430000D03*
D19*
%TO.P,J1,1*%
%TO.N,/TX1_IN*%
X127000000Y-140970000D03*
%TD*%
%TO.P,C2,1*%
%TO.N,Net-(C2-Pad1)*%
%TA.AperFunction,SMDPad,CuDef*%
G36*
G01*
X161915000Y-86020000D02*
X160665000Y-86020000D01*
G75*
G02*
X160415000Y-85770000I0J250000D01*
G01*
X160415000Y-84845000D01*
G75*
G02*
X160665000Y-84595000I250000J0D01*
G01*
X161915000Y-84595000D01*
G75*
G02*
X162165000Y-84845000I0J-250000D01*
G01*
X162165000Y-85770000D01*
G75*
G02*
X161915000Y-86020000I-250000J0D01*
G01*
G37*
%TD.AperFunction*%
%TO.P,C2,2*%
%TO.N,Net-(C2-Pad2)*%
%TA.AperFunction,SMDPad,CuDef*%
G36*
G01*
X161915000Y-83045000D02*
X160665000Y-83045000D01*
G75*
G02*
X160415000Y-82795000I0J250000D01*
G01*
X160415000Y-81870000D01*
G75*
G02*
X160665000Y-81620000I250000J0D01*
G01*
X161915000Y-81620000D01*
G75*
G02*
X162165000Y-81870000I0J-250000D01*
G01*
X162165000Y-82795000D01*
G75*
G02*
X161915000Y-83045000I-250000J0D01*
G01*
G37*
%TD.AperFunction*%
%TD*%
%TO.P,C1,2*%
%TO.N,Net-(C1-Pad2)*%
%TA.AperFunction,SMDPad,CuDef*%
G36*
G01*
X131305000Y-130185000D02*
X131305000Y-131435000D01*
G75*
G02*
X131055000Y-131685000I-250000J0D01*
G01*
X130130000Y-131685000D01*
G75*
G02*
X129880000Y-131435000I0J250000D01*
G01*
X129880000Y-130185000D01*
G75*
G02*
X130130000Y-129935000I250000J0D01*
G01*
X131055000Y-129935000D01*
G75*
G02*
X131305000Y-130185000I0J-250000D01*
G01*
G37*
%TD.AperFunction*%
%TO.P,C1,1*%
%TO.N,Net-(C1-Pad1)*%
%TA.AperFunction,SMDPad,CuDef*%
G36*
G01*
X134280000Y-130185000D02*
X134280000Y-131435000D01*
G75*
G02*
X134030000Y-131685000I-250000J0D01*
G01*
X133105000Y-131685000D01*
G75*
G02*
X132855000Y-131435000I0J250000D01*
G01*
X132855000Y-130185000D01*
G75*
G02*
X133105000Y-129935000I250000J0D01*
G01*
X134030000Y-129935000D01*
G75*
G02*
X134280000Y-130185000I0J-250000D01*
G01*
G37*
%TD.AperFunction*%
%TD*%
D20*
%TO.P,L1,P$1*%
%TO.N,N/C*%
X144720000Y-123270000D03*
%TO.P,L1,P$2*%
%TO.N,Net-(L1-PadP$2)*%
X144720000Y-125770000D03*
%TO.P,L1,P$3*%
%TO.N,N/C*%
X144720000Y-128270000D03*
%TO.P,L1,P$4*%
%TO.N,/TX2_IN*%
X144720000Y-130770000D03*
%TO.P,L1,P$5*%
%TO.N,N/C*%
X144720000Y-133270000D03*
%TO.P,L1,P$6*%
X160080000Y-133270000D03*
%TO.P,L1,P$7*%
%TO.N,/POWERAMP_IN_N*%
X160080000Y-130770000D03*
%TO.P,L1,P$8*%
%TO.N,N/C*%
X160080000Y-128270000D03*
%TO.P,L1,P$9*%
%TO.N,Net-(L1-PadP$9)*%
X160080000Y-125770000D03*
%TO.P,L1,P$10*%
%TO.N,N/C*%
X160080000Y-123270000D03*
%TD*%
%TO.P,L2,P$1*%
%TO.N,N/C*%
X152460000Y-88820000D03*
%TO.P,L2,P$2*%
%TO.N,Net-(C2-Pad1)*%
X152460000Y-86320000D03*
%TO.P,L2,P$3*%
%TO.N,N/C*%
X152460000Y-83820000D03*
%TO.P,L2,P$4*%
%TO.N,Net-(L2-PadP$4)*%
X152460000Y-81320000D03*
%TO.P,L2,P$5*%
%TO.N,N/C*%
X152460000Y-78820000D03*
%TO.P,L2,P$6*%
X137100000Y-78820000D03*
%TO.P,L2,P$7*%
%TO.N,/HI_SHUNT_N*%
X137100000Y-81320000D03*
%TO.P,L2,P$8*%
%TO.N,N/C*%
X137100000Y-83820000D03*
%TO.P,L2,P$9*%
%TO.N,/HI_SHUNT_P*%
X137100000Y-86320000D03*
%TO.P,L2,P$10*%
%TO.N,N/C*%
X137100000Y-88820000D03*
%TD*%
D21*
%TO.N,GNDPWR*%
X135890000Y-119380000D03*
X133350000Y-152400000D03*
X148590000Y-152400000D03*
X140970000Y-142240000D03*
%TO.N,GNDS*%
X165100000Y-111760000D03*
X160020000Y-119380000D03*
X160020000Y-71120000D03*
X166370000Y-91440000D03*
X158750000Y-91440000D03*
X166370000Y-83820000D03*
X167640000Y-143510000D03*
X132080000Y-53340000D03*
X144780000Y-53340000D03*
X158750000Y-53340000D03*
%TO.N,GNDREF*%
X144780000Y-96520000D03*
X160020000Y-100330000D03*
%TD*%
D22*
%TO.N,Net-(C1-Pad2)*%
X128487500Y-130810000D02*
X130592500Y-130810000D01*
%TO.N,Net-(C1-Pad1)*%
X133567500Y-126680900D02*
X137134600Y-123113800D01*
X133567500Y-127000000D02*
X133567500Y-130810000D01*
D23*
%TO.N,Net-(C2-Pad1)*%
X153472500Y-85307500D02*
X152460000Y-86320000D01*
X157480000Y-85307500D02*
X153472500Y-85307500D01*
X161290000Y-85307500D02*
X157480000Y-85307500D01*
D22*
%TO.N,/TX2_IN*%
X131026492Y-138428992D02*
X127001009Y-138428992D01*
X132080000Y-139482500D02*
X131026492Y-138428992D01*
X140792500Y-130770000D02*
X144720000Y-130770000D01*
X132080000Y-139482500D02*
X140792500Y-130770000D01*
%TO.N,/TX1_IN*%
X125200999Y-131121501D02*
X125512500Y-130810000D01*
X125200999Y-139293521D02*
X125200999Y-131121501D01*
X126136479Y-140229001D02*
X125200999Y-139293521D01*
X126259001Y-140229001D02*
X126136479Y-140229001D01*
X127000000Y-140970000D02*
X126259001Y-140229001D01*
%TO.N,GNDREF*%
X170527334Y-115570000D02*
X170185598Y-115570000D01*
X172130901Y-113966433D02*
X170527334Y-115570000D01*
X170180000Y-102529995D02*
X172130901Y-104480896D01*
X172130901Y-104480896D02*
X172130901Y-113966433D01*
X170185598Y-115570000D02*
X169657510Y-116098088D01*
X169657510Y-116098088D02*
X169657510Y-119453306D01*
X171667500Y-122131902D02*
X171667500Y-124460000D01*
X169670010Y-120134412D02*
X171667500Y-122131902D01*
X169670010Y-119465806D02*
X169670010Y-120134412D01*
X169657510Y-119453306D02*
X169670010Y-119465806D01*
%TO.N,/POWERAMP_IN_N*%
X162382500Y-130770000D02*
X168692500Y-124460000D01*
X160080000Y-130770000D02*
X162382500Y-130770000D01*
X168692500Y-124460000D02*
X168692500Y-121702500D01*
X167857500Y-120867500D02*
X167857500Y-120650000D01*
X168692500Y-121702500D02*
X167857500Y-120867500D01*
X167857500Y-115352500D02*
X170180000Y-113030000D01*
X167857500Y-120650000D02*
X167857500Y-115352500D01*
%TO.N,Net-(L1-PadP$9)*%
X161480002Y-125770000D02*
X164882500Y-122367502D01*
X164882500Y-122367502D02*
X164882500Y-120650000D01*
X160080000Y-125770000D02*
X161480002Y-125770000D01*
X163318800Y-115493800D02*
X159994600Y-115493800D01*
X164882500Y-117057500D02*
X163318800Y-115493800D01*
X164882500Y-119162500D02*
X164882500Y-117057500D01*
X164882500Y-119162500D02*
X164882500Y-117892500D01*
X164882500Y-120650000D02*
X164882500Y-119162500D01*
D24*
%TO.N,Net-(C2-Pad2)*%
X163753800Y-79868700D02*
X161290000Y-82332500D01*
X163753800Y-75336400D02*
X163753800Y-79868700D01*
D22*
%TO.N,/POWERAMP_OUT_P*%
X170180000Y-72390000D02*
X170180000Y-95529994D01*
X167665400Y-69875400D02*
X170180000Y-72390000D01*
X163753800Y-69875400D02*
X167665400Y-69875400D01*
%TO.N,/TX2_OUT*%
X127000000Y-62230000D02*
X161290000Y-62230000D01*
X172130901Y-97079094D02*
X170180000Y-99029995D01*
X172130901Y-67990901D02*
X172130901Y-97079094D01*
X166370000Y-62230000D02*
X172130901Y-67990901D01*
X161290000Y-62230000D02*
X166370000Y-62230000D01*
%TO.N,/POWERAMP_IN_P*%
X168676203Y-108026200D02*
X170180000Y-109529997D01*
X159994600Y-108026200D02*
X168676203Y-108026200D01*
D23*
%TO.N,/INSHUNT_N*%
X129463800Y-115646200D02*
X127000000Y-118110000D01*
X129463800Y-115646200D02*
X131673600Y-115646200D01*
%TO.N,/INSHUNT_P*%
X129463800Y-123113800D02*
X127000000Y-120650000D01*
X131673600Y-123113800D02*
X129463800Y-123113800D01*
D24*
%TO.N,/LOW_SHUNT__ISO_N*%
X127000000Y-100330000D02*
X134620000Y-107950000D01*
X154457400Y-107950000D02*
X154533600Y-108026200D01*
X134620000Y-107950000D02*
X154457400Y-107950000D01*
%TO.N,/LOW_SHUNT__ISO_P*%
X154533600Y-115493800D02*
X154533600Y-115163600D01*
X154533600Y-115163600D02*
X148590000Y-109220000D01*
X133350000Y-109220000D02*
X127000000Y-102870000D01*
X148590000Y-109220000D02*
X133350000Y-109220000D01*
D22*
%TO.N,/TX1_OUT*%
X156286200Y-69875400D02*
X156286200Y-67386200D01*
X153670000Y-64770000D02*
X127000000Y-64770000D01*
X156286200Y-67386200D02*
X153670000Y-64770000D01*
D23*
%TO.N,/HI_SHUNT_N*%
X127217500Y-82332500D02*
X127000000Y-82550000D01*
X132080000Y-82332500D02*
X127217500Y-82332500D01*
X133092500Y-81320000D02*
X132080000Y-82332500D01*
X137100000Y-81320000D02*
X133092500Y-81320000D01*
%TO.N,/HI_SHUNT_P*%
X127217500Y-85307500D02*
X127000000Y-85090000D01*
X132080000Y-85307500D02*
X127217500Y-85307500D01*
X133092500Y-86320000D02*
X132080000Y-85307500D01*
X137100000Y-86320000D02*
X133092500Y-86320000D01*
D22*
%TO.N,Net-(L1-PadP$2)*%
X142044601Y-124494603D02*
X142044601Y-120556201D01*
X142044601Y-120556201D02*
X137134600Y-115646200D01*
X143319998Y-125770000D02*
X142044601Y-124494603D01*
X144720000Y-125770000D02*
X143319998Y-125770000D01*
D23*
%TO.N,Net-(L2-PadP$4)*%
X153472500Y-82332500D02*
X152460000Y-81320000D01*
X157480000Y-82332500D02*
X153472500Y-82332500D01*
D24*
X156286200Y-75336400D02*
X156616400Y-75336400D01*
X157480000Y-76200000D02*
X157480000Y-82332500D01*
X156616400Y-75336400D02*
X157480000Y-76200000D01*
%TD*%
D25*
%TO.N,GNDS*%
G36*
X171545330Y-46551161D02*
G01*
X171011161Y-47085330D01*
X170591467Y-47713446D01*
X170302377Y-48411372D01*
X170155000Y-49152285D01*
X170155000Y-49907715D01*
X170302377Y-50648628D01*
X170591467Y-51346554D01*
X171011161Y-51974670D01*
X171545330Y-52508839D01*
X172173446Y-52928533D01*
X172871372Y-53217623D01*
X173612285Y-53365000D01*
X174367715Y-53365000D01*
X175108628Y-53217623D01*
X175806554Y-52928533D01*
X176434670Y-52508839D01*
X176968839Y-51974670D01*
X177140000Y-51718510D01*
X177140001Y-144747581D01*
X177140000Y-152751491D01*
X176968839Y-152495330D01*
X176434670Y-151961161D01*
X175806554Y-151541467D01*
X175108628Y-151252377D01*
X174367715Y-151105000D01*
X173612285Y-151105000D01*
X172871372Y-151252377D01*
X172173446Y-151541467D01*
X171545330Y-151961161D01*
X171011161Y-152495330D01*
X170591467Y-153123446D01*
X170302377Y-153821372D01*
X170155000Y-154562285D01*
X170155000Y-155317715D01*
X170302377Y-156058628D01*
X170591467Y-156756554D01*
X171011161Y-157384670D01*
X171545330Y-157918839D01*
X171801490Y-158090000D01*
X159539606Y-158090000D01*
X158877000Y-157427394D01*
X158877000Y-134558072D01*
X161350000Y-134558072D01*
X161474482Y-134545812D01*
X161594180Y-134509502D01*
X161704494Y-134450537D01*
X161801185Y-134371185D01*
X161880537Y-134274494D01*
X161939502Y-134164180D01*
X161975812Y-134044482D01*
X161988072Y-133920000D01*
X161988072Y-132620000D01*
X161975812Y-132495518D01*
X161939502Y-132375820D01*
X161880537Y-132265506D01*
X161801185Y-132168815D01*
X161723426Y-132105000D01*
X162316921Y-132105000D01*
X162382500Y-132111459D01*
X162448079Y-132105000D01*
X162644206Y-132085683D01*
X162895854Y-132009347D01*
X163127775Y-131885382D01*
X163331055Y-131718555D01*
X163372866Y-131667608D01*
X169067403Y-125973072D01*
X169155000Y-125973072D01*
X169328254Y-125956008D01*
X169494850Y-125905472D01*
X169648386Y-125823405D01*
X169782962Y-125712962D01*
X169893405Y-125578386D01*
X169975472Y-125424850D01*
X170026008Y-125258254D01*
X170043072Y-125085000D01*
X170043072Y-123835000D01*
X170027500Y-123676895D01*
X170027500Y-122379877D01*
X170332500Y-122684877D01*
X170332501Y-123676888D01*
X170316928Y-123835000D01*
X170316928Y-125085000D01*
X170333992Y-125258254D01*
X170384528Y-125424850D01*
X170466595Y-125578386D01*
X170577038Y-125712962D01*
X170711614Y-125823405D01*
X170865150Y-125905472D01*
X171031746Y-125956008D01*
X171205000Y-125973072D01*
X172130000Y-125973072D01*
X172303254Y-125956008D01*
X172469850Y-125905472D01*
X172623386Y-125823405D01*
X172757962Y-125712962D01*
X172868405Y-125578386D01*
X172950472Y-125424850D01*
X173001008Y-125258254D01*
X173018072Y-125085000D01*
X173018072Y-123835000D01*
X173002500Y-123676895D01*
X173002500Y-122197477D01*
X173008959Y-122131901D01*
X173002500Y-122066323D01*
X172983183Y-121870196D01*
X172906847Y-121618548D01*
X172782882Y-121386627D01*
X172616055Y-121183347D01*
X172565115Y-121141542D01*
X171005010Y-119581438D01*
X171005010Y-119531385D01*
X171011469Y-119465806D01*
X170992510Y-119273315D01*
X170992510Y-116823962D01*
X171040688Y-116809347D01*
X171272609Y-116685382D01*
X171475889Y-116518555D01*
X171517700Y-116467608D01*
X173028514Y-114956795D01*
X173079456Y-114914988D01*
X173246283Y-114711708D01*
X173370248Y-114479787D01*
X173446584Y-114228139D01*
X173465901Y-114032012D01*
X173472360Y-113966434D01*
X173465901Y-113900855D01*
X173465901Y-104843705D01*
X174079803Y-104229803D01*
X174095597Y-104210557D01*
X174107333Y-104188601D01*
X174114560Y-104164776D01*
X174117000Y-104140000D01*
X174117000Y-100330000D01*
X174114560Y-100305224D01*
X174107333Y-100281399D01*
X174095597Y-100259443D01*
X174084398Y-100245041D01*
X172941398Y-98975041D01*
X172923010Y-98958258D01*
X172901700Y-98945384D01*
X172878289Y-98936915D01*
X172847000Y-98933000D01*
X172164969Y-98933000D01*
X173028514Y-98069455D01*
X173079456Y-98027649D01*
X173246283Y-97824369D01*
X173305701Y-97713207D01*
X173370248Y-97592449D01*
X173424718Y-97412882D01*
X173446584Y-97340800D01*
X173465901Y-97144673D01*
X173472360Y-97079094D01*
X173465901Y-97013515D01*
X173465901Y-68056476D01*
X173472360Y-67990900D01*
X173461208Y-67877673D01*
X173446584Y-67729195D01*
X173370248Y-67477547D01*
X173246283Y-67245626D01*
X173079456Y-67042346D01*
X173028516Y-67000541D01*
X167360366Y-61332392D01*
X167318555Y-61281445D01*
X167115275Y-61114618D01*
X166883354Y-60990653D01*
X166631706Y-60914317D01*
X166435579Y-60895000D01*
X166370000Y-60888541D01*
X166304421Y-60895000D01*
X126934421Y-60895000D01*
X126924268Y-60896000D01*
X126868612Y-60896000D01*
X126814025Y-60906858D01*
X126738294Y-60914317D01*
X126665472Y-60936407D01*
X126610886Y-60947265D01*
X126559469Y-60968563D01*
X126486646Y-60990653D01*
X126419535Y-61026525D01*
X126368114Y-61047824D01*
X126321833Y-61078748D01*
X126254725Y-61114618D01*
X126195905Y-61162890D01*
X126149624Y-61193814D01*
X126110266Y-61233172D01*
X126051445Y-61281445D01*
X126003172Y-61340266D01*
X125963814Y-61379624D01*
X125932890Y-61425905D01*
X125884618Y-61484725D01*
X125848748Y-61551833D01*
X125817824Y-61598114D01*
X125796525Y-61649535D01*
X125760653Y-61716646D01*
X125738563Y-61789469D01*
X125717265Y-61840886D01*
X125706407Y-61895472D01*
X125684317Y-61968294D01*
X125676858Y-62044025D01*
X125666000Y-62098612D01*
X125666000Y-62154268D01*
X125658541Y-62230000D01*
X125666000Y-62305732D01*
X125666000Y-62361388D01*
X125676858Y-62415975D01*
X125684317Y-62491706D01*
X125706407Y-62564528D01*
X125717265Y-62619114D01*
X125738563Y-62670531D01*
X125760653Y-62743354D01*
X125796525Y-62810465D01*
X125817824Y-62861886D01*
X125848748Y-62908167D01*
X125884618Y-62975275D01*
X125932890Y-63034095D01*
X125963814Y-63080376D01*
X126003172Y-63119734D01*
X126051445Y-63178555D01*
X126110266Y-63226828D01*
X126149624Y-63266186D01*
X126195905Y-63297110D01*
X126254725Y-63345382D01*
X126321833Y-63381252D01*
X126368114Y-63412176D01*
X126418214Y-63432928D01*
X126301000Y-63432928D01*
X126176518Y-63445188D01*
X126056820Y-63481498D01*
X125946506Y-63540463D01*
X125849815Y-63619815D01*
X125770463Y-63716506D01*
X125711498Y-63826820D01*
X125675188Y-63946518D01*
X125662928Y-64071000D01*
X125662928Y-64725458D01*
X125658541Y-64770000D01*
X125662928Y-64814542D01*
X125662928Y-65469000D01*
X125675188Y-65593482D01*
X125711498Y-65713180D01*
X125770463Y-65823494D01*
X125849815Y-65920185D01*
X125946506Y-65999537D01*
X126056820Y-66058502D01*
X126176518Y-66094812D01*
X126301000Y-66107072D01*
X127699000Y-66107072D01*
X127720038Y-66105000D01*
X153117026Y-66105000D01*
X154174928Y-67162903D01*
X154174928Y-73685400D01*
X154187188Y-73809882D01*
X154223498Y-73929580D01*
X154282463Y-74039894D01*
X154325061Y-74091800D01*
X154282463Y-74143706D01*
X154223498Y-74254020D01*
X154187188Y-74373718D01*
X154174928Y-74498200D01*
X154174928Y-76174600D01*
X154187188Y-76299082D01*
X154223498Y-76418780D01*
X154282463Y-76529094D01*
X154361815Y-76625785D01*
X154458506Y-76705137D01*
X154568820Y-76764102D01*
X154688518Y-76800412D01*
X154813000Y-76812672D01*
X156545000Y-76812672D01*
X156545001Y-81040473D01*
X156515150Y-81049528D01*
X156361614Y-81131595D01*
X156227038Y-81242038D01*
X156116595Y-81376614D01*
X156034528Y-81530150D01*
X156021681Y-81572500D01*
X154368072Y-81572500D01*
X154368072Y-80670000D01*
X154355812Y-80545518D01*
X154319502Y-80425820D01*
X154260537Y-80315506D01*
X154181185Y-80218815D01*
X154084494Y-80139463D01*
X153974180Y-80080498D01*
X153939573Y-80070000D01*
X153974180Y-80059502D01*
X154084494Y-80000537D01*
X154181185Y-79921185D01*
X154260537Y-79824494D01*
X154319502Y-79714180D01*
X154355812Y-79594482D01*
X154368072Y-79470000D01*
X154368072Y-78170000D01*
X154355812Y-78045518D01*
X154319502Y-77925820D01*
X154260537Y-77815506D01*
X154181185Y-77718815D01*
X154084494Y-77639463D01*
X153974180Y-77580498D01*
X153854482Y-77544188D01*
X153730000Y-77531928D01*
X151257000Y-77531928D01*
X151257000Y-76200000D01*
X151254560Y-76175224D01*
X151247333Y-76151399D01*
X151235597Y-76129443D01*
X151219803Y-76110197D01*
X149949803Y-74840197D01*
X149930557Y-74824403D01*
X149908601Y-74812667D01*
X149884776Y-74805440D01*
X149860000Y-74803000D01*
X116230000Y-74803000D01*
X116230000Y-71346994D01*
X120602611Y-71346994D01*
X120759525Y-71663322D01*
X121135585Y-71854877D01*
X121541790Y-71969386D01*
X121962528Y-72002447D01*
X122381633Y-71952792D01*
X122782997Y-71822327D01*
X123080475Y-71663322D01*
X123237389Y-71346994D01*
X121920000Y-70029605D01*
X120602611Y-71346994D01*
X116230000Y-71346994D01*
X116230000Y-69892528D01*
X119767553Y-69892528D01*
X119817208Y-70311633D01*
X119947673Y-70712997D01*
X120106678Y-71010475D01*
X120423006Y-71167389D01*
X121740395Y-69850000D01*
X122099605Y-69850000D01*
X123416994Y-71167389D01*
X123733322Y-71010475D01*
X123924877Y-70634415D01*
X124039386Y-70228210D01*
X124072447Y-69807472D01*
X124022792Y-69388367D01*
X123892327Y-68987003D01*
X123733322Y-68689525D01*
X123416994Y-68532611D01*
X122099605Y-69850000D01*
X121740395Y-69850000D01*
X120423006Y-68532611D01*
X120106678Y-68689525D01*
X119915123Y-69065585D01*
X119800614Y-69471790D01*
X119767553Y-69892528D01*
X116230000Y-69892528D01*
X116230000Y-68353006D01*
X120602611Y-68353006D01*
X121920000Y-69670395D01*
X123237389Y-68353006D01*
X123080475Y-68036678D01*
X122704415Y-67845123D01*
X122298210Y-67730614D01*
X121877472Y-67697553D01*
X121458367Y-67747208D01*
X121057003Y-67877673D01*
X120759525Y-68036678D01*
X120602611Y-68353006D01*
X116230000Y-68353006D01*
X116230000Y-61186994D01*
X120602611Y-61186994D01*
X120759525Y-61503322D01*
X121135585Y-61694877D01*
X121541790Y-61809386D01*
X121962528Y-61842447D01*
X122381633Y-61792792D01*
X122782997Y-61662327D01*
X123080475Y-61503322D01*
X123237389Y-61186994D01*
X121920000Y-59869605D01*
X120602611Y-61186994D01*
X116230000Y-61186994D01*
X116230000Y-59732528D01*
X119767553Y-59732528D01*
X119817208Y-60151633D01*
X119947673Y-60552997D01*
X120106678Y-60850475D01*
X120423006Y-61007389D01*
X121740395Y-59690000D01*
X122099605Y-59690000D01*
X123416994Y-61007389D01*
X123733322Y-60850475D01*
X123924877Y-60474415D01*
X124039386Y-60068210D01*
X124072447Y-59647472D01*
X124022792Y-59228367D01*
X123892327Y-58827003D01*
X123733322Y-58529525D01*
X123416994Y-58372611D01*
X122099605Y-59690000D01*
X121740395Y-59690000D01*
X120423006Y-58372611D01*
X120106678Y-58529525D01*
X119915123Y-58905585D01*
X119800614Y-59311790D01*
X119767553Y-59732528D01*
X116230000Y-59732528D01*
X116230000Y-58193006D01*
X120602611Y-58193006D01*
X121920000Y-59510395D01*
X123237389Y-58193006D01*
X123080475Y-57876678D01*
X122704415Y-57685123D01*
X122298210Y-57570614D01*
X121877472Y-57537553D01*
X121458367Y-57587208D01*
X121057003Y-57717673D01*
X120759525Y-57876678D01*
X120602611Y-58193006D01*
X116230000Y-58193006D01*
X116230000Y-51718510D01*
X116401161Y-51974670D01*
X116935330Y-52508839D01*
X117563446Y-52928533D01*
X118261372Y-53217623D01*
X119002285Y-53365000D01*
X119757715Y-53365000D01*
X120498628Y-53217623D01*
X121196554Y-52928533D01*
X121824670Y-52508839D01*
X122358839Y-51974670D01*
X122778533Y-51346554D01*
X123067623Y-50648628D01*
X123215000Y-49907715D01*
X123215000Y-49152285D01*
X123067623Y-48411372D01*
X122778533Y-47713446D01*
X122358839Y-47085330D01*
X121824670Y-46551161D01*
X121568510Y-46380000D01*
X171801490Y-46380000D01*
X171545330Y-46551161D01*
G37*
X171545330Y-46551161D02*
X171011161Y-47085330D01*
X170591467Y-47713446D01*
X170302377Y-48411372D01*
X170155000Y-49152285D01*
X170155000Y-49907715D01*
X170302377Y-50648628D01*
X170591467Y-51346554D01*
X171011161Y-51974670D01*
X171545330Y-52508839D01*
X172173446Y-52928533D01*
X172871372Y-53217623D01*
X173612285Y-53365000D01*
X174367715Y-53365000D01*
X175108628Y-53217623D01*
X175806554Y-52928533D01*
X176434670Y-52508839D01*
X176968839Y-51974670D01*
X177140000Y-51718510D01*
X177140001Y-144747581D01*
X177140000Y-152751491D01*
X176968839Y-152495330D01*
X176434670Y-151961161D01*
X175806554Y-151541467D01*
X175108628Y-151252377D01*
X174367715Y-151105000D01*
X173612285Y-151105000D01*
X172871372Y-151252377D01*
X172173446Y-151541467D01*
X171545330Y-151961161D01*
X171011161Y-152495330D01*
X170591467Y-153123446D01*
X170302377Y-153821372D01*
X170155000Y-154562285D01*
X170155000Y-155317715D01*
X170302377Y-156058628D01*
X170591467Y-156756554D01*
X171011161Y-157384670D01*
X171545330Y-157918839D01*
X171801490Y-158090000D01*
X159539606Y-158090000D01*
X158877000Y-157427394D01*
X158877000Y-134558072D01*
X161350000Y-134558072D01*
X161474482Y-134545812D01*
X161594180Y-134509502D01*
X161704494Y-134450537D01*
X161801185Y-134371185D01*
X161880537Y-134274494D01*
X161939502Y-134164180D01*
X161975812Y-134044482D01*
X161988072Y-133920000D01*
X161988072Y-132620000D01*
X161975812Y-132495518D01*
X161939502Y-132375820D01*
X161880537Y-132265506D01*
X161801185Y-132168815D01*
X161723426Y-132105000D01*
X162316921Y-132105000D01*
X162382500Y-132111459D01*
X162448079Y-132105000D01*
X162644206Y-132085683D01*
X162895854Y-132009347D01*
X163127775Y-131885382D01*
X163331055Y-131718555D01*
X163372866Y-131667608D01*
X169067403Y-125973072D01*
X169155000Y-125973072D01*
X169328254Y-125956008D01*
X169494850Y-125905472D01*
X169648386Y-125823405D01*
X169782962Y-125712962D01*
X169893405Y-125578386D01*
X169975472Y-125424850D01*
X170026008Y-125258254D01*
X170043072Y-125085000D01*
X170043072Y-123835000D01*
X170027500Y-123676895D01*
X170027500Y-122379877D01*
X170332500Y-122684877D01*
X170332501Y-123676888D01*
X170316928Y-123835000D01*
X170316928Y-125085000D01*
X170333992Y-125258254D01*
X170384528Y-125424850D01*
X170466595Y-125578386D01*
X170577038Y-125712962D01*
X170711614Y-125823405D01*
X170865150Y-125905472D01*
X171031746Y-125956008D01*
X171205000Y-125973072D01*
X172130000Y-125973072D01*
X172303254Y-125956008D01*
X172469850Y-125905472D01*
X172623386Y-125823405D01*
X172757962Y-125712962D01*
X172868405Y-125578386D01*
X172950472Y-125424850D01*
X173001008Y-125258254D01*
X173018072Y-125085000D01*
X173018072Y-123835000D01*
X173002500Y-123676895D01*
X173002500Y-122197477D01*
X173008959Y-122131901D01*
X173002500Y-122066323D01*
X172983183Y-121870196D01*
X172906847Y-121618548D01*
X172782882Y-121386627D01*
X172616055Y-121183347D01*
X172565115Y-121141542D01*
X171005010Y-119581438D01*
X171005010Y-119531385D01*
X171011469Y-119465806D01*
X170992510Y-119273315D01*
X170992510Y-116823962D01*
X171040688Y-116809347D01*
X171272609Y-116685382D01*
X171475889Y-116518555D01*
X171517700Y-116467608D01*
X173028514Y-114956795D01*
X173079456Y-114914988D01*
X173246283Y-114711708D01*
X173370248Y-114479787D01*
X173446584Y-114228139D01*
X173465901Y-114032012D01*
X173472360Y-113966434D01*
X173465901Y-113900855D01*
X173465901Y-104843705D01*
X174079803Y-104229803D01*
X174095597Y-104210557D01*
X174107333Y-104188601D01*
X174114560Y-104164776D01*
X174117000Y-104140000D01*
X174117000Y-100330000D01*
X174114560Y-100305224D01*
X174107333Y-100281399D01*
X174095597Y-100259443D01*
X174084398Y-100245041D01*
X172941398Y-98975041D01*
X172923010Y-98958258D01*
X172901700Y-98945384D01*
X172878289Y-98936915D01*
X172847000Y-98933000D01*
X172164969Y-98933000D01*
X173028514Y-98069455D01*
X173079456Y-98027649D01*
X173246283Y-97824369D01*
X173305701Y-97713207D01*
X173370248Y-97592449D01*
X173424718Y-97412882D01*
X173446584Y-97340800D01*
X173465901Y-97144673D01*
X173472360Y-97079094D01*
X173465901Y-97013515D01*
X173465901Y-68056476D01*
X173472360Y-67990900D01*
X173461208Y-67877673D01*
X173446584Y-67729195D01*
X173370248Y-67477547D01*
X173246283Y-67245626D01*
X173079456Y-67042346D01*
X173028516Y-67000541D01*
X167360366Y-61332392D01*
X167318555Y-61281445D01*
X167115275Y-61114618D01*
X166883354Y-60990653D01*
X166631706Y-60914317D01*
X166435579Y-60895000D01*
X166370000Y-60888541D01*
X166304421Y-60895000D01*
X126934421Y-60895000D01*
X126924268Y-60896000D01*
X126868612Y-60896000D01*
X126814025Y-60906858D01*
X126738294Y-60914317D01*
X126665472Y-60936407D01*
X126610886Y-60947265D01*
X126559469Y-60968563D01*
X126486646Y-60990653D01*
X126419535Y-61026525D01*
X126368114Y-61047824D01*
X126321833Y-61078748D01*
X126254725Y-61114618D01*
X126195905Y-61162890D01*
X126149624Y-61193814D01*
X126110266Y-61233172D01*
X126051445Y-61281445D01*
X126003172Y-61340266D01*
X125963814Y-61379624D01*
X125932890Y-61425905D01*
X125884618Y-61484725D01*
X125848748Y-61551833D01*
X125817824Y-61598114D01*
X125796525Y-61649535D01*
X125760653Y-61716646D01*
X125738563Y-61789469D01*
X125717265Y-61840886D01*
X125706407Y-61895472D01*
X125684317Y-61968294D01*
X125676858Y-62044025D01*
X125666000Y-62098612D01*
X125666000Y-62154268D01*
X125658541Y-62230000D01*
X125666000Y-62305732D01*
X125666000Y-62361388D01*
X125676858Y-62415975D01*
X125684317Y-62491706D01*
X125706407Y-62564528D01*
X125717265Y-62619114D01*
X125738563Y-62670531D01*
X125760653Y-62743354D01*
X125796525Y-62810465D01*
X125817824Y-62861886D01*
X125848748Y-62908167D01*
X125884618Y-62975275D01*
X125932890Y-63034095D01*
X125963814Y-63080376D01*
X126003172Y-63119734D01*
X126051445Y-63178555D01*
X126110266Y-63226828D01*
X126149624Y-63266186D01*
X126195905Y-63297110D01*
X126254725Y-63345382D01*
X126321833Y-63381252D01*
X126368114Y-63412176D01*
X126418214Y-63432928D01*
X126301000Y-63432928D01*
X126176518Y-63445188D01*
X126056820Y-63481498D01*
X125946506Y-63540463D01*
X125849815Y-63619815D01*
X125770463Y-63716506D01*
X125711498Y-63826820D01*
X125675188Y-63946518D01*
X125662928Y-64071000D01*
X125662928Y-64725458D01*
X125658541Y-64770000D01*
X125662928Y-64814542D01*
X125662928Y-65469000D01*
X125675188Y-65593482D01*
X125711498Y-65713180D01*
X125770463Y-65823494D01*
X125849815Y-65920185D01*
X125946506Y-65999537D01*
X126056820Y-66058502D01*
X126176518Y-66094812D01*
X126301000Y-66107072D01*
X127699000Y-66107072D01*
X127720038Y-66105000D01*
X153117026Y-66105000D01*
X154174928Y-67162903D01*
X154174928Y-73685400D01*
X154187188Y-73809882D01*
X154223498Y-73929580D01*
X154282463Y-74039894D01*
X154325061Y-74091800D01*
X154282463Y-74143706D01*
X154223498Y-74254020D01*
X154187188Y-74373718D01*
X154174928Y-74498200D01*
X154174928Y-76174600D01*
X154187188Y-76299082D01*
X154223498Y-76418780D01*
X154282463Y-76529094D01*
X154361815Y-76625785D01*
X154458506Y-76705137D01*
X154568820Y-76764102D01*
X154688518Y-76800412D01*
X154813000Y-76812672D01*
X156545000Y-76812672D01*
X156545001Y-81040473D01*
X156515150Y-81049528D01*
X156361614Y-81131595D01*
X156227038Y-81242038D01*
X156116595Y-81376614D01*
X156034528Y-81530150D01*
X156021681Y-81572500D01*
X154368072Y-81572500D01*
X154368072Y-80670000D01*
X154355812Y-80545518D01*
X154319502Y-80425820D01*
X154260537Y-80315506D01*
X154181185Y-80218815D01*
X154084494Y-80139463D01*
X153974180Y-80080498D01*
X153939573Y-80070000D01*
X153974180Y-80059502D01*
X154084494Y-80000537D01*
X154181185Y-79921185D01*
X154260537Y-79824494D01*
X154319502Y-79714180D01*
X154355812Y-79594482D01*
X154368072Y-79470000D01*
X154368072Y-78170000D01*
X154355812Y-78045518D01*
X154319502Y-77925820D01*
X154260537Y-77815506D01*
X154181185Y-77718815D01*
X154084494Y-77639463D01*
X153974180Y-77580498D01*
X153854482Y-77544188D01*
X153730000Y-77531928D01*
X151257000Y-77531928D01*
X151257000Y-76200000D01*
X151254560Y-76175224D01*
X151247333Y-76151399D01*
X151235597Y-76129443D01*
X151219803Y-76110197D01*
X149949803Y-74840197D01*
X149930557Y-74824403D01*
X149908601Y-74812667D01*
X149884776Y-74805440D01*
X149860000Y-74803000D01*
X116230000Y-74803000D01*
X116230000Y-71346994D01*
X120602611Y-71346994D01*
X120759525Y-71663322D01*
X121135585Y-71854877D01*
X121541790Y-71969386D01*
X121962528Y-72002447D01*
X122381633Y-71952792D01*
X122782997Y-71822327D01*
X123080475Y-71663322D01*
X123237389Y-71346994D01*
X121920000Y-70029605D01*
X120602611Y-71346994D01*
X116230000Y-71346994D01*
X116230000Y-69892528D01*
X119767553Y-69892528D01*
X119817208Y-70311633D01*
X119947673Y-70712997D01*
X120106678Y-71010475D01*
X120423006Y-71167389D01*
X121740395Y-69850000D01*
X122099605Y-69850000D01*
X123416994Y-71167389D01*
X123733322Y-71010475D01*
X123924877Y-70634415D01*
X124039386Y-70228210D01*
X124072447Y-69807472D01*
X124022792Y-69388367D01*
X123892327Y-68987003D01*
X123733322Y-68689525D01*
X123416994Y-68532611D01*
X122099605Y-69850000D01*
X121740395Y-69850000D01*
X120423006Y-68532611D01*
X120106678Y-68689525D01*
X119915123Y-69065585D01*
X119800614Y-69471790D01*
X119767553Y-69892528D01*
X116230000Y-69892528D01*
X116230000Y-68353006D01*
X120602611Y-68353006D01*
X121920000Y-69670395D01*
X123237389Y-68353006D01*
X123080475Y-68036678D01*
X122704415Y-67845123D01*
X122298210Y-67730614D01*
X121877472Y-67697553D01*
X121458367Y-67747208D01*
X121057003Y-67877673D01*
X120759525Y-68036678D01*
X120602611Y-68353006D01*
X116230000Y-68353006D01*
X116230000Y-61186994D01*
X120602611Y-61186994D01*
X120759525Y-61503322D01*
X121135585Y-61694877D01*
X121541790Y-61809386D01*
X121962528Y-61842447D01*
X122381633Y-61792792D01*
X122782997Y-61662327D01*
X123080475Y-61503322D01*
X123237389Y-61186994D01*
X121920000Y-59869605D01*
X120602611Y-61186994D01*
X116230000Y-61186994D01*
X116230000Y-59732528D01*
X119767553Y-59732528D01*
X119817208Y-60151633D01*
X119947673Y-60552997D01*
X120106678Y-60850475D01*
X120423006Y-61007389D01*
X121740395Y-59690000D01*
X122099605Y-59690000D01*
X123416994Y-61007389D01*
X123733322Y-60850475D01*
X123924877Y-60474415D01*
X124039386Y-60068210D01*
X124072447Y-59647472D01*
X124022792Y-59228367D01*
X123892327Y-58827003D01*
X123733322Y-58529525D01*
X123416994Y-58372611D01*
X122099605Y-59690000D01*
X121740395Y-59690000D01*
X120423006Y-58372611D01*
X120106678Y-58529525D01*
X119915123Y-58905585D01*
X119800614Y-59311790D01*
X119767553Y-59732528D01*
X116230000Y-59732528D01*
X116230000Y-58193006D01*
X120602611Y-58193006D01*
X121920000Y-59510395D01*
X123237389Y-58193006D01*
X123080475Y-57876678D01*
X122704415Y-57685123D01*
X122298210Y-57570614D01*
X121877472Y-57537553D01*
X121458367Y-57587208D01*
X121057003Y-57717673D01*
X120759525Y-57876678D01*
X120602611Y-58193006D01*
X116230000Y-58193006D01*
X116230000Y-51718510D01*
X116401161Y-51974670D01*
X116935330Y-52508839D01*
X117563446Y-52928533D01*
X118261372Y-53217623D01*
X119002285Y-53365000D01*
X119757715Y-53365000D01*
X120498628Y-53217623D01*
X121196554Y-52928533D01*
X121824670Y-52508839D01*
X122358839Y-51974670D01*
X122778533Y-51346554D01*
X123067623Y-50648628D01*
X123215000Y-49907715D01*
X123215000Y-49152285D01*
X123067623Y-48411372D01*
X122778533Y-47713446D01*
X122358839Y-47085330D01*
X121824670Y-46551161D01*
X121568510Y-46380000D01*
X171801490Y-46380000D01*
X171545330Y-46551161D01*
G36*
X153057328Y-109499400D02*
G01*
X153069588Y-109623882D01*
X153105898Y-109743580D01*
X153164863Y-109853894D01*
X153244215Y-109950585D01*
X153340906Y-110029937D01*
X153451220Y-110088902D01*
X153570918Y-110125212D01*
X153695400Y-110137472D01*
X155371800Y-110137472D01*
X155496282Y-110125212D01*
X155615980Y-110088902D01*
X155726294Y-110029937D01*
X155778200Y-109987339D01*
X155830106Y-110029937D01*
X155940420Y-110088902D01*
X156060118Y-110125212D01*
X156184600Y-110137472D01*
X163804600Y-110137472D01*
X163929082Y-110125212D01*
X164048780Y-110088902D01*
X164159094Y-110029937D01*
X164255785Y-109950585D01*
X164335137Y-109853894D01*
X164394102Y-109743580D01*
X164430412Y-109623882D01*
X164442672Y-109499400D01*
X164442672Y-109361200D01*
X168123229Y-109361200D01*
X168769414Y-110007386D01*
X168863212Y-110233835D01*
X169025826Y-110477203D01*
X169232794Y-110684171D01*
X169476162Y-110846785D01*
X169746579Y-110958795D01*
X170033652Y-111015897D01*
X170326348Y-111015897D01*
X170613421Y-110958795D01*
X170795902Y-110883209D01*
X170795902Y-111676788D01*
X170613421Y-111601202D01*
X170326348Y-111544100D01*
X170033652Y-111544100D01*
X169746579Y-111601202D01*
X169476162Y-111713212D01*
X169232794Y-111875826D01*
X169025826Y-112082794D01*
X168863212Y-112326162D01*
X168769414Y-112552611D01*
X166959887Y-114362139D01*
X166908946Y-114403945D01*
X166792984Y-114545246D01*
X166742118Y-114607226D01*
X166618154Y-114839146D01*
X166541817Y-115090795D01*
X166516041Y-115352500D01*
X166522501Y-115418088D01*
X166522500Y-119866893D01*
X166506928Y-120025000D01*
X166506928Y-121275000D01*
X166523992Y-121448254D01*
X166574528Y-121614850D01*
X166656595Y-121768386D01*
X166767038Y-121902962D01*
X166901614Y-122013405D01*
X167055150Y-122095472D01*
X167221746Y-122146008D01*
X167250906Y-122148880D01*
X167357501Y-122255475D01*
X167357500Y-123676892D01*
X167341928Y-123835000D01*
X167341928Y-123922597D01*
X161829526Y-129435000D01*
X161723426Y-129435000D01*
X161801185Y-129371185D01*
X161880537Y-129274494D01*
X161939502Y-129164180D01*
X161975812Y-129044482D01*
X161988072Y-128920000D01*
X161988072Y-127620000D01*
X161975812Y-127495518D01*
X161939502Y-127375820D01*
X161880537Y-127265506D01*
X161801185Y-127168815D01*
X161704494Y-127089463D01*
X161704313Y-127089366D01*
X161741708Y-127085683D01*
X161993356Y-127009347D01*
X162225277Y-126885382D01*
X162428557Y-126718555D01*
X162470368Y-126667608D01*
X165780120Y-123357858D01*
X165831055Y-123316057D01*
X165874774Y-123262786D01*
X165997882Y-123112777D01*
X165997883Y-123112776D01*
X166121847Y-122880856D01*
X166198183Y-122629208D01*
X166217500Y-122433081D01*
X166217500Y-122433080D01*
X166223959Y-122367502D01*
X166217500Y-122301923D01*
X166217500Y-121433105D01*
X166233072Y-121275000D01*
X166233072Y-120025000D01*
X166217500Y-119866895D01*
X166217500Y-117123079D01*
X166223959Y-117057500D01*
X166198183Y-116795795D01*
X166198183Y-116795794D01*
X166121847Y-116544146D01*
X165997882Y-116312225D01*
X165937849Y-116239074D01*
X165872859Y-116159883D01*
X165872857Y-116159881D01*
X165831055Y-116108945D01*
X165780119Y-116067143D01*
X164442672Y-114729698D01*
X164442672Y-114020600D01*
X164430412Y-113896118D01*
X164394102Y-113776420D01*
X164335137Y-113666106D01*
X164255785Y-113569415D01*
X164159094Y-113490063D01*
X164048780Y-113431098D01*
X163929082Y-113394788D01*
X163804600Y-113382528D01*
X156184600Y-113382528D01*
X156060118Y-113394788D01*
X155940420Y-113431098D01*
X155830106Y-113490063D01*
X155778200Y-113532661D01*
X155726294Y-113490063D01*
X155615980Y-113431098D01*
X155496282Y-113394788D01*
X155371800Y-113382528D01*
X154074817Y-113382528D01*
X149577289Y-108885000D01*
X153057328Y-108885000D01*
X153057328Y-109499400D01*
G37*
X153057328Y-109499400D02*
X153069588Y-109623882D01*
X153105898Y-109743580D01*
X153164863Y-109853894D01*
X153244215Y-109950585D01*
X153340906Y-110029937D01*
X153451220Y-110088902D01*
X153570918Y-110125212D01*
X153695400Y-110137472D01*
X155371800Y-110137472D01*
X155496282Y-110125212D01*
X155615980Y-110088902D01*
X155726294Y-110029937D01*
X155778200Y-109987339D01*
X155830106Y-110029937D01*
X155940420Y-110088902D01*
X156060118Y-110125212D01*
X156184600Y-110137472D01*
X163804600Y-110137472D01*
X163929082Y-110125212D01*
X164048780Y-110088902D01*
X164159094Y-110029937D01*
X164255785Y-109950585D01*
X164335137Y-109853894D01*
X164394102Y-109743580D01*
X164430412Y-109623882D01*
X164442672Y-109499400D01*
X164442672Y-109361200D01*
X168123229Y-109361200D01*
X168769414Y-110007386D01*
X168863212Y-110233835D01*
X169025826Y-110477203D01*
X169232794Y-110684171D01*
X169476162Y-110846785D01*
X169746579Y-110958795D01*
X170033652Y-111015897D01*
X170326348Y-111015897D01*
X170613421Y-110958795D01*
X170795902Y-110883209D01*
X170795902Y-111676788D01*
X170613421Y-111601202D01*
X170326348Y-111544100D01*
X170033652Y-111544100D01*
X169746579Y-111601202D01*
X169476162Y-111713212D01*
X169232794Y-111875826D01*
X169025826Y-112082794D01*
X168863212Y-112326162D01*
X168769414Y-112552611D01*
X166959887Y-114362139D01*
X166908946Y-114403945D01*
X166792984Y-114545246D01*
X166742118Y-114607226D01*
X166618154Y-114839146D01*
X166541817Y-115090795D01*
X166516041Y-115352500D01*
X166522501Y-115418088D01*
X166522500Y-119866893D01*
X166506928Y-120025000D01*
X166506928Y-121275000D01*
X166523992Y-121448254D01*
X166574528Y-121614850D01*
X166656595Y-121768386D01*
X166767038Y-121902962D01*
X166901614Y-122013405D01*
X167055150Y-122095472D01*
X167221746Y-122146008D01*
X167250906Y-122148880D01*
X167357501Y-122255475D01*
X167357500Y-123676892D01*
X167341928Y-123835000D01*
X167341928Y-123922597D01*
X161829526Y-129435000D01*
X161723426Y-129435000D01*
X161801185Y-129371185D01*
X161880537Y-129274494D01*
X161939502Y-129164180D01*
X161975812Y-129044482D01*
X161988072Y-128920000D01*
X161988072Y-127620000D01*
X161975812Y-127495518D01*
X161939502Y-127375820D01*
X161880537Y-127265506D01*
X161801185Y-127168815D01*
X161704494Y-127089463D01*
X161704313Y-127089366D01*
X161741708Y-127085683D01*
X161993356Y-127009347D01*
X162225277Y-126885382D01*
X162428557Y-126718555D01*
X162470368Y-126667608D01*
X165780120Y-123357858D01*
X165831055Y-123316057D01*
X165874774Y-123262786D01*
X165997882Y-123112777D01*
X165997883Y-123112776D01*
X166121847Y-122880856D01*
X166198183Y-122629208D01*
X166217500Y-122433081D01*
X166217500Y-122433080D01*
X166223959Y-122367502D01*
X166217500Y-122301923D01*
X166217500Y-121433105D01*
X166233072Y-121275000D01*
X166233072Y-120025000D01*
X166217500Y-119866895D01*
X166217500Y-117123079D01*
X166223959Y-117057500D01*
X166198183Y-116795795D01*
X166198183Y-116795794D01*
X166121847Y-116544146D01*
X165997882Y-116312225D01*
X165937849Y-116239074D01*
X165872859Y-116159883D01*
X165872857Y-116159881D01*
X165831055Y-116108945D01*
X165780119Y-116067143D01*
X164442672Y-114729698D01*
X164442672Y-114020600D01*
X164430412Y-113896118D01*
X164394102Y-113776420D01*
X164335137Y-113666106D01*
X164255785Y-113569415D01*
X164159094Y-113490063D01*
X164048780Y-113431098D01*
X163929082Y-113394788D01*
X163804600Y-113382528D01*
X156184600Y-113382528D01*
X156060118Y-113394788D01*
X155940420Y-113431098D01*
X155830106Y-113490063D01*
X155778200Y-113532661D01*
X155726294Y-113490063D01*
X155615980Y-113431098D01*
X155496282Y-113394788D01*
X155371800Y-113382528D01*
X154074817Y-113382528D01*
X149577289Y-108885000D01*
X153057328Y-108885000D01*
X153057328Y-109499400D01*
G36*
X155830106Y-117497537D02*
G01*
X155940420Y-117556502D01*
X156060118Y-117592812D01*
X156184600Y-117605072D01*
X163542097Y-117605072D01*
X163547501Y-117610476D01*
X163547501Y-117826915D01*
X163547500Y-117826921D01*
X163547500Y-119866895D01*
X163531928Y-120025000D01*
X163531928Y-121275000D01*
X163547500Y-121433105D01*
X163547500Y-121814526D01*
X161988072Y-123373955D01*
X161988072Y-122620000D01*
X161975812Y-122495518D01*
X161939502Y-122375820D01*
X161880537Y-122265506D01*
X161801185Y-122168815D01*
X161704494Y-122089463D01*
X161594180Y-122030498D01*
X161474482Y-121994188D01*
X161350000Y-121981928D01*
X158877000Y-121981928D01*
X158877000Y-120650000D01*
X158874560Y-120625224D01*
X158867333Y-120601399D01*
X158855597Y-120579443D01*
X158833630Y-120554423D01*
X155453722Y-117597004D01*
X155496282Y-117592812D01*
X155615980Y-117556502D01*
X155726294Y-117497537D01*
X155778200Y-117454939D01*
X155830106Y-117497537D01*
G37*
X155830106Y-117497537D02*
X155940420Y-117556502D01*
X156060118Y-117592812D01*
X156184600Y-117605072D01*
X163542097Y-117605072D01*
X163547501Y-117610476D01*
X163547501Y-117826915D01*
X163547500Y-117826921D01*
X163547500Y-119866895D01*
X163531928Y-120025000D01*
X163531928Y-121275000D01*
X163547500Y-121433105D01*
X163547500Y-121814526D01*
X161988072Y-123373955D01*
X161988072Y-122620000D01*
X161975812Y-122495518D01*
X161939502Y-122375820D01*
X161880537Y-122265506D01*
X161801185Y-122168815D01*
X161704494Y-122089463D01*
X161594180Y-122030498D01*
X161474482Y-121994188D01*
X161350000Y-121981928D01*
X158877000Y-121981928D01*
X158877000Y-120650000D01*
X158874560Y-120625224D01*
X158867333Y-120601399D01*
X158855597Y-120579443D01*
X158833630Y-120554423D01*
X155453722Y-117597004D01*
X155496282Y-117592812D01*
X155615980Y-117556502D01*
X155726294Y-117497537D01*
X155778200Y-117454939D01*
X155830106Y-117497537D01*
G36*
X138343646Y-102963252D02*
G01*
X140880197Y-105499803D01*
X140899443Y-105515597D01*
X140921399Y-105527333D01*
X140945224Y-105534560D01*
X140970000Y-105537000D01*
X168772122Y-105537000D01*
X168703777Y-105806195D01*
X168688481Y-106098492D01*
X168730503Y-106388157D01*
X168828229Y-106664058D01*
X168848347Y-106701696D01*
X168741782Y-106691200D01*
X168676203Y-106684741D01*
X168610624Y-106691200D01*
X164442672Y-106691200D01*
X164442672Y-106553000D01*
X164430412Y-106428518D01*
X164394102Y-106308820D01*
X164335137Y-106198506D01*
X164255785Y-106101815D01*
X164159094Y-106022463D01*
X164048780Y-105963498D01*
X163929082Y-105927188D01*
X163804600Y-105914928D01*
X156184600Y-105914928D01*
X156060118Y-105927188D01*
X155940420Y-105963498D01*
X155830106Y-106022463D01*
X155778200Y-106065061D01*
X155726294Y-106022463D01*
X155615980Y-105963498D01*
X155496282Y-105927188D01*
X155371800Y-105914928D01*
X153695400Y-105914928D01*
X153570918Y-105927188D01*
X153451220Y-105963498D01*
X153340906Y-106022463D01*
X153244215Y-106101815D01*
X153164863Y-106198506D01*
X153105898Y-106308820D01*
X153069588Y-106428518D01*
X153057328Y-106553000D01*
X153057328Y-107015000D01*
X135007290Y-107015000D01*
X128334000Y-100341711D01*
X128334000Y-100198612D01*
X128282735Y-99940886D01*
X128182176Y-99698114D01*
X128036186Y-99479624D01*
X127850376Y-99293814D01*
X127631886Y-99147824D01*
X127389114Y-99047265D01*
X127131388Y-98996000D01*
X126868612Y-98996000D01*
X126610886Y-99047265D01*
X126368114Y-99147824D01*
X126149624Y-99293814D01*
X125963814Y-99479624D01*
X125817824Y-99698114D01*
X125717265Y-99940886D01*
X125666000Y-100198612D01*
X125666000Y-100461388D01*
X125717265Y-100719114D01*
X125817824Y-100961886D01*
X125963814Y-101180376D01*
X126149624Y-101366186D01*
X126368114Y-101512176D01*
X126418214Y-101532928D01*
X126301000Y-101532928D01*
X126176518Y-101545188D01*
X126056820Y-101581498D01*
X125946506Y-101640463D01*
X125849815Y-101719815D01*
X125770463Y-101816506D01*
X125711498Y-101926820D01*
X125675188Y-102046518D01*
X125662928Y-102171000D01*
X125662928Y-103569000D01*
X125675188Y-103693482D01*
X125711498Y-103813180D01*
X125770463Y-103923494D01*
X125849815Y-104020185D01*
X125946506Y-104099537D01*
X126056820Y-104158502D01*
X126176518Y-104194812D01*
X126301000Y-104207072D01*
X127014783Y-104207072D01*
X132656375Y-109848665D01*
X132685656Y-109884344D01*
X132828028Y-110001186D01*
X132990460Y-110088007D01*
X133113109Y-110125212D01*
X133166707Y-110141471D01*
X133349999Y-110159524D01*
X133395931Y-110155000D01*
X148202711Y-110155000D01*
X153057328Y-115009617D01*
X153057328Y-115500159D01*
X148673630Y-111664423D01*
X148653377Y-111649944D01*
X148630688Y-111639694D01*
X148606436Y-111634068D01*
X148590000Y-111633000D01*
X116230000Y-111633000D01*
X116230000Y-109446994D01*
X120602611Y-109446994D01*
X120759525Y-109763322D01*
X121135585Y-109954877D01*
X121541790Y-110069386D01*
X121962528Y-110102447D01*
X122381633Y-110052792D01*
X122782997Y-109922327D01*
X123080475Y-109763322D01*
X123237389Y-109446994D01*
X121920000Y-108129605D01*
X120602611Y-109446994D01*
X116230000Y-109446994D01*
X116230000Y-107992528D01*
X119767553Y-107992528D01*
X119817208Y-108411633D01*
X119947673Y-108812997D01*
X120106678Y-109110475D01*
X120423006Y-109267389D01*
X121740395Y-107950000D01*
X122099605Y-107950000D01*
X123416994Y-109267389D01*
X123733322Y-109110475D01*
X123924877Y-108734415D01*
X124039386Y-108328210D01*
X124072447Y-107907472D01*
X124022792Y-107488367D01*
X123892327Y-107087003D01*
X123733322Y-106789525D01*
X123416994Y-106632611D01*
X122099605Y-107950000D01*
X121740395Y-107950000D01*
X120423006Y-106632611D01*
X120106678Y-106789525D01*
X119915123Y-107165585D01*
X119800614Y-107571790D01*
X119767553Y-107992528D01*
X116230000Y-107992528D01*
X116230000Y-106453006D01*
X120602611Y-106453006D01*
X121920000Y-107770395D01*
X123237389Y-106453006D01*
X123080475Y-106136678D01*
X122704415Y-105945123D01*
X122298210Y-105830614D01*
X121877472Y-105797553D01*
X121458367Y-105847208D01*
X121057003Y-105977673D01*
X120759525Y-106136678D01*
X120602611Y-106453006D01*
X116230000Y-106453006D01*
X116230000Y-99286994D01*
X120602611Y-99286994D01*
X120759525Y-99603322D01*
X121135585Y-99794877D01*
X121541790Y-99909386D01*
X121962528Y-99942447D01*
X122381633Y-99892792D01*
X122782997Y-99762327D01*
X123080475Y-99603322D01*
X123237389Y-99286994D01*
X121920000Y-97969605D01*
X120602611Y-99286994D01*
X116230000Y-99286994D01*
X116230000Y-97832528D01*
X119767553Y-97832528D01*
X119817208Y-98251633D01*
X119947673Y-98652997D01*
X120106678Y-98950475D01*
X120423006Y-99107389D01*
X121740395Y-97790000D01*
X122099605Y-97790000D01*
X123416994Y-99107389D01*
X123733322Y-98950475D01*
X123924877Y-98574415D01*
X124039386Y-98168210D01*
X124072447Y-97747472D01*
X124022792Y-97328367D01*
X123892327Y-96927003D01*
X123733322Y-96629525D01*
X123416994Y-96472611D01*
X122099605Y-97790000D01*
X121740395Y-97790000D01*
X120423006Y-96472611D01*
X120106678Y-96629525D01*
X119915123Y-97005585D01*
X119800614Y-97411790D01*
X119767553Y-97832528D01*
X116230000Y-97832528D01*
X116230000Y-96293006D01*
X120602611Y-96293006D01*
X121920000Y-97610395D01*
X123237389Y-96293006D01*
X123080475Y-95976678D01*
X122704415Y-95785123D01*
X122298210Y-95670614D01*
X121877472Y-95637553D01*
X121458367Y-95687208D01*
X121057003Y-95817673D01*
X120759525Y-95976678D01*
X120602611Y-96293006D01*
X116230000Y-96293006D01*
X116230000Y-95377000D01*
X129493019Y-95377000D01*
X138343646Y-102963252D01*
G37*
X138343646Y-102963252D02*
X140880197Y-105499803D01*
X140899443Y-105515597D01*
X140921399Y-105527333D01*
X140945224Y-105534560D01*
X140970000Y-105537000D01*
X168772122Y-105537000D01*
X168703777Y-105806195D01*
X168688481Y-106098492D01*
X168730503Y-106388157D01*
X168828229Y-106664058D01*
X168848347Y-106701696D01*
X168741782Y-106691200D01*
X168676203Y-106684741D01*
X168610624Y-106691200D01*
X164442672Y-106691200D01*
X164442672Y-106553000D01*
X164430412Y-106428518D01*
X164394102Y-106308820D01*
X164335137Y-106198506D01*
X164255785Y-106101815D01*
X164159094Y-106022463D01*
X164048780Y-105963498D01*
X163929082Y-105927188D01*
X163804600Y-105914928D01*
X156184600Y-105914928D01*
X156060118Y-105927188D01*
X155940420Y-105963498D01*
X155830106Y-106022463D01*
X155778200Y-106065061D01*
X155726294Y-106022463D01*
X155615980Y-105963498D01*
X155496282Y-105927188D01*
X155371800Y-105914928D01*
X153695400Y-105914928D01*
X153570918Y-105927188D01*
X153451220Y-105963498D01*
X153340906Y-106022463D01*
X153244215Y-106101815D01*
X153164863Y-106198506D01*
X153105898Y-106308820D01*
X153069588Y-106428518D01*
X153057328Y-106553000D01*
X153057328Y-107015000D01*
X135007290Y-107015000D01*
X128334000Y-100341711D01*
X128334000Y-100198612D01*
X128282735Y-99940886D01*
X128182176Y-99698114D01*
X128036186Y-99479624D01*
X127850376Y-99293814D01*
X127631886Y-99147824D01*
X127389114Y-99047265D01*
X127131388Y-98996000D01*
X126868612Y-98996000D01*
X126610886Y-99047265D01*
X126368114Y-99147824D01*
X126149624Y-99293814D01*
X125963814Y-99479624D01*
X125817824Y-99698114D01*
X125717265Y-99940886D01*
X125666000Y-100198612D01*
X125666000Y-100461388D01*
X125717265Y-100719114D01*
X125817824Y-100961886D01*
X125963814Y-101180376D01*
X126149624Y-101366186D01*
X126368114Y-101512176D01*
X126418214Y-101532928D01*
X126301000Y-101532928D01*
X126176518Y-101545188D01*
X126056820Y-101581498D01*
X125946506Y-101640463D01*
X125849815Y-101719815D01*
X125770463Y-101816506D01*
X125711498Y-101926820D01*
X125675188Y-102046518D01*
X125662928Y-102171000D01*
X125662928Y-103569000D01*
X125675188Y-103693482D01*
X125711498Y-103813180D01*
X125770463Y-103923494D01*
X125849815Y-104020185D01*
X125946506Y-104099537D01*
X126056820Y-104158502D01*
X126176518Y-104194812D01*
X126301000Y-104207072D01*
X127014783Y-104207072D01*
X132656375Y-109848665D01*
X132685656Y-109884344D01*
X132828028Y-110001186D01*
X132990460Y-110088007D01*
X133113109Y-110125212D01*
X133166707Y-110141471D01*
X133349999Y-110159524D01*
X133395931Y-110155000D01*
X148202711Y-110155000D01*
X153057328Y-115009617D01*
X153057328Y-115500159D01*
X148673630Y-111664423D01*
X148653377Y-111649944D01*
X148630688Y-111639694D01*
X148606436Y-111634068D01*
X148590000Y-111633000D01*
X116230000Y-111633000D01*
X116230000Y-109446994D01*
X120602611Y-109446994D01*
X120759525Y-109763322D01*
X121135585Y-109954877D01*
X121541790Y-110069386D01*
X121962528Y-110102447D01*
X122381633Y-110052792D01*
X122782997Y-109922327D01*
X123080475Y-109763322D01*
X123237389Y-109446994D01*
X121920000Y-108129605D01*
X120602611Y-109446994D01*
X116230000Y-109446994D01*
X116230000Y-107992528D01*
X119767553Y-107992528D01*
X119817208Y-108411633D01*
X119947673Y-108812997D01*
X120106678Y-109110475D01*
X120423006Y-109267389D01*
X121740395Y-107950000D01*
X122099605Y-107950000D01*
X123416994Y-109267389D01*
X123733322Y-109110475D01*
X123924877Y-108734415D01*
X124039386Y-108328210D01*
X124072447Y-107907472D01*
X124022792Y-107488367D01*
X123892327Y-107087003D01*
X123733322Y-106789525D01*
X123416994Y-106632611D01*
X122099605Y-107950000D01*
X121740395Y-107950000D01*
X120423006Y-106632611D01*
X120106678Y-106789525D01*
X119915123Y-107165585D01*
X119800614Y-107571790D01*
X119767553Y-107992528D01*
X116230000Y-107992528D01*
X116230000Y-106453006D01*
X120602611Y-106453006D01*
X121920000Y-107770395D01*
X123237389Y-106453006D01*
X123080475Y-106136678D01*
X122704415Y-105945123D01*
X122298210Y-105830614D01*
X121877472Y-105797553D01*
X121458367Y-105847208D01*
X121057003Y-105977673D01*
X120759525Y-106136678D01*
X120602611Y-106453006D01*
X116230000Y-106453006D01*
X116230000Y-99286994D01*
X120602611Y-99286994D01*
X120759525Y-99603322D01*
X121135585Y-99794877D01*
X121541790Y-99909386D01*
X121962528Y-99942447D01*
X122381633Y-99892792D01*
X122782997Y-99762327D01*
X123080475Y-99603322D01*
X123237389Y-99286994D01*
X121920000Y-97969605D01*
X120602611Y-99286994D01*
X116230000Y-99286994D01*
X116230000Y-97832528D01*
X119767553Y-97832528D01*
X119817208Y-98251633D01*
X119947673Y-98652997D01*
X120106678Y-98950475D01*
X120423006Y-99107389D01*
X121740395Y-97790000D01*
X122099605Y-97790000D01*
X123416994Y-99107389D01*
X123733322Y-98950475D01*
X123924877Y-98574415D01*
X124039386Y-98168210D01*
X124072447Y-97747472D01*
X124022792Y-97328367D01*
X123892327Y-96927003D01*
X123733322Y-96629525D01*
X123416994Y-96472611D01*
X122099605Y-97790000D01*
X121740395Y-97790000D01*
X120423006Y-96472611D01*
X120106678Y-96629525D01*
X119915123Y-97005585D01*
X119800614Y-97411790D01*
X119767553Y-97832528D01*
X116230000Y-97832528D01*
X116230000Y-96293006D01*
X120602611Y-96293006D01*
X121920000Y-97610395D01*
X123237389Y-96293006D01*
X123080475Y-95976678D01*
X122704415Y-95785123D01*
X122298210Y-95670614D01*
X121877472Y-95637553D01*
X121458367Y-95687208D01*
X121057003Y-95817673D01*
X120759525Y-95976678D01*
X120602611Y-96293006D01*
X116230000Y-96293006D01*
X116230000Y-95377000D01*
X129493019Y-95377000D01*
X138343646Y-102963252D01*
G36*
X170373748Y-106015854D02*
G01*
X170359605Y-106029996D01*
X170373748Y-106044139D01*
X170194143Y-106223744D01*
X170180000Y-106209601D01*
X170165858Y-106223744D01*
X169986253Y-106044139D01*
X170000395Y-106029996D01*
X169986253Y-106015854D01*
X170165858Y-105836249D01*
X170180000Y-105850391D01*
X170194143Y-105836249D01*
X170373748Y-106015854D01*
G37*
X170373748Y-106015854D02*
X170359605Y-106029996D01*
X170373748Y-106044139D01*
X170194143Y-106223744D01*
X170180000Y-106209601D01*
X170165858Y-106223744D01*
X169986253Y-106044139D01*
X170000395Y-106029996D01*
X169986253Y-106015854D01*
X170165858Y-105836249D01*
X170180000Y-105850391D01*
X170194143Y-105836249D01*
X170373748Y-106015854D01*
G36*
X170795901Y-68543876D02*
G01*
X170795901Y-71117926D01*
X168655766Y-68977792D01*
X168613955Y-68926845D01*
X168410675Y-68760018D01*
X168178754Y-68636053D01*
X167927106Y-68559717D01*
X167730979Y-68540400D01*
X167665400Y-68533941D01*
X167599821Y-68540400D01*
X165865072Y-68540400D01*
X165865072Y-66065400D01*
X165852812Y-65940918D01*
X165816502Y-65821220D01*
X165757537Y-65710906D01*
X165678185Y-65614215D01*
X165581494Y-65534863D01*
X165471180Y-65475898D01*
X165351482Y-65439588D01*
X165227000Y-65427328D01*
X162280600Y-65427328D01*
X162156118Y-65439588D01*
X162036420Y-65475898D01*
X161926106Y-65534863D01*
X161829415Y-65614215D01*
X161750063Y-65710906D01*
X161691098Y-65821220D01*
X161654788Y-65940918D01*
X161642528Y-66065400D01*
X161642528Y-73685400D01*
X161654788Y-73809882D01*
X161691098Y-73929580D01*
X161750063Y-74039894D01*
X161792661Y-74091800D01*
X161750063Y-74143706D01*
X161691098Y-74254020D01*
X161654788Y-74373718D01*
X161642528Y-74498200D01*
X161642528Y-76174600D01*
X161654788Y-76299082D01*
X161691098Y-76418780D01*
X161750063Y-76529094D01*
X161829415Y-76625785D01*
X161926106Y-76705137D01*
X162036420Y-76764102D01*
X162156118Y-76800412D01*
X162280600Y-76812672D01*
X162818800Y-76812672D01*
X162818801Y-79481409D01*
X161318283Y-80981928D01*
X160665000Y-80981928D01*
X160491746Y-80998992D01*
X160325150Y-81049528D01*
X160171614Y-81131595D01*
X160037038Y-81242038D01*
X159926595Y-81376614D01*
X159844528Y-81530150D01*
X159793992Y-81696746D01*
X159776928Y-81870000D01*
X159776928Y-82795000D01*
X159793992Y-82968254D01*
X159844528Y-83134850D01*
X159926595Y-83288386D01*
X160037038Y-83422962D01*
X160171614Y-83533405D01*
X160325150Y-83615472D01*
X160491746Y-83666008D01*
X160665000Y-83683072D01*
X161915000Y-83683072D01*
X162088254Y-83666008D01*
X162254850Y-83615472D01*
X162408386Y-83533405D01*
X162542962Y-83422962D01*
X162653405Y-83288386D01*
X162735472Y-83134850D01*
X162786008Y-82968254D01*
X162803072Y-82795000D01*
X162803072Y-82141717D01*
X164382464Y-80562326D01*
X164418144Y-80533044D01*
X164534986Y-80390672D01*
X164621807Y-80228240D01*
X164675271Y-80051992D01*
X164688800Y-79914632D01*
X164693324Y-79868701D01*
X164688800Y-79822769D01*
X164688800Y-76812672D01*
X165227000Y-76812672D01*
X165351482Y-76800412D01*
X165471180Y-76764102D01*
X165581494Y-76705137D01*
X165678185Y-76625785D01*
X165757537Y-76529094D01*
X165816502Y-76418780D01*
X165852812Y-76299082D01*
X165865072Y-76174600D01*
X165865072Y-74498200D01*
X165852812Y-74373718D01*
X165816502Y-74254020D01*
X165757537Y-74143706D01*
X165714939Y-74091800D01*
X165757537Y-74039894D01*
X165816502Y-73929580D01*
X165852812Y-73809882D01*
X165865072Y-73685400D01*
X165865072Y-71210400D01*
X167112426Y-71210400D01*
X168845000Y-72942975D01*
X168845001Y-94870121D01*
X168751202Y-95096573D01*
X168694100Y-95383646D01*
X168694100Y-95676342D01*
X168751202Y-95963415D01*
X168863212Y-96233832D01*
X169025826Y-96477200D01*
X169232794Y-96684168D01*
X169476162Y-96846782D01*
X169746579Y-96958792D01*
X170033652Y-97015894D01*
X170306126Y-97015894D01*
X169702612Y-97619409D01*
X169476162Y-97713207D01*
X169232794Y-97875821D01*
X169025826Y-98082789D01*
X168997017Y-98125905D01*
X165817994Y-95788388D01*
X165189803Y-95160197D01*
X165170557Y-95144403D01*
X165148601Y-95132667D01*
X165124776Y-95125440D01*
X165100000Y-95123000D01*
X157524548Y-95123000D01*
X151257000Y-90108961D01*
X151257000Y-90108072D01*
X153730000Y-90108072D01*
X153854482Y-90095812D01*
X153974180Y-90059502D01*
X154084494Y-90000537D01*
X154181185Y-89921185D01*
X154260537Y-89824494D01*
X154319502Y-89714180D01*
X154355812Y-89594482D01*
X154368072Y-89470000D01*
X154368072Y-88170000D01*
X154355812Y-88045518D01*
X154319502Y-87925820D01*
X154260537Y-87815506D01*
X154181185Y-87718815D01*
X154084494Y-87639463D01*
X153974180Y-87580498D01*
X153939573Y-87570000D01*
X153974180Y-87559502D01*
X154084494Y-87500537D01*
X154181185Y-87421185D01*
X154260537Y-87324494D01*
X154319502Y-87214180D01*
X154355812Y-87094482D01*
X154368072Y-86970000D01*
X154368072Y-86067500D01*
X156021681Y-86067500D01*
X156034528Y-86109850D01*
X156116595Y-86263386D01*
X156227038Y-86397962D01*
X156361614Y-86508405D01*
X156515150Y-86590472D01*
X156681746Y-86641008D01*
X156855000Y-86658072D01*
X158105000Y-86658072D01*
X158278254Y-86641008D01*
X158444850Y-86590472D01*
X158598386Y-86508405D01*
X158732962Y-86397962D01*
X158843405Y-86263386D01*
X158925472Y-86109850D01*
X158938319Y-86067500D01*
X159831681Y-86067500D01*
X159844528Y-86109850D01*
X159926595Y-86263386D01*
X160037038Y-86397962D01*
X160171614Y-86508405D01*
X160325150Y-86590472D01*
X160491746Y-86641008D01*
X160665000Y-86658072D01*
X161915000Y-86658072D01*
X162088254Y-86641008D01*
X162254850Y-86590472D01*
X162408386Y-86508405D01*
X162542962Y-86397962D01*
X162653405Y-86263386D01*
X162735472Y-86109850D01*
X162786008Y-85943254D01*
X162803072Y-85770000D01*
X162803072Y-84845000D01*
X162786008Y-84671746D01*
X162735472Y-84505150D01*
X162653405Y-84351614D01*
X162542962Y-84217038D01*
X162408386Y-84106595D01*
X162254850Y-84024528D01*
X162088254Y-83973992D01*
X161915000Y-83956928D01*
X160665000Y-83956928D01*
X160491746Y-83973992D01*
X160325150Y-84024528D01*
X160171614Y-84106595D01*
X160037038Y-84217038D01*
X159926595Y-84351614D01*
X159844528Y-84505150D01*
X159831681Y-84547500D01*
X158938319Y-84547500D01*
X158925472Y-84505150D01*
X158843405Y-84351614D01*
X158732962Y-84217038D01*
X158598386Y-84106595D01*
X158444850Y-84024528D01*
X158278254Y-83973992D01*
X158105000Y-83956928D01*
X156855000Y-83956928D01*
X156681746Y-83973992D01*
X156515150Y-84024528D01*
X156361614Y-84106595D01*
X156227038Y-84217038D01*
X156116595Y-84351614D01*
X156034528Y-84505150D01*
X156021681Y-84547500D01*
X154360439Y-84547500D01*
X154368072Y-84470000D01*
X154368072Y-83170000D01*
X154360439Y-83092500D01*
X156021681Y-83092500D01*
X156034528Y-83134850D01*
X156116595Y-83288386D01*
X156227038Y-83422962D01*
X156361614Y-83533405D01*
X156515150Y-83615472D01*
X156681746Y-83666008D01*
X156855000Y-83683072D01*
X158105000Y-83683072D01*
X158278254Y-83666008D01*
X158444850Y-83615472D01*
X158598386Y-83533405D01*
X158732962Y-83422962D01*
X158843405Y-83288386D01*
X158925472Y-83134850D01*
X158976008Y-82968254D01*
X158993072Y-82795000D01*
X158993072Y-81870000D01*
X158976008Y-81696746D01*
X158925472Y-81530150D01*
X158843405Y-81376614D01*
X158732962Y-81242038D01*
X158598386Y-81131595D01*
X158444850Y-81049528D01*
X158415000Y-81040473D01*
X158415000Y-76245932D01*
X158419524Y-76200000D01*
X158401471Y-76016708D01*
X158397472Y-76003525D01*
X158397472Y-74498200D01*
X158385212Y-74373718D01*
X158348902Y-74254020D01*
X158289937Y-74143706D01*
X158247339Y-74091800D01*
X158289937Y-74039894D01*
X158348902Y-73929580D01*
X158385212Y-73809882D01*
X158397472Y-73685400D01*
X158397472Y-66065400D01*
X158385212Y-65940918D01*
X158348902Y-65821220D01*
X158289937Y-65710906D01*
X158210585Y-65614215D01*
X158113894Y-65534863D01*
X158003580Y-65475898D01*
X157883882Y-65439588D01*
X157759400Y-65427328D01*
X156215303Y-65427328D01*
X154660366Y-63872392D01*
X154618555Y-63821445D01*
X154415275Y-63654618D01*
X154247612Y-63565000D01*
X165817026Y-63565000D01*
X170795901Y-68543876D01*
G37*
X170795901Y-68543876D02*
X170795901Y-71117926D01*
X168655766Y-68977792D01*
X168613955Y-68926845D01*
X168410675Y-68760018D01*
X168178754Y-68636053D01*
X167927106Y-68559717D01*
X167730979Y-68540400D01*
X167665400Y-68533941D01*
X167599821Y-68540400D01*
X165865072Y-68540400D01*
X165865072Y-66065400D01*
X165852812Y-65940918D01*
X165816502Y-65821220D01*
X165757537Y-65710906D01*
X165678185Y-65614215D01*
X165581494Y-65534863D01*
X165471180Y-65475898D01*
X165351482Y-65439588D01*
X165227000Y-65427328D01*
X162280600Y-65427328D01*
X162156118Y-65439588D01*
X162036420Y-65475898D01*
X161926106Y-65534863D01*
X161829415Y-65614215D01*
X161750063Y-65710906D01*
X161691098Y-65821220D01*
X161654788Y-65940918D01*
X161642528Y-66065400D01*
X161642528Y-73685400D01*
X161654788Y-73809882D01*
X161691098Y-73929580D01*
X161750063Y-74039894D01*
X161792661Y-74091800D01*
X161750063Y-74143706D01*
X161691098Y-74254020D01*
X161654788Y-74373718D01*
X161642528Y-74498200D01*
X161642528Y-76174600D01*
X161654788Y-76299082D01*
X161691098Y-76418780D01*
X161750063Y-76529094D01*
X161829415Y-76625785D01*
X161926106Y-76705137D01*
X162036420Y-76764102D01*
X162156118Y-76800412D01*
X162280600Y-76812672D01*
X162818800Y-76812672D01*
X162818801Y-79481409D01*
X161318283Y-80981928D01*
X160665000Y-80981928D01*
X160491746Y-80998992D01*
X160325150Y-81049528D01*
X160171614Y-81131595D01*
X160037038Y-81242038D01*
X159926595Y-81376614D01*
X159844528Y-81530150D01*
X159793992Y-81696746D01*
X159776928Y-81870000D01*
X159776928Y-82795000D01*
X159793992Y-82968254D01*
X159844528Y-83134850D01*
X159926595Y-83288386D01*
X160037038Y-83422962D01*
X160171614Y-83533405D01*
X160325150Y-83615472D01*
X160491746Y-83666008D01*
X160665000Y-83683072D01*
X161915000Y-83683072D01*
X162088254Y-83666008D01*
X162254850Y-83615472D01*
X162408386Y-83533405D01*
X162542962Y-83422962D01*
X162653405Y-83288386D01*
X162735472Y-83134850D01*
X162786008Y-82968254D01*
X162803072Y-82795000D01*
X162803072Y-82141717D01*
X164382464Y-80562326D01*
X164418144Y-80533044D01*
X164534986Y-80390672D01*
X164621807Y-80228240D01*
X164675271Y-80051992D01*
X164688800Y-79914632D01*
X164693324Y-79868701D01*
X164688800Y-79822769D01*
X164688800Y-76812672D01*
X165227000Y-76812672D01*
X165351482Y-76800412D01*
X165471180Y-76764102D01*
X165581494Y-76705137D01*
X165678185Y-76625785D01*
X165757537Y-76529094D01*
X165816502Y-76418780D01*
X165852812Y-76299082D01*
X165865072Y-76174600D01*
X165865072Y-74498200D01*
X165852812Y-74373718D01*
X165816502Y-74254020D01*
X165757537Y-74143706D01*
X165714939Y-74091800D01*
X165757537Y-74039894D01*
X165816502Y-73929580D01*
X165852812Y-73809882D01*
X165865072Y-73685400D01*
X165865072Y-71210400D01*
X167112426Y-71210400D01*
X168845000Y-72942975D01*
X168845001Y-94870121D01*
X168751202Y-95096573D01*
X168694100Y-95383646D01*
X168694100Y-95676342D01*
X168751202Y-95963415D01*
X168863212Y-96233832D01*
X169025826Y-96477200D01*
X169232794Y-96684168D01*
X169476162Y-96846782D01*
X169746579Y-96958792D01*
X170033652Y-97015894D01*
X170306126Y-97015894D01*
X169702612Y-97619409D01*
X169476162Y-97713207D01*
X169232794Y-97875821D01*
X169025826Y-98082789D01*
X168997017Y-98125905D01*
X165817994Y-95788388D01*
X165189803Y-95160197D01*
X165170557Y-95144403D01*
X165148601Y-95132667D01*
X165124776Y-95125440D01*
X165100000Y-95123000D01*
X157524548Y-95123000D01*
X151257000Y-90108961D01*
X151257000Y-90108072D01*
X153730000Y-90108072D01*
X153854482Y-90095812D01*
X153974180Y-90059502D01*
X154084494Y-90000537D01*
X154181185Y-89921185D01*
X154260537Y-89824494D01*
X154319502Y-89714180D01*
X154355812Y-89594482D01*
X154368072Y-89470000D01*
X154368072Y-88170000D01*
X154355812Y-88045518D01*
X154319502Y-87925820D01*
X154260537Y-87815506D01*
X154181185Y-87718815D01*
X154084494Y-87639463D01*
X153974180Y-87580498D01*
X153939573Y-87570000D01*
X153974180Y-87559502D01*
X154084494Y-87500537D01*
X154181185Y-87421185D01*
X154260537Y-87324494D01*
X154319502Y-87214180D01*
X154355812Y-87094482D01*
X154368072Y-86970000D01*
X154368072Y-86067500D01*
X156021681Y-86067500D01*
X156034528Y-86109850D01*
X156116595Y-86263386D01*
X156227038Y-86397962D01*
X156361614Y-86508405D01*
X156515150Y-86590472D01*
X156681746Y-86641008D01*
X156855000Y-86658072D01*
X158105000Y-86658072D01*
X158278254Y-86641008D01*
X158444850Y-86590472D01*
X158598386Y-86508405D01*
X158732962Y-86397962D01*
X158843405Y-86263386D01*
X158925472Y-86109850D01*
X158938319Y-86067500D01*
X159831681Y-86067500D01*
X159844528Y-86109850D01*
X159926595Y-86263386D01*
X160037038Y-86397962D01*
X160171614Y-86508405D01*
X160325150Y-86590472D01*
X160491746Y-86641008D01*
X160665000Y-86658072D01*
X161915000Y-86658072D01*
X162088254Y-86641008D01*
X162254850Y-86590472D01*
X162408386Y-86508405D01*
X162542962Y-86397962D01*
X162653405Y-86263386D01*
X162735472Y-86109850D01*
X162786008Y-85943254D01*
X162803072Y-85770000D01*
X162803072Y-84845000D01*
X162786008Y-84671746D01*
X162735472Y-84505150D01*
X162653405Y-84351614D01*
X162542962Y-84217038D01*
X162408386Y-84106595D01*
X162254850Y-84024528D01*
X162088254Y-83973992D01*
X161915000Y-83956928D01*
X160665000Y-83956928D01*
X160491746Y-83973992D01*
X160325150Y-84024528D01*
X160171614Y-84106595D01*
X160037038Y-84217038D01*
X159926595Y-84351614D01*
X159844528Y-84505150D01*
X159831681Y-84547500D01*
X158938319Y-84547500D01*
X158925472Y-84505150D01*
X158843405Y-84351614D01*
X158732962Y-84217038D01*
X158598386Y-84106595D01*
X158444850Y-84024528D01*
X158278254Y-83973992D01*
X158105000Y-83956928D01*
X156855000Y-83956928D01*
X156681746Y-83973992D01*
X156515150Y-84024528D01*
X156361614Y-84106595D01*
X156227038Y-84217038D01*
X156116595Y-84351614D01*
X156034528Y-84505150D01*
X156021681Y-84547500D01*
X154360439Y-84547500D01*
X154368072Y-84470000D01*
X154368072Y-83170000D01*
X154360439Y-83092500D01*
X156021681Y-83092500D01*
X156034528Y-83134850D01*
X156116595Y-83288386D01*
X156227038Y-83422962D01*
X156361614Y-83533405D01*
X156515150Y-83615472D01*
X156681746Y-83666008D01*
X156855000Y-83683072D01*
X158105000Y-83683072D01*
X158278254Y-83666008D01*
X158444850Y-83615472D01*
X158598386Y-83533405D01*
X158732962Y-83422962D01*
X158843405Y-83288386D01*
X158925472Y-83134850D01*
X158976008Y-82968254D01*
X158993072Y-82795000D01*
X158993072Y-81870000D01*
X158976008Y-81696746D01*
X158925472Y-81530150D01*
X158843405Y-81376614D01*
X158732962Y-81242038D01*
X158598386Y-81131595D01*
X158444850Y-81049528D01*
X158415000Y-81040473D01*
X158415000Y-76245932D01*
X158419524Y-76200000D01*
X158401471Y-76016708D01*
X158397472Y-76003525D01*
X158397472Y-74498200D01*
X158385212Y-74373718D01*
X158348902Y-74254020D01*
X158289937Y-74143706D01*
X158247339Y-74091800D01*
X158289937Y-74039894D01*
X158348902Y-73929580D01*
X158385212Y-73809882D01*
X158397472Y-73685400D01*
X158397472Y-66065400D01*
X158385212Y-65940918D01*
X158348902Y-65821220D01*
X158289937Y-65710906D01*
X158210585Y-65614215D01*
X158113894Y-65534863D01*
X158003580Y-65475898D01*
X157883882Y-65439588D01*
X157759400Y-65427328D01*
X156215303Y-65427328D01*
X154660366Y-63872392D01*
X154618555Y-63821445D01*
X154415275Y-63654618D01*
X154247612Y-63565000D01*
X165817026Y-63565000D01*
X170795901Y-68543876D01*
%TO.N,GNDPWR*%
G36*
X152273000Y-116903500D02*
G01*
X152273000Y-119327394D01*
X151077394Y-120523000D01*
X147320000Y-120523000D01*
X147295224Y-120525440D01*
X147271399Y-120532667D01*
X147249443Y-120544403D01*
X147230197Y-120560197D01*
X145960197Y-121830197D01*
X145944403Y-121849443D01*
X145932667Y-121871399D01*
X145925440Y-121895224D01*
X145923000Y-121920000D01*
X145923000Y-121981928D01*
X143450000Y-121981928D01*
X143379601Y-121988861D01*
X143379601Y-120621779D01*
X143386060Y-120556200D01*
X143360284Y-120294495D01*
X143297099Y-120086201D01*
X143283948Y-120042847D01*
X143159983Y-119810926D01*
X142993156Y-119607646D01*
X142942215Y-119565840D01*
X141109366Y-117732992D01*
X141188780Y-117708902D01*
X141299094Y-117649937D01*
X141395785Y-117570585D01*
X141475137Y-117473894D01*
X141534102Y-117363580D01*
X141570412Y-117243882D01*
X141582672Y-117119400D01*
X141582672Y-114173000D01*
X141570412Y-114048518D01*
X141534102Y-113928820D01*
X141475137Y-113818506D01*
X141395785Y-113721815D01*
X141299094Y-113642463D01*
X141188780Y-113583498D01*
X141069082Y-113547188D01*
X140944600Y-113534928D01*
X133324600Y-113534928D01*
X133200118Y-113547188D01*
X133080420Y-113583498D01*
X132970106Y-113642463D01*
X132918200Y-113685061D01*
X132866294Y-113642463D01*
X132755980Y-113583498D01*
X132636282Y-113547188D01*
X132511800Y-113534928D01*
X130835400Y-113534928D01*
X130710918Y-113547188D01*
X130591220Y-113583498D01*
X130480906Y-113642463D01*
X130384215Y-113721815D01*
X130304863Y-113818506D01*
X130245898Y-113928820D01*
X130209588Y-114048518D01*
X130197328Y-114173000D01*
X130197328Y-114886200D01*
X129501122Y-114886200D01*
X129463799Y-114882524D01*
X129426476Y-114886200D01*
X129426467Y-114886200D01*
X129314814Y-114897197D01*
X129171553Y-114940654D01*
X129039524Y-115011226D01*
X129039522Y-115011227D01*
X129039523Y-115011227D01*
X128952796Y-115082401D01*
X128952792Y-115082405D01*
X128923799Y-115106199D01*
X128900005Y-115135192D01*
X127237993Y-116797205D01*
X127131388Y-116776000D01*
X126868612Y-116776000D01*
X126610886Y-116827265D01*
X126368114Y-116927824D01*
X126149624Y-117073814D01*
X125963814Y-117259624D01*
X125817824Y-117478114D01*
X125717265Y-117720886D01*
X125666000Y-117978612D01*
X125666000Y-118241388D01*
X125717265Y-118499114D01*
X125817824Y-118741886D01*
X125963814Y-118960376D01*
X126149624Y-119146186D01*
X126368114Y-119292176D01*
X126418214Y-119312928D01*
X126301000Y-119312928D01*
X126176518Y-119325188D01*
X126056820Y-119361498D01*
X125946506Y-119420463D01*
X125849815Y-119499815D01*
X125770463Y-119596506D01*
X125711498Y-119706820D01*
X125675188Y-119826518D01*
X125662928Y-119951000D01*
X125662928Y-121349000D01*
X125675188Y-121473482D01*
X125711498Y-121593180D01*
X125770463Y-121703494D01*
X125849815Y-121800185D01*
X125946506Y-121879537D01*
X126056820Y-121938502D01*
X126176518Y-121974812D01*
X126301000Y-121987072D01*
X127262270Y-121987072D01*
X128900005Y-123624808D01*
X128923799Y-123653801D01*
X128952792Y-123677595D01*
X128952796Y-123677599D01*
X129010705Y-123725123D01*
X129039524Y-123748774D01*
X129171553Y-123819346D01*
X129314814Y-123862803D01*
X129426467Y-123873800D01*
X129426476Y-123873800D01*
X129463799Y-123877476D01*
X129501122Y-123873800D01*
X130197328Y-123873800D01*
X130197328Y-124587000D01*
X130209588Y-124711482D01*
X130245898Y-124831180D01*
X130304863Y-124941494D01*
X130384215Y-125038185D01*
X130480906Y-125117537D01*
X130591220Y-125176502D01*
X130710918Y-125212812D01*
X130835400Y-125225072D01*
X132511800Y-125225072D01*
X132636282Y-125212812D01*
X132755980Y-125176502D01*
X132866294Y-125117537D01*
X132918200Y-125074939D01*
X132970106Y-125117537D01*
X133080420Y-125176502D01*
X133159834Y-125200592D01*
X132823641Y-125536785D01*
X132765150Y-125554528D01*
X132611614Y-125636595D01*
X132477038Y-125747038D01*
X132366595Y-125881614D01*
X132284528Y-126035150D01*
X132233992Y-126201746D01*
X132216928Y-126375000D01*
X132216928Y-127625000D01*
X132232500Y-127783108D01*
X132232501Y-130026887D01*
X132216928Y-130185000D01*
X132216928Y-131435000D01*
X132233992Y-131608254D01*
X132284528Y-131774850D01*
X132366595Y-131928386D01*
X132477038Y-132062962D01*
X132611614Y-132173405D01*
X132765150Y-132255472D01*
X132931746Y-132306008D01*
X133105000Y-132323072D01*
X134030000Y-132323072D01*
X134203254Y-132306008D01*
X134369850Y-132255472D01*
X134523386Y-132173405D01*
X134657962Y-132062962D01*
X134768405Y-131928386D01*
X134850472Y-131774850D01*
X134901008Y-131608254D01*
X134918072Y-131435000D01*
X134918072Y-130185000D01*
X134902500Y-130026895D01*
X134902500Y-127783105D01*
X134918072Y-127625000D01*
X134918072Y-127218302D01*
X136911303Y-125225072D01*
X140921306Y-125225072D01*
X140929219Y-125239877D01*
X141096046Y-125443158D01*
X141146992Y-125484968D01*
X142329641Y-126667619D01*
X142371443Y-126718555D01*
X142574723Y-126885382D01*
X142806644Y-127009347D01*
X143058292Y-127085683D01*
X143095687Y-127089366D01*
X143095506Y-127089463D01*
X142998815Y-127168815D01*
X142919463Y-127265506D01*
X142860498Y-127375820D01*
X142824188Y-127495518D01*
X142811928Y-127620000D01*
X142811928Y-128920000D01*
X142824188Y-129044482D01*
X142860498Y-129164180D01*
X142919463Y-129274494D01*
X142998815Y-129371185D01*
X143076574Y-129435000D01*
X140858079Y-129435000D01*
X140792500Y-129428541D01*
X140726921Y-129435000D01*
X140530794Y-129454317D01*
X140462611Y-129475000D01*
X140279145Y-129530653D01*
X140047225Y-129654618D01*
X139843945Y-129821445D01*
X139802139Y-129872386D01*
X132080000Y-137594526D01*
X132016857Y-137531383D01*
X131975047Y-137480437D01*
X131771767Y-137313610D01*
X131539846Y-137189645D01*
X131288198Y-137113309D01*
X131092071Y-137093992D01*
X131026492Y-137087533D01*
X130960913Y-137093992D01*
X126935430Y-137093992D01*
X126915043Y-137096000D01*
X126868612Y-137096000D01*
X126823073Y-137105058D01*
X126739303Y-137113309D01*
X126658751Y-137137744D01*
X126610886Y-137147265D01*
X126565800Y-137165940D01*
X126535999Y-137174980D01*
X126535999Y-132117917D01*
X126602962Y-132062962D01*
X126713405Y-131928386D01*
X126795472Y-131774850D01*
X126846008Y-131608254D01*
X126863072Y-131435000D01*
X126863072Y-130185000D01*
X127136928Y-130185000D01*
X127136928Y-131435000D01*
X127153992Y-131608254D01*
X127204528Y-131774850D01*
X127286595Y-131928386D01*
X127397038Y-132062962D01*
X127531614Y-132173405D01*
X127685150Y-132255472D01*
X127851746Y-132306008D01*
X128025000Y-132323072D01*
X128950000Y-132323072D01*
X129123254Y-132306008D01*
X129289850Y-132255472D01*
X129443386Y-132173405D01*
X129477998Y-132145000D01*
X129602002Y-132145000D01*
X129636614Y-132173405D01*
X129790150Y-132255472D01*
X129956746Y-132306008D01*
X130130000Y-132323072D01*
X131055000Y-132323072D01*
X131228254Y-132306008D01*
X131394850Y-132255472D01*
X131548386Y-132173405D01*
X131682962Y-132062962D01*
X131793405Y-131928386D01*
X131875472Y-131774850D01*
X131926008Y-131608254D01*
X131943072Y-131435000D01*
X131943072Y-130185000D01*
X131926008Y-130011746D01*
X131875472Y-129845150D01*
X131793405Y-129691614D01*
X131682962Y-129557038D01*
X131548386Y-129446595D01*
X131394850Y-129364528D01*
X131228254Y-129313992D01*
X131055000Y-129296928D01*
X130130000Y-129296928D01*
X129956746Y-129313992D01*
X129790150Y-129364528D01*
X129636614Y-129446595D01*
X129602002Y-129475000D01*
X129477998Y-129475000D01*
X129443386Y-129446595D01*
X129289850Y-129364528D01*
X129123254Y-129313992D01*
X128950000Y-129296928D01*
X128025000Y-129296928D01*
X127851746Y-129313992D01*
X127685150Y-129364528D01*
X127531614Y-129446595D01*
X127397038Y-129557038D01*
X127286595Y-129691614D01*
X127204528Y-129845150D01*
X127153992Y-130011746D01*
X127136928Y-130185000D01*
X126863072Y-130185000D01*
X126846008Y-130011746D01*
X126795472Y-129845150D01*
X126713405Y-129691614D01*
X126602962Y-129557038D01*
X126468386Y-129446595D01*
X126314850Y-129364528D01*
X126148254Y-129313992D01*
X125975000Y-129296928D01*
X125050000Y-129296928D01*
X124876746Y-129313992D01*
X124710150Y-129364528D01*
X124556614Y-129446595D01*
X124422038Y-129557038D01*
X124311595Y-129691614D01*
X124229528Y-129845150D01*
X124178992Y-130011746D01*
X124161928Y-130185000D01*
X124161928Y-130283242D01*
X124123632Y-130329905D01*
X124085617Y-130376227D01*
X123961653Y-130608147D01*
X123885316Y-130859796D01*
X123859540Y-131121501D01*
X123866000Y-131187090D01*
X123866000Y-134977748D01*
X123733322Y-134729525D01*
X123416994Y-134572611D01*
X122099605Y-135890000D01*
X123416994Y-137207389D01*
X123733322Y-137050475D01*
X123865999Y-136790003D01*
X123865999Y-139227942D01*
X123859540Y-139293521D01*
X123865999Y-139359099D01*
X123885316Y-139555226D01*
X123961652Y-139806874D01*
X124085617Y-140038795D01*
X124252444Y-140242076D01*
X124303390Y-140283886D01*
X125146117Y-141126614D01*
X125187924Y-141177556D01*
X125391204Y-141344383D01*
X125477494Y-141390506D01*
X125595732Y-141453707D01*
X125662928Y-141520902D01*
X125662928Y-141669000D01*
X125675188Y-141793482D01*
X125711498Y-141913180D01*
X125770463Y-142023494D01*
X125849815Y-142120185D01*
X125946506Y-142199537D01*
X126056820Y-142258502D01*
X126176518Y-142294812D01*
X126301000Y-142307072D01*
X126955458Y-142307072D01*
X127000000Y-142311459D01*
X127044541Y-142307072D01*
X127699000Y-142307072D01*
X127823482Y-142294812D01*
X127943180Y-142258502D01*
X128053494Y-142199537D01*
X128150185Y-142120185D01*
X128229537Y-142023494D01*
X128288502Y-141913180D01*
X128324812Y-141793482D01*
X128329586Y-141745000D01*
X130566928Y-141745000D01*
X130570000Y-142171750D01*
X130728750Y-142330500D01*
X131953000Y-142330500D01*
X131953000Y-141268750D01*
X132207000Y-141268750D01*
X132207000Y-142330500D01*
X133431250Y-142330500D01*
X133590000Y-142171750D01*
X133593072Y-141745000D01*
X133580812Y-141620518D01*
X133544502Y-141500820D01*
X133485537Y-141390506D01*
X133406185Y-141293815D01*
X133309494Y-141214463D01*
X133199180Y-141155498D01*
X133079482Y-141119188D01*
X132955000Y-141106928D01*
X132365750Y-141110000D01*
X132207000Y-141268750D01*
X131953000Y-141268750D01*
X131794250Y-141110000D01*
X131205000Y-141106928D01*
X131080518Y-141119188D01*
X130960820Y-141155498D01*
X130850506Y-141214463D01*
X130753815Y-141293815D01*
X130674463Y-141390506D01*
X130615498Y-141500820D01*
X130579188Y-141620518D01*
X130566928Y-141745000D01*
X128329586Y-141745000D01*
X128337072Y-141669000D01*
X128337072Y-141014541D01*
X128341459Y-140970000D01*
X128337072Y-140925458D01*
X128337072Y-140271000D01*
X128324812Y-140146518D01*
X128288502Y-140026820D01*
X128229537Y-139916506D01*
X128150185Y-139819815D01*
X128082164Y-139763992D01*
X130473518Y-139763992D01*
X130566928Y-139857402D01*
X130566928Y-139945000D01*
X130583992Y-140118254D01*
X130634528Y-140284850D01*
X130716595Y-140438386D01*
X130827038Y-140572962D01*
X130961614Y-140683405D01*
X131115150Y-140765472D01*
X131281746Y-140816008D01*
X131455000Y-140833072D01*
X132705000Y-140833072D01*
X132878254Y-140816008D01*
X133044850Y-140765472D01*
X133198386Y-140683405D01*
X133332962Y-140572962D01*
X133443405Y-140438386D01*
X133525472Y-140284850D01*
X133576008Y-140118254D01*
X133593072Y-139945000D01*
X133593072Y-139857402D01*
X141345475Y-132105000D01*
X143076574Y-132105000D01*
X142998815Y-132168815D01*
X142919463Y-132265506D01*
X142860498Y-132375820D01*
X142824188Y-132495518D01*
X142811928Y-132620000D01*
X142811928Y-133920000D01*
X142824188Y-134044482D01*
X142860498Y-134164180D01*
X142919463Y-134274494D01*
X142998815Y-134371185D01*
X143095506Y-134450537D01*
X143205820Y-134509502D01*
X143325518Y-134545812D01*
X143450000Y-134558072D01*
X145923000Y-134558072D01*
X145923000Y-134620000D01*
X145925440Y-134644776D01*
X145932667Y-134668601D01*
X145944403Y-134690557D01*
X145960197Y-134709803D01*
X147230197Y-135979803D01*
X147249443Y-135995597D01*
X147271399Y-136007333D01*
X147295224Y-136014560D01*
X147320000Y-136017000D01*
X153617394Y-136017000D01*
X156083000Y-138482606D01*
X156083000Y-157435452D01*
X155559362Y-158090000D01*
X121568510Y-158090000D01*
X121824670Y-157918839D01*
X122358839Y-157384670D01*
X122778533Y-156756554D01*
X123067623Y-156058628D01*
X123215000Y-155317715D01*
X123215000Y-154562285D01*
X123067623Y-153821372D01*
X122778533Y-153123446D01*
X122358839Y-152495330D01*
X121824670Y-151961161D01*
X121196554Y-151541467D01*
X120498628Y-151252377D01*
X119757715Y-151105000D01*
X119002285Y-151105000D01*
X118261372Y-151252377D01*
X117563446Y-151541467D01*
X116935330Y-151961161D01*
X116401161Y-152495330D01*
X116230000Y-152751490D01*
X116230000Y-147546994D01*
X120602611Y-147546994D01*
X120759525Y-147863322D01*
X121135585Y-148054877D01*
X121541790Y-148169386D01*
X121962528Y-148202447D01*
X122381633Y-148152792D01*
X122782997Y-148022327D01*
X123080475Y-147863322D01*
X123237389Y-147546994D01*
X121920000Y-146229605D01*
X120602611Y-147546994D01*
X116230000Y-147546994D01*
X116230000Y-146092528D01*
X119767553Y-146092528D01*
X119817208Y-146511633D01*
X119947673Y-146912997D01*
X120106678Y-147210475D01*
X120423006Y-147367389D01*
X121740395Y-146050000D01*
X122099605Y-146050000D01*
X123416994Y-147367389D01*
X123733322Y-147210475D01*
X123924877Y-146834415D01*
X124039386Y-146428210D01*
X124072447Y-146007472D01*
X124022792Y-145588367D01*
X123892327Y-145187003D01*
X123733322Y-144889525D01*
X123416994Y-144732611D01*
X122099605Y-146050000D01*
X121740395Y-146050000D01*
X120423006Y-144732611D01*
X120106678Y-144889525D01*
X119915123Y-145265585D01*
X119800614Y-145671790D01*
X119767553Y-146092528D01*
X116230000Y-146092528D01*
X116230000Y-144553006D01*
X120602611Y-144553006D01*
X121920000Y-145870395D01*
X123237389Y-144553006D01*
X123080475Y-144236678D01*
X122704415Y-144045123D01*
X122298210Y-143930614D01*
X121877472Y-143897553D01*
X121458367Y-143947208D01*
X121057003Y-144077673D01*
X120759525Y-144236678D01*
X120602611Y-144553006D01*
X116230000Y-144553006D01*
X116230000Y-143170000D01*
X130566928Y-143170000D01*
X130579188Y-143294482D01*
X130615498Y-143414180D01*
X130674463Y-143524494D01*
X130753815Y-143621185D01*
X130850506Y-143700537D01*
X130960820Y-143759502D01*
X131080518Y-143795812D01*
X131205000Y-143808072D01*
X131794250Y-143805000D01*
X131953000Y-143646250D01*
X131953000Y-142584500D01*
X132207000Y-142584500D01*
X132207000Y-143646250D01*
X132365750Y-143805000D01*
X132955000Y-143808072D01*
X133079482Y-143795812D01*
X133199180Y-143759502D01*
X133309494Y-143700537D01*
X133406185Y-143621185D01*
X133485537Y-143524494D01*
X133544502Y-143414180D01*
X133580812Y-143294482D01*
X133593072Y-143170000D01*
X133590000Y-142743250D01*
X133431250Y-142584500D01*
X132207000Y-142584500D01*
X131953000Y-142584500D01*
X130728750Y-142584500D01*
X130570000Y-142743250D01*
X130566928Y-143170000D01*
X116230000Y-143170000D01*
X116230000Y-137386994D01*
X120602611Y-137386994D01*
X120759525Y-137703322D01*
X121135585Y-137894877D01*
X121541790Y-138009386D01*
X121962528Y-138042447D01*
X122381633Y-137992792D01*
X122782997Y-137862327D01*
X123080475Y-137703322D01*
X123237389Y-137386994D01*
X121920000Y-136069605D01*
X120602611Y-137386994D01*
X116230000Y-137386994D01*
X116230000Y-135932528D01*
X119767553Y-135932528D01*
X119817208Y-136351633D01*
X119947673Y-136752997D01*
X120106678Y-137050475D01*
X120423006Y-137207389D01*
X121740395Y-135890000D01*
X120423006Y-134572611D01*
X120106678Y-134729525D01*
X119915123Y-135105585D01*
X119800614Y-135511790D01*
X119767553Y-135932528D01*
X116230000Y-135932528D01*
X116230000Y-134393006D01*
X120602611Y-134393006D01*
X121920000Y-135710395D01*
X123237389Y-134393006D01*
X123080475Y-134076678D01*
X122704415Y-133885123D01*
X122298210Y-133770614D01*
X121877472Y-133737553D01*
X121458367Y-133787208D01*
X121057003Y-133917673D01*
X120759525Y-134076678D01*
X120602611Y-134393006D01*
X116230000Y-134393006D01*
X116230000Y-127226994D01*
X120602611Y-127226994D01*
X120759525Y-127543322D01*
X121135585Y-127734877D01*
X121541790Y-127849386D01*
X121962528Y-127882447D01*
X122025383Y-127875000D01*
X129241928Y-127875000D01*
X129254188Y-127999482D01*
X129290498Y-128119180D01*
X129349463Y-128229494D01*
X129428815Y-128326185D01*
X129525506Y-128405537D01*
X129635820Y-128464502D01*
X129755518Y-128500812D01*
X129880000Y-128513072D01*
X130306750Y-128510000D01*
X130465500Y-128351250D01*
X130465500Y-127127000D01*
X130719500Y-127127000D01*
X130719500Y-128351250D01*
X130878250Y-128510000D01*
X131305000Y-128513072D01*
X131429482Y-128500812D01*
X131549180Y-128464502D01*
X131659494Y-128405537D01*
X131756185Y-128326185D01*
X131835537Y-128229494D01*
X131894502Y-128119180D01*
X131930812Y-127999482D01*
X131943072Y-127875000D01*
X131940000Y-127285750D01*
X131781250Y-127127000D01*
X130719500Y-127127000D01*
X130465500Y-127127000D01*
X129403750Y-127127000D01*
X129245000Y-127285750D01*
X129241928Y-127875000D01*
X122025383Y-127875000D01*
X122381633Y-127832792D01*
X122782997Y-127702327D01*
X123080475Y-127543322D01*
X123237389Y-127226994D01*
X121920000Y-125909605D01*
X120602611Y-127226994D01*
X116230000Y-127226994D01*
X116230000Y-125772528D01*
X119767553Y-125772528D01*
X119817208Y-126191633D01*
X119947673Y-126592997D01*
X120106678Y-126890475D01*
X120423006Y-127047389D01*
X121740395Y-125730000D01*
X122099605Y-125730000D01*
X123416994Y-127047389D01*
X123733322Y-126890475D01*
X123924877Y-126514415D01*
X124034652Y-126125000D01*
X129241928Y-126125000D01*
X129245000Y-126714250D01*
X129403750Y-126873000D01*
X130465500Y-126873000D01*
X130465500Y-125648750D01*
X130719500Y-125648750D01*
X130719500Y-126873000D01*
X131781250Y-126873000D01*
X131940000Y-126714250D01*
X131943072Y-126125000D01*
X131930812Y-126000518D01*
X131894502Y-125880820D01*
X131835537Y-125770506D01*
X131756185Y-125673815D01*
X131659494Y-125594463D01*
X131549180Y-125535498D01*
X131429482Y-125499188D01*
X131305000Y-125486928D01*
X130878250Y-125490000D01*
X130719500Y-125648750D01*
X130465500Y-125648750D01*
X130306750Y-125490000D01*
X129880000Y-125486928D01*
X129755518Y-125499188D01*
X129635820Y-125535498D01*
X129525506Y-125594463D01*
X129428815Y-125673815D01*
X129349463Y-125770506D01*
X129290498Y-125880820D01*
X129254188Y-126000518D01*
X129241928Y-126125000D01*
X124034652Y-126125000D01*
X124039386Y-126108210D01*
X124072447Y-125687472D01*
X124022792Y-125268367D01*
X123892327Y-124867003D01*
X123733322Y-124569525D01*
X123416994Y-124412611D01*
X122099605Y-125730000D01*
X121740395Y-125730000D01*
X120423006Y-124412611D01*
X120106678Y-124569525D01*
X119915123Y-124945585D01*
X119800614Y-125351790D01*
X119767553Y-125772528D01*
X116230000Y-125772528D01*
X116230000Y-124233006D01*
X120602611Y-124233006D01*
X121920000Y-125550395D01*
X123237389Y-124233006D01*
X123080475Y-123916678D01*
X122704415Y-123725123D01*
X122298210Y-123610614D01*
X121877472Y-123577553D01*
X121458367Y-123627208D01*
X121057003Y-123757673D01*
X120759525Y-123916678D01*
X120602611Y-124233006D01*
X116230000Y-124233006D01*
X116230000Y-117066994D01*
X120602611Y-117066994D01*
X120759525Y-117383322D01*
X121135585Y-117574877D01*
X121541790Y-117689386D01*
X121962528Y-117722447D01*
X122381633Y-117672792D01*
X122782997Y-117542327D01*
X123080475Y-117383322D01*
X123237389Y-117066994D01*
X121920000Y-115749605D01*
X120602611Y-117066994D01*
X116230000Y-117066994D01*
X116230000Y-115612528D01*
X119767553Y-115612528D01*
X119817208Y-116031633D01*
X119947673Y-116432997D01*
X120106678Y-116730475D01*
X120423006Y-116887389D01*
X121740395Y-115570000D01*
X122099605Y-115570000D01*
X123416994Y-116887389D01*
X123733322Y-116730475D01*
X123924877Y-116354415D01*
X124039386Y-115948210D01*
X124072447Y-115527472D01*
X124022792Y-115108367D01*
X123892327Y-114707003D01*
X123733322Y-114409525D01*
X123416994Y-114252611D01*
X122099605Y-115570000D01*
X121740395Y-115570000D01*
X120423006Y-114252611D01*
X120106678Y-114409525D01*
X119915123Y-114785585D01*
X119800614Y-115191790D01*
X119767553Y-115612528D01*
X116230000Y-115612528D01*
X116230000Y-114073006D01*
X120602611Y-114073006D01*
X121920000Y-115390395D01*
X123237389Y-114073006D01*
X123080475Y-113756678D01*
X122704415Y-113565123D01*
X122298210Y-113450614D01*
X121877472Y-113417553D01*
X121458367Y-113467208D01*
X121057003Y-113597673D01*
X120759525Y-113756678D01*
X120602611Y-114073006D01*
X116230000Y-114073006D01*
X116230000Y-113157000D01*
X147277667Y-113157000D01*
X152273000Y-116903500D01*
G37*
X152273000Y-116903500D02*
X152273000Y-119327394D01*
X151077394Y-120523000D01*
X147320000Y-120523000D01*
X147295224Y-120525440D01*
X147271399Y-120532667D01*
X147249443Y-120544403D01*
X147230197Y-120560197D01*
X145960197Y-121830197D01*
X145944403Y-121849443D01*
X145932667Y-121871399D01*
X145925440Y-121895224D01*
X145923000Y-121920000D01*
X145923000Y-121981928D01*
X143450000Y-121981928D01*
X143379601Y-121988861D01*
X143379601Y-120621779D01*
X143386060Y-120556200D01*
X143360284Y-120294495D01*
X143297099Y-120086201D01*
X143283948Y-120042847D01*
X143159983Y-119810926D01*
X142993156Y-119607646D01*
X142942215Y-119565840D01*
X141109366Y-117732992D01*
X141188780Y-117708902D01*
X141299094Y-117649937D01*
X141395785Y-117570585D01*
X141475137Y-117473894D01*
X141534102Y-117363580D01*
X141570412Y-117243882D01*
X141582672Y-117119400D01*
X141582672Y-114173000D01*
X141570412Y-114048518D01*
X141534102Y-113928820D01*
X141475137Y-113818506D01*
X141395785Y-113721815D01*
X141299094Y-113642463D01*
X141188780Y-113583498D01*
X141069082Y-113547188D01*
X140944600Y-113534928D01*
X133324600Y-113534928D01*
X133200118Y-113547188D01*
X133080420Y-113583498D01*
X132970106Y-113642463D01*
X132918200Y-113685061D01*
X132866294Y-113642463D01*
X132755980Y-113583498D01*
X132636282Y-113547188D01*
X132511800Y-113534928D01*
X130835400Y-113534928D01*
X130710918Y-113547188D01*
X130591220Y-113583498D01*
X130480906Y-113642463D01*
X130384215Y-113721815D01*
X130304863Y-113818506D01*
X130245898Y-113928820D01*
X130209588Y-114048518D01*
X130197328Y-114173000D01*
X130197328Y-114886200D01*
X129501122Y-114886200D01*
X129463799Y-114882524D01*
X129426476Y-114886200D01*
X129426467Y-114886200D01*
X129314814Y-114897197D01*
X129171553Y-114940654D01*
X129039524Y-115011226D01*
X129039522Y-115011227D01*
X129039523Y-115011227D01*
X128952796Y-115082401D01*
X128952792Y-115082405D01*
X128923799Y-115106199D01*
X128900005Y-115135192D01*
X127237993Y-116797205D01*
X127131388Y-116776000D01*
X126868612Y-116776000D01*
X126610886Y-116827265D01*
X126368114Y-116927824D01*
X126149624Y-117073814D01*
X125963814Y-117259624D01*
X125817824Y-117478114D01*
X125717265Y-117720886D01*
X125666000Y-117978612D01*
X125666000Y-118241388D01*
X125717265Y-118499114D01*
X125817824Y-118741886D01*
X125963814Y-118960376D01*
X126149624Y-119146186D01*
X126368114Y-119292176D01*
X126418214Y-119312928D01*
X126301000Y-119312928D01*
X126176518Y-119325188D01*
X126056820Y-119361498D01*
X125946506Y-119420463D01*
X125849815Y-119499815D01*
X125770463Y-119596506D01*
X125711498Y-119706820D01*
X125675188Y-119826518D01*
X125662928Y-119951000D01*
X125662928Y-121349000D01*
X125675188Y-121473482D01*
X125711498Y-121593180D01*
X125770463Y-121703494D01*
X125849815Y-121800185D01*
X125946506Y-121879537D01*
X126056820Y-121938502D01*
X126176518Y-121974812D01*
X126301000Y-121987072D01*
X127262270Y-121987072D01*
X128900005Y-123624808D01*
X128923799Y-123653801D01*
X128952792Y-123677595D01*
X128952796Y-123677599D01*
X129010705Y-123725123D01*
X129039524Y-123748774D01*
X129171553Y-123819346D01*
X129314814Y-123862803D01*
X129426467Y-123873800D01*
X129426476Y-123873800D01*
X129463799Y-123877476D01*
X129501122Y-123873800D01*
X130197328Y-123873800D01*
X130197328Y-124587000D01*
X130209588Y-124711482D01*
X130245898Y-124831180D01*
X130304863Y-124941494D01*
X130384215Y-125038185D01*
X130480906Y-125117537D01*
X130591220Y-125176502D01*
X130710918Y-125212812D01*
X130835400Y-125225072D01*
X132511800Y-125225072D01*
X132636282Y-125212812D01*
X132755980Y-125176502D01*
X132866294Y-125117537D01*
X132918200Y-125074939D01*
X132970106Y-125117537D01*
X133080420Y-125176502D01*
X133159834Y-125200592D01*
X132823641Y-125536785D01*
X132765150Y-125554528D01*
X132611614Y-125636595D01*
X132477038Y-125747038D01*
X132366595Y-125881614D01*
X132284528Y-126035150D01*
X132233992Y-126201746D01*
X132216928Y-126375000D01*
X132216928Y-127625000D01*
X132232500Y-127783108D01*
X132232501Y-130026887D01*
X132216928Y-130185000D01*
X132216928Y-131435000D01*
X132233992Y-131608254D01*
X132284528Y-131774850D01*
X132366595Y-131928386D01*
X132477038Y-132062962D01*
X132611614Y-132173405D01*
X132765150Y-132255472D01*
X132931746Y-132306008D01*
X133105000Y-132323072D01*
X134030000Y-132323072D01*
X134203254Y-132306008D01*
X134369850Y-132255472D01*
X134523386Y-132173405D01*
X134657962Y-132062962D01*
X134768405Y-131928386D01*
X134850472Y-131774850D01*
X134901008Y-131608254D01*
X134918072Y-131435000D01*
X134918072Y-130185000D01*
X134902500Y-130026895D01*
X134902500Y-127783105D01*
X134918072Y-127625000D01*
X134918072Y-127218302D01*
X136911303Y-125225072D01*
X140921306Y-125225072D01*
X140929219Y-125239877D01*
X141096046Y-125443158D01*
X141146992Y-125484968D01*
X142329641Y-126667619D01*
X142371443Y-126718555D01*
X142574723Y-126885382D01*
X142806644Y-127009347D01*
X143058292Y-127085683D01*
X143095687Y-127089366D01*
X143095506Y-127089463D01*
X142998815Y-127168815D01*
X142919463Y-127265506D01*
X142860498Y-127375820D01*
X142824188Y-127495518D01*
X142811928Y-127620000D01*
X142811928Y-128920000D01*
X142824188Y-129044482D01*
X142860498Y-129164180D01*
X142919463Y-129274494D01*
X142998815Y-129371185D01*
X143076574Y-129435000D01*
X140858079Y-129435000D01*
X140792500Y-129428541D01*
X140726921Y-129435000D01*
X140530794Y-129454317D01*
X140462611Y-129475000D01*
X140279145Y-129530653D01*
X140047225Y-129654618D01*
X139843945Y-129821445D01*
X139802139Y-129872386D01*
X132080000Y-137594526D01*
X132016857Y-137531383D01*
X131975047Y-137480437D01*
X131771767Y-137313610D01*
X131539846Y-137189645D01*
X131288198Y-137113309D01*
X131092071Y-137093992D01*
X131026492Y-137087533D01*
X130960913Y-137093992D01*
X126935430Y-137093992D01*
X126915043Y-137096000D01*
X126868612Y-137096000D01*
X126823073Y-137105058D01*
X126739303Y-137113309D01*
X126658751Y-137137744D01*
X126610886Y-137147265D01*
X126565800Y-137165940D01*
X126535999Y-137174980D01*
X126535999Y-132117917D01*
X126602962Y-132062962D01*
X126713405Y-131928386D01*
X126795472Y-131774850D01*
X126846008Y-131608254D01*
X126863072Y-131435000D01*
X126863072Y-130185000D01*
X127136928Y-130185000D01*
X127136928Y-131435000D01*
X127153992Y-131608254D01*
X127204528Y-131774850D01*
X127286595Y-131928386D01*
X127397038Y-132062962D01*
X127531614Y-132173405D01*
X127685150Y-132255472D01*
X127851746Y-132306008D01*
X128025000Y-132323072D01*
X128950000Y-132323072D01*
X129123254Y-132306008D01*
X129289850Y-132255472D01*
X129443386Y-132173405D01*
X129477998Y-132145000D01*
X129602002Y-132145000D01*
X129636614Y-132173405D01*
X129790150Y-132255472D01*
X129956746Y-132306008D01*
X130130000Y-132323072D01*
X131055000Y-132323072D01*
X131228254Y-132306008D01*
X131394850Y-132255472D01*
X131548386Y-132173405D01*
X131682962Y-132062962D01*
X131793405Y-131928386D01*
X131875472Y-131774850D01*
X131926008Y-131608254D01*
X131943072Y-131435000D01*
X131943072Y-130185000D01*
X131926008Y-130011746D01*
X131875472Y-129845150D01*
X131793405Y-129691614D01*
X131682962Y-129557038D01*
X131548386Y-129446595D01*
X131394850Y-129364528D01*
X131228254Y-129313992D01*
X131055000Y-129296928D01*
X130130000Y-129296928D01*
X129956746Y-129313992D01*
X129790150Y-129364528D01*
X129636614Y-129446595D01*
X129602002Y-129475000D01*
X129477998Y-129475000D01*
X129443386Y-129446595D01*
X129289850Y-129364528D01*
X129123254Y-129313992D01*
X128950000Y-129296928D01*
X128025000Y-129296928D01*
X127851746Y-129313992D01*
X127685150Y-129364528D01*
X127531614Y-129446595D01*
X127397038Y-129557038D01*
X127286595Y-129691614D01*
X127204528Y-129845150D01*
X127153992Y-130011746D01*
X127136928Y-130185000D01*
X126863072Y-130185000D01*
X126846008Y-130011746D01*
X126795472Y-129845150D01*
X126713405Y-129691614D01*
X126602962Y-129557038D01*
X126468386Y-129446595D01*
X126314850Y-129364528D01*
X126148254Y-129313992D01*
X125975000Y-129296928D01*
X125050000Y-129296928D01*
X124876746Y-129313992D01*
X124710150Y-129364528D01*
X124556614Y-129446595D01*
X124422038Y-129557038D01*
X124311595Y-129691614D01*
X124229528Y-129845150D01*
X124178992Y-130011746D01*
X124161928Y-130185000D01*
X124161928Y-130283242D01*
X124123632Y-130329905D01*
X124085617Y-130376227D01*
X123961653Y-130608147D01*
X123885316Y-130859796D01*
X123859540Y-131121501D01*
X123866000Y-131187090D01*
X123866000Y-134977748D01*
X123733322Y-134729525D01*
X123416994Y-134572611D01*
X122099605Y-135890000D01*
X123416994Y-137207389D01*
X123733322Y-137050475D01*
X123865999Y-136790003D01*
X123865999Y-139227942D01*
X123859540Y-139293521D01*
X123865999Y-139359099D01*
X123885316Y-139555226D01*
X123961652Y-139806874D01*
X124085617Y-140038795D01*
X124252444Y-140242076D01*
X124303390Y-140283886D01*
X125146117Y-141126614D01*
X125187924Y-141177556D01*
X125391204Y-141344383D01*
X125477494Y-141390506D01*
X125595732Y-141453707D01*
X125662928Y-141520902D01*
X125662928Y-141669000D01*
X125675188Y-141793482D01*
X125711498Y-141913180D01*
X125770463Y-142023494D01*
X125849815Y-142120185D01*
X125946506Y-142199537D01*
X126056820Y-142258502D01*
X126176518Y-142294812D01*
X126301000Y-142307072D01*
X126955458Y-142307072D01*
X127000000Y-142311459D01*
X127044541Y-142307072D01*
X127699000Y-142307072D01*
X127823482Y-142294812D01*
X127943180Y-142258502D01*
X128053494Y-142199537D01*
X128150185Y-142120185D01*
X128229537Y-142023494D01*
X128288502Y-141913180D01*
X128324812Y-141793482D01*
X128329586Y-141745000D01*
X130566928Y-141745000D01*
X130570000Y-142171750D01*
X130728750Y-142330500D01*
X131953000Y-142330500D01*
X131953000Y-141268750D01*
X132207000Y-141268750D01*
X132207000Y-142330500D01*
X133431250Y-142330500D01*
X133590000Y-142171750D01*
X133593072Y-141745000D01*
X133580812Y-141620518D01*
X133544502Y-141500820D01*
X133485537Y-141390506D01*
X133406185Y-141293815D01*
X133309494Y-141214463D01*
X133199180Y-141155498D01*
X133079482Y-141119188D01*
X132955000Y-141106928D01*
X132365750Y-141110000D01*
X132207000Y-141268750D01*
X131953000Y-141268750D01*
X131794250Y-141110000D01*
X131205000Y-141106928D01*
X131080518Y-141119188D01*
X130960820Y-141155498D01*
X130850506Y-141214463D01*
X130753815Y-141293815D01*
X130674463Y-141390506D01*
X130615498Y-141500820D01*
X130579188Y-141620518D01*
X130566928Y-141745000D01*
X128329586Y-141745000D01*
X128337072Y-141669000D01*
X128337072Y-141014541D01*
X128341459Y-140970000D01*
X128337072Y-140925458D01*
X128337072Y-140271000D01*
X128324812Y-140146518D01*
X128288502Y-140026820D01*
X128229537Y-139916506D01*
X128150185Y-139819815D01*
X128082164Y-139763992D01*
X130473518Y-139763992D01*
X130566928Y-139857402D01*
X130566928Y-139945000D01*
X130583992Y-140118254D01*
X130634528Y-140284850D01*
X130716595Y-140438386D01*
X130827038Y-140572962D01*
X130961614Y-140683405D01*
X131115150Y-140765472D01*
X131281746Y-140816008D01*
X131455000Y-140833072D01*
X132705000Y-140833072D01*
X132878254Y-140816008D01*
X133044850Y-140765472D01*
X133198386Y-140683405D01*
X133332962Y-140572962D01*
X133443405Y-140438386D01*
X133525472Y-140284850D01*
X133576008Y-140118254D01*
X133593072Y-139945000D01*
X133593072Y-139857402D01*
X141345475Y-132105000D01*
X143076574Y-132105000D01*
X142998815Y-132168815D01*
X142919463Y-132265506D01*
X142860498Y-132375820D01*
X142824188Y-132495518D01*
X142811928Y-132620000D01*
X142811928Y-133920000D01*
X142824188Y-134044482D01*
X142860498Y-134164180D01*
X142919463Y-134274494D01*
X142998815Y-134371185D01*
X143095506Y-134450537D01*
X143205820Y-134509502D01*
X143325518Y-134545812D01*
X143450000Y-134558072D01*
X145923000Y-134558072D01*
X145923000Y-134620000D01*
X145925440Y-134644776D01*
X145932667Y-134668601D01*
X145944403Y-134690557D01*
X145960197Y-134709803D01*
X147230197Y-135979803D01*
X147249443Y-135995597D01*
X147271399Y-136007333D01*
X147295224Y-136014560D01*
X147320000Y-136017000D01*
X153617394Y-136017000D01*
X156083000Y-138482606D01*
X156083000Y-157435452D01*
X155559362Y-158090000D01*
X121568510Y-158090000D01*
X121824670Y-157918839D01*
X122358839Y-157384670D01*
X122778533Y-156756554D01*
X123067623Y-156058628D01*
X123215000Y-155317715D01*
X123215000Y-154562285D01*
X123067623Y-153821372D01*
X122778533Y-153123446D01*
X122358839Y-152495330D01*
X121824670Y-151961161D01*
X121196554Y-151541467D01*
X120498628Y-151252377D01*
X119757715Y-151105000D01*
X119002285Y-151105000D01*
X118261372Y-151252377D01*
X117563446Y-151541467D01*
X116935330Y-151961161D01*
X116401161Y-152495330D01*
X116230000Y-152751490D01*
X116230000Y-147546994D01*
X120602611Y-147546994D01*
X120759525Y-147863322D01*
X121135585Y-148054877D01*
X121541790Y-148169386D01*
X121962528Y-148202447D01*
X122381633Y-148152792D01*
X122782997Y-148022327D01*
X123080475Y-147863322D01*
X123237389Y-147546994D01*
X121920000Y-146229605D01*
X120602611Y-147546994D01*
X116230000Y-147546994D01*
X116230000Y-146092528D01*
X119767553Y-146092528D01*
X119817208Y-146511633D01*
X119947673Y-146912997D01*
X120106678Y-147210475D01*
X120423006Y-147367389D01*
X121740395Y-146050000D01*
X122099605Y-146050000D01*
X123416994Y-147367389D01*
X123733322Y-147210475D01*
X123924877Y-146834415D01*
X124039386Y-146428210D01*
X124072447Y-146007472D01*
X124022792Y-145588367D01*
X123892327Y-145187003D01*
X123733322Y-144889525D01*
X123416994Y-144732611D01*
X122099605Y-146050000D01*
X121740395Y-146050000D01*
X120423006Y-144732611D01*
X120106678Y-144889525D01*
X119915123Y-145265585D01*
X119800614Y-145671790D01*
X119767553Y-146092528D01*
X116230000Y-146092528D01*
X116230000Y-144553006D01*
X120602611Y-144553006D01*
X121920000Y-145870395D01*
X123237389Y-144553006D01*
X123080475Y-144236678D01*
X122704415Y-144045123D01*
X122298210Y-143930614D01*
X121877472Y-143897553D01*
X121458367Y-143947208D01*
X121057003Y-144077673D01*
X120759525Y-144236678D01*
X120602611Y-144553006D01*
X116230000Y-144553006D01*
X116230000Y-143170000D01*
X130566928Y-143170000D01*
X130579188Y-143294482D01*
X130615498Y-143414180D01*
X130674463Y-143524494D01*
X130753815Y-143621185D01*
X130850506Y-143700537D01*
X130960820Y-143759502D01*
X131080518Y-143795812D01*
X131205000Y-143808072D01*
X131794250Y-143805000D01*
X131953000Y-143646250D01*
X131953000Y-142584500D01*
X132207000Y-142584500D01*
X132207000Y-143646250D01*
X132365750Y-143805000D01*
X132955000Y-143808072D01*
X133079482Y-143795812D01*
X133199180Y-143759502D01*
X133309494Y-143700537D01*
X133406185Y-143621185D01*
X133485537Y-143524494D01*
X133544502Y-143414180D01*
X133580812Y-143294482D01*
X133593072Y-143170000D01*
X133590000Y-142743250D01*
X133431250Y-142584500D01*
X132207000Y-142584500D01*
X131953000Y-142584500D01*
X130728750Y-142584500D01*
X130570000Y-142743250D01*
X130566928Y-143170000D01*
X116230000Y-143170000D01*
X116230000Y-137386994D01*
X120602611Y-137386994D01*
X120759525Y-137703322D01*
X121135585Y-137894877D01*
X121541790Y-138009386D01*
X121962528Y-138042447D01*
X122381633Y-137992792D01*
X122782997Y-137862327D01*
X123080475Y-137703322D01*
X123237389Y-137386994D01*
X121920000Y-136069605D01*
X120602611Y-137386994D01*
X116230000Y-137386994D01*
X116230000Y-135932528D01*
X119767553Y-135932528D01*
X119817208Y-136351633D01*
X119947673Y-136752997D01*
X120106678Y-137050475D01*
X120423006Y-137207389D01*
X121740395Y-135890000D01*
X120423006Y-134572611D01*
X120106678Y-134729525D01*
X119915123Y-135105585D01*
X119800614Y-135511790D01*
X119767553Y-135932528D01*
X116230000Y-135932528D01*
X116230000Y-134393006D01*
X120602611Y-134393006D01*
X121920000Y-135710395D01*
X123237389Y-134393006D01*
X123080475Y-134076678D01*
X122704415Y-133885123D01*
X122298210Y-133770614D01*
X121877472Y-133737553D01*
X121458367Y-133787208D01*
X121057003Y-133917673D01*
X120759525Y-134076678D01*
X120602611Y-134393006D01*
X116230000Y-134393006D01*
X116230000Y-127226994D01*
X120602611Y-127226994D01*
X120759525Y-127543322D01*
X121135585Y-127734877D01*
X121541790Y-127849386D01*
X121962528Y-127882447D01*
X122025383Y-127875000D01*
X129241928Y-127875000D01*
X129254188Y-127999482D01*
X129290498Y-128119180D01*
X129349463Y-128229494D01*
X129428815Y-128326185D01*
X129525506Y-128405537D01*
X129635820Y-128464502D01*
X129755518Y-128500812D01*
X129880000Y-128513072D01*
X130306750Y-128510000D01*
X130465500Y-128351250D01*
X130465500Y-127127000D01*
X130719500Y-127127000D01*
X130719500Y-128351250D01*
X130878250Y-128510000D01*
X131305000Y-128513072D01*
X131429482Y-128500812D01*
X131549180Y-128464502D01*
X131659494Y-128405537D01*
X131756185Y-128326185D01*
X131835537Y-128229494D01*
X131894502Y-128119180D01*
X131930812Y-127999482D01*
X131943072Y-127875000D01*
X131940000Y-127285750D01*
X131781250Y-127127000D01*
X130719500Y-127127000D01*
X130465500Y-127127000D01*
X129403750Y-127127000D01*
X129245000Y-127285750D01*
X129241928Y-127875000D01*
X122025383Y-127875000D01*
X122381633Y-127832792D01*
X122782997Y-127702327D01*
X123080475Y-127543322D01*
X123237389Y-127226994D01*
X121920000Y-125909605D01*
X120602611Y-127226994D01*
X116230000Y-127226994D01*
X116230000Y-125772528D01*
X119767553Y-125772528D01*
X119817208Y-126191633D01*
X119947673Y-126592997D01*
X120106678Y-126890475D01*
X120423006Y-127047389D01*
X121740395Y-125730000D01*
X122099605Y-125730000D01*
X123416994Y-127047389D01*
X123733322Y-126890475D01*
X123924877Y-126514415D01*
X124034652Y-126125000D01*
X129241928Y-126125000D01*
X129245000Y-126714250D01*
X129403750Y-126873000D01*
X130465500Y-126873000D01*
X130465500Y-125648750D01*
X130719500Y-125648750D01*
X130719500Y-126873000D01*
X131781250Y-126873000D01*
X131940000Y-126714250D01*
X131943072Y-126125000D01*
X131930812Y-126000518D01*
X131894502Y-125880820D01*
X131835537Y-125770506D01*
X131756185Y-125673815D01*
X131659494Y-125594463D01*
X131549180Y-125535498D01*
X131429482Y-125499188D01*
X131305000Y-125486928D01*
X130878250Y-125490000D01*
X130719500Y-125648750D01*
X130465500Y-125648750D01*
X130306750Y-125490000D01*
X129880000Y-125486928D01*
X129755518Y-125499188D01*
X129635820Y-125535498D01*
X129525506Y-125594463D01*
X129428815Y-125673815D01*
X129349463Y-125770506D01*
X129290498Y-125880820D01*
X129254188Y-126000518D01*
X129241928Y-126125000D01*
X124034652Y-126125000D01*
X124039386Y-126108210D01*
X124072447Y-125687472D01*
X124022792Y-125268367D01*
X123892327Y-124867003D01*
X123733322Y-124569525D01*
X123416994Y-124412611D01*
X122099605Y-125730000D01*
X121740395Y-125730000D01*
X120423006Y-124412611D01*
X120106678Y-124569525D01*
X119915123Y-124945585D01*
X119800614Y-125351790D01*
X119767553Y-125772528D01*
X116230000Y-125772528D01*
X116230000Y-124233006D01*
X120602611Y-124233006D01*
X121920000Y-125550395D01*
X123237389Y-124233006D01*
X123080475Y-123916678D01*
X122704415Y-123725123D01*
X122298210Y-123610614D01*
X121877472Y-123577553D01*
X121458367Y-123627208D01*
X121057003Y-123757673D01*
X120759525Y-123916678D01*
X120602611Y-124233006D01*
X116230000Y-124233006D01*
X116230000Y-117066994D01*
X120602611Y-117066994D01*
X120759525Y-117383322D01*
X121135585Y-117574877D01*
X121541790Y-117689386D01*
X121962528Y-117722447D01*
X122381633Y-117672792D01*
X122782997Y-117542327D01*
X123080475Y-117383322D01*
X123237389Y-117066994D01*
X121920000Y-115749605D01*
X120602611Y-117066994D01*
X116230000Y-117066994D01*
X116230000Y-115612528D01*
X119767553Y-115612528D01*
X119817208Y-116031633D01*
X119947673Y-116432997D01*
X120106678Y-116730475D01*
X120423006Y-116887389D01*
X121740395Y-115570000D01*
X122099605Y-115570000D01*
X123416994Y-116887389D01*
X123733322Y-116730475D01*
X123924877Y-116354415D01*
X124039386Y-115948210D01*
X124072447Y-115527472D01*
X124022792Y-115108367D01*
X123892327Y-114707003D01*
X123733322Y-114409525D01*
X123416994Y-114252611D01*
X122099605Y-115570000D01*
X121740395Y-115570000D01*
X120423006Y-114252611D01*
X120106678Y-114409525D01*
X119915123Y-114785585D01*
X119800614Y-115191790D01*
X119767553Y-115612528D01*
X116230000Y-115612528D01*
X116230000Y-114073006D01*
X120602611Y-114073006D01*
X121920000Y-115390395D01*
X123237389Y-114073006D01*
X123080475Y-113756678D01*
X122704415Y-113565123D01*
X122298210Y-113450614D01*
X121877472Y-113417553D01*
X121458367Y-113467208D01*
X121057003Y-113597673D01*
X120759525Y-113756678D01*
X120602611Y-114073006D01*
X116230000Y-114073006D01*
X116230000Y-113157000D01*
X147277667Y-113157000D01*
X152273000Y-116903500D01*
G36*
X130197328Y-117119400D02*
G01*
X130209588Y-117243882D01*
X130245898Y-117363580D01*
X130304863Y-117473894D01*
X130384215Y-117570585D01*
X130480906Y-117649937D01*
X130591220Y-117708902D01*
X130710918Y-117745212D01*
X130835400Y-117757472D01*
X132511800Y-117757472D01*
X132636282Y-117745212D01*
X132755980Y-117708902D01*
X132866294Y-117649937D01*
X132918200Y-117607339D01*
X132970106Y-117649937D01*
X133080420Y-117708902D01*
X133200118Y-117745212D01*
X133324600Y-117757472D01*
X137357898Y-117757472D01*
X140602953Y-121002528D01*
X133324600Y-121002528D01*
X133200118Y-121014788D01*
X133080420Y-121051098D01*
X132970106Y-121110063D01*
X132918200Y-121152661D01*
X132866294Y-121110063D01*
X132755980Y-121051098D01*
X132636282Y-121014788D01*
X132511800Y-121002528D01*
X130835400Y-121002528D01*
X130710918Y-121014788D01*
X130591220Y-121051098D01*
X130480906Y-121110063D01*
X130384215Y-121189415D01*
X130304863Y-121286106D01*
X130245898Y-121396420D01*
X130209588Y-121516118D01*
X130197328Y-121640600D01*
X130197328Y-122353800D01*
X129778603Y-122353800D01*
X128337072Y-120912270D01*
X128337072Y-119951000D01*
X128324812Y-119826518D01*
X128288502Y-119706820D01*
X128229537Y-119596506D01*
X128150185Y-119499815D01*
X128053494Y-119420463D01*
X127943180Y-119361498D01*
X127823482Y-119325188D01*
X127699000Y-119312928D01*
X127581786Y-119312928D01*
X127631886Y-119292176D01*
X127850376Y-119146186D01*
X128036186Y-118960376D01*
X128182176Y-118741886D01*
X128282735Y-118499114D01*
X128334000Y-118241388D01*
X128334000Y-117978612D01*
X128312795Y-117872007D01*
X129778603Y-116406200D01*
X130197328Y-116406200D01*
X130197328Y-117119400D01*
G37*
X130197328Y-117119400D02*
X130209588Y-117243882D01*
X130245898Y-117363580D01*
X130304863Y-117473894D01*
X130384215Y-117570585D01*
X130480906Y-117649937D01*
X130591220Y-117708902D01*
X130710918Y-117745212D01*
X130835400Y-117757472D01*
X132511800Y-117757472D01*
X132636282Y-117745212D01*
X132755980Y-117708902D01*
X132866294Y-117649937D01*
X132918200Y-117607339D01*
X132970106Y-117649937D01*
X133080420Y-117708902D01*
X133200118Y-117745212D01*
X133324600Y-117757472D01*
X137357898Y-117757472D01*
X140602953Y-121002528D01*
X133324600Y-121002528D01*
X133200118Y-121014788D01*
X133080420Y-121051098D01*
X132970106Y-121110063D01*
X132918200Y-121152661D01*
X132866294Y-121110063D01*
X132755980Y-121051098D01*
X132636282Y-121014788D01*
X132511800Y-121002528D01*
X130835400Y-121002528D01*
X130710918Y-121014788D01*
X130591220Y-121051098D01*
X130480906Y-121110063D01*
X130384215Y-121189415D01*
X130304863Y-121286106D01*
X130245898Y-121396420D01*
X130209588Y-121516118D01*
X130197328Y-121640600D01*
X130197328Y-122353800D01*
X129778603Y-122353800D01*
X128337072Y-120912270D01*
X128337072Y-119951000D01*
X128324812Y-119826518D01*
X128288502Y-119706820D01*
X128229537Y-119596506D01*
X128150185Y-119499815D01*
X128053494Y-119420463D01*
X127943180Y-119361498D01*
X127823482Y-119325188D01*
X127699000Y-119312928D01*
X127581786Y-119312928D01*
X127631886Y-119292176D01*
X127850376Y-119146186D01*
X128036186Y-118960376D01*
X128182176Y-118741886D01*
X128282735Y-118499114D01*
X128334000Y-118241388D01*
X128334000Y-117978612D01*
X128312795Y-117872007D01*
X129778603Y-116406200D01*
X130197328Y-116406200D01*
X130197328Y-117119400D01*
%TO.N,GNDREF*%
G36*
X138303000Y-77522606D02*
G01*
X138303000Y-77531928D01*
X135830000Y-77531928D01*
X135705518Y-77544188D01*
X135585820Y-77580498D01*
X135475506Y-77639463D01*
X135378815Y-77718815D01*
X135299463Y-77815506D01*
X135240498Y-77925820D01*
X135204188Y-78045518D01*
X135191928Y-78170000D01*
X135191928Y-79470000D01*
X135204188Y-79594482D01*
X135240498Y-79714180D01*
X135299463Y-79824494D01*
X135378815Y-79921185D01*
X135475506Y-80000537D01*
X135585820Y-80059502D01*
X135620427Y-80070000D01*
X135585820Y-80080498D01*
X135475506Y-80139463D01*
X135378815Y-80218815D01*
X135299463Y-80315506D01*
X135240498Y-80425820D01*
X135204188Y-80545518D01*
X135202762Y-80560000D01*
X133129822Y-80560000D01*
X133092499Y-80556324D01*
X133055176Y-80560000D01*
X133055167Y-80560000D01*
X132943514Y-80570997D01*
X132800253Y-80614454D01*
X132668224Y-80685026D01*
X132552499Y-80779999D01*
X132528701Y-80808997D01*
X132355770Y-80981928D01*
X131455000Y-80981928D01*
X131281746Y-80998992D01*
X131115150Y-81049528D01*
X130961614Y-81131595D01*
X130827038Y-81242038D01*
X130716595Y-81376614D01*
X130634528Y-81530150D01*
X130621681Y-81572500D01*
X127909062Y-81572500D01*
X127850376Y-81513814D01*
X127631886Y-81367824D01*
X127389114Y-81267265D01*
X127131388Y-81216000D01*
X126868612Y-81216000D01*
X126610886Y-81267265D01*
X126368114Y-81367824D01*
X126149624Y-81513814D01*
X125963814Y-81699624D01*
X125817824Y-81918114D01*
X125717265Y-82160886D01*
X125666000Y-82418612D01*
X125666000Y-82681388D01*
X125717265Y-82939114D01*
X125817824Y-83181886D01*
X125963814Y-83400376D01*
X126149624Y-83586186D01*
X126368114Y-83732176D01*
X126418214Y-83752928D01*
X126301000Y-83752928D01*
X126176518Y-83765188D01*
X126056820Y-83801498D01*
X125946506Y-83860463D01*
X125849815Y-83939815D01*
X125770463Y-84036506D01*
X125711498Y-84146820D01*
X125675188Y-84266518D01*
X125662928Y-84391000D01*
X125662928Y-85789000D01*
X125675188Y-85913482D01*
X125711498Y-86033180D01*
X125770463Y-86143494D01*
X125849815Y-86240185D01*
X125946506Y-86319537D01*
X126056820Y-86378502D01*
X126176518Y-86414812D01*
X126301000Y-86427072D01*
X127699000Y-86427072D01*
X127823482Y-86414812D01*
X127943180Y-86378502D01*
X128053494Y-86319537D01*
X128150185Y-86240185D01*
X128229537Y-86143494D01*
X128270157Y-86067500D01*
X130621681Y-86067500D01*
X130634528Y-86109850D01*
X130716595Y-86263386D01*
X130827038Y-86397962D01*
X130961614Y-86508405D01*
X131115150Y-86590472D01*
X131281746Y-86641008D01*
X131455000Y-86658072D01*
X132355770Y-86658072D01*
X132528701Y-86831003D01*
X132552499Y-86860001D01*
X132668224Y-86954974D01*
X132800253Y-87025546D01*
X132943514Y-87069003D01*
X133055167Y-87080000D01*
X133055176Y-87080000D01*
X133092499Y-87083676D01*
X133129822Y-87080000D01*
X135202762Y-87080000D01*
X135204188Y-87094482D01*
X135240498Y-87214180D01*
X135299463Y-87324494D01*
X135378815Y-87421185D01*
X135475506Y-87500537D01*
X135585820Y-87559502D01*
X135620427Y-87570000D01*
X135585820Y-87580498D01*
X135475506Y-87639463D01*
X135378815Y-87718815D01*
X135299463Y-87815506D01*
X135240498Y-87925820D01*
X135204188Y-88045518D01*
X135191928Y-88170000D01*
X135191928Y-89470000D01*
X135204188Y-89594482D01*
X135240498Y-89714180D01*
X135299463Y-89824494D01*
X135378815Y-89921185D01*
X135475506Y-90000537D01*
X135585820Y-90059502D01*
X135705518Y-90095812D01*
X135830000Y-90108072D01*
X138303000Y-90108072D01*
X138303000Y-90170000D01*
X138305440Y-90194776D01*
X138312667Y-90218601D01*
X138324403Y-90240557D01*
X138340197Y-90259803D01*
X139610197Y-91529803D01*
X139629443Y-91545597D01*
X139651399Y-91557333D01*
X139675224Y-91564560D01*
X139700000Y-91567000D01*
X149815451Y-91567000D01*
X156130664Y-96619170D01*
X156151535Y-96632743D01*
X156174654Y-96641982D01*
X156210000Y-96647000D01*
X163787667Y-96647000D01*
X168833800Y-100431600D01*
X168855085Y-100444514D01*
X168878481Y-100453027D01*
X168910000Y-100457000D01*
X169742250Y-100457000D01*
X169746579Y-100458793D01*
X170033652Y-100515895D01*
X170326348Y-100515895D01*
X170613421Y-100458793D01*
X170617750Y-100457000D01*
X171397394Y-100457000D01*
X172593000Y-101652606D01*
X172593000Y-104013000D01*
X170307184Y-104013000D01*
X170538161Y-103979492D01*
X170814062Y-103881766D01*
X170951690Y-103808202D01*
X171029435Y-103559035D01*
X170180000Y-102709600D01*
X169330565Y-103559035D01*
X169408310Y-103808202D01*
X169672503Y-103934191D01*
X169956199Y-104006218D01*
X170085799Y-104013000D01*
X142288285Y-104013000D01*
X140696963Y-102598491D01*
X168688481Y-102598491D01*
X168730503Y-102888156D01*
X168828229Y-103164057D01*
X168901793Y-103301685D01*
X169150960Y-103379430D01*
X170000395Y-102529995D01*
X170359605Y-102529995D01*
X171209040Y-103379430D01*
X171458207Y-103301685D01*
X171584196Y-103037492D01*
X171656223Y-102753796D01*
X171671519Y-102461499D01*
X171629497Y-102171834D01*
X171531771Y-101895933D01*
X171458207Y-101758305D01*
X171209040Y-101680560D01*
X170359605Y-102529995D01*
X170000395Y-102529995D01*
X169150960Y-101680560D01*
X168901793Y-101758305D01*
X168775804Y-102022498D01*
X168703777Y-102306194D01*
X168688481Y-102598491D01*
X140696963Y-102598491D01*
X139462235Y-101500955D01*
X169330565Y-101500955D01*
X170180000Y-102350390D01*
X171029435Y-101500955D01*
X170951690Y-101251788D01*
X170687497Y-101125799D01*
X170403801Y-101053772D01*
X170111504Y-101038476D01*
X169821839Y-101080498D01*
X169545938Y-101178224D01*
X169408310Y-101251788D01*
X169330565Y-101500955D01*
X139462235Y-101500955D01*
X130894374Y-93885079D01*
X130874235Y-93870442D01*
X130851627Y-93860016D01*
X130827419Y-93854200D01*
X130810000Y-93853000D01*
X116230000Y-93853000D01*
X116230000Y-91666994D01*
X120602611Y-91666994D01*
X120759525Y-91983322D01*
X121135585Y-92174877D01*
X121541790Y-92289386D01*
X121962528Y-92322447D01*
X122381633Y-92272792D01*
X122782997Y-92142327D01*
X123080475Y-91983322D01*
X123237389Y-91666994D01*
X121920000Y-90349605D01*
X120602611Y-91666994D01*
X116230000Y-91666994D01*
X116230000Y-90212528D01*
X119767553Y-90212528D01*
X119817208Y-90631633D01*
X119947673Y-91032997D01*
X120106678Y-91330475D01*
X120423006Y-91487389D01*
X121740395Y-90170000D01*
X122099605Y-90170000D01*
X123416994Y-91487389D01*
X123733322Y-91330475D01*
X123924877Y-90954415D01*
X124039386Y-90548210D01*
X124072447Y-90127472D01*
X124022792Y-89708367D01*
X123892327Y-89307003D01*
X123733322Y-89009525D01*
X123416994Y-88852611D01*
X122099605Y-90170000D01*
X121740395Y-90170000D01*
X120423006Y-88852611D01*
X120106678Y-89009525D01*
X119915123Y-89385585D01*
X119800614Y-89791790D01*
X119767553Y-90212528D01*
X116230000Y-90212528D01*
X116230000Y-88673006D01*
X120602611Y-88673006D01*
X121920000Y-89990395D01*
X123237389Y-88673006D01*
X123080475Y-88356678D01*
X122704415Y-88165123D01*
X122298210Y-88050614D01*
X121877472Y-88017553D01*
X121458367Y-88067208D01*
X121057003Y-88197673D01*
X120759525Y-88356678D01*
X120602611Y-88673006D01*
X116230000Y-88673006D01*
X116230000Y-81506994D01*
X120602611Y-81506994D01*
X120759525Y-81823322D01*
X121135585Y-82014877D01*
X121541790Y-82129386D01*
X121962528Y-82162447D01*
X122381633Y-82112792D01*
X122782997Y-81982327D01*
X123080475Y-81823322D01*
X123237389Y-81506994D01*
X121920000Y-80189605D01*
X120602611Y-81506994D01*
X116230000Y-81506994D01*
X116230000Y-80052528D01*
X119767553Y-80052528D01*
X119817208Y-80471633D01*
X119947673Y-80872997D01*
X120106678Y-81170475D01*
X120423006Y-81327389D01*
X121740395Y-80010000D01*
X122099605Y-80010000D01*
X123416994Y-81327389D01*
X123733322Y-81170475D01*
X123924877Y-80794415D01*
X124039386Y-80388210D01*
X124072447Y-79967472D01*
X124022792Y-79548367D01*
X123892327Y-79147003D01*
X123733322Y-78849525D01*
X123416994Y-78692611D01*
X122099605Y-80010000D01*
X121740395Y-80010000D01*
X120423006Y-78692611D01*
X120106678Y-78849525D01*
X119915123Y-79225585D01*
X119800614Y-79631790D01*
X119767553Y-80052528D01*
X116230000Y-80052528D01*
X116230000Y-78513006D01*
X120602611Y-78513006D01*
X121920000Y-79830395D01*
X123237389Y-78513006D01*
X123080475Y-78196678D01*
X122704415Y-78005123D01*
X122298210Y-77890614D01*
X121877472Y-77857553D01*
X121458367Y-77907208D01*
X121057003Y-78037673D01*
X120759525Y-78196678D01*
X120602611Y-78513006D01*
X116230000Y-78513006D01*
X116230000Y-76327000D01*
X137107394Y-76327000D01*
X138303000Y-77522606D01*
G37*
X138303000Y-77522606D02*
X138303000Y-77531928D01*
X135830000Y-77531928D01*
X135705518Y-77544188D01*
X135585820Y-77580498D01*
X135475506Y-77639463D01*
X135378815Y-77718815D01*
X135299463Y-77815506D01*
X135240498Y-77925820D01*
X135204188Y-78045518D01*
X135191928Y-78170000D01*
X135191928Y-79470000D01*
X135204188Y-79594482D01*
X135240498Y-79714180D01*
X135299463Y-79824494D01*
X135378815Y-79921185D01*
X135475506Y-80000537D01*
X135585820Y-80059502D01*
X135620427Y-80070000D01*
X135585820Y-80080498D01*
X135475506Y-80139463D01*
X135378815Y-80218815D01*
X135299463Y-80315506D01*
X135240498Y-80425820D01*
X135204188Y-80545518D01*
X135202762Y-80560000D01*
X133129822Y-80560000D01*
X133092499Y-80556324D01*
X133055176Y-80560000D01*
X133055167Y-80560000D01*
X132943514Y-80570997D01*
X132800253Y-80614454D01*
X132668224Y-80685026D01*
X132552499Y-80779999D01*
X132528701Y-80808997D01*
X132355770Y-80981928D01*
X131455000Y-80981928D01*
X131281746Y-80998992D01*
X131115150Y-81049528D01*
X130961614Y-81131595D01*
X130827038Y-81242038D01*
X130716595Y-81376614D01*
X130634528Y-81530150D01*
X130621681Y-81572500D01*
X127909062Y-81572500D01*
X127850376Y-81513814D01*
X127631886Y-81367824D01*
X127389114Y-81267265D01*
X127131388Y-81216000D01*
X126868612Y-81216000D01*
X126610886Y-81267265D01*
X126368114Y-81367824D01*
X126149624Y-81513814D01*
X125963814Y-81699624D01*
X125817824Y-81918114D01*
X125717265Y-82160886D01*
X125666000Y-82418612D01*
X125666000Y-82681388D01*
X125717265Y-82939114D01*
X125817824Y-83181886D01*
X125963814Y-83400376D01*
X126149624Y-83586186D01*
X126368114Y-83732176D01*
X126418214Y-83752928D01*
X126301000Y-83752928D01*
X126176518Y-83765188D01*
X126056820Y-83801498D01*
X125946506Y-83860463D01*
X125849815Y-83939815D01*
X125770463Y-84036506D01*
X125711498Y-84146820D01*
X125675188Y-84266518D01*
X125662928Y-84391000D01*
X125662928Y-85789000D01*
X125675188Y-85913482D01*
X125711498Y-86033180D01*
X125770463Y-86143494D01*
X125849815Y-86240185D01*
X125946506Y-86319537D01*
X126056820Y-86378502D01*
X126176518Y-86414812D01*
X126301000Y-86427072D01*
X127699000Y-86427072D01*
X127823482Y-86414812D01*
X127943180Y-86378502D01*
X128053494Y-86319537D01*
X128150185Y-86240185D01*
X128229537Y-86143494D01*
X128270157Y-86067500D01*
X130621681Y-86067500D01*
X130634528Y-86109850D01*
X130716595Y-86263386D01*
X130827038Y-86397962D01*
X130961614Y-86508405D01*
X131115150Y-86590472D01*
X131281746Y-86641008D01*
X131455000Y-86658072D01*
X132355770Y-86658072D01*
X132528701Y-86831003D01*
X132552499Y-86860001D01*
X132668224Y-86954974D01*
X132800253Y-87025546D01*
X132943514Y-87069003D01*
X133055167Y-87080000D01*
X133055176Y-87080000D01*
X133092499Y-87083676D01*
X133129822Y-87080000D01*
X135202762Y-87080000D01*
X135204188Y-87094482D01*
X135240498Y-87214180D01*
X135299463Y-87324494D01*
X135378815Y-87421185D01*
X135475506Y-87500537D01*
X135585820Y-87559502D01*
X135620427Y-87570000D01*
X135585820Y-87580498D01*
X135475506Y-87639463D01*
X135378815Y-87718815D01*
X135299463Y-87815506D01*
X135240498Y-87925820D01*
X135204188Y-88045518D01*
X135191928Y-88170000D01*
X135191928Y-89470000D01*
X135204188Y-89594482D01*
X135240498Y-89714180D01*
X135299463Y-89824494D01*
X135378815Y-89921185D01*
X135475506Y-90000537D01*
X135585820Y-90059502D01*
X135705518Y-90095812D01*
X135830000Y-90108072D01*
X138303000Y-90108072D01*
X138303000Y-90170000D01*
X138305440Y-90194776D01*
X138312667Y-90218601D01*
X138324403Y-90240557D01*
X138340197Y-90259803D01*
X139610197Y-91529803D01*
X139629443Y-91545597D01*
X139651399Y-91557333D01*
X139675224Y-91564560D01*
X139700000Y-91567000D01*
X149815451Y-91567000D01*
X156130664Y-96619170D01*
X156151535Y-96632743D01*
X156174654Y-96641982D01*
X156210000Y-96647000D01*
X163787667Y-96647000D01*
X168833800Y-100431600D01*
X168855085Y-100444514D01*
X168878481Y-100453027D01*
X168910000Y-100457000D01*
X169742250Y-100457000D01*
X169746579Y-100458793D01*
X170033652Y-100515895D01*
X170326348Y-100515895D01*
X170613421Y-100458793D01*
X170617750Y-100457000D01*
X171397394Y-100457000D01*
X172593000Y-101652606D01*
X172593000Y-104013000D01*
X170307184Y-104013000D01*
X170538161Y-103979492D01*
X170814062Y-103881766D01*
X170951690Y-103808202D01*
X171029435Y-103559035D01*
X170180000Y-102709600D01*
X169330565Y-103559035D01*
X169408310Y-103808202D01*
X169672503Y-103934191D01*
X169956199Y-104006218D01*
X170085799Y-104013000D01*
X142288285Y-104013000D01*
X140696963Y-102598491D01*
X168688481Y-102598491D01*
X168730503Y-102888156D01*
X168828229Y-103164057D01*
X168901793Y-103301685D01*
X169150960Y-103379430D01*
X170000395Y-102529995D01*
X170359605Y-102529995D01*
X171209040Y-103379430D01*
X171458207Y-103301685D01*
X171584196Y-103037492D01*
X171656223Y-102753796D01*
X171671519Y-102461499D01*
X171629497Y-102171834D01*
X171531771Y-101895933D01*
X171458207Y-101758305D01*
X171209040Y-101680560D01*
X170359605Y-102529995D01*
X170000395Y-102529995D01*
X169150960Y-101680560D01*
X168901793Y-101758305D01*
X168775804Y-102022498D01*
X168703777Y-102306194D01*
X168688481Y-102598491D01*
X140696963Y-102598491D01*
X139462235Y-101500955D01*
X169330565Y-101500955D01*
X170180000Y-102350390D01*
X171029435Y-101500955D01*
X170951690Y-101251788D01*
X170687497Y-101125799D01*
X170403801Y-101053772D01*
X170111504Y-101038476D01*
X169821839Y-101080498D01*
X169545938Y-101178224D01*
X169408310Y-101251788D01*
X169330565Y-101500955D01*
X139462235Y-101500955D01*
X130894374Y-93885079D01*
X130874235Y-93870442D01*
X130851627Y-93860016D01*
X130827419Y-93854200D01*
X130810000Y-93853000D01*
X116230000Y-93853000D01*
X116230000Y-91666994D01*
X120602611Y-91666994D01*
X120759525Y-91983322D01*
X121135585Y-92174877D01*
X121541790Y-92289386D01*
X121962528Y-92322447D01*
X122381633Y-92272792D01*
X122782997Y-92142327D01*
X123080475Y-91983322D01*
X123237389Y-91666994D01*
X121920000Y-90349605D01*
X120602611Y-91666994D01*
X116230000Y-91666994D01*
X116230000Y-90212528D01*
X119767553Y-90212528D01*
X119817208Y-90631633D01*
X119947673Y-91032997D01*
X120106678Y-91330475D01*
X120423006Y-91487389D01*
X121740395Y-90170000D01*
X122099605Y-90170000D01*
X123416994Y-91487389D01*
X123733322Y-91330475D01*
X123924877Y-90954415D01*
X124039386Y-90548210D01*
X124072447Y-90127472D01*
X124022792Y-89708367D01*
X123892327Y-89307003D01*
X123733322Y-89009525D01*
X123416994Y-88852611D01*
X122099605Y-90170000D01*
X121740395Y-90170000D01*
X120423006Y-88852611D01*
X120106678Y-89009525D01*
X119915123Y-89385585D01*
X119800614Y-89791790D01*
X119767553Y-90212528D01*
X116230000Y-90212528D01*
X116230000Y-88673006D01*
X120602611Y-88673006D01*
X121920000Y-89990395D01*
X123237389Y-88673006D01*
X123080475Y-88356678D01*
X122704415Y-88165123D01*
X122298210Y-88050614D01*
X121877472Y-88017553D01*
X121458367Y-88067208D01*
X121057003Y-88197673D01*
X120759525Y-88356678D01*
X120602611Y-88673006D01*
X116230000Y-88673006D01*
X116230000Y-81506994D01*
X120602611Y-81506994D01*
X120759525Y-81823322D01*
X121135585Y-82014877D01*
X121541790Y-82129386D01*
X121962528Y-82162447D01*
X122381633Y-82112792D01*
X122782997Y-81982327D01*
X123080475Y-81823322D01*
X123237389Y-81506994D01*
X121920000Y-80189605D01*
X120602611Y-81506994D01*
X116230000Y-81506994D01*
X116230000Y-80052528D01*
X119767553Y-80052528D01*
X119817208Y-80471633D01*
X119947673Y-80872997D01*
X120106678Y-81170475D01*
X120423006Y-81327389D01*
X121740395Y-80010000D01*
X122099605Y-80010000D01*
X123416994Y-81327389D01*
X123733322Y-81170475D01*
X123924877Y-80794415D01*
X124039386Y-80388210D01*
X124072447Y-79967472D01*
X124022792Y-79548367D01*
X123892327Y-79147003D01*
X123733322Y-78849525D01*
X123416994Y-78692611D01*
X122099605Y-80010000D01*
X121740395Y-80010000D01*
X120423006Y-78692611D01*
X120106678Y-78849525D01*
X119915123Y-79225585D01*
X119800614Y-79631790D01*
X119767553Y-80052528D01*
X116230000Y-80052528D01*
X116230000Y-78513006D01*
X120602611Y-78513006D01*
X121920000Y-79830395D01*
X123237389Y-78513006D01*
X123080475Y-78196678D01*
X122704415Y-78005123D01*
X122298210Y-77890614D01*
X121877472Y-77857553D01*
X121458367Y-77907208D01*
X121057003Y-78037673D01*
X120759525Y-78196678D01*
X120602611Y-78513006D01*
X116230000Y-78513006D01*
X116230000Y-76327000D01*
X137107394Y-76327000D01*
X138303000Y-77522606D01*
%TD*%
M02*
