M48
; DRILL file {KiCad (5.1.6)-1} date 09/14/20 11:12:52
; FORMAT={-:-/ absolute / inch / decimal}
; #@! TF.CreationDate,2020-09-14T11:12:52-07:00
; #@! TF.GenerationSoftware,Kicad,Pcbnew,(5.1.6)-1
FMAT,2
INCH
T1C0.0157
T2C0.0197
T3C0.0350
T4C0.0470
T5C0.0791
T6C0.1260
%
G90
G05
T1
X3.45Y-3.45
X3.45Y-4.75
X3.8Y-3.25
X3.8Y-5.05
X4.4Y-3.25
X4.4Y-4.15
X4.4Y-5.05
X5.0Y-3.25
X5.0Y-5.1
X5.1Y-4.15
X5.45Y-3.7
X5.45Y-4.65
T2
X5.3555Y-5.1
X5.3832Y-5.0332
X5.3832Y-5.1668
X5.45Y-5.0055
X5.45Y-5.1945
X5.5168Y-5.0332
X5.5168Y-5.1668
X5.5445Y-5.1
X5.3555Y-3.15
X5.3832Y-3.0832
X5.3832Y-3.2168
X5.45Y-3.0555
X5.45Y-3.2445
X5.5168Y-3.0832
X5.5168Y-3.2168
X5.5445Y-3.15
X3.0555Y-5.1
X3.0832Y-5.0332
X3.0832Y-5.1668
X3.15Y-5.0055
X3.15Y-5.1945
X3.2168Y-5.0332
X3.2168Y-5.1668
X3.2445Y-5.1
X3.0555Y-3.15
X3.0832Y-3.0832
X3.0832Y-3.2168
X3.15Y-3.0555
X3.15Y-3.2445
X3.2168Y-3.0832
X3.2168Y-3.2168
X3.2445Y-3.15
T3
X5.1Y-3.6
X5.1Y-3.7
X5.1Y-4.55
X5.1Y-4.65
T4
X3.25Y-3.711
X3.25Y-3.8488
X3.25Y-3.9866
X3.25Y-4.1244
X3.25Y-4.2622
X3.25Y-4.4
T5
X5.3Y-3.5
X5.3Y-3.9
X5.3Y-4.45
X5.3Y-4.85
T6
X3.15Y-5.1
X3.15Y-3.15
X5.45Y-5.1
X5.45Y-3.15
T0
M30
