%TF.GenerationSoftware,KiCad,Pcbnew,(5.1.6)-1*%
%TF.CreationDate,2020-09-14T11:12:27-07:00*%
%TF.ProjectId,awg-tx-shunt,6177672d-7478-42d7-9368-756e742e6b69,rev?*%
%TF.SameCoordinates,Original*%
%TF.FileFunction,Legend,Top*%
%TF.FilePolarity,Positive*%
%FSLAX46Y46*%
G04 Gerber Fmt 4.6, Leading zero omitted, Abs format (unit mm)*
G04 Created by KiCad (PCBNEW (5.1.6)-1) date 2020-09-14 11:12:27*
%MOMM*%
%LPD*%
G01*
G04 APERTURE LIST*
%ADD10C,0.150000*%
%ADD11C,0.400000*%
%ADD12C,0.600000*%
%ADD13C,0.010000*%
%ADD14C,0.152400*%
%ADD15C,0.120000*%
%ADD16C,0.127000*%
%ADD17C,0.250000*%
%ADD18C,0.900000*%
%ADD19C,6.500000*%
%ADD20R,3.046400X7.720000*%
%ADD21R,3.046400X1.776400*%
%ADD22C,1.801800*%
%ADD23O,2.600000X1.700000*%
%ADD24O,7.100000X3.600000*%
%ADD25R,2.640000X1.400000*%
G04 APERTURE END LIST*
D10*
X91488095Y-88797380D02*
X91726190Y-89797380D01*
X91916666Y-89083095D01*
X92107142Y-89797380D01*
X92345238Y-88797380D01*
X92678571Y-89511666D02*
X93154761Y-89511666D01*
X92583333Y-89797380D02*
X92916666Y-88797380D01*
X93250000Y-89797380D01*
X94154761Y-89797380D02*
X93821428Y-89321190D01*
X93583333Y-89797380D02*
X93583333Y-88797380D01*
X93964285Y-88797380D01*
X94059523Y-88845000D01*
X94107142Y-88892619D01*
X94154761Y-88987857D01*
X94154761Y-89130714D01*
X94107142Y-89225952D01*
X94059523Y-89273571D01*
X93964285Y-89321190D01*
X93583333Y-89321190D01*
X94583333Y-89797380D02*
X94583333Y-88797380D01*
X95154761Y-89797380D01*
X95154761Y-88797380D01*
X95630952Y-89797380D02*
X95630952Y-88797380D01*
X96107142Y-89797380D02*
X96107142Y-88797380D01*
X96678571Y-89797380D01*
X96678571Y-88797380D01*
X97678571Y-88845000D02*
X97583333Y-88797380D01*
X97440476Y-88797380D01*
X97297619Y-88845000D01*
X97202380Y-88940238D01*
X97154761Y-89035476D01*
X97107142Y-89225952D01*
X97107142Y-89368809D01*
X97154761Y-89559285D01*
X97202380Y-89654523D01*
X97297619Y-89749761D01*
X97440476Y-89797380D01*
X97535714Y-89797380D01*
X97678571Y-89749761D01*
X97726190Y-89702142D01*
X97726190Y-89368809D01*
X97535714Y-89368809D01*
X98154761Y-89702142D02*
X98202380Y-89749761D01*
X98154761Y-89797380D01*
X98107142Y-89749761D01*
X98154761Y-89702142D01*
X98154761Y-89797380D01*
X98154761Y-89416428D02*
X98107142Y-88845000D01*
X98154761Y-88797380D01*
X98202380Y-88845000D01*
X98154761Y-89416428D01*
X98154761Y-88797380D01*
X89940476Y-91447380D02*
X89940476Y-90447380D01*
X89940476Y-90923571D02*
X90511904Y-90923571D01*
X90511904Y-91447380D02*
X90511904Y-90447380D01*
X90988095Y-91447380D02*
X90988095Y-90447380D01*
X91988095Y-90495000D02*
X91892857Y-90447380D01*
X91750000Y-90447380D01*
X91607142Y-90495000D01*
X91511904Y-90590238D01*
X91464285Y-90685476D01*
X91416666Y-90875952D01*
X91416666Y-91018809D01*
X91464285Y-91209285D01*
X91511904Y-91304523D01*
X91607142Y-91399761D01*
X91750000Y-91447380D01*
X91845238Y-91447380D01*
X91988095Y-91399761D01*
X92035714Y-91352142D01*
X92035714Y-91018809D01*
X91845238Y-91018809D01*
X92464285Y-91447380D02*
X92464285Y-90447380D01*
X92464285Y-90923571D02*
X93035714Y-90923571D01*
X93035714Y-91447380D02*
X93035714Y-90447380D01*
X94845238Y-91352142D02*
X94797619Y-91399761D01*
X94654761Y-91447380D01*
X94559523Y-91447380D01*
X94416666Y-91399761D01*
X94321428Y-91304523D01*
X94273809Y-91209285D01*
X94226190Y-91018809D01*
X94226190Y-90875952D01*
X94273809Y-90685476D01*
X94321428Y-90590238D01*
X94416666Y-90495000D01*
X94559523Y-90447380D01*
X94654761Y-90447380D01*
X94797619Y-90495000D01*
X94845238Y-90542619D01*
X95273809Y-90447380D02*
X95273809Y-91256904D01*
X95321428Y-91352142D01*
X95369047Y-91399761D01*
X95464285Y-91447380D01*
X95654761Y-91447380D01*
X95750000Y-91399761D01*
X95797619Y-91352142D01*
X95845238Y-91256904D01*
X95845238Y-90447380D01*
X96892857Y-91447380D02*
X96559523Y-90971190D01*
X96321428Y-91447380D02*
X96321428Y-90447380D01*
X96702380Y-90447380D01*
X96797619Y-90495000D01*
X96845238Y-90542619D01*
X96892857Y-90637857D01*
X96892857Y-90780714D01*
X96845238Y-90875952D01*
X96797619Y-90923571D01*
X96702380Y-90971190D01*
X96321428Y-90971190D01*
X97892857Y-91447380D02*
X97559523Y-90971190D01*
X97321428Y-91447380D02*
X97321428Y-90447380D01*
X97702380Y-90447380D01*
X97797619Y-90495000D01*
X97845238Y-90542619D01*
X97892857Y-90637857D01*
X97892857Y-90780714D01*
X97845238Y-90875952D01*
X97797619Y-90923571D01*
X97702380Y-90971190D01*
X97321428Y-90971190D01*
X98321428Y-90923571D02*
X98654761Y-90923571D01*
X98797619Y-91447380D02*
X98321428Y-91447380D01*
X98321428Y-90447380D01*
X98797619Y-90447380D01*
X99226190Y-91447380D02*
X99226190Y-90447380D01*
X99797619Y-91447380D01*
X99797619Y-90447380D01*
X100130952Y-90447380D02*
X100702380Y-90447380D01*
X100416666Y-91447380D02*
X100416666Y-90447380D01*
D11*
X95250000Y-86518571D02*
X95440476Y-86709047D01*
X95250000Y-86899523D01*
X95059523Y-86709047D01*
X95250000Y-86518571D01*
X95250000Y-86899523D01*
X95250000Y-85375714D02*
X95059523Y-83090000D01*
X95250000Y-82899523D01*
X95440476Y-83090000D01*
X95250000Y-85375714D01*
X95250000Y-82899523D01*
D12*
X99060000Y-87630000D02*
X95250000Y-81280000D01*
X91440000Y-87630000D02*
X99060000Y-87630000D01*
X95250000Y-81280000D02*
X91440000Y-87630000D01*
D10*
X135549047Y-106132380D02*
X135739523Y-106132380D01*
X135834761Y-106180000D01*
X135930000Y-106275238D01*
X135977619Y-106465714D01*
X135977619Y-106799047D01*
X135930000Y-106989523D01*
X135834761Y-107084761D01*
X135739523Y-107132380D01*
X135549047Y-107132380D01*
X135453809Y-107084761D01*
X135358571Y-106989523D01*
X135310952Y-106799047D01*
X135310952Y-106465714D01*
X135358571Y-106275238D01*
X135453809Y-106180000D01*
X135549047Y-106132380D01*
X136406190Y-106132380D02*
X136406190Y-106941904D01*
X136453809Y-107037142D01*
X136501428Y-107084761D01*
X136596666Y-107132380D01*
X136787142Y-107132380D01*
X136882380Y-107084761D01*
X136930000Y-107037142D01*
X136977619Y-106941904D01*
X136977619Y-106132380D01*
X137310952Y-106132380D02*
X137882380Y-106132380D01*
X137596666Y-107132380D02*
X137596666Y-106132380D01*
X138215714Y-107132380D02*
X138215714Y-106132380D01*
X138596666Y-106132380D01*
X138691904Y-106180000D01*
X138739523Y-106227619D01*
X138787142Y-106322857D01*
X138787142Y-106465714D01*
X138739523Y-106560952D01*
X138691904Y-106608571D01*
X138596666Y-106656190D01*
X138215714Y-106656190D01*
X139215714Y-106132380D02*
X139215714Y-106941904D01*
X139263333Y-107037142D01*
X139310952Y-107084761D01*
X139406190Y-107132380D01*
X139596666Y-107132380D01*
X139691904Y-107084761D01*
X139739523Y-107037142D01*
X139787142Y-106941904D01*
X139787142Y-106132380D01*
X140120476Y-106132380D02*
X140691904Y-106132380D01*
X140406190Y-107132380D02*
X140406190Y-106132380D01*
X140977619Y-107084761D02*
X141120476Y-107132380D01*
X141358571Y-107132380D01*
X141453809Y-107084761D01*
X141501428Y-107037142D01*
X141549047Y-106941904D01*
X141549047Y-106846666D01*
X141501428Y-106751428D01*
X141453809Y-106703809D01*
X141358571Y-106656190D01*
X141168095Y-106608571D01*
X141072857Y-106560952D01*
X141025238Y-106513333D01*
X140977619Y-106418095D01*
X140977619Y-106322857D01*
X141025238Y-106227619D01*
X141072857Y-106180000D01*
X141168095Y-106132380D01*
X141406190Y-106132380D01*
X141549047Y-106180000D01*
X85425595Y-79637380D02*
X85425595Y-78637380D01*
X85758928Y-79351666D01*
X86092261Y-78637380D01*
X86092261Y-79637380D01*
X86520833Y-79351666D02*
X86997023Y-79351666D01*
X86425595Y-79637380D02*
X86758928Y-78637380D01*
X87092261Y-79637380D01*
X87997023Y-79637380D02*
X87663690Y-79161190D01*
X87425595Y-79637380D02*
X87425595Y-78637380D01*
X87806547Y-78637380D01*
X87901785Y-78685000D01*
X87949404Y-78732619D01*
X87997023Y-78827857D01*
X87997023Y-78970714D01*
X87949404Y-79065952D01*
X87901785Y-79113571D01*
X87806547Y-79161190D01*
X87425595Y-79161190D01*
X88425595Y-79637380D02*
X88425595Y-78637380D01*
X88901785Y-79637380D02*
X88901785Y-78637380D01*
X89473214Y-79637380D01*
X89473214Y-78637380D01*
X89949404Y-79113571D02*
X90282738Y-79113571D01*
X90425595Y-79637380D02*
X89949404Y-79637380D01*
X89949404Y-78637380D01*
X90425595Y-78637380D01*
X91616071Y-79637380D02*
X91616071Y-78637380D01*
X92092261Y-79637380D02*
X92092261Y-78637380D01*
X92473214Y-78637380D01*
X92568452Y-78685000D01*
X92616071Y-78732619D01*
X92663690Y-78827857D01*
X92663690Y-78970714D01*
X92616071Y-79065952D01*
X92568452Y-79113571D01*
X92473214Y-79161190D01*
X92092261Y-79161190D01*
X93711309Y-78637380D02*
X94282738Y-78637380D01*
X93997023Y-79637380D02*
X93997023Y-78637380D01*
X95187500Y-79637380D02*
X94854166Y-79161190D01*
X94616071Y-79637380D02*
X94616071Y-78637380D01*
X94997023Y-78637380D01*
X95092261Y-78685000D01*
X95139880Y-78732619D01*
X95187500Y-78827857D01*
X95187500Y-78970714D01*
X95139880Y-79065952D01*
X95092261Y-79113571D01*
X94997023Y-79161190D01*
X94616071Y-79161190D01*
X95568452Y-79351666D02*
X96044642Y-79351666D01*
X95473214Y-79637380D02*
X95806547Y-78637380D01*
X96139880Y-79637380D01*
X96473214Y-79637380D02*
X96473214Y-78637380D01*
X97044642Y-79637380D01*
X97044642Y-78637380D01*
X97473214Y-79589761D02*
X97616071Y-79637380D01*
X97854166Y-79637380D01*
X97949404Y-79589761D01*
X97997023Y-79542142D01*
X98044642Y-79446904D01*
X98044642Y-79351666D01*
X97997023Y-79256428D01*
X97949404Y-79208809D01*
X97854166Y-79161190D01*
X97663690Y-79113571D01*
X97568452Y-79065952D01*
X97520833Y-79018333D01*
X97473214Y-78923095D01*
X97473214Y-78827857D01*
X97520833Y-78732619D01*
X97568452Y-78685000D01*
X97663690Y-78637380D01*
X97901785Y-78637380D01*
X98044642Y-78685000D01*
X98473214Y-79637380D02*
X98473214Y-78637380D01*
X98806547Y-79351666D01*
X99139880Y-78637380D01*
X99139880Y-79637380D01*
X99616071Y-79637380D02*
X99616071Y-78637380D01*
X99949404Y-78637380D02*
X100520833Y-78637380D01*
X100235119Y-79637380D02*
X100235119Y-78637380D01*
X100711309Y-78637380D02*
X101282738Y-78637380D01*
X100997023Y-79637380D02*
X100997023Y-78637380D01*
X101616071Y-79113571D02*
X101949404Y-79113571D01*
X102092261Y-79637380D02*
X101616071Y-79637380D01*
X101616071Y-78637380D01*
X102092261Y-78637380D01*
X103092261Y-79637380D02*
X102758928Y-79161190D01*
X102520833Y-79637380D02*
X102520833Y-78637380D01*
X102901785Y-78637380D01*
X102997023Y-78685000D01*
X103044642Y-78732619D01*
X103092261Y-78827857D01*
X103092261Y-78970714D01*
X103044642Y-79065952D01*
X102997023Y-79113571D01*
X102901785Y-79161190D01*
X102520833Y-79161190D01*
X104235119Y-79589761D02*
X104377976Y-79637380D01*
X104616071Y-79637380D01*
X104711309Y-79589761D01*
X104758928Y-79542142D01*
X104806547Y-79446904D01*
X104806547Y-79351666D01*
X104758928Y-79256428D01*
X104711309Y-79208809D01*
X104616071Y-79161190D01*
X104425595Y-79113571D01*
X104330357Y-79065952D01*
X104282738Y-79018333D01*
X104235119Y-78923095D01*
X104235119Y-78827857D01*
X104282738Y-78732619D01*
X104330357Y-78685000D01*
X104425595Y-78637380D01*
X104663690Y-78637380D01*
X104806547Y-78685000D01*
X105235119Y-79637380D02*
X105235119Y-78637380D01*
X105235119Y-79113571D02*
X105806547Y-79113571D01*
X105806547Y-79637380D02*
X105806547Y-78637380D01*
X106282738Y-78637380D02*
X106282738Y-79446904D01*
X106330357Y-79542142D01*
X106377976Y-79589761D01*
X106473214Y-79637380D01*
X106663690Y-79637380D01*
X106758928Y-79589761D01*
X106806547Y-79542142D01*
X106854166Y-79446904D01*
X106854166Y-78637380D01*
X107330357Y-79637380D02*
X107330357Y-78637380D01*
X107901785Y-79637380D01*
X107901785Y-78637380D01*
X108235119Y-78637380D02*
X108806547Y-78637380D01*
X108520833Y-79637380D02*
X108520833Y-78637380D01*
X110473214Y-79542142D02*
X110425595Y-79589761D01*
X110282738Y-79637380D01*
X110187500Y-79637380D01*
X110044642Y-79589761D01*
X109949404Y-79494523D01*
X109901785Y-79399285D01*
X109854166Y-79208809D01*
X109854166Y-79065952D01*
X109901785Y-78875476D01*
X109949404Y-78780238D01*
X110044642Y-78685000D01*
X110187500Y-78637380D01*
X110282738Y-78637380D01*
X110425595Y-78685000D01*
X110473214Y-78732619D01*
X110901785Y-79637380D02*
X110901785Y-78637380D01*
X111949404Y-79637380D02*
X111616071Y-79161190D01*
X111377976Y-79637380D02*
X111377976Y-78637380D01*
X111758928Y-78637380D01*
X111854166Y-78685000D01*
X111901785Y-78732619D01*
X111949404Y-78827857D01*
X111949404Y-78970714D01*
X111901785Y-79065952D01*
X111854166Y-79113571D01*
X111758928Y-79161190D01*
X111377976Y-79161190D01*
X112949404Y-79542142D02*
X112901785Y-79589761D01*
X112758928Y-79637380D01*
X112663690Y-79637380D01*
X112520833Y-79589761D01*
X112425595Y-79494523D01*
X112377976Y-79399285D01*
X112330357Y-79208809D01*
X112330357Y-79065952D01*
X112377976Y-78875476D01*
X112425595Y-78780238D01*
X112520833Y-78685000D01*
X112663690Y-78637380D01*
X112758928Y-78637380D01*
X112901785Y-78685000D01*
X112949404Y-78732619D01*
X113377976Y-78637380D02*
X113377976Y-79446904D01*
X113425595Y-79542142D01*
X113473214Y-79589761D01*
X113568452Y-79637380D01*
X113758928Y-79637380D01*
X113854166Y-79589761D01*
X113901785Y-79542142D01*
X113949404Y-79446904D01*
X113949404Y-78637380D01*
X114425595Y-79637380D02*
X114425595Y-78637380D01*
X114758928Y-78637380D02*
X115330357Y-78637380D01*
X115044642Y-79637380D02*
X115044642Y-78637380D01*
X85997023Y-81287380D02*
X85663690Y-80811190D01*
X85425595Y-81287380D02*
X85425595Y-80287380D01*
X85806547Y-80287380D01*
X85901785Y-80335000D01*
X85949404Y-80382619D01*
X85997023Y-80477857D01*
X85997023Y-80620714D01*
X85949404Y-80715952D01*
X85901785Y-80763571D01*
X85806547Y-80811190D01*
X85425595Y-80811190D01*
X86425595Y-80763571D02*
X86758928Y-80763571D01*
X86901785Y-81287380D02*
X86425595Y-81287380D01*
X86425595Y-80287380D01*
X86901785Y-80287380D01*
X87187500Y-80287380D02*
X87520833Y-81287380D01*
X87854166Y-80287380D01*
X89139880Y-80287380D02*
X89235119Y-80287380D01*
X89330357Y-80335000D01*
X89377976Y-80382619D01*
X89425595Y-80477857D01*
X89473214Y-80668333D01*
X89473214Y-80906428D01*
X89425595Y-81096904D01*
X89377976Y-81192142D01*
X89330357Y-81239761D01*
X89235119Y-81287380D01*
X89139880Y-81287380D01*
X89044642Y-81239761D01*
X88997023Y-81192142D01*
X88949404Y-81096904D01*
X88901785Y-80906428D01*
X88901785Y-80668333D01*
X88949404Y-80477857D01*
X88997023Y-80382619D01*
X89044642Y-80335000D01*
X89139880Y-80287380D01*
X89901785Y-81192142D02*
X89949404Y-81239761D01*
X89901785Y-81287380D01*
X89854166Y-81239761D01*
X89901785Y-81192142D01*
X89901785Y-81287380D01*
X90901785Y-81287380D02*
X90330357Y-81287380D01*
X90616071Y-81287380D02*
X90616071Y-80287380D01*
X90520833Y-80430238D01*
X90425595Y-80525476D01*
X90330357Y-80573095D01*
X85997023Y-128247142D02*
X85949404Y-128294761D01*
X85806547Y-128342380D01*
X85711309Y-128342380D01*
X85568452Y-128294761D01*
X85473214Y-128199523D01*
X85425595Y-128104285D01*
X85377976Y-127913809D01*
X85377976Y-127770952D01*
X85425595Y-127580476D01*
X85473214Y-127485238D01*
X85568452Y-127390000D01*
X85711309Y-127342380D01*
X85806547Y-127342380D01*
X85949404Y-127390000D01*
X85997023Y-127437619D01*
X86616071Y-127342380D02*
X86806547Y-127342380D01*
X86901785Y-127390000D01*
X86997023Y-127485238D01*
X87044642Y-127675714D01*
X87044642Y-128009047D01*
X86997023Y-128199523D01*
X86901785Y-128294761D01*
X86806547Y-128342380D01*
X86616071Y-128342380D01*
X86520833Y-128294761D01*
X86425595Y-128199523D01*
X86377976Y-128009047D01*
X86377976Y-127675714D01*
X86425595Y-127485238D01*
X86520833Y-127390000D01*
X86616071Y-127342380D01*
X87473214Y-128342380D02*
X87473214Y-127342380D01*
X87854166Y-127342380D01*
X87949404Y-127390000D01*
X87997023Y-127437619D01*
X88044642Y-127532857D01*
X88044642Y-127675714D01*
X87997023Y-127770952D01*
X87949404Y-127818571D01*
X87854166Y-127866190D01*
X87473214Y-127866190D01*
X88663690Y-127866190D02*
X88663690Y-128342380D01*
X88330357Y-127342380D02*
X88663690Y-127866190D01*
X88997023Y-127342380D01*
X89901785Y-128342380D02*
X89568452Y-127866190D01*
X89330357Y-128342380D02*
X89330357Y-127342380D01*
X89711309Y-127342380D01*
X89806547Y-127390000D01*
X89854166Y-127437619D01*
X89901785Y-127532857D01*
X89901785Y-127675714D01*
X89854166Y-127770952D01*
X89806547Y-127818571D01*
X89711309Y-127866190D01*
X89330357Y-127866190D01*
X90330357Y-128342380D02*
X90330357Y-127342380D01*
X91330357Y-127390000D02*
X91235119Y-127342380D01*
X91092261Y-127342380D01*
X90949404Y-127390000D01*
X90854166Y-127485238D01*
X90806547Y-127580476D01*
X90758928Y-127770952D01*
X90758928Y-127913809D01*
X90806547Y-128104285D01*
X90854166Y-128199523D01*
X90949404Y-128294761D01*
X91092261Y-128342380D01*
X91187500Y-128342380D01*
X91330357Y-128294761D01*
X91377976Y-128247142D01*
X91377976Y-127913809D01*
X91187500Y-127913809D01*
X91806547Y-128342380D02*
X91806547Y-127342380D01*
X91806547Y-127818571D02*
X92377976Y-127818571D01*
X92377976Y-128342380D02*
X92377976Y-127342380D01*
X92711309Y-127342380D02*
X93282738Y-127342380D01*
X92997023Y-128342380D02*
X92997023Y-127342380D01*
X94330357Y-127437619D02*
X94377976Y-127390000D01*
X94473214Y-127342380D01*
X94711309Y-127342380D01*
X94806547Y-127390000D01*
X94854166Y-127437619D01*
X94901785Y-127532857D01*
X94901785Y-127628095D01*
X94854166Y-127770952D01*
X94282738Y-128342380D01*
X94901785Y-128342380D01*
X95520833Y-127342380D02*
X95616071Y-127342380D01*
X95711309Y-127390000D01*
X95758928Y-127437619D01*
X95806547Y-127532857D01*
X95854166Y-127723333D01*
X95854166Y-127961428D01*
X95806547Y-128151904D01*
X95758928Y-128247142D01*
X95711309Y-128294761D01*
X95616071Y-128342380D01*
X95520833Y-128342380D01*
X95425595Y-128294761D01*
X95377976Y-128247142D01*
X95330357Y-128151904D01*
X95282738Y-127961428D01*
X95282738Y-127723333D01*
X95330357Y-127532857D01*
X95377976Y-127437619D01*
X95425595Y-127390000D01*
X95520833Y-127342380D01*
X96235119Y-127437619D02*
X96282738Y-127390000D01*
X96377976Y-127342380D01*
X96616071Y-127342380D01*
X96711309Y-127390000D01*
X96758928Y-127437619D01*
X96806547Y-127532857D01*
X96806547Y-127628095D01*
X96758928Y-127770952D01*
X96187500Y-128342380D01*
X96806547Y-128342380D01*
X97425595Y-127342380D02*
X97520833Y-127342380D01*
X97616071Y-127390000D01*
X97663690Y-127437619D01*
X97711309Y-127532857D01*
X97758928Y-127723333D01*
X97758928Y-127961428D01*
X97711309Y-128151904D01*
X97663690Y-128247142D01*
X97616071Y-128294761D01*
X97520833Y-128342380D01*
X97425595Y-128342380D01*
X97330357Y-128294761D01*
X97282738Y-128247142D01*
X97235119Y-128151904D01*
X97187500Y-127961428D01*
X97187500Y-127723333D01*
X97235119Y-127532857D01*
X97282738Y-127437619D01*
X97330357Y-127390000D01*
X97425595Y-127342380D01*
X85425595Y-129992380D02*
X85425595Y-128992380D01*
X85901785Y-129992380D02*
X85901785Y-128992380D01*
X86473214Y-129992380D01*
X86473214Y-128992380D01*
X86949404Y-129992380D02*
X86949404Y-128992380D01*
X87187500Y-128992380D01*
X87330357Y-129040000D01*
X87425595Y-129135238D01*
X87473214Y-129230476D01*
X87520833Y-129420952D01*
X87520833Y-129563809D01*
X87473214Y-129754285D01*
X87425595Y-129849523D01*
X87330357Y-129944761D01*
X87187500Y-129992380D01*
X86949404Y-129992380D01*
X87949404Y-128992380D02*
X87949404Y-129801904D01*
X87997023Y-129897142D01*
X88044642Y-129944761D01*
X88139880Y-129992380D01*
X88330357Y-129992380D01*
X88425595Y-129944761D01*
X88473214Y-129897142D01*
X88520833Y-129801904D01*
X88520833Y-128992380D01*
X89568452Y-129897142D02*
X89520833Y-129944761D01*
X89377976Y-129992380D01*
X89282738Y-129992380D01*
X89139880Y-129944761D01*
X89044642Y-129849523D01*
X88997023Y-129754285D01*
X88949404Y-129563809D01*
X88949404Y-129420952D01*
X88997023Y-129230476D01*
X89044642Y-129135238D01*
X89139880Y-129040000D01*
X89282738Y-128992380D01*
X89377976Y-128992380D01*
X89520833Y-129040000D01*
X89568452Y-129087619D01*
X89997023Y-129468571D02*
X90330357Y-129468571D01*
X90473214Y-129992380D02*
X89997023Y-129992380D01*
X89997023Y-128992380D01*
X90473214Y-128992380D01*
X90901785Y-129992380D02*
X90901785Y-128992380D01*
X91139880Y-128992380D01*
X91282738Y-129040000D01*
X91377976Y-129135238D01*
X91425595Y-129230476D01*
X91473214Y-129420952D01*
X91473214Y-129563809D01*
X91425595Y-129754285D01*
X91377976Y-129849523D01*
X91282738Y-129944761D01*
X91139880Y-129992380D01*
X90901785Y-129992380D01*
X92663690Y-129992380D02*
X92663690Y-128992380D01*
X93044642Y-128992380D01*
X93139880Y-129040000D01*
X93187500Y-129087619D01*
X93235119Y-129182857D01*
X93235119Y-129325714D01*
X93187500Y-129420952D01*
X93139880Y-129468571D01*
X93044642Y-129516190D01*
X92663690Y-129516190D01*
X93854166Y-128992380D02*
X94044642Y-128992380D01*
X94139880Y-129040000D01*
X94235119Y-129135238D01*
X94282738Y-129325714D01*
X94282738Y-129659047D01*
X94235119Y-129849523D01*
X94139880Y-129944761D01*
X94044642Y-129992380D01*
X93854166Y-129992380D01*
X93758928Y-129944761D01*
X93663690Y-129849523D01*
X93616071Y-129659047D01*
X93616071Y-129325714D01*
X93663690Y-129135238D01*
X93758928Y-129040000D01*
X93854166Y-128992380D01*
X95187500Y-129992380D02*
X94711309Y-129992380D01*
X94711309Y-128992380D01*
X95473214Y-129706666D02*
X95949404Y-129706666D01*
X95377976Y-129992380D02*
X95711309Y-128992380D01*
X96044642Y-129992380D01*
X96949404Y-129992380D02*
X96616071Y-129516190D01*
X96377976Y-129992380D02*
X96377976Y-128992380D01*
X96758928Y-128992380D01*
X96854166Y-129040000D01*
X96901785Y-129087619D01*
X96949404Y-129182857D01*
X96949404Y-129325714D01*
X96901785Y-129420952D01*
X96854166Y-129468571D01*
X96758928Y-129516190D01*
X96377976Y-129516190D01*
X97377976Y-129992380D02*
X97377976Y-128992380D01*
X97758928Y-128992380D02*
X98425595Y-128992380D01*
X97758928Y-129992380D01*
X98425595Y-129992380D01*
X98758928Y-129706666D02*
X99235119Y-129706666D01*
X98663690Y-129992380D02*
X98997023Y-128992380D01*
X99330357Y-129992380D01*
X99520833Y-128992380D02*
X100092261Y-128992380D01*
X99806547Y-129992380D02*
X99806547Y-128992380D01*
X100425595Y-129992380D02*
X100425595Y-128992380D01*
X101092261Y-128992380D02*
X101282738Y-128992380D01*
X101377976Y-129040000D01*
X101473214Y-129135238D01*
X101520833Y-129325714D01*
X101520833Y-129659047D01*
X101473214Y-129849523D01*
X101377976Y-129944761D01*
X101282738Y-129992380D01*
X101092261Y-129992380D01*
X100997023Y-129944761D01*
X100901785Y-129849523D01*
X100854166Y-129659047D01*
X100854166Y-129325714D01*
X100901785Y-129135238D01*
X100997023Y-129040000D01*
X101092261Y-128992380D01*
X101949404Y-129992380D02*
X101949404Y-128992380D01*
X102520833Y-129992380D01*
X102520833Y-128992380D01*
X103711309Y-129706666D02*
X104187500Y-129706666D01*
X103616071Y-129992380D02*
X103949404Y-128992380D01*
X104282738Y-129992380D01*
X104568452Y-129944761D02*
X104711309Y-129992380D01*
X104949404Y-129992380D01*
X105044642Y-129944761D01*
X105092261Y-129897142D01*
X105139880Y-129801904D01*
X105139880Y-129706666D01*
X105092261Y-129611428D01*
X105044642Y-129563809D01*
X104949404Y-129516190D01*
X104758928Y-129468571D01*
X104663690Y-129420952D01*
X104616071Y-129373333D01*
X104568452Y-129278095D01*
X104568452Y-129182857D01*
X104616071Y-129087619D01*
X104663690Y-129040000D01*
X104758928Y-128992380D01*
X104997023Y-128992380D01*
X105139880Y-129040000D01*
X105520833Y-129944761D02*
X105663690Y-129992380D01*
X105901785Y-129992380D01*
X105997023Y-129944761D01*
X106044642Y-129897142D01*
X106092261Y-129801904D01*
X106092261Y-129706666D01*
X106044642Y-129611428D01*
X105997023Y-129563809D01*
X105901785Y-129516190D01*
X105711309Y-129468571D01*
X105616071Y-129420952D01*
X105568452Y-129373333D01*
X105520833Y-129278095D01*
X105520833Y-129182857D01*
X105568452Y-129087619D01*
X105616071Y-129040000D01*
X105711309Y-128992380D01*
X105949404Y-128992380D01*
X106092261Y-129040000D01*
X106711309Y-128992380D02*
X106901785Y-128992380D01*
X106997023Y-129040000D01*
X107092261Y-129135238D01*
X107139880Y-129325714D01*
X107139880Y-129659047D01*
X107092261Y-129849523D01*
X106997023Y-129944761D01*
X106901785Y-129992380D01*
X106711309Y-129992380D01*
X106616071Y-129944761D01*
X106520833Y-129849523D01*
X106473214Y-129659047D01*
X106473214Y-129325714D01*
X106520833Y-129135238D01*
X106616071Y-129040000D01*
X106711309Y-128992380D01*
X108139880Y-129897142D02*
X108092261Y-129944761D01*
X107949404Y-129992380D01*
X107854166Y-129992380D01*
X107711309Y-129944761D01*
X107616071Y-129849523D01*
X107568452Y-129754285D01*
X107520833Y-129563809D01*
X107520833Y-129420952D01*
X107568452Y-129230476D01*
X107616071Y-129135238D01*
X107711309Y-129040000D01*
X107854166Y-128992380D01*
X107949404Y-128992380D01*
X108092261Y-129040000D01*
X108139880Y-129087619D01*
X108568452Y-129992380D02*
X108568452Y-128992380D01*
X108997023Y-129706666D02*
X109473214Y-129706666D01*
X108901785Y-129992380D02*
X109235119Y-128992380D01*
X109568452Y-129992380D01*
X109758928Y-128992380D02*
X110330357Y-128992380D01*
X110044642Y-129992380D02*
X110044642Y-128992380D01*
X110663690Y-129468571D02*
X110997023Y-129468571D01*
X111139880Y-129992380D02*
X110663690Y-129992380D01*
X110663690Y-128992380D01*
X111139880Y-128992380D01*
X111520833Y-129944761D02*
X111663690Y-129992380D01*
X111901785Y-129992380D01*
X111997023Y-129944761D01*
X112044642Y-129897142D01*
X112092261Y-129801904D01*
X112092261Y-129706666D01*
X112044642Y-129611428D01*
X111997023Y-129563809D01*
X111901785Y-129516190D01*
X111711309Y-129468571D01*
X111616071Y-129420952D01*
X111568452Y-129373333D01*
X111520833Y-129278095D01*
X111520833Y-129182857D01*
X111568452Y-129087619D01*
X111616071Y-129040000D01*
X111711309Y-128992380D01*
X111949404Y-128992380D01*
X112092261Y-129040000D01*
X112568452Y-129944761D02*
X112568452Y-129992380D01*
X112520833Y-130087619D01*
X112473214Y-130135238D01*
X114235119Y-129992380D02*
X113758928Y-129992380D01*
X113758928Y-128992380D01*
X115044642Y-129992380D02*
X114568452Y-129992380D01*
X114568452Y-128992380D01*
X115949404Y-129897142D02*
X115901785Y-129944761D01*
X115758928Y-129992380D01*
X115663690Y-129992380D01*
X115520833Y-129944761D01*
X115425595Y-129849523D01*
X115377976Y-129754285D01*
X115330357Y-129563809D01*
X115330357Y-129420952D01*
X115377976Y-129230476D01*
X115425595Y-129135238D01*
X115520833Y-129040000D01*
X115663690Y-128992380D01*
X115758928Y-128992380D01*
X115901785Y-129040000D01*
X115949404Y-129087619D01*
X116377976Y-129897142D02*
X116425595Y-129944761D01*
X116377976Y-129992380D01*
X116330357Y-129944761D01*
X116377976Y-129897142D01*
X116377976Y-129992380D01*
X85377976Y-131594761D02*
X85520833Y-131642380D01*
X85758928Y-131642380D01*
X85854166Y-131594761D01*
X85901785Y-131547142D01*
X85949404Y-131451904D01*
X85949404Y-131356666D01*
X85901785Y-131261428D01*
X85854166Y-131213809D01*
X85758928Y-131166190D01*
X85568452Y-131118571D01*
X85473214Y-131070952D01*
X85425595Y-131023333D01*
X85377976Y-130928095D01*
X85377976Y-130832857D01*
X85425595Y-130737619D01*
X85473214Y-130690000D01*
X85568452Y-130642380D01*
X85806547Y-130642380D01*
X85949404Y-130690000D01*
X86377976Y-131118571D02*
X86711309Y-131118571D01*
X86854166Y-131642380D02*
X86377976Y-131642380D01*
X86377976Y-130642380D01*
X86854166Y-130642380D01*
X87235119Y-131356666D02*
X87711309Y-131356666D01*
X87139880Y-131642380D02*
X87473214Y-130642380D01*
X87806547Y-131642380D01*
X87997023Y-130642380D02*
X88568452Y-130642380D01*
X88282738Y-131642380D02*
X88282738Y-130642380D01*
X88758928Y-130642380D02*
X89330357Y-130642380D01*
X89044642Y-131642380D02*
X89044642Y-130642380D01*
X90139880Y-131642380D02*
X89663690Y-131642380D01*
X89663690Y-130642380D01*
X90473214Y-131118571D02*
X90806547Y-131118571D01*
X90949404Y-131642380D02*
X90473214Y-131642380D01*
X90473214Y-130642380D01*
X90949404Y-130642380D01*
X91425595Y-131594761D02*
X91425595Y-131642380D01*
X91377976Y-131737619D01*
X91330357Y-131785238D01*
X92520833Y-130642380D02*
X92758928Y-131642380D01*
X92949404Y-130928095D01*
X93139880Y-131642380D01*
X93377976Y-130642380D01*
X93711309Y-131356666D02*
X94187500Y-131356666D01*
X93616071Y-131642380D02*
X93949404Y-130642380D01*
X94282738Y-131642380D01*
X94568452Y-131594761D02*
X94711309Y-131642380D01*
X94949404Y-131642380D01*
X95044642Y-131594761D01*
X95092261Y-131547142D01*
X95139880Y-131451904D01*
X95139880Y-131356666D01*
X95092261Y-131261428D01*
X95044642Y-131213809D01*
X94949404Y-131166190D01*
X94758928Y-131118571D01*
X94663690Y-131070952D01*
X94616071Y-131023333D01*
X94568452Y-130928095D01*
X94568452Y-130832857D01*
X94616071Y-130737619D01*
X94663690Y-130690000D01*
X94758928Y-130642380D01*
X94997023Y-130642380D01*
X95139880Y-130690000D01*
X95568452Y-131642380D02*
X95568452Y-130642380D01*
X95568452Y-131118571D02*
X96139880Y-131118571D01*
X96139880Y-131642380D02*
X96139880Y-130642380D01*
X96616071Y-131642380D02*
X96616071Y-130642380D01*
X97092261Y-131642380D02*
X97092261Y-130642380D01*
X97663690Y-131642380D01*
X97663690Y-130642380D01*
X98663690Y-130690000D02*
X98568452Y-130642380D01*
X98425595Y-130642380D01*
X98282738Y-130690000D01*
X98187500Y-130785238D01*
X98139880Y-130880476D01*
X98092261Y-131070952D01*
X98092261Y-131213809D01*
X98139880Y-131404285D01*
X98187500Y-131499523D01*
X98282738Y-131594761D01*
X98425595Y-131642380D01*
X98520833Y-131642380D01*
X98663690Y-131594761D01*
X98711309Y-131547142D01*
X98711309Y-131213809D01*
X98520833Y-131213809D01*
X98997023Y-130642380D02*
X99568452Y-130642380D01*
X99282738Y-131642380D02*
X99282738Y-130642380D01*
X100092261Y-130642380D02*
X100282738Y-130642380D01*
X100377976Y-130690000D01*
X100473214Y-130785238D01*
X100520833Y-130975714D01*
X100520833Y-131309047D01*
X100473214Y-131499523D01*
X100377976Y-131594761D01*
X100282738Y-131642380D01*
X100092261Y-131642380D01*
X99997023Y-131594761D01*
X99901785Y-131499523D01*
X99854166Y-131309047D01*
X99854166Y-130975714D01*
X99901785Y-130785238D01*
X99997023Y-130690000D01*
X100092261Y-130642380D01*
X100949404Y-131642380D02*
X100949404Y-130642380D01*
X101520833Y-131642380D01*
X101520833Y-130642380D01*
X102044642Y-131594761D02*
X102044642Y-131642380D01*
X101997023Y-131737619D01*
X101949404Y-131785238D01*
X103235119Y-130642380D02*
X103235119Y-131451904D01*
X103282738Y-131547142D01*
X103330357Y-131594761D01*
X103425595Y-131642380D01*
X103616071Y-131642380D01*
X103711309Y-131594761D01*
X103758928Y-131547142D01*
X103806547Y-131451904D01*
X103806547Y-130642380D01*
X104282738Y-131642380D02*
X104282738Y-130642380D01*
X104854166Y-131642380D01*
X104854166Y-130642380D01*
X105330357Y-131642380D02*
X105330357Y-130642380D01*
X105663690Y-130642380D02*
X106235119Y-130642380D01*
X105949404Y-131642380D02*
X105949404Y-130642380D01*
X106568452Y-131118571D02*
X106901785Y-131118571D01*
X107044642Y-131642380D02*
X106568452Y-131642380D01*
X106568452Y-130642380D01*
X107044642Y-130642380D01*
X107473214Y-131642380D02*
X107473214Y-130642380D01*
X107711309Y-130642380D01*
X107854166Y-130690000D01*
X107949404Y-130785238D01*
X107997023Y-130880476D01*
X108044642Y-131070952D01*
X108044642Y-131213809D01*
X107997023Y-131404285D01*
X107949404Y-131499523D01*
X107854166Y-131594761D01*
X107711309Y-131642380D01*
X107473214Y-131642380D01*
X109187500Y-131594761D02*
X109330357Y-131642380D01*
X109568452Y-131642380D01*
X109663690Y-131594761D01*
X109711309Y-131547142D01*
X109758928Y-131451904D01*
X109758928Y-131356666D01*
X109711309Y-131261428D01*
X109663690Y-131213809D01*
X109568452Y-131166190D01*
X109377976Y-131118571D01*
X109282738Y-131070952D01*
X109235119Y-131023333D01*
X109187500Y-130928095D01*
X109187500Y-130832857D01*
X109235119Y-130737619D01*
X109282738Y-130690000D01*
X109377976Y-130642380D01*
X109616071Y-130642380D01*
X109758928Y-130690000D01*
X110044642Y-130642380D02*
X110616071Y-130642380D01*
X110330357Y-131642380D02*
X110330357Y-130642380D01*
X110901785Y-131356666D02*
X111377976Y-131356666D01*
X110806547Y-131642380D02*
X111139880Y-130642380D01*
X111473214Y-131642380D01*
X111663690Y-130642380D02*
X112235119Y-130642380D01*
X111949404Y-131642380D02*
X111949404Y-130642380D01*
X112568452Y-131118571D02*
X112901785Y-131118571D01*
X113044642Y-131642380D02*
X112568452Y-131642380D01*
X112568452Y-130642380D01*
X113044642Y-130642380D01*
X113425595Y-131594761D02*
X113568452Y-131642380D01*
X113806547Y-131642380D01*
X113901785Y-131594761D01*
X113949404Y-131547142D01*
X113997023Y-131451904D01*
X113997023Y-131356666D01*
X113949404Y-131261428D01*
X113901785Y-131213809D01*
X113806547Y-131166190D01*
X113616071Y-131118571D01*
X113520833Y-131070952D01*
X113473214Y-131023333D01*
X113425595Y-130928095D01*
X113425595Y-130832857D01*
X113473214Y-130737619D01*
X113520833Y-130690000D01*
X113616071Y-130642380D01*
X113854166Y-130642380D01*
X113997023Y-130690000D01*
X115377976Y-130642380D02*
X115568452Y-130642380D01*
X115663690Y-130690000D01*
X115758928Y-130785238D01*
X115806547Y-130975714D01*
X115806547Y-131309047D01*
X115758928Y-131499523D01*
X115663690Y-131594761D01*
X115568452Y-131642380D01*
X115377976Y-131642380D01*
X115282738Y-131594761D01*
X115187499Y-131499523D01*
X115139880Y-131309047D01*
X115139880Y-130975714D01*
X115187499Y-130785238D01*
X115282738Y-130690000D01*
X115377976Y-130642380D01*
X116568452Y-131118571D02*
X116235119Y-131118571D01*
X116235119Y-131642380D02*
X116235119Y-130642380D01*
X116711309Y-130642380D01*
X117806547Y-131356666D02*
X118282738Y-131356666D01*
X117711309Y-131642380D02*
X118044642Y-130642380D01*
X118377976Y-131642380D01*
X118711309Y-131642380D02*
X118711309Y-130642380D01*
X119044642Y-131356666D01*
X119377976Y-130642380D01*
X119377976Y-131642380D01*
X119854166Y-131118571D02*
X120187500Y-131118571D01*
X120330357Y-131642380D02*
X119854166Y-131642380D01*
X119854166Y-130642380D01*
X120330357Y-130642380D01*
X121330357Y-131642380D02*
X120997023Y-131166190D01*
X120758928Y-131642380D02*
X120758928Y-130642380D01*
X121139880Y-130642380D01*
X121235119Y-130690000D01*
X121282738Y-130737619D01*
X121330357Y-130832857D01*
X121330357Y-130975714D01*
X121282738Y-131070952D01*
X121235119Y-131118571D01*
X121139880Y-131166190D01*
X120758928Y-131166190D01*
X121758928Y-131642380D02*
X121758928Y-130642380D01*
X122806547Y-131547142D02*
X122758928Y-131594761D01*
X122616071Y-131642380D01*
X122520833Y-131642380D01*
X122377976Y-131594761D01*
X122282738Y-131499523D01*
X122235119Y-131404285D01*
X122187500Y-131213809D01*
X122187500Y-131070952D01*
X122235119Y-130880476D01*
X122282738Y-130785238D01*
X122377976Y-130690000D01*
X122520833Y-130642380D01*
X122616071Y-130642380D01*
X122758928Y-130690000D01*
X122806547Y-130737619D01*
X123187500Y-131356666D02*
X123663690Y-131356666D01*
X123092261Y-131642380D02*
X123425595Y-130642380D01*
X123758928Y-131642380D01*
X90316666Y-110813809D02*
X90430952Y-110851904D01*
X90621428Y-110851904D01*
X90697619Y-110813809D01*
X90735714Y-110775714D01*
X90773809Y-110699523D01*
X90773809Y-110623333D01*
X90735714Y-110547142D01*
X90697619Y-110509047D01*
X90621428Y-110470952D01*
X90469047Y-110432857D01*
X90392857Y-110394761D01*
X90354761Y-110356666D01*
X90316666Y-110280476D01*
X90316666Y-110204285D01*
X90354761Y-110128095D01*
X90392857Y-110090000D01*
X90469047Y-110051904D01*
X90659523Y-110051904D01*
X90773809Y-110090000D01*
X91116666Y-110851904D02*
X91116666Y-110051904D01*
X91116666Y-110432857D02*
X91573809Y-110432857D01*
X91573809Y-110851904D02*
X91573809Y-110051904D01*
X91954761Y-110051904D02*
X91954761Y-110699523D01*
X91992857Y-110775714D01*
X92030952Y-110813809D01*
X92107142Y-110851904D01*
X92259523Y-110851904D01*
X92335714Y-110813809D01*
X92373809Y-110775714D01*
X92411904Y-110699523D01*
X92411904Y-110051904D01*
X92792857Y-110851904D02*
X92792857Y-110051904D01*
X93250000Y-110851904D01*
X93250000Y-110051904D01*
X93516666Y-110051904D02*
X93973809Y-110051904D01*
X93745238Y-110851904D02*
X93745238Y-110051904D01*
X95307142Y-110851904D02*
X95040476Y-110470952D01*
X94850000Y-110851904D02*
X94850000Y-110051904D01*
X95154761Y-110051904D01*
X95230952Y-110090000D01*
X95269047Y-110128095D01*
X95307142Y-110204285D01*
X95307142Y-110318571D01*
X95269047Y-110394761D01*
X95230952Y-110432857D01*
X95154761Y-110470952D01*
X94850000Y-110470952D01*
X95650000Y-110432857D02*
X95916666Y-110432857D01*
X96030952Y-110851904D02*
X95650000Y-110851904D01*
X95650000Y-110051904D01*
X96030952Y-110051904D01*
X96335714Y-110813809D02*
X96450000Y-110851904D01*
X96640476Y-110851904D01*
X96716666Y-110813809D01*
X96754761Y-110775714D01*
X96792857Y-110699523D01*
X96792857Y-110623333D01*
X96754761Y-110547142D01*
X96716666Y-110509047D01*
X96640476Y-110470952D01*
X96488095Y-110432857D01*
X96411904Y-110394761D01*
X96373809Y-110356666D01*
X96335714Y-110280476D01*
X96335714Y-110204285D01*
X96373809Y-110128095D01*
X96411904Y-110090000D01*
X96488095Y-110051904D01*
X96678571Y-110051904D01*
X96792857Y-110090000D01*
X97135714Y-110851904D02*
X97135714Y-110051904D01*
X97478571Y-110813809D02*
X97592857Y-110851904D01*
X97783333Y-110851904D01*
X97859523Y-110813809D01*
X97897619Y-110775714D01*
X97935714Y-110699523D01*
X97935714Y-110623333D01*
X97897619Y-110547142D01*
X97859523Y-110509047D01*
X97783333Y-110470952D01*
X97630952Y-110432857D01*
X97554761Y-110394761D01*
X97516666Y-110356666D01*
X97478571Y-110280476D01*
X97478571Y-110204285D01*
X97516666Y-110128095D01*
X97554761Y-110090000D01*
X97630952Y-110051904D01*
X97821428Y-110051904D01*
X97935714Y-110090000D01*
X98164285Y-110051904D02*
X98621428Y-110051904D01*
X98392857Y-110851904D02*
X98392857Y-110051904D01*
X99040476Y-110051904D02*
X99192857Y-110051904D01*
X99269047Y-110090000D01*
X99345238Y-110166190D01*
X99383333Y-110318571D01*
X99383333Y-110585238D01*
X99345238Y-110737619D01*
X99269047Y-110813809D01*
X99192857Y-110851904D01*
X99040476Y-110851904D01*
X98964285Y-110813809D01*
X98888095Y-110737619D01*
X98850000Y-110585238D01*
X98850000Y-110318571D01*
X98888095Y-110166190D01*
X98964285Y-110090000D01*
X99040476Y-110051904D01*
X100183333Y-110851904D02*
X99916666Y-110470952D01*
X99726190Y-110851904D02*
X99726190Y-110051904D01*
X100030952Y-110051904D01*
X100107142Y-110090000D01*
X100145238Y-110128095D01*
X100183333Y-110204285D01*
X100183333Y-110318571D01*
X100145238Y-110394761D01*
X100107142Y-110432857D01*
X100030952Y-110470952D01*
X99726190Y-110470952D01*
D13*
%TO.C,REF\u002A\u002A*%
G36*
X89762094Y-120941158D02*
G01*
X89794619Y-120953736D01*
X89844193Y-120978712D01*
X89915374Y-121017876D01*
X89920916Y-121020988D01*
X89986474Y-121058476D01*
X90041798Y-121091319D01*
X90081455Y-121116205D01*
X90100012Y-121129820D01*
X90100531Y-121130487D01*
X90096048Y-121149390D01*
X90075486Y-121191605D01*
X90040183Y-121254832D01*
X89991480Y-121336772D01*
X89930718Y-121435122D01*
X89859236Y-121547585D01*
X89841445Y-121575165D01*
X89795093Y-121651699D01*
X89761342Y-121717556D01*
X89743153Y-121766782D01*
X89741286Y-121776507D01*
X89742115Y-121819312D01*
X89751394Y-121887209D01*
X89767968Y-121975843D01*
X89790680Y-122080859D01*
X89818373Y-122197902D01*
X89849890Y-122322616D01*
X89884075Y-122450645D01*
X89919771Y-122577634D01*
X89955821Y-122699228D01*
X89991068Y-122811072D01*
X90024356Y-122908810D01*
X90054528Y-122988087D01*
X90075561Y-123035122D01*
X90100337Y-123085225D01*
X90123730Y-123133168D01*
X90124997Y-123135793D01*
X90163699Y-123184220D01*
X90220184Y-123216828D01*
X90285939Y-123232454D01*
X90352451Y-123229937D01*
X90411205Y-123208114D01*
X90444258Y-123179382D01*
X90491859Y-123100583D01*
X90526739Y-123002378D01*
X90545877Y-122894779D01*
X90548588Y-122833780D01*
X90537670Y-122719935D01*
X90505624Y-122625660D01*
X90450726Y-122546379D01*
X90433607Y-122528733D01*
X90382661Y-122479235D01*
X90379163Y-122129362D01*
X90375664Y-121779489D01*
X90464818Y-121644531D01*
X90506654Y-121583445D01*
X90546945Y-121528493D01*
X90579943Y-121487336D01*
X90594126Y-121472192D01*
X90634281Y-121434810D01*
X90688665Y-121464098D01*
X90723039Y-121485084D01*
X90741846Y-121501378D01*
X90743049Y-121504307D01*
X90755903Y-121516728D01*
X90777896Y-121525977D01*
X90799150Y-121534313D01*
X90831694Y-121550149D01*
X90878322Y-121575033D01*
X90941829Y-121610509D01*
X91025008Y-121658123D01*
X91130653Y-121719422D01*
X91188062Y-121752932D01*
X91255594Y-121793071D01*
X91299885Y-121821659D01*
X91324855Y-121842039D01*
X91334423Y-121857553D01*
X91332508Y-121871546D01*
X91330911Y-121874796D01*
X91315376Y-121895266D01*
X91282136Y-121933665D01*
X91235062Y-121985696D01*
X91178028Y-122047066D01*
X91128700Y-122099090D01*
X91015030Y-122222567D01*
X90926105Y-122329591D01*
X90861134Y-122421240D01*
X90819321Y-122498588D01*
X90805217Y-122537866D01*
X90799392Y-122572249D01*
X90793375Y-122630899D01*
X90787696Y-122707117D01*
X90782884Y-122794202D01*
X90780619Y-122849268D01*
X90777459Y-122944464D01*
X90776069Y-123014062D01*
X90776858Y-123063409D01*
X90780235Y-123097854D01*
X90786608Y-123122743D01*
X90796387Y-123143425D01*
X90804067Y-123156053D01*
X90848421Y-123204726D01*
X90905574Y-123238645D01*
X90965708Y-123253438D01*
X91010773Y-123248086D01*
X91051576Y-123224930D01*
X91102724Y-123183462D01*
X91157042Y-123130912D01*
X91207357Y-123074516D01*
X91246494Y-123021505D01*
X91260905Y-122995889D01*
X91282491Y-122960814D01*
X91321753Y-122907389D01*
X91375102Y-122839789D01*
X91438952Y-122762190D01*
X91509715Y-122678768D01*
X91583804Y-122593698D01*
X91657632Y-122511155D01*
X91727611Y-122435316D01*
X91790155Y-122370356D01*
X91839260Y-122322669D01*
X91893779Y-122275032D01*
X91939642Y-122239908D01*
X91971811Y-122220949D01*
X91982489Y-122218864D01*
X91998853Y-122227274D01*
X92039671Y-122249846D01*
X92102586Y-122285224D01*
X92185244Y-122332054D01*
X92285289Y-122388981D01*
X92400366Y-122454649D01*
X92528119Y-122527703D01*
X92666194Y-122606788D01*
X92812234Y-122690548D01*
X92963884Y-122777629D01*
X93118790Y-122866676D01*
X93274595Y-122956332D01*
X93428944Y-123045243D01*
X93579482Y-123132054D01*
X93723854Y-123215409D01*
X93859704Y-123293954D01*
X93984677Y-123366333D01*
X94096417Y-123431190D01*
X94192570Y-123487171D01*
X94270779Y-123532920D01*
X94328689Y-123567083D01*
X94363946Y-123588304D01*
X94374165Y-123594963D01*
X94360402Y-123596280D01*
X94317104Y-123597559D01*
X94245714Y-123598796D01*
X94147673Y-123599983D01*
X94024422Y-123601115D01*
X93877403Y-123602186D01*
X93708057Y-123603189D01*
X93517826Y-123604119D01*
X93308151Y-123604968D01*
X93080473Y-123605732D01*
X92836235Y-123606403D01*
X92576877Y-123606976D01*
X92303841Y-123607444D01*
X92018568Y-123607802D01*
X91722500Y-123608042D01*
X91417079Y-123608159D01*
X91288924Y-123608171D01*
X88188970Y-123608171D01*
X88410053Y-123224847D01*
X88456856Y-123143680D01*
X88517102Y-123039166D01*
X88588778Y-122914801D01*
X88669869Y-122774082D01*
X88758362Y-122620503D01*
X88852240Y-122457562D01*
X88949491Y-122288754D01*
X89048100Y-122117575D01*
X89146053Y-121947521D01*
X89170825Y-121904512D01*
X89261152Y-121747857D01*
X89347289Y-121598803D01*
X89427942Y-121459568D01*
X89501816Y-121332371D01*
X89567617Y-121219432D01*
X89624050Y-121122968D01*
X89669821Y-121045200D01*
X89703635Y-120988346D01*
X89724198Y-120954625D01*
X89729953Y-120946040D01*
X89742058Y-120939189D01*
X89762094Y-120941158D01*
G37*
X89762094Y-120941158D02*
X89794619Y-120953736D01*
X89844193Y-120978712D01*
X89915374Y-121017876D01*
X89920916Y-121020988D01*
X89986474Y-121058476D01*
X90041798Y-121091319D01*
X90081455Y-121116205D01*
X90100012Y-121129820D01*
X90100531Y-121130487D01*
X90096048Y-121149390D01*
X90075486Y-121191605D01*
X90040183Y-121254832D01*
X89991480Y-121336772D01*
X89930718Y-121435122D01*
X89859236Y-121547585D01*
X89841445Y-121575165D01*
X89795093Y-121651699D01*
X89761342Y-121717556D01*
X89743153Y-121766782D01*
X89741286Y-121776507D01*
X89742115Y-121819312D01*
X89751394Y-121887209D01*
X89767968Y-121975843D01*
X89790680Y-122080859D01*
X89818373Y-122197902D01*
X89849890Y-122322616D01*
X89884075Y-122450645D01*
X89919771Y-122577634D01*
X89955821Y-122699228D01*
X89991068Y-122811072D01*
X90024356Y-122908810D01*
X90054528Y-122988087D01*
X90075561Y-123035122D01*
X90100337Y-123085225D01*
X90123730Y-123133168D01*
X90124997Y-123135793D01*
X90163699Y-123184220D01*
X90220184Y-123216828D01*
X90285939Y-123232454D01*
X90352451Y-123229937D01*
X90411205Y-123208114D01*
X90444258Y-123179382D01*
X90491859Y-123100583D01*
X90526739Y-123002378D01*
X90545877Y-122894779D01*
X90548588Y-122833780D01*
X90537670Y-122719935D01*
X90505624Y-122625660D01*
X90450726Y-122546379D01*
X90433607Y-122528733D01*
X90382661Y-122479235D01*
X90379163Y-122129362D01*
X90375664Y-121779489D01*
X90464818Y-121644531D01*
X90506654Y-121583445D01*
X90546945Y-121528493D01*
X90579943Y-121487336D01*
X90594126Y-121472192D01*
X90634281Y-121434810D01*
X90688665Y-121464098D01*
X90723039Y-121485084D01*
X90741846Y-121501378D01*
X90743049Y-121504307D01*
X90755903Y-121516728D01*
X90777896Y-121525977D01*
X90799150Y-121534313D01*
X90831694Y-121550149D01*
X90878322Y-121575033D01*
X90941829Y-121610509D01*
X91025008Y-121658123D01*
X91130653Y-121719422D01*
X91188062Y-121752932D01*
X91255594Y-121793071D01*
X91299885Y-121821659D01*
X91324855Y-121842039D01*
X91334423Y-121857553D01*
X91332508Y-121871546D01*
X91330911Y-121874796D01*
X91315376Y-121895266D01*
X91282136Y-121933665D01*
X91235062Y-121985696D01*
X91178028Y-122047066D01*
X91128700Y-122099090D01*
X91015030Y-122222567D01*
X90926105Y-122329591D01*
X90861134Y-122421240D01*
X90819321Y-122498588D01*
X90805217Y-122537866D01*
X90799392Y-122572249D01*
X90793375Y-122630899D01*
X90787696Y-122707117D01*
X90782884Y-122794202D01*
X90780619Y-122849268D01*
X90777459Y-122944464D01*
X90776069Y-123014062D01*
X90776858Y-123063409D01*
X90780235Y-123097854D01*
X90786608Y-123122743D01*
X90796387Y-123143425D01*
X90804067Y-123156053D01*
X90848421Y-123204726D01*
X90905574Y-123238645D01*
X90965708Y-123253438D01*
X91010773Y-123248086D01*
X91051576Y-123224930D01*
X91102724Y-123183462D01*
X91157042Y-123130912D01*
X91207357Y-123074516D01*
X91246494Y-123021505D01*
X91260905Y-122995889D01*
X91282491Y-122960814D01*
X91321753Y-122907389D01*
X91375102Y-122839789D01*
X91438952Y-122762190D01*
X91509715Y-122678768D01*
X91583804Y-122593698D01*
X91657632Y-122511155D01*
X91727611Y-122435316D01*
X91790155Y-122370356D01*
X91839260Y-122322669D01*
X91893779Y-122275032D01*
X91939642Y-122239908D01*
X91971811Y-122220949D01*
X91982489Y-122218864D01*
X91998853Y-122227274D01*
X92039671Y-122249846D01*
X92102586Y-122285224D01*
X92185244Y-122332054D01*
X92285289Y-122388981D01*
X92400366Y-122454649D01*
X92528119Y-122527703D01*
X92666194Y-122606788D01*
X92812234Y-122690548D01*
X92963884Y-122777629D01*
X93118790Y-122866676D01*
X93274595Y-122956332D01*
X93428944Y-123045243D01*
X93579482Y-123132054D01*
X93723854Y-123215409D01*
X93859704Y-123293954D01*
X93984677Y-123366333D01*
X94096417Y-123431190D01*
X94192570Y-123487171D01*
X94270779Y-123532920D01*
X94328689Y-123567083D01*
X94363946Y-123588304D01*
X94374165Y-123594963D01*
X94360402Y-123596280D01*
X94317104Y-123597559D01*
X94245714Y-123598796D01*
X94147673Y-123599983D01*
X94024422Y-123601115D01*
X93877403Y-123602186D01*
X93708057Y-123603189D01*
X93517826Y-123604119D01*
X93308151Y-123604968D01*
X93080473Y-123605732D01*
X92836235Y-123606403D01*
X92576877Y-123606976D01*
X92303841Y-123607444D01*
X92018568Y-123607802D01*
X91722500Y-123608042D01*
X91417079Y-123608159D01*
X91288924Y-123608171D01*
X88188970Y-123608171D01*
X88410053Y-123224847D01*
X88456856Y-123143680D01*
X88517102Y-123039166D01*
X88588778Y-122914801D01*
X88669869Y-122774082D01*
X88758362Y-122620503D01*
X88852240Y-122457562D01*
X88949491Y-122288754D01*
X89048100Y-122117575D01*
X89146053Y-121947521D01*
X89170825Y-121904512D01*
X89261152Y-121747857D01*
X89347289Y-121598803D01*
X89427942Y-121459568D01*
X89501816Y-121332371D01*
X89567617Y-121219432D01*
X89624050Y-121122968D01*
X89669821Y-121045200D01*
X89703635Y-120988346D01*
X89724198Y-120954625D01*
X89729953Y-120946040D01*
X89742058Y-120939189D01*
X89762094Y-120941158D01*
G36*
X93427528Y-120884619D02*
G01*
X93438908Y-120903693D01*
X93464488Y-120947421D01*
X93503002Y-121013619D01*
X93553186Y-121100102D01*
X93613775Y-121204685D01*
X93683503Y-121325183D01*
X93761107Y-121459412D01*
X93845320Y-121605187D01*
X93934879Y-121760323D01*
X94026998Y-121920000D01*
X94121076Y-122083117D01*
X94211402Y-122239709D01*
X94296665Y-122387506D01*
X94375557Y-122524240D01*
X94446769Y-122647642D01*
X94508991Y-122755444D01*
X94560913Y-122845377D01*
X94601228Y-122915173D01*
X94628624Y-122962564D01*
X94641507Y-122984786D01*
X94662507Y-123022330D01*
X94673925Y-123045831D01*
X94674551Y-123049920D01*
X94660636Y-123042242D01*
X94621941Y-123020203D01*
X94560487Y-122984971D01*
X94478298Y-122937711D01*
X94377396Y-122879589D01*
X94259805Y-122811771D01*
X94127546Y-122735424D01*
X93982642Y-122651714D01*
X93827117Y-122561806D01*
X93662992Y-122466867D01*
X93600549Y-122430732D01*
X93433487Y-122334083D01*
X93274074Y-122241938D01*
X93124355Y-122155475D01*
X92986376Y-122075871D01*
X92862185Y-122004305D01*
X92753827Y-121941955D01*
X92663348Y-121889998D01*
X92592796Y-121849613D01*
X92544215Y-121821978D01*
X92519654Y-121808272D01*
X92517085Y-121806974D01*
X92524569Y-121795220D01*
X92550614Y-121763795D01*
X92592559Y-121715594D01*
X92647746Y-121653510D01*
X92713517Y-121580439D01*
X92787212Y-121499276D01*
X92866173Y-121412916D01*
X92947740Y-121324253D01*
X93029254Y-121236182D01*
X93108057Y-121151599D01*
X93181490Y-121073397D01*
X93246893Y-121004472D01*
X93301608Y-120947719D01*
X93342977Y-120906032D01*
X93357164Y-120892363D01*
X93404180Y-120848201D01*
X93427528Y-120884619D01*
G37*
X93427528Y-120884619D02*
X93438908Y-120903693D01*
X93464488Y-120947421D01*
X93503002Y-121013619D01*
X93553186Y-121100102D01*
X93613775Y-121204685D01*
X93683503Y-121325183D01*
X93761107Y-121459412D01*
X93845320Y-121605187D01*
X93934879Y-121760323D01*
X94026998Y-121920000D01*
X94121076Y-122083117D01*
X94211402Y-122239709D01*
X94296665Y-122387506D01*
X94375557Y-122524240D01*
X94446769Y-122647642D01*
X94508991Y-122755444D01*
X94560913Y-122845377D01*
X94601228Y-122915173D01*
X94628624Y-122962564D01*
X94641507Y-122984786D01*
X94662507Y-123022330D01*
X94673925Y-123045831D01*
X94674551Y-123049920D01*
X94660636Y-123042242D01*
X94621941Y-123020203D01*
X94560487Y-122984971D01*
X94478298Y-122937711D01*
X94377396Y-122879589D01*
X94259805Y-122811771D01*
X94127546Y-122735424D01*
X93982642Y-122651714D01*
X93827117Y-122561806D01*
X93662992Y-122466867D01*
X93600549Y-122430732D01*
X93433487Y-122334083D01*
X93274074Y-122241938D01*
X93124355Y-122155475D01*
X92986376Y-122075871D01*
X92862185Y-122004305D01*
X92753827Y-121941955D01*
X92663348Y-121889998D01*
X92592796Y-121849613D01*
X92544215Y-121821978D01*
X92519654Y-121808272D01*
X92517085Y-121806974D01*
X92524569Y-121795220D01*
X92550614Y-121763795D01*
X92592559Y-121715594D01*
X92647746Y-121653510D01*
X92713517Y-121580439D01*
X92787212Y-121499276D01*
X92866173Y-121412916D01*
X92947740Y-121324253D01*
X93029254Y-121236182D01*
X93108057Y-121151599D01*
X93181490Y-121073397D01*
X93246893Y-121004472D01*
X93301608Y-120947719D01*
X93342977Y-120906032D01*
X93357164Y-120892363D01*
X93404180Y-120848201D01*
X93427528Y-120884619D01*
G36*
X91604043Y-117735835D02*
G01*
X91627065Y-117773245D01*
X91662534Y-117832514D01*
X91708996Y-117911118D01*
X91764996Y-118006538D01*
X91829081Y-118116250D01*
X91899796Y-118237734D01*
X91975687Y-118368468D01*
X92055299Y-118505930D01*
X92137178Y-118647598D01*
X92219870Y-118790951D01*
X92301921Y-118933467D01*
X92381876Y-119072624D01*
X92458281Y-119205901D01*
X92529682Y-119330776D01*
X92594624Y-119444727D01*
X92651653Y-119545233D01*
X92699315Y-119629772D01*
X92736155Y-119695822D01*
X92760720Y-119740862D01*
X92771554Y-119762370D01*
X92771951Y-119763714D01*
X92758501Y-119781965D01*
X92721114Y-119809882D01*
X92664235Y-119844725D01*
X92592312Y-119883754D01*
X92517015Y-119920843D01*
X92414560Y-119965817D01*
X92306817Y-120006226D01*
X92190073Y-120042969D01*
X92060618Y-120076942D01*
X91914740Y-120109044D01*
X91748726Y-120140173D01*
X91558866Y-120171227D01*
X91362469Y-120200145D01*
X91191834Y-120225800D01*
X91048545Y-120251198D01*
X90929008Y-120277602D01*
X90829630Y-120306273D01*
X90746818Y-120338473D01*
X90676978Y-120375465D01*
X90616518Y-120418512D01*
X90561845Y-120468875D01*
X90544214Y-120487583D01*
X90506000Y-120531139D01*
X90477732Y-120566682D01*
X90464618Y-120587583D01*
X90464268Y-120589297D01*
X90459680Y-120599806D01*
X90443758Y-120599924D01*
X90413266Y-120588254D01*
X90364968Y-120563396D01*
X90295627Y-120523952D01*
X90247439Y-120495587D01*
X90175583Y-120451247D01*
X90119742Y-120413279D01*
X90083667Y-120384416D01*
X90071113Y-120367388D01*
X90071121Y-120367264D01*
X90078906Y-120351037D01*
X90100892Y-120310400D01*
X90135803Y-120247567D01*
X90182363Y-120164752D01*
X90239295Y-120064172D01*
X90305323Y-119948040D01*
X90379172Y-119818571D01*
X90459564Y-119677980D01*
X90545224Y-119528482D01*
X90634876Y-119372292D01*
X90727243Y-119211624D01*
X90821049Y-119048693D01*
X90915018Y-118885713D01*
X91007874Y-118724900D01*
X91098340Y-118568468D01*
X91185141Y-118418633D01*
X91267000Y-118277608D01*
X91342641Y-118147609D01*
X91410787Y-118030849D01*
X91470163Y-117929545D01*
X91519493Y-117845911D01*
X91557500Y-117782162D01*
X91582907Y-117740511D01*
X91594440Y-117723175D01*
X91594923Y-117722805D01*
X91604043Y-117735835D01*
G37*
X91604043Y-117735835D02*
X91627065Y-117773245D01*
X91662534Y-117832514D01*
X91708996Y-117911118D01*
X91764996Y-118006538D01*
X91829081Y-118116250D01*
X91899796Y-118237734D01*
X91975687Y-118368468D01*
X92055299Y-118505930D01*
X92137178Y-118647598D01*
X92219870Y-118790951D01*
X92301921Y-118933467D01*
X92381876Y-119072624D01*
X92458281Y-119205901D01*
X92529682Y-119330776D01*
X92594624Y-119444727D01*
X92651653Y-119545233D01*
X92699315Y-119629772D01*
X92736155Y-119695822D01*
X92760720Y-119740862D01*
X92771554Y-119762370D01*
X92771951Y-119763714D01*
X92758501Y-119781965D01*
X92721114Y-119809882D01*
X92664235Y-119844725D01*
X92592312Y-119883754D01*
X92517015Y-119920843D01*
X92414560Y-119965817D01*
X92306817Y-120006226D01*
X92190073Y-120042969D01*
X92060618Y-120076942D01*
X91914740Y-120109044D01*
X91748726Y-120140173D01*
X91558866Y-120171227D01*
X91362469Y-120200145D01*
X91191834Y-120225800D01*
X91048545Y-120251198D01*
X90929008Y-120277602D01*
X90829630Y-120306273D01*
X90746818Y-120338473D01*
X90676978Y-120375465D01*
X90616518Y-120418512D01*
X90561845Y-120468875D01*
X90544214Y-120487583D01*
X90506000Y-120531139D01*
X90477732Y-120566682D01*
X90464618Y-120587583D01*
X90464268Y-120589297D01*
X90459680Y-120599806D01*
X90443758Y-120599924D01*
X90413266Y-120588254D01*
X90364968Y-120563396D01*
X90295627Y-120523952D01*
X90247439Y-120495587D01*
X90175583Y-120451247D01*
X90119742Y-120413279D01*
X90083667Y-120384416D01*
X90071113Y-120367388D01*
X90071121Y-120367264D01*
X90078906Y-120351037D01*
X90100892Y-120310400D01*
X90135803Y-120247567D01*
X90182363Y-120164752D01*
X90239295Y-120064172D01*
X90305323Y-119948040D01*
X90379172Y-119818571D01*
X90459564Y-119677980D01*
X90545224Y-119528482D01*
X90634876Y-119372292D01*
X90727243Y-119211624D01*
X90821049Y-119048693D01*
X90915018Y-118885713D01*
X91007874Y-118724900D01*
X91098340Y-118568468D01*
X91185141Y-118418633D01*
X91267000Y-118277608D01*
X91342641Y-118147609D01*
X91410787Y-118030849D01*
X91470163Y-117929545D01*
X91519493Y-117845911D01*
X91557500Y-117782162D01*
X91582907Y-117740511D01*
X91594440Y-117723175D01*
X91594923Y-117722805D01*
X91604043Y-117735835D01*
G36*
X85567822Y-123667822D02*
G01*
X82047029Y-123667822D01*
X82047029Y-122800198D01*
X85567822Y-122800198D01*
X85567822Y-123667822D01*
G37*
X85567822Y-123667822D02*
X82047029Y-123667822D01*
X82047029Y-122800198D01*
X85567822Y-122800198D01*
X85567822Y-123667822D01*
G36*
X85944430Y-117714848D02*
G01*
X85943811Y-117801931D01*
X85492086Y-118260891D01*
X85040361Y-118719852D01*
X85040032Y-118930471D01*
X85039703Y-119141089D01*
X84764610Y-119141089D01*
X84757522Y-119194530D01*
X84754838Y-119218888D01*
X84750313Y-119264759D01*
X84744191Y-119329405D01*
X84736712Y-119410091D01*
X84728119Y-119504081D01*
X84718654Y-119608637D01*
X84708558Y-119721025D01*
X84698074Y-119838507D01*
X84687444Y-119958348D01*
X84676909Y-120077811D01*
X84666713Y-120194159D01*
X84657095Y-120304657D01*
X84648300Y-120406569D01*
X84640568Y-120497158D01*
X84634142Y-120573687D01*
X84629263Y-120633421D01*
X84626175Y-120673624D01*
X84625117Y-120691559D01*
X84625118Y-120691644D01*
X84632827Y-120706035D01*
X84655981Y-120735748D01*
X84694895Y-120781131D01*
X84749884Y-120842529D01*
X84821264Y-120920288D01*
X84909349Y-121014754D01*
X85014454Y-121126272D01*
X85136895Y-121255188D01*
X85171310Y-121291287D01*
X85717137Y-121863416D01*
X85628881Y-121951436D01*
X85557485Y-121873758D01*
X85531366Y-121845686D01*
X85490566Y-121802274D01*
X85437777Y-121746366D01*
X85375691Y-121680808D01*
X85307000Y-121608441D01*
X85234396Y-121532112D01*
X85190960Y-121486524D01*
X85109416Y-121401119D01*
X85043504Y-121332710D01*
X84991544Y-121280053D01*
X84951855Y-121241905D01*
X84922757Y-121217020D01*
X84902569Y-121204156D01*
X84889610Y-121202068D01*
X84882200Y-121209513D01*
X84878658Y-121225246D01*
X84877303Y-121248023D01*
X84877121Y-121254239D01*
X84867703Y-121297061D01*
X84844497Y-121348819D01*
X84812136Y-121401328D01*
X84775252Y-121446403D01*
X84760493Y-121460328D01*
X84684767Y-121509047D01*
X84596308Y-121536306D01*
X84518100Y-121542773D01*
X84429468Y-121530576D01*
X84347612Y-121494813D01*
X84275164Y-121436722D01*
X84261797Y-121422262D01*
X84212918Y-121366733D01*
X83367326Y-121366733D01*
X83367326Y-121542773D01*
X83140990Y-121542773D01*
X83140990Y-121460531D01*
X83138150Y-121404386D01*
X83128607Y-121365416D01*
X83117009Y-121344219D01*
X83108723Y-121329052D01*
X83101627Y-121307062D01*
X83095252Y-121274987D01*
X83089128Y-121229569D01*
X83082784Y-121167548D01*
X83075750Y-121085662D01*
X83070934Y-121024746D01*
X83048839Y-120739343D01*
X82506435Y-121288805D01*
X82408363Y-121388228D01*
X82314216Y-121483815D01*
X82225715Y-121573810D01*
X82144580Y-121656457D01*
X82072531Y-121730001D01*
X82011288Y-121792684D01*
X81962573Y-121842752D01*
X81928104Y-121878448D01*
X81909621Y-121897995D01*
X81879257Y-121928944D01*
X81853929Y-121950530D01*
X81840305Y-121957723D01*
X81822905Y-121949297D01*
X81797540Y-121928245D01*
X81788942Y-121919671D01*
X81752486Y-121881620D01*
X81953198Y-121677658D01*
X82004404Y-121625699D01*
X82070431Y-121558820D01*
X82148382Y-121479950D01*
X82235362Y-121392014D01*
X82328474Y-121297941D01*
X82424821Y-121200658D01*
X82521508Y-121103093D01*
X82590866Y-121033145D01*
X82696297Y-120926550D01*
X82784871Y-120836307D01*
X82857719Y-120761192D01*
X82915977Y-120699986D01*
X82960775Y-120651466D01*
X82982979Y-120626129D01*
X83161276Y-120626129D01*
X83183599Y-120911555D01*
X83190331Y-120995219D01*
X83196843Y-121071727D01*
X83202766Y-121137081D01*
X83207732Y-121187281D01*
X83211371Y-121218329D01*
X83212542Y-121225273D01*
X83219162Y-121253565D01*
X84168636Y-121253565D01*
X84174974Y-121174606D01*
X84194110Y-121081315D01*
X84234154Y-120998791D01*
X84292582Y-120930038D01*
X84366871Y-120878063D01*
X84450252Y-120846863D01*
X84477302Y-120832228D01*
X84490844Y-120800819D01*
X84491128Y-120799434D01*
X84492753Y-120786174D01*
X84490744Y-120772595D01*
X84483142Y-120756181D01*
X84467984Y-120734411D01*
X84443312Y-120704767D01*
X84407164Y-120664732D01*
X84357580Y-120611785D01*
X84292599Y-120543409D01*
X84288401Y-120539005D01*
X84218507Y-120465611D01*
X84144200Y-120387437D01*
X84070586Y-120309864D01*
X84002771Y-120238275D01*
X83945860Y-120178051D01*
X83933168Y-120164587D01*
X83884513Y-120113820D01*
X83841291Y-120070375D01*
X83806605Y-120037241D01*
X83783556Y-120017405D01*
X83775818Y-120013046D01*
X83764278Y-120022170D01*
X83737290Y-120047200D01*
X83696979Y-120086052D01*
X83645471Y-120136643D01*
X83584891Y-120196888D01*
X83517364Y-120264704D01*
X83462174Y-120320565D01*
X83161276Y-120626129D01*
X82982979Y-120626129D01*
X82993249Y-120614411D01*
X83014529Y-120587599D01*
X83025749Y-120569808D01*
X83028246Y-120561570D01*
X83027300Y-120543590D01*
X83024427Y-120502892D01*
X83019813Y-120441819D01*
X83013642Y-120362713D01*
X83006102Y-120267914D01*
X82997379Y-120159767D01*
X82987657Y-120040612D01*
X82977124Y-119912791D01*
X82968635Y-119810635D01*
X82920604Y-119234674D01*
X83044195Y-119234674D01*
X83044727Y-119247104D01*
X83047231Y-119282110D01*
X83051504Y-119337215D01*
X83057347Y-119409943D01*
X83064557Y-119497814D01*
X83072934Y-119598351D01*
X83082277Y-119709077D01*
X83091242Y-119814205D01*
X83101398Y-119933483D01*
X83110858Y-120046080D01*
X83119404Y-120149305D01*
X83126821Y-120240473D01*
X83132892Y-120316895D01*
X83137399Y-120375883D01*
X83140127Y-120414749D01*
X83140884Y-120429844D01*
X83142065Y-120439238D01*
X83146744Y-120442966D01*
X83156724Y-120439471D01*
X83173810Y-120427199D01*
X83199804Y-120404594D01*
X83236510Y-120370100D01*
X83285733Y-120322162D01*
X83349274Y-120259224D01*
X83416695Y-120191968D01*
X83692399Y-119916477D01*
X83690467Y-119914406D01*
X83872710Y-119914406D01*
X83881016Y-119925780D01*
X83904267Y-119952563D01*
X83940135Y-119992292D01*
X83986287Y-120042507D01*
X84040394Y-120100746D01*
X84100126Y-120164547D01*
X84163152Y-120231449D01*
X84227142Y-120298990D01*
X84289764Y-120364710D01*
X84348690Y-120426146D01*
X84401588Y-120480837D01*
X84446128Y-120526322D01*
X84479980Y-120560138D01*
X84500812Y-120579826D01*
X84506494Y-120583837D01*
X84508366Y-120570891D01*
X84512254Y-120535134D01*
X84517943Y-120478804D01*
X84525219Y-120404140D01*
X84533869Y-120313380D01*
X84543678Y-120208762D01*
X84554434Y-120092526D01*
X84565921Y-119966908D01*
X84575093Y-119865618D01*
X84586826Y-119734279D01*
X84597665Y-119610552D01*
X84607430Y-119496681D01*
X84615937Y-119394911D01*
X84623005Y-119307487D01*
X84628451Y-119236653D01*
X84632092Y-119184653D01*
X84633747Y-119153732D01*
X84633558Y-119145703D01*
X84623666Y-119152854D01*
X84598476Y-119175841D01*
X84560190Y-119212439D01*
X84511011Y-119260422D01*
X84453139Y-119317566D01*
X84388778Y-119381647D01*
X84320129Y-119450438D01*
X84249395Y-119521716D01*
X84178778Y-119593255D01*
X84110480Y-119662830D01*
X84046704Y-119728217D01*
X83989650Y-119787191D01*
X83941522Y-119837527D01*
X83904522Y-119876999D01*
X83880852Y-119903383D01*
X83872710Y-119914406D01*
X83690467Y-119914406D01*
X83589591Y-119806295D01*
X83537232Y-119750377D01*
X83478465Y-119687948D01*
X83415615Y-119621443D01*
X83351005Y-119553298D01*
X83286958Y-119485948D01*
X83225797Y-119421828D01*
X83169847Y-119363372D01*
X83121430Y-119313018D01*
X83082870Y-119273198D01*
X83056491Y-119246350D01*
X83044616Y-119234908D01*
X83044195Y-119234674D01*
X82920604Y-119234674D01*
X82908599Y-119090726D01*
X82308062Y-118459158D01*
X81707525Y-117827589D01*
X81707966Y-117739315D01*
X81708408Y-117651040D01*
X81805417Y-117754666D01*
X81859709Y-117812463D01*
X81923808Y-117880368D01*
X81995984Y-117956572D01*
X82074508Y-118039269D01*
X82157651Y-118126653D01*
X82243681Y-118216915D01*
X82330870Y-118308250D01*
X82417487Y-118398849D01*
X82501803Y-118486907D01*
X82582088Y-118570615D01*
X82656613Y-118648167D01*
X82723646Y-118717757D01*
X82781459Y-118777576D01*
X82828321Y-118825818D01*
X82862504Y-118860676D01*
X82882276Y-118880343D01*
X82886610Y-118884116D01*
X82886908Y-118870992D01*
X82885269Y-118837389D01*
X82881977Y-118787880D01*
X82877318Y-118727037D01*
X82875318Y-118702732D01*
X82860423Y-118524951D01*
X82977045Y-118524951D01*
X82983066Y-118553243D01*
X82986137Y-118575618D01*
X82990452Y-118617717D01*
X82995512Y-118674178D01*
X83000819Y-118739635D01*
X83002656Y-118763862D01*
X83008073Y-118833421D01*
X83013541Y-118898018D01*
X83018512Y-118951548D01*
X83022439Y-118987910D01*
X83023325Y-118994509D01*
X83026666Y-119008056D01*
X83033899Y-119023914D01*
X83046560Y-119043861D01*
X83066189Y-119069673D01*
X83094322Y-119103129D01*
X83132498Y-119146007D01*
X83182254Y-119200083D01*
X83245129Y-119267136D01*
X83322659Y-119348943D01*
X83401749Y-119431950D01*
X83480436Y-119514094D01*
X83553888Y-119590169D01*
X83620276Y-119658325D01*
X83677773Y-119716712D01*
X83724549Y-119763481D01*
X83758776Y-119796782D01*
X83778627Y-119814767D01*
X83782860Y-119817442D01*
X83793997Y-119807741D01*
X83820029Y-119782441D01*
X83858430Y-119744082D01*
X83906672Y-119695200D01*
X83962230Y-119638334D01*
X84002408Y-119596906D01*
X84212169Y-119380000D01*
X83593663Y-119380000D01*
X83593663Y-119141089D01*
X84348119Y-119141089D01*
X84348119Y-119247542D01*
X84486435Y-119109654D01*
X84584553Y-119011840D01*
X84775643Y-119011840D01*
X84777471Y-119027270D01*
X84786723Y-119035867D01*
X84809050Y-119039613D01*
X84850105Y-119040489D01*
X84857376Y-119040495D01*
X84939109Y-119040495D01*
X84939109Y-118821172D01*
X84857376Y-118902179D01*
X84811270Y-118951428D01*
X84783694Y-118989159D01*
X84775643Y-119011840D01*
X84584553Y-119011840D01*
X84624752Y-118971766D01*
X84624752Y-118848952D01*
X84625137Y-118792450D01*
X84626900Y-118756505D01*
X84630950Y-118736530D01*
X84638199Y-118727937D01*
X84649130Y-118726139D01*
X84661288Y-118723498D01*
X84670273Y-118712912D01*
X84677174Y-118690381D01*
X84683076Y-118651909D01*
X84689065Y-118593498D01*
X84690987Y-118572104D01*
X84695148Y-118524951D01*
X82977045Y-118524951D01*
X82860423Y-118524951D01*
X82700891Y-118524951D01*
X82700891Y-118411782D01*
X82768686Y-118411782D01*
X82808338Y-118410696D01*
X82829884Y-118405454D01*
X82832520Y-118402334D01*
X82971384Y-118402334D01*
X82978692Y-118409462D01*
X83004007Y-118411662D01*
X83021092Y-118411782D01*
X83078119Y-118411782D01*
X83290779Y-118411782D01*
X84705302Y-118411782D01*
X84657458Y-118362786D01*
X84583150Y-118302324D01*
X84491184Y-118255691D01*
X84380002Y-118222249D01*
X84269529Y-118203753D01*
X84197227Y-118195122D01*
X84197227Y-118286040D01*
X83618812Y-118286040D01*
X83618812Y-118182893D01*
X83533935Y-118191496D01*
X83474632Y-118198756D01*
X83411449Y-118208379D01*
X83373614Y-118215252D01*
X83298168Y-118230407D01*
X83294474Y-118321095D01*
X83290779Y-118411782D01*
X83078119Y-118411782D01*
X83078119Y-118361485D01*
X83076456Y-118329976D01*
X83072303Y-118312463D01*
X83070629Y-118311188D01*
X83052013Y-118319254D01*
X83024817Y-118338820D01*
X82997552Y-118362944D01*
X82978733Y-118384682D01*
X82977057Y-118387508D01*
X82971384Y-118402334D01*
X82832520Y-118402334D01*
X82840338Y-118393081D01*
X82844558Y-118379604D01*
X82861781Y-118344627D01*
X82894862Y-118302579D01*
X82938107Y-118259356D01*
X82985826Y-118220854D01*
X83017170Y-118200801D01*
X83052877Y-118178851D01*
X83071181Y-118160411D01*
X83077612Y-118138668D01*
X83078106Y-118125718D01*
X83078106Y-118122575D01*
X83719406Y-118122575D01*
X83719406Y-118185446D01*
X84096633Y-118185446D01*
X84096633Y-118122575D01*
X83719406Y-118122575D01*
X83078106Y-118122575D01*
X83078119Y-118084852D01*
X83183952Y-118084852D01*
X83232645Y-118086029D01*
X83270595Y-118089165D01*
X83291692Y-118093671D01*
X83293977Y-118095495D01*
X83307359Y-118098295D01*
X83339926Y-118097148D01*
X83386084Y-118092393D01*
X83417624Y-118088003D01*
X83474812Y-118079378D01*
X83527114Y-118071591D01*
X83566418Y-118065847D01*
X83577945Y-118064215D01*
X83608063Y-118054888D01*
X83618812Y-118040272D01*
X83622080Y-118034320D01*
X83633770Y-118029778D01*
X83656712Y-118026470D01*
X83693735Y-118024215D01*
X83747668Y-118022834D01*
X83821340Y-118022150D01*
X83908020Y-118021980D01*
X84000529Y-118022077D01*
X84070906Y-118022530D01*
X84122164Y-118023590D01*
X84157320Y-118025503D01*
X84179389Y-118028519D01*
X84191385Y-118032885D01*
X84196324Y-118038849D01*
X84197227Y-118045784D01*
X84204921Y-118067795D01*
X84230121Y-118080321D01*
X84276009Y-118084788D01*
X84284264Y-118084852D01*
X84361973Y-118092868D01*
X84450233Y-118114936D01*
X84541085Y-118148084D01*
X84626570Y-118189339D01*
X84698726Y-118235731D01*
X84708072Y-118243082D01*
X84738533Y-118266998D01*
X84756572Y-118276576D01*
X84769169Y-118273480D01*
X84782100Y-118260704D01*
X84820293Y-118235678D01*
X84869998Y-118226071D01*
X84923524Y-118231067D01*
X84973178Y-118249851D01*
X85011267Y-118281606D01*
X85014025Y-118285297D01*
X85042526Y-118344575D01*
X85047828Y-118405934D01*
X85030518Y-118464427D01*
X84991180Y-118515104D01*
X84986370Y-118519289D01*
X84958440Y-118539167D01*
X84930102Y-118547921D01*
X84890263Y-118548553D01*
X84880311Y-118547992D01*
X84841332Y-118546562D01*
X84821254Y-118549839D01*
X84813985Y-118559728D01*
X84813240Y-118568961D01*
X84811716Y-118595744D01*
X84807935Y-118636025D01*
X84805218Y-118660124D01*
X84801277Y-118698401D01*
X84802916Y-118717996D01*
X84812421Y-118725158D01*
X84829351Y-118726139D01*
X84839392Y-118722901D01*
X84855590Y-118712420D01*
X84879145Y-118693548D01*
X84911257Y-118665135D01*
X84953128Y-118626035D01*
X85005957Y-118575097D01*
X85070945Y-118511173D01*
X85149291Y-118433114D01*
X85242197Y-118339772D01*
X85350863Y-118229998D01*
X85403231Y-118176952D01*
X85945049Y-117627767D01*
X85944430Y-117714848D01*
G37*
X85944430Y-117714848D02*
X85943811Y-117801931D01*
X85492086Y-118260891D01*
X85040361Y-118719852D01*
X85040032Y-118930471D01*
X85039703Y-119141089D01*
X84764610Y-119141089D01*
X84757522Y-119194530D01*
X84754838Y-119218888D01*
X84750313Y-119264759D01*
X84744191Y-119329405D01*
X84736712Y-119410091D01*
X84728119Y-119504081D01*
X84718654Y-119608637D01*
X84708558Y-119721025D01*
X84698074Y-119838507D01*
X84687444Y-119958348D01*
X84676909Y-120077811D01*
X84666713Y-120194159D01*
X84657095Y-120304657D01*
X84648300Y-120406569D01*
X84640568Y-120497158D01*
X84634142Y-120573687D01*
X84629263Y-120633421D01*
X84626175Y-120673624D01*
X84625117Y-120691559D01*
X84625118Y-120691644D01*
X84632827Y-120706035D01*
X84655981Y-120735748D01*
X84694895Y-120781131D01*
X84749884Y-120842529D01*
X84821264Y-120920288D01*
X84909349Y-121014754D01*
X85014454Y-121126272D01*
X85136895Y-121255188D01*
X85171310Y-121291287D01*
X85717137Y-121863416D01*
X85628881Y-121951436D01*
X85557485Y-121873758D01*
X85531366Y-121845686D01*
X85490566Y-121802274D01*
X85437777Y-121746366D01*
X85375691Y-121680808D01*
X85307000Y-121608441D01*
X85234396Y-121532112D01*
X85190960Y-121486524D01*
X85109416Y-121401119D01*
X85043504Y-121332710D01*
X84991544Y-121280053D01*
X84951855Y-121241905D01*
X84922757Y-121217020D01*
X84902569Y-121204156D01*
X84889610Y-121202068D01*
X84882200Y-121209513D01*
X84878658Y-121225246D01*
X84877303Y-121248023D01*
X84877121Y-121254239D01*
X84867703Y-121297061D01*
X84844497Y-121348819D01*
X84812136Y-121401328D01*
X84775252Y-121446403D01*
X84760493Y-121460328D01*
X84684767Y-121509047D01*
X84596308Y-121536306D01*
X84518100Y-121542773D01*
X84429468Y-121530576D01*
X84347612Y-121494813D01*
X84275164Y-121436722D01*
X84261797Y-121422262D01*
X84212918Y-121366733D01*
X83367326Y-121366733D01*
X83367326Y-121542773D01*
X83140990Y-121542773D01*
X83140990Y-121460531D01*
X83138150Y-121404386D01*
X83128607Y-121365416D01*
X83117009Y-121344219D01*
X83108723Y-121329052D01*
X83101627Y-121307062D01*
X83095252Y-121274987D01*
X83089128Y-121229569D01*
X83082784Y-121167548D01*
X83075750Y-121085662D01*
X83070934Y-121024746D01*
X83048839Y-120739343D01*
X82506435Y-121288805D01*
X82408363Y-121388228D01*
X82314216Y-121483815D01*
X82225715Y-121573810D01*
X82144580Y-121656457D01*
X82072531Y-121730001D01*
X82011288Y-121792684D01*
X81962573Y-121842752D01*
X81928104Y-121878448D01*
X81909621Y-121897995D01*
X81879257Y-121928944D01*
X81853929Y-121950530D01*
X81840305Y-121957723D01*
X81822905Y-121949297D01*
X81797540Y-121928245D01*
X81788942Y-121919671D01*
X81752486Y-121881620D01*
X81953198Y-121677658D01*
X82004404Y-121625699D01*
X82070431Y-121558820D01*
X82148382Y-121479950D01*
X82235362Y-121392014D01*
X82328474Y-121297941D01*
X82424821Y-121200658D01*
X82521508Y-121103093D01*
X82590866Y-121033145D01*
X82696297Y-120926550D01*
X82784871Y-120836307D01*
X82857719Y-120761192D01*
X82915977Y-120699986D01*
X82960775Y-120651466D01*
X82982979Y-120626129D01*
X83161276Y-120626129D01*
X83183599Y-120911555D01*
X83190331Y-120995219D01*
X83196843Y-121071727D01*
X83202766Y-121137081D01*
X83207732Y-121187281D01*
X83211371Y-121218329D01*
X83212542Y-121225273D01*
X83219162Y-121253565D01*
X84168636Y-121253565D01*
X84174974Y-121174606D01*
X84194110Y-121081315D01*
X84234154Y-120998791D01*
X84292582Y-120930038D01*
X84366871Y-120878063D01*
X84450252Y-120846863D01*
X84477302Y-120832228D01*
X84490844Y-120800819D01*
X84491128Y-120799434D01*
X84492753Y-120786174D01*
X84490744Y-120772595D01*
X84483142Y-120756181D01*
X84467984Y-120734411D01*
X84443312Y-120704767D01*
X84407164Y-120664732D01*
X84357580Y-120611785D01*
X84292599Y-120543409D01*
X84288401Y-120539005D01*
X84218507Y-120465611D01*
X84144200Y-120387437D01*
X84070586Y-120309864D01*
X84002771Y-120238275D01*
X83945860Y-120178051D01*
X83933168Y-120164587D01*
X83884513Y-120113820D01*
X83841291Y-120070375D01*
X83806605Y-120037241D01*
X83783556Y-120017405D01*
X83775818Y-120013046D01*
X83764278Y-120022170D01*
X83737290Y-120047200D01*
X83696979Y-120086052D01*
X83645471Y-120136643D01*
X83584891Y-120196888D01*
X83517364Y-120264704D01*
X83462174Y-120320565D01*
X83161276Y-120626129D01*
X82982979Y-120626129D01*
X82993249Y-120614411D01*
X83014529Y-120587599D01*
X83025749Y-120569808D01*
X83028246Y-120561570D01*
X83027300Y-120543590D01*
X83024427Y-120502892D01*
X83019813Y-120441819D01*
X83013642Y-120362713D01*
X83006102Y-120267914D01*
X82997379Y-120159767D01*
X82987657Y-120040612D01*
X82977124Y-119912791D01*
X82968635Y-119810635D01*
X82920604Y-119234674D01*
X83044195Y-119234674D01*
X83044727Y-119247104D01*
X83047231Y-119282110D01*
X83051504Y-119337215D01*
X83057347Y-119409943D01*
X83064557Y-119497814D01*
X83072934Y-119598351D01*
X83082277Y-119709077D01*
X83091242Y-119814205D01*
X83101398Y-119933483D01*
X83110858Y-120046080D01*
X83119404Y-120149305D01*
X83126821Y-120240473D01*
X83132892Y-120316895D01*
X83137399Y-120375883D01*
X83140127Y-120414749D01*
X83140884Y-120429844D01*
X83142065Y-120439238D01*
X83146744Y-120442966D01*
X83156724Y-120439471D01*
X83173810Y-120427199D01*
X83199804Y-120404594D01*
X83236510Y-120370100D01*
X83285733Y-120322162D01*
X83349274Y-120259224D01*
X83416695Y-120191968D01*
X83692399Y-119916477D01*
X83690467Y-119914406D01*
X83872710Y-119914406D01*
X83881016Y-119925780D01*
X83904267Y-119952563D01*
X83940135Y-119992292D01*
X83986287Y-120042507D01*
X84040394Y-120100746D01*
X84100126Y-120164547D01*
X84163152Y-120231449D01*
X84227142Y-120298990D01*
X84289764Y-120364710D01*
X84348690Y-120426146D01*
X84401588Y-120480837D01*
X84446128Y-120526322D01*
X84479980Y-120560138D01*
X84500812Y-120579826D01*
X84506494Y-120583837D01*
X84508366Y-120570891D01*
X84512254Y-120535134D01*
X84517943Y-120478804D01*
X84525219Y-120404140D01*
X84533869Y-120313380D01*
X84543678Y-120208762D01*
X84554434Y-120092526D01*
X84565921Y-119966908D01*
X84575093Y-119865618D01*
X84586826Y-119734279D01*
X84597665Y-119610552D01*
X84607430Y-119496681D01*
X84615937Y-119394911D01*
X84623005Y-119307487D01*
X84628451Y-119236653D01*
X84632092Y-119184653D01*
X84633747Y-119153732D01*
X84633558Y-119145703D01*
X84623666Y-119152854D01*
X84598476Y-119175841D01*
X84560190Y-119212439D01*
X84511011Y-119260422D01*
X84453139Y-119317566D01*
X84388778Y-119381647D01*
X84320129Y-119450438D01*
X84249395Y-119521716D01*
X84178778Y-119593255D01*
X84110480Y-119662830D01*
X84046704Y-119728217D01*
X83989650Y-119787191D01*
X83941522Y-119837527D01*
X83904522Y-119876999D01*
X83880852Y-119903383D01*
X83872710Y-119914406D01*
X83690467Y-119914406D01*
X83589591Y-119806295D01*
X83537232Y-119750377D01*
X83478465Y-119687948D01*
X83415615Y-119621443D01*
X83351005Y-119553298D01*
X83286958Y-119485948D01*
X83225797Y-119421828D01*
X83169847Y-119363372D01*
X83121430Y-119313018D01*
X83082870Y-119273198D01*
X83056491Y-119246350D01*
X83044616Y-119234908D01*
X83044195Y-119234674D01*
X82920604Y-119234674D01*
X82908599Y-119090726D01*
X82308062Y-118459158D01*
X81707525Y-117827589D01*
X81707966Y-117739315D01*
X81708408Y-117651040D01*
X81805417Y-117754666D01*
X81859709Y-117812463D01*
X81923808Y-117880368D01*
X81995984Y-117956572D01*
X82074508Y-118039269D01*
X82157651Y-118126653D01*
X82243681Y-118216915D01*
X82330870Y-118308250D01*
X82417487Y-118398849D01*
X82501803Y-118486907D01*
X82582088Y-118570615D01*
X82656613Y-118648167D01*
X82723646Y-118717757D01*
X82781459Y-118777576D01*
X82828321Y-118825818D01*
X82862504Y-118860676D01*
X82882276Y-118880343D01*
X82886610Y-118884116D01*
X82886908Y-118870992D01*
X82885269Y-118837389D01*
X82881977Y-118787880D01*
X82877318Y-118727037D01*
X82875318Y-118702732D01*
X82860423Y-118524951D01*
X82977045Y-118524951D01*
X82983066Y-118553243D01*
X82986137Y-118575618D01*
X82990452Y-118617717D01*
X82995512Y-118674178D01*
X83000819Y-118739635D01*
X83002656Y-118763862D01*
X83008073Y-118833421D01*
X83013541Y-118898018D01*
X83018512Y-118951548D01*
X83022439Y-118987910D01*
X83023325Y-118994509D01*
X83026666Y-119008056D01*
X83033899Y-119023914D01*
X83046560Y-119043861D01*
X83066189Y-119069673D01*
X83094322Y-119103129D01*
X83132498Y-119146007D01*
X83182254Y-119200083D01*
X83245129Y-119267136D01*
X83322659Y-119348943D01*
X83401749Y-119431950D01*
X83480436Y-119514094D01*
X83553888Y-119590169D01*
X83620276Y-119658325D01*
X83677773Y-119716712D01*
X83724549Y-119763481D01*
X83758776Y-119796782D01*
X83778627Y-119814767D01*
X83782860Y-119817442D01*
X83793997Y-119807741D01*
X83820029Y-119782441D01*
X83858430Y-119744082D01*
X83906672Y-119695200D01*
X83962230Y-119638334D01*
X84002408Y-119596906D01*
X84212169Y-119380000D01*
X83593663Y-119380000D01*
X83593663Y-119141089D01*
X84348119Y-119141089D01*
X84348119Y-119247542D01*
X84486435Y-119109654D01*
X84584553Y-119011840D01*
X84775643Y-119011840D01*
X84777471Y-119027270D01*
X84786723Y-119035867D01*
X84809050Y-119039613D01*
X84850105Y-119040489D01*
X84857376Y-119040495D01*
X84939109Y-119040495D01*
X84939109Y-118821172D01*
X84857376Y-118902179D01*
X84811270Y-118951428D01*
X84783694Y-118989159D01*
X84775643Y-119011840D01*
X84584553Y-119011840D01*
X84624752Y-118971766D01*
X84624752Y-118848952D01*
X84625137Y-118792450D01*
X84626900Y-118756505D01*
X84630950Y-118736530D01*
X84638199Y-118727937D01*
X84649130Y-118726139D01*
X84661288Y-118723498D01*
X84670273Y-118712912D01*
X84677174Y-118690381D01*
X84683076Y-118651909D01*
X84689065Y-118593498D01*
X84690987Y-118572104D01*
X84695148Y-118524951D01*
X82977045Y-118524951D01*
X82860423Y-118524951D01*
X82700891Y-118524951D01*
X82700891Y-118411782D01*
X82768686Y-118411782D01*
X82808338Y-118410696D01*
X82829884Y-118405454D01*
X82832520Y-118402334D01*
X82971384Y-118402334D01*
X82978692Y-118409462D01*
X83004007Y-118411662D01*
X83021092Y-118411782D01*
X83078119Y-118411782D01*
X83290779Y-118411782D01*
X84705302Y-118411782D01*
X84657458Y-118362786D01*
X84583150Y-118302324D01*
X84491184Y-118255691D01*
X84380002Y-118222249D01*
X84269529Y-118203753D01*
X84197227Y-118195122D01*
X84197227Y-118286040D01*
X83618812Y-118286040D01*
X83618812Y-118182893D01*
X83533935Y-118191496D01*
X83474632Y-118198756D01*
X83411449Y-118208379D01*
X83373614Y-118215252D01*
X83298168Y-118230407D01*
X83294474Y-118321095D01*
X83290779Y-118411782D01*
X83078119Y-118411782D01*
X83078119Y-118361485D01*
X83076456Y-118329976D01*
X83072303Y-118312463D01*
X83070629Y-118311188D01*
X83052013Y-118319254D01*
X83024817Y-118338820D01*
X82997552Y-118362944D01*
X82978733Y-118384682D01*
X82977057Y-118387508D01*
X82971384Y-118402334D01*
X82832520Y-118402334D01*
X82840338Y-118393081D01*
X82844558Y-118379604D01*
X82861781Y-118344627D01*
X82894862Y-118302579D01*
X82938107Y-118259356D01*
X82985826Y-118220854D01*
X83017170Y-118200801D01*
X83052877Y-118178851D01*
X83071181Y-118160411D01*
X83077612Y-118138668D01*
X83078106Y-118125718D01*
X83078106Y-118122575D01*
X83719406Y-118122575D01*
X83719406Y-118185446D01*
X84096633Y-118185446D01*
X84096633Y-118122575D01*
X83719406Y-118122575D01*
X83078106Y-118122575D01*
X83078119Y-118084852D01*
X83183952Y-118084852D01*
X83232645Y-118086029D01*
X83270595Y-118089165D01*
X83291692Y-118093671D01*
X83293977Y-118095495D01*
X83307359Y-118098295D01*
X83339926Y-118097148D01*
X83386084Y-118092393D01*
X83417624Y-118088003D01*
X83474812Y-118079378D01*
X83527114Y-118071591D01*
X83566418Y-118065847D01*
X83577945Y-118064215D01*
X83608063Y-118054888D01*
X83618812Y-118040272D01*
X83622080Y-118034320D01*
X83633770Y-118029778D01*
X83656712Y-118026470D01*
X83693735Y-118024215D01*
X83747668Y-118022834D01*
X83821340Y-118022150D01*
X83908020Y-118021980D01*
X84000529Y-118022077D01*
X84070906Y-118022530D01*
X84122164Y-118023590D01*
X84157320Y-118025503D01*
X84179389Y-118028519D01*
X84191385Y-118032885D01*
X84196324Y-118038849D01*
X84197227Y-118045784D01*
X84204921Y-118067795D01*
X84230121Y-118080321D01*
X84276009Y-118084788D01*
X84284264Y-118084852D01*
X84361973Y-118092868D01*
X84450233Y-118114936D01*
X84541085Y-118148084D01*
X84626570Y-118189339D01*
X84698726Y-118235731D01*
X84708072Y-118243082D01*
X84738533Y-118266998D01*
X84756572Y-118276576D01*
X84769169Y-118273480D01*
X84782100Y-118260704D01*
X84820293Y-118235678D01*
X84869998Y-118226071D01*
X84923524Y-118231067D01*
X84973178Y-118249851D01*
X85011267Y-118281606D01*
X85014025Y-118285297D01*
X85042526Y-118344575D01*
X85047828Y-118405934D01*
X85030518Y-118464427D01*
X84991180Y-118515104D01*
X84986370Y-118519289D01*
X84958440Y-118539167D01*
X84930102Y-118547921D01*
X84890263Y-118548553D01*
X84880311Y-118547992D01*
X84841332Y-118546562D01*
X84821254Y-118549839D01*
X84813985Y-118559728D01*
X84813240Y-118568961D01*
X84811716Y-118595744D01*
X84807935Y-118636025D01*
X84805218Y-118660124D01*
X84801277Y-118698401D01*
X84802916Y-118717996D01*
X84812421Y-118725158D01*
X84829351Y-118726139D01*
X84839392Y-118722901D01*
X84855590Y-118712420D01*
X84879145Y-118693548D01*
X84911257Y-118665135D01*
X84953128Y-118626035D01*
X85005957Y-118575097D01*
X85070945Y-118511173D01*
X85149291Y-118433114D01*
X85242197Y-118339772D01*
X85350863Y-118229998D01*
X85403231Y-118176952D01*
X85945049Y-117627767D01*
X85944430Y-117714848D01*
D14*
%TO.C,R1*%
X93322140Y-107696000D02*
X97177860Y-107696000D01*
X97177860Y-98044000D02*
X93322140Y-98044000D01*
%TO.C,J1*%
X82931000Y-115519497D02*
G75*
G03*
X82931000Y-115519497I-381000J0D01*
G01*
X79373001Y-113741497D02*
X87323201Y-113741497D01*
X79373001Y-92278497D02*
X79373001Y-113741497D01*
X87323201Y-92278497D02*
X79373001Y-92278497D01*
X87323201Y-113741497D02*
X87323201Y-92278497D01*
D15*
%TO.C,J2*%
X142240000Y-86480000D02*
X142240000Y-101480000D01*
X142240000Y-101480000D02*
X127240000Y-101480000D01*
X127240000Y-101480000D02*
X127240000Y-86480000D01*
X127240000Y-86480000D02*
X142240000Y-86480000D01*
X142040000Y-93980000D02*
X141040000Y-92980000D01*
X142040000Y-93980000D02*
X141040000Y-94980000D01*
%TO.C,J3*%
X142040000Y-118110000D02*
X141040000Y-119110000D01*
X142040000Y-118110000D02*
X141040000Y-117110000D01*
X127240000Y-110610000D02*
X142240000Y-110610000D01*
X127240000Y-125610000D02*
X127240000Y-110610000D01*
X142240000Y-125610000D02*
X127240000Y-125610000D01*
X142240000Y-110610000D02*
X142240000Y-125610000D01*
D16*
%TO.C,L1*%
X118510000Y-100730000D02*
X118510000Y-87230000D01*
X105010000Y-100730000D02*
X118510000Y-100730000D01*
X105010000Y-87230000D02*
X105010000Y-100730000D01*
X118510000Y-87230000D02*
X105010000Y-87230000D01*
%TO.C,L2*%
X118510000Y-108820000D02*
X105010000Y-108820000D01*
X105010000Y-108820000D02*
X105010000Y-122320000D01*
X105010000Y-122320000D02*
X118510000Y-122320000D01*
X118510000Y-122320000D02*
X118510000Y-108820000D01*
%TO.C,H4*%
D10*
X132588095Y-129992380D02*
X132588095Y-128992380D01*
X132588095Y-129468571D02*
X133159523Y-129468571D01*
X133159523Y-129992380D02*
X133159523Y-128992380D01*
X134064285Y-129325714D02*
X134064285Y-129992380D01*
X133826190Y-128944761D02*
X133588095Y-129659047D01*
X134207142Y-129659047D01*
%TO.C,H3*%
X132588095Y-80462380D02*
X132588095Y-79462380D01*
X132588095Y-79938571D02*
X133159523Y-79938571D01*
X133159523Y-80462380D02*
X133159523Y-79462380D01*
X133540476Y-79462380D02*
X134159523Y-79462380D01*
X133826190Y-79843333D01*
X133969047Y-79843333D01*
X134064285Y-79890952D01*
X134111904Y-79938571D01*
X134159523Y-80033809D01*
X134159523Y-80271904D01*
X134111904Y-80367142D01*
X134064285Y-80414761D01*
X133969047Y-80462380D01*
X133683333Y-80462380D01*
X133588095Y-80414761D01*
X133540476Y-80367142D01*
%TO.C,H2*%
X79248095Y-124912380D02*
X79248095Y-123912380D01*
X79248095Y-124388571D02*
X79819523Y-124388571D01*
X79819523Y-124912380D02*
X79819523Y-123912380D01*
X80248095Y-124007619D02*
X80295714Y-123960000D01*
X80390952Y-123912380D01*
X80629047Y-123912380D01*
X80724285Y-123960000D01*
X80771904Y-124007619D01*
X80819523Y-124102857D01*
X80819523Y-124198095D01*
X80771904Y-124340952D01*
X80200476Y-124912380D01*
X80819523Y-124912380D01*
%TO.C,H1*%
X79248095Y-85542380D02*
X79248095Y-84542380D01*
X79248095Y-85018571D02*
X79819523Y-85018571D01*
X79819523Y-85542380D02*
X79819523Y-84542380D01*
X80819523Y-85542380D02*
X80248095Y-85542380D01*
X80533809Y-85542380D02*
X80533809Y-84542380D01*
X80438571Y-84685238D01*
X80343333Y-84780476D01*
X80248095Y-84828095D01*
%TO.C,R1*%
X91273333Y-96972380D02*
X90940000Y-96496190D01*
X90701904Y-96972380D02*
X90701904Y-95972380D01*
X91082857Y-95972380D01*
X91178095Y-96020000D01*
X91225714Y-96067619D01*
X91273333Y-96162857D01*
X91273333Y-96305714D01*
X91225714Y-96400952D01*
X91178095Y-96448571D01*
X91082857Y-96496190D01*
X90701904Y-96496190D01*
X92225714Y-96972380D02*
X91654285Y-96972380D01*
X91940000Y-96972380D02*
X91940000Y-95972380D01*
X91844761Y-96115238D01*
X91749523Y-96210476D01*
X91654285Y-96258095D01*
X89783333Y-108781904D02*
X89973809Y-109581904D01*
X90126190Y-109010476D01*
X90278571Y-109581904D01*
X90469047Y-108781904D01*
X90735714Y-109543809D02*
X90850000Y-109581904D01*
X91040476Y-109581904D01*
X91116666Y-109543809D01*
X91154761Y-109505714D01*
X91192857Y-109429523D01*
X91192857Y-109353333D01*
X91154761Y-109277142D01*
X91116666Y-109239047D01*
X91040476Y-109200952D01*
X90888095Y-109162857D01*
X90811904Y-109124761D01*
X90773809Y-109086666D01*
X90735714Y-109010476D01*
X90735714Y-108934285D01*
X90773809Y-108858095D01*
X90811904Y-108820000D01*
X90888095Y-108781904D01*
X91078571Y-108781904D01*
X91192857Y-108820000D01*
X91916666Y-109581904D02*
X91535714Y-109581904D01*
X91535714Y-108781904D01*
X92107142Y-108781904D02*
X92602380Y-108781904D01*
X92335714Y-109086666D01*
X92450000Y-109086666D01*
X92526190Y-109124761D01*
X92564285Y-109162857D01*
X92602380Y-109239047D01*
X92602380Y-109429523D01*
X92564285Y-109505714D01*
X92526190Y-109543809D01*
X92450000Y-109581904D01*
X92221428Y-109581904D01*
X92145238Y-109543809D01*
X92107142Y-109505714D01*
X93288095Y-108781904D02*
X93135714Y-108781904D01*
X93059523Y-108820000D01*
X93021428Y-108858095D01*
X92945238Y-108972380D01*
X92907142Y-109124761D01*
X92907142Y-109429523D01*
X92945238Y-109505714D01*
X92983333Y-109543809D01*
X93059523Y-109581904D01*
X93211904Y-109581904D01*
X93288095Y-109543809D01*
X93326190Y-109505714D01*
X93364285Y-109429523D01*
X93364285Y-109239047D01*
X93326190Y-109162857D01*
X93288095Y-109124761D01*
X93211904Y-109086666D01*
X93059523Y-109086666D01*
X92983333Y-109124761D01*
X92945238Y-109162857D01*
X92907142Y-109239047D01*
X93630952Y-108781904D02*
X94126190Y-108781904D01*
X93859523Y-109086666D01*
X93973809Y-109086666D01*
X94050000Y-109124761D01*
X94088095Y-109162857D01*
X94126190Y-109239047D01*
X94126190Y-109429523D01*
X94088095Y-109505714D01*
X94050000Y-109543809D01*
X93973809Y-109581904D01*
X93745238Y-109581904D01*
X93669047Y-109543809D01*
X93630952Y-109505714D01*
X94392857Y-108781904D02*
X94926190Y-108781904D01*
X94583333Y-109581904D01*
X95154761Y-108781904D02*
X95650000Y-108781904D01*
X95383333Y-109086666D01*
X95497619Y-109086666D01*
X95573809Y-109124761D01*
X95611904Y-109162857D01*
X95650000Y-109239047D01*
X95650000Y-109429523D01*
X95611904Y-109505714D01*
X95573809Y-109543809D01*
X95497619Y-109581904D01*
X95269047Y-109581904D01*
X95192857Y-109543809D01*
X95154761Y-109505714D01*
X96373809Y-109581904D02*
X95992857Y-109581904D01*
X95992857Y-108781904D01*
X96792857Y-108781904D02*
X96869047Y-108781904D01*
X96945238Y-108820000D01*
X96983333Y-108858095D01*
X97021428Y-108934285D01*
X97059523Y-109086666D01*
X97059523Y-109277142D01*
X97021428Y-109429523D01*
X96983333Y-109505714D01*
X96945238Y-109543809D01*
X96869047Y-109581904D01*
X96792857Y-109581904D01*
X96716666Y-109543809D01*
X96678571Y-109505714D01*
X96640476Y-109429523D01*
X96602380Y-109277142D01*
X96602380Y-109086666D01*
X96640476Y-108934285D01*
X96678571Y-108858095D01*
X96716666Y-108820000D01*
X96792857Y-108781904D01*
X97554761Y-108781904D02*
X97630952Y-108781904D01*
X97707142Y-108820000D01*
X97745238Y-108858095D01*
X97783333Y-108934285D01*
X97821428Y-109086666D01*
X97821428Y-109277142D01*
X97783333Y-109429523D01*
X97745238Y-109505714D01*
X97707142Y-109543809D01*
X97630952Y-109581904D01*
X97554761Y-109581904D01*
X97478571Y-109543809D01*
X97440476Y-109505714D01*
X97402380Y-109429523D01*
X97364285Y-109277142D01*
X97364285Y-109086666D01*
X97402380Y-108934285D01*
X97440476Y-108858095D01*
X97478571Y-108820000D01*
X97554761Y-108781904D01*
X98316666Y-108781904D02*
X98392857Y-108781904D01*
X98469047Y-108820000D01*
X98507142Y-108858095D01*
X98545238Y-108934285D01*
X98583333Y-109086666D01*
X98583333Y-109277142D01*
X98545238Y-109429523D01*
X98507142Y-109505714D01*
X98469047Y-109543809D01*
X98392857Y-109581904D01*
X98316666Y-109581904D01*
X98240476Y-109543809D01*
X98202380Y-109505714D01*
X98164285Y-109429523D01*
X98126190Y-109277142D01*
X98126190Y-109086666D01*
X98164285Y-108934285D01*
X98202380Y-108858095D01*
X98240476Y-108820000D01*
X98316666Y-108781904D01*
X99192857Y-109162857D02*
X98926190Y-109162857D01*
X98926190Y-109581904D02*
X98926190Y-108781904D01*
X99307142Y-108781904D01*
X99611904Y-109162857D02*
X99878571Y-109162857D01*
X99992857Y-109581904D02*
X99611904Y-109581904D01*
X99611904Y-108781904D01*
X99992857Y-108781904D01*
X100297619Y-109353333D02*
X100678571Y-109353333D01*
X100221428Y-109581904D02*
X100488095Y-108781904D01*
X100754761Y-109581904D01*
%TO.C,J1*%
X86026666Y-90892380D02*
X86026666Y-91606666D01*
X85979047Y-91749523D01*
X85883809Y-91844761D01*
X85740952Y-91892380D01*
X85645714Y-91892380D01*
X87026666Y-91892380D02*
X86455238Y-91892380D01*
X86740952Y-91892380D02*
X86740952Y-90892380D01*
X86645714Y-91035238D01*
X86550476Y-91130476D01*
X86455238Y-91178095D01*
D17*
X78811428Y-97584285D02*
X78811428Y-97250952D01*
X78287619Y-97250952D02*
X79287619Y-97250952D01*
X79287619Y-97727142D01*
X78287619Y-98679523D02*
X78763809Y-98346190D01*
X78287619Y-98108095D02*
X79287619Y-98108095D01*
X79287619Y-98489047D01*
X79240000Y-98584285D01*
X79192380Y-98631904D01*
X79097142Y-98679523D01*
X78954285Y-98679523D01*
X78859047Y-98631904D01*
X78811428Y-98584285D01*
X78763809Y-98489047D01*
X78763809Y-98108095D01*
X79287619Y-99298571D02*
X79287619Y-99489047D01*
X79240000Y-99584285D01*
X79144761Y-99679523D01*
X78954285Y-99727142D01*
X78620952Y-99727142D01*
X78430476Y-99679523D01*
X78335238Y-99584285D01*
X78287619Y-99489047D01*
X78287619Y-99298571D01*
X78335238Y-99203333D01*
X78430476Y-99108095D01*
X78620952Y-99060476D01*
X78954285Y-99060476D01*
X79144761Y-99108095D01*
X79240000Y-99203333D01*
X79287619Y-99298571D01*
X78287619Y-100155714D02*
X79287619Y-100155714D01*
X78573333Y-100489047D01*
X79287619Y-100822380D01*
X78287619Y-100822380D01*
X78287619Y-102060476D02*
X79287619Y-102060476D01*
X79287619Y-102441428D01*
X79240000Y-102536666D01*
X79192380Y-102584285D01*
X79097142Y-102631904D01*
X78954285Y-102631904D01*
X78859047Y-102584285D01*
X78811428Y-102536666D01*
X78763809Y-102441428D01*
X78763809Y-102060476D01*
X79287619Y-102965238D02*
X78287619Y-103203333D01*
X79001904Y-103393809D01*
X78287619Y-103584285D01*
X79287619Y-103822380D01*
X78287619Y-104774761D02*
X78763809Y-104441428D01*
X78287619Y-104203333D02*
X79287619Y-104203333D01*
X79287619Y-104584285D01*
X79240000Y-104679523D01*
X79192380Y-104727142D01*
X79097142Y-104774761D01*
X78954285Y-104774761D01*
X78859047Y-104727142D01*
X78811428Y-104679523D01*
X78763809Y-104584285D01*
X78763809Y-104203333D01*
X78573333Y-105917619D02*
X78573333Y-106393809D01*
X78287619Y-105822380D02*
X79287619Y-106155714D01*
X78287619Y-106489047D01*
X78287619Y-106822380D02*
X79287619Y-106822380D01*
X78573333Y-107155714D01*
X79287619Y-107489047D01*
X78287619Y-107489047D01*
X78287619Y-107965238D02*
X79287619Y-107965238D01*
X79287619Y-108346190D01*
X79240000Y-108441428D01*
X79192380Y-108489047D01*
X79097142Y-108536666D01*
X78954285Y-108536666D01*
X78859047Y-108489047D01*
X78811428Y-108441428D01*
X78763809Y-108346190D01*
X78763809Y-107965238D01*
%TO.C,J2*%
D10*
X140636666Y-84542380D02*
X140636666Y-85256666D01*
X140589047Y-85399523D01*
X140493809Y-85494761D01*
X140350952Y-85542380D01*
X140255714Y-85542380D01*
X141065238Y-84637619D02*
X141112857Y-84590000D01*
X141208095Y-84542380D01*
X141446190Y-84542380D01*
X141541428Y-84590000D01*
X141589047Y-84637619D01*
X141636666Y-84732857D01*
X141636666Y-84828095D01*
X141589047Y-84970952D01*
X141017619Y-85542380D01*
X141636666Y-85542380D01*
X125182380Y-94741904D02*
X125182380Y-94170476D01*
X126182380Y-94456190D02*
X125182380Y-94456190D01*
X125182380Y-93932380D02*
X126182380Y-93265714D01*
X125182380Y-93265714D02*
X126182380Y-93932380D01*
%TO.C,J3*%
X140636666Y-108672380D02*
X140636666Y-109386666D01*
X140589047Y-109529523D01*
X140493809Y-109624761D01*
X140350952Y-109672380D01*
X140255714Y-109672380D01*
X141017619Y-108672380D02*
X141636666Y-108672380D01*
X141303333Y-109053333D01*
X141446190Y-109053333D01*
X141541428Y-109100952D01*
X141589047Y-109148571D01*
X141636666Y-109243809D01*
X141636666Y-109481904D01*
X141589047Y-109577142D01*
X141541428Y-109624761D01*
X141446190Y-109672380D01*
X141160476Y-109672380D01*
X141065238Y-109624761D01*
X141017619Y-109577142D01*
X126134761Y-120348095D02*
X126182380Y-120205238D01*
X126182380Y-119967142D01*
X126134761Y-119871904D01*
X126087142Y-119824285D01*
X125991904Y-119776666D01*
X125896666Y-119776666D01*
X125801428Y-119824285D01*
X125753809Y-119871904D01*
X125706190Y-119967142D01*
X125658571Y-120157619D01*
X125610952Y-120252857D01*
X125563333Y-120300476D01*
X125468095Y-120348095D01*
X125372857Y-120348095D01*
X125277619Y-120300476D01*
X125230000Y-120252857D01*
X125182380Y-120157619D01*
X125182380Y-119919523D01*
X125230000Y-119776666D01*
X126182380Y-119348095D02*
X125182380Y-119348095D01*
X125658571Y-119348095D02*
X125658571Y-118776666D01*
X126182380Y-118776666D02*
X125182380Y-118776666D01*
X125182380Y-118300476D02*
X125991904Y-118300476D01*
X126087142Y-118252857D01*
X126134761Y-118205238D01*
X126182380Y-118110000D01*
X126182380Y-117919523D01*
X126134761Y-117824285D01*
X126087142Y-117776666D01*
X125991904Y-117729047D01*
X125182380Y-117729047D01*
X126182380Y-117252857D02*
X125182380Y-117252857D01*
X126182380Y-116681428D01*
X125182380Y-116681428D01*
X125182380Y-116348095D02*
X125182380Y-115776666D01*
X126182380Y-116062380D02*
X125182380Y-116062380D01*
%TO.C,L1*%
X116640000Y-102142857D02*
X116068571Y-102142857D01*
X116068571Y-100942857D01*
X117668571Y-102142857D02*
X116982857Y-102142857D01*
X117325714Y-102142857D02*
X117325714Y-100942857D01*
X117211428Y-101114285D01*
X117097142Y-101228571D01*
X116982857Y-101285714D01*
X108640952Y-85812380D02*
X109212380Y-85812380D01*
X108926666Y-86812380D02*
X108926666Y-85812380D01*
X109974285Y-85812380D02*
X109783809Y-85812380D01*
X109688571Y-85860000D01*
X109640952Y-85907619D01*
X109545714Y-86050476D01*
X109498095Y-86240952D01*
X109498095Y-86621904D01*
X109545714Y-86717142D01*
X109593333Y-86764761D01*
X109688571Y-86812380D01*
X109879047Y-86812380D01*
X109974285Y-86764761D01*
X110021904Y-86717142D01*
X110069523Y-86621904D01*
X110069523Y-86383809D01*
X110021904Y-86288571D01*
X109974285Y-86240952D01*
X109879047Y-86193333D01*
X109688571Y-86193333D01*
X109593333Y-86240952D01*
X109545714Y-86288571D01*
X109498095Y-86383809D01*
X110688571Y-85812380D02*
X110783809Y-85812380D01*
X110879047Y-85860000D01*
X110926666Y-85907619D01*
X110974285Y-86002857D01*
X111021904Y-86193333D01*
X111021904Y-86431428D01*
X110974285Y-86621904D01*
X110926666Y-86717142D01*
X110879047Y-86764761D01*
X110783809Y-86812380D01*
X110688571Y-86812380D01*
X110593333Y-86764761D01*
X110545714Y-86717142D01*
X110498095Y-86621904D01*
X110450476Y-86431428D01*
X110450476Y-86193333D01*
X110498095Y-86002857D01*
X110545714Y-85907619D01*
X110593333Y-85860000D01*
X110688571Y-85812380D01*
X111640952Y-85812380D02*
X111736190Y-85812380D01*
X111831428Y-85860000D01*
X111879047Y-85907619D01*
X111926666Y-86002857D01*
X111974285Y-86193333D01*
X111974285Y-86431428D01*
X111926666Y-86621904D01*
X111879047Y-86717142D01*
X111831428Y-86764761D01*
X111736190Y-86812380D01*
X111640952Y-86812380D01*
X111545714Y-86764761D01*
X111498095Y-86717142D01*
X111450476Y-86621904D01*
X111402857Y-86431428D01*
X111402857Y-86193333D01*
X111450476Y-86002857D01*
X111498095Y-85907619D01*
X111545714Y-85860000D01*
X111640952Y-85812380D01*
X112307619Y-85812380D02*
X112926666Y-85812380D01*
X112593333Y-86193333D01*
X112736190Y-86193333D01*
X112831428Y-86240952D01*
X112879047Y-86288571D01*
X112926666Y-86383809D01*
X112926666Y-86621904D01*
X112879047Y-86717142D01*
X112831428Y-86764761D01*
X112736190Y-86812380D01*
X112450476Y-86812380D01*
X112355238Y-86764761D01*
X112307619Y-86717142D01*
X113355238Y-86812380D02*
X113355238Y-85812380D01*
X113926666Y-86812380D01*
X113926666Y-85812380D01*
X114879047Y-86812380D02*
X114402857Y-86812380D01*
X114402857Y-85812380D01*
%TO.C,L2*%
X116640000Y-123732857D02*
X116068571Y-123732857D01*
X116068571Y-122532857D01*
X116982857Y-122647142D02*
X117040000Y-122590000D01*
X117154285Y-122532857D01*
X117440000Y-122532857D01*
X117554285Y-122590000D01*
X117611428Y-122647142D01*
X117668571Y-122761428D01*
X117668571Y-122875714D01*
X117611428Y-123047142D01*
X116925714Y-123732857D01*
X117668571Y-123732857D01*
X108640952Y-107518803D02*
X109212380Y-107518803D01*
X108926666Y-108306205D02*
X108926666Y-107518803D01*
X109974285Y-107518803D02*
X109783809Y-107518803D01*
X109688571Y-107556299D01*
X109640952Y-107593794D01*
X109545714Y-107706280D01*
X109498095Y-107856261D01*
X109498095Y-108156224D01*
X109545714Y-108231215D01*
X109593333Y-108268710D01*
X109688571Y-108306205D01*
X109879047Y-108306205D01*
X109974285Y-108268710D01*
X110021904Y-108231215D01*
X110069523Y-108156224D01*
X110069523Y-107968747D01*
X110021904Y-107893757D01*
X109974285Y-107856261D01*
X109879047Y-107818766D01*
X109688571Y-107818766D01*
X109593333Y-107856261D01*
X109545714Y-107893757D01*
X109498095Y-107968747D01*
X110688571Y-107518803D02*
X110783809Y-107518803D01*
X110879047Y-107556299D01*
X110926666Y-107593794D01*
X110974285Y-107668785D01*
X111021904Y-107818766D01*
X111021904Y-108006243D01*
X110974285Y-108156224D01*
X110926666Y-108231215D01*
X110879047Y-108268710D01*
X110783809Y-108306205D01*
X110688571Y-108306205D01*
X110593333Y-108268710D01*
X110545714Y-108231215D01*
X110498095Y-108156224D01*
X110450476Y-108006243D01*
X110450476Y-107818766D01*
X110498095Y-107668785D01*
X110545714Y-107593794D01*
X110593333Y-107556299D01*
X110688571Y-107518803D01*
X111640952Y-107518803D02*
X111736190Y-107518803D01*
X111831428Y-107556299D01*
X111879047Y-107593794D01*
X111926666Y-107668785D01*
X111974285Y-107818766D01*
X111974285Y-108006243D01*
X111926666Y-108156224D01*
X111879047Y-108231215D01*
X111831428Y-108268710D01*
X111736190Y-108306205D01*
X111640952Y-108306205D01*
X111545714Y-108268710D01*
X111498095Y-108231215D01*
X111450476Y-108156224D01*
X111402857Y-108006243D01*
X111402857Y-107818766D01*
X111450476Y-107668785D01*
X111498095Y-107593794D01*
X111545714Y-107556299D01*
X111640952Y-107518803D01*
X112307619Y-107518803D02*
X112926666Y-107518803D01*
X112593333Y-107818766D01*
X112736190Y-107818766D01*
X112831428Y-107856261D01*
X112879047Y-107893757D01*
X112926666Y-107968747D01*
X112926666Y-108156224D01*
X112879047Y-108231215D01*
X112831428Y-108268710D01*
X112736190Y-108306205D01*
X112450476Y-108306205D01*
X112355238Y-108268710D01*
X112307619Y-108231215D01*
X113355238Y-108306205D02*
X113355238Y-107518803D01*
X113926666Y-108306205D01*
X113926666Y-107518803D01*
X114879047Y-108306205D02*
X114402857Y-108306205D01*
X114402857Y-107518803D01*
%TD*%
%LPC*%
D18*
%TO.C,H4*%
X140127056Y-127842944D03*
X138430000Y-127140000D03*
X136732944Y-127842944D03*
X136030000Y-129540000D03*
X136732944Y-131237056D03*
X138430000Y-131940000D03*
X140127056Y-131237056D03*
X140830000Y-129540000D03*
D19*
X138430000Y-129540000D03*
%TD*%
D18*
%TO.C,H3*%
X140127056Y-78312944D03*
X138430000Y-77610000D03*
X136732944Y-78312944D03*
X136030000Y-80010000D03*
X136732944Y-81707056D03*
X138430000Y-82410000D03*
X140127056Y-81707056D03*
X140830000Y-80010000D03*
D19*
X138430000Y-80010000D03*
%TD*%
D18*
%TO.C,H2*%
X81707056Y-127842944D03*
X80010000Y-127140000D03*
X78312944Y-127842944D03*
X77610000Y-129540000D03*
X78312944Y-131237056D03*
X80010000Y-131940000D03*
X81707056Y-131237056D03*
X82410000Y-129540000D03*
D19*
X80010000Y-129540000D03*
%TD*%
D18*
%TO.C,H1*%
X81707056Y-78312944D03*
X80010000Y-77610000D03*
X78312944Y-78312944D03*
X77610000Y-80010000D03*
X78312944Y-81707056D03*
X80010000Y-82410000D03*
X81707056Y-81707056D03*
X82410000Y-80010000D03*
D19*
X80010000Y-80010000D03*
%TD*%
D20*
%TO.C,R1*%
X91516200Y-101625400D03*
D21*
X91516200Y-107086400D03*
X98983800Y-107086400D03*
D20*
X98983800Y-101625400D03*
%TD*%
D22*
%TO.C,J1*%
X82550000Y-94259994D03*
X82550000Y-97759995D03*
X82550000Y-101259995D03*
X82550000Y-104759996D03*
X82550000Y-108259997D03*
X82550000Y-111760000D03*
%TD*%
D23*
%TO.C,J2*%
X129540000Y-91440000D03*
X129540000Y-93980000D03*
D24*
X134620000Y-99060000D03*
X134620000Y-88900000D03*
%TD*%
%TO.C,J3*%
X134620000Y-113030000D03*
X134620000Y-123190000D03*
D23*
X129540000Y-118110000D03*
X129540000Y-115570000D03*
%TD*%
D25*
%TO.C,L1*%
X104080000Y-88980000D03*
X104080000Y-91480000D03*
X104080000Y-93980000D03*
X104080000Y-96480000D03*
X104080000Y-98980000D03*
X119440000Y-98980000D03*
X119440000Y-96480000D03*
X119440000Y-93980000D03*
X119440000Y-91480000D03*
X119440000Y-88980000D03*
%TD*%
%TO.C,L2*%
X119440000Y-110570000D03*
X119440000Y-113070000D03*
X119440000Y-115570000D03*
X119440000Y-118070000D03*
X119440000Y-120570000D03*
X104080000Y-120570000D03*
X104080000Y-118070000D03*
X104080000Y-115570000D03*
X104080000Y-113070000D03*
X104080000Y-110570000D03*
%TD*%
M02*
