%TF.GenerationSoftware,KiCad,Pcbnew,(5.1.6)-1*%
%TF.CreationDate,2020-09-22T13:28:35-07:00*%
%TF.ProjectId,awg-tx-shunt,6177672d-7478-42d7-9368-756e742e6b69,rev?*%
%TF.SameCoordinates,Original*%
%TF.FileFunction,Legend,Bot*%
%TF.FilePolarity,Positive*%
%FSLAX46Y46*%
G04 Gerber Fmt 4.6, Leading zero omitted, Abs format (unit mm)*
G04 Created by KiCad (PCBNEW (5.1.6)-1) date 2020-09-22 13:28:35*
%MOMM*%
%LPD*%
G01*
G04 APERTURE LIST*
%ADD10C,0.150000*%
%ADD11C,0.152400*%
%ADD12C,0.127000*%
%ADD13C,0.200000*%
%ADD14C,0.015000*%
%ADD15C,0.900000*%
%ADD16C,6.500000*%
%ADD17C,1.801800*%
%ADD18C,3.115000*%
%ADD19C,1.498000*%
%ADD20R,1.498000X1.498000*%
G04 APERTURE END LIST*
D10*
X131262380Y-139041428D02*
X130262380Y-139041428D01*
X131262380Y-139517619D02*
X130262380Y-139517619D01*
X131262380Y-140089047D01*
X130262380Y-140089047D01*
X131262380Y-140565238D02*
X130262380Y-140565238D01*
X130262380Y-140946190D01*
X130310000Y-141041428D01*
X130357619Y-141089047D01*
X130452857Y-141136666D01*
X130595714Y-141136666D01*
X130690952Y-141089047D01*
X130738571Y-141041428D01*
X130786190Y-140946190D01*
X130786190Y-140565238D01*
X130262380Y-141565238D02*
X131071904Y-141565238D01*
X131167142Y-141612857D01*
X131214761Y-141660476D01*
X131262380Y-141755714D01*
X131262380Y-141946190D01*
X131214761Y-142041428D01*
X131167142Y-142089047D01*
X131071904Y-142136666D01*
X130262380Y-142136666D01*
X130262380Y-142470000D02*
X130262380Y-143041428D01*
X131262380Y-142755714D02*
X130262380Y-142755714D01*
X131262380Y-115911904D02*
X130262380Y-115911904D01*
X131262380Y-116388095D02*
X130262380Y-116388095D01*
X131262380Y-116959523D01*
X130262380Y-116959523D01*
X131262380Y-117435714D02*
X130262380Y-117435714D01*
X130262380Y-117816666D01*
X130310000Y-117911904D01*
X130357619Y-117959523D01*
X130452857Y-118007142D01*
X130595714Y-118007142D01*
X130690952Y-117959523D01*
X130738571Y-117911904D01*
X130786190Y-117816666D01*
X130786190Y-117435714D01*
X130262380Y-118435714D02*
X131071904Y-118435714D01*
X131167142Y-118483333D01*
X131214761Y-118530952D01*
X131262380Y-118626190D01*
X131262380Y-118816666D01*
X131214761Y-118911904D01*
X131167142Y-118959523D01*
X131071904Y-119007142D01*
X130262380Y-119007142D01*
X130262380Y-119340476D02*
X130262380Y-119911904D01*
X131262380Y-119626190D02*
X130262380Y-119626190D01*
X131214761Y-120959523D02*
X131262380Y-121102380D01*
X131262380Y-121340476D01*
X131214761Y-121435714D01*
X131167142Y-121483333D01*
X131071904Y-121530952D01*
X130976666Y-121530952D01*
X130881428Y-121483333D01*
X130833809Y-121435714D01*
X130786190Y-121340476D01*
X130738571Y-121150000D01*
X130690952Y-121054761D01*
X130643333Y-121007142D01*
X130548095Y-120959523D01*
X130452857Y-120959523D01*
X130357619Y-121007142D01*
X130310000Y-121054761D01*
X130262380Y-121150000D01*
X130262380Y-121388095D01*
X130310000Y-121530952D01*
X131262380Y-121959523D02*
X130262380Y-121959523D01*
X130738571Y-121959523D02*
X130738571Y-122530952D01*
X131262380Y-122530952D02*
X130262380Y-122530952D01*
X130262380Y-123007142D02*
X131071904Y-123007142D01*
X131167142Y-123054761D01*
X131214761Y-123102380D01*
X131262380Y-123197619D01*
X131262380Y-123388095D01*
X131214761Y-123483333D01*
X131167142Y-123530952D01*
X131071904Y-123578571D01*
X130262380Y-123578571D01*
X131262380Y-124054761D02*
X130262380Y-124054761D01*
X131262380Y-124626190D01*
X130262380Y-124626190D01*
X130262380Y-124959523D02*
X130262380Y-125530952D01*
X131262380Y-125245238D02*
X130262380Y-125245238D01*
X131262380Y-95489047D02*
X131262380Y-95012857D01*
X130262380Y-95012857D01*
X130262380Y-96012857D02*
X130262380Y-96203333D01*
X130310000Y-96298571D01*
X130405238Y-96393809D01*
X130595714Y-96441428D01*
X130929047Y-96441428D01*
X131119523Y-96393809D01*
X131214761Y-96298571D01*
X131262380Y-96203333D01*
X131262380Y-96012857D01*
X131214761Y-95917619D01*
X131119523Y-95822380D01*
X130929047Y-95774761D01*
X130595714Y-95774761D01*
X130405238Y-95822380D01*
X130310000Y-95917619D01*
X130262380Y-96012857D01*
X130262380Y-96774761D02*
X131262380Y-97012857D01*
X130548095Y-97203333D01*
X131262380Y-97393809D01*
X130262380Y-97631904D01*
X131262380Y-98774761D02*
X130262380Y-98774761D01*
X131214761Y-99203333D02*
X131262380Y-99346190D01*
X131262380Y-99584285D01*
X131214761Y-99679523D01*
X131167142Y-99727142D01*
X131071904Y-99774761D01*
X130976666Y-99774761D01*
X130881428Y-99727142D01*
X130833809Y-99679523D01*
X130786190Y-99584285D01*
X130738571Y-99393809D01*
X130690952Y-99298571D01*
X130643333Y-99250952D01*
X130548095Y-99203333D01*
X130452857Y-99203333D01*
X130357619Y-99250952D01*
X130310000Y-99298571D01*
X130262380Y-99393809D01*
X130262380Y-99631904D01*
X130310000Y-99774761D01*
X130262380Y-100393809D02*
X130262380Y-100584285D01*
X130310000Y-100679523D01*
X130405238Y-100774761D01*
X130595714Y-100822380D01*
X130929047Y-100822380D01*
X131119523Y-100774761D01*
X131214761Y-100679523D01*
X131262380Y-100584285D01*
X131262380Y-100393809D01*
X131214761Y-100298571D01*
X131119523Y-100203333D01*
X130929047Y-100155714D01*
X130595714Y-100155714D01*
X130405238Y-100203333D01*
X130310000Y-100298571D01*
X130262380Y-100393809D01*
X131262380Y-101727142D02*
X131262380Y-101250952D01*
X130262380Y-101250952D01*
X130976666Y-102012857D02*
X130976666Y-102489047D01*
X131262380Y-101917619D02*
X130262380Y-102250952D01*
X131262380Y-102584285D01*
X130262380Y-102774761D02*
X130262380Y-103346190D01*
X131262380Y-103060476D02*
X130262380Y-103060476D01*
X130738571Y-103679523D02*
X130738571Y-104012857D01*
X131262380Y-104155714D02*
X131262380Y-103679523D01*
X130262380Y-103679523D01*
X130262380Y-104155714D01*
X131262380Y-104584285D02*
X130262380Y-104584285D01*
X130262380Y-104822380D01*
X130310000Y-104965238D01*
X130405238Y-105060476D01*
X130500476Y-105108095D01*
X130690952Y-105155714D01*
X130833809Y-105155714D01*
X131024285Y-105108095D01*
X131119523Y-105060476D01*
X131214761Y-104965238D01*
X131262380Y-104822380D01*
X131262380Y-104584285D01*
X131214761Y-106298571D02*
X131262380Y-106441428D01*
X131262380Y-106679523D01*
X131214761Y-106774761D01*
X131167142Y-106822380D01*
X131071904Y-106870000D01*
X130976666Y-106870000D01*
X130881428Y-106822380D01*
X130833809Y-106774761D01*
X130786190Y-106679523D01*
X130738571Y-106489047D01*
X130690952Y-106393809D01*
X130643333Y-106346190D01*
X130548095Y-106298571D01*
X130452857Y-106298571D01*
X130357619Y-106346190D01*
X130310000Y-106393809D01*
X130262380Y-106489047D01*
X130262380Y-106727142D01*
X130310000Y-106870000D01*
X131262380Y-107298571D02*
X130262380Y-107298571D01*
X130738571Y-107298571D02*
X130738571Y-107870000D01*
X131262380Y-107870000D02*
X130262380Y-107870000D01*
X130262380Y-108346190D02*
X131071904Y-108346190D01*
X131167142Y-108393809D01*
X131214761Y-108441428D01*
X131262380Y-108536666D01*
X131262380Y-108727142D01*
X131214761Y-108822380D01*
X131167142Y-108869999D01*
X131071904Y-108917619D01*
X130262380Y-108917619D01*
X131262380Y-109393809D02*
X130262380Y-109393809D01*
X131262380Y-109965238D01*
X130262380Y-109965238D01*
X130262380Y-110298571D02*
X130262380Y-110869999D01*
X131262380Y-110584285D02*
X130262380Y-110584285D01*
X131262380Y-81756666D02*
X130262380Y-81756666D01*
X130738571Y-81756666D02*
X130738571Y-82328095D01*
X131262380Y-82328095D02*
X130262380Y-82328095D01*
X131262380Y-82804285D02*
X130262380Y-82804285D01*
X131214761Y-83994761D02*
X131262380Y-84137619D01*
X131262380Y-84375714D01*
X131214761Y-84470952D01*
X131167142Y-84518571D01*
X131071904Y-84566190D01*
X130976666Y-84566190D01*
X130881428Y-84518571D01*
X130833809Y-84470952D01*
X130786190Y-84375714D01*
X130738571Y-84185238D01*
X130690952Y-84090000D01*
X130643333Y-84042380D01*
X130548095Y-83994761D01*
X130452857Y-83994761D01*
X130357619Y-84042380D01*
X130310000Y-84090000D01*
X130262380Y-84185238D01*
X130262380Y-84423333D01*
X130310000Y-84566190D01*
X131262380Y-84994761D02*
X130262380Y-84994761D01*
X130738571Y-84994761D02*
X130738571Y-85566190D01*
X131262380Y-85566190D02*
X130262380Y-85566190D01*
X130262380Y-86042380D02*
X131071904Y-86042380D01*
X131167142Y-86090000D01*
X131214761Y-86137619D01*
X131262380Y-86232857D01*
X131262380Y-86423333D01*
X131214761Y-86518571D01*
X131167142Y-86566190D01*
X131071904Y-86613809D01*
X130262380Y-86613809D01*
X131262380Y-87090000D02*
X130262380Y-87090000D01*
X131262380Y-87661428D01*
X130262380Y-87661428D01*
X130262380Y-87994761D02*
X130262380Y-88566190D01*
X131262380Y-88280476D02*
X130262380Y-88280476D01*
X130262380Y-60793809D02*
X130262380Y-61365238D01*
X131262380Y-61079523D02*
X130262380Y-61079523D01*
X130262380Y-61603333D02*
X131262380Y-62270000D01*
X130262380Y-62270000D02*
X131262380Y-61603333D01*
X130262380Y-63603333D02*
X130262380Y-63793809D01*
X130310000Y-63889047D01*
X130405238Y-63984285D01*
X130595714Y-64031904D01*
X130929047Y-64031904D01*
X131119523Y-63984285D01*
X131214761Y-63889047D01*
X131262380Y-63793809D01*
X131262380Y-63603333D01*
X131214761Y-63508095D01*
X131119523Y-63412857D01*
X130929047Y-63365238D01*
X130595714Y-63365238D01*
X130405238Y-63412857D01*
X130310000Y-63508095D01*
X130262380Y-63603333D01*
X130262380Y-64460476D02*
X131071904Y-64460476D01*
X131167142Y-64508095D01*
X131214761Y-64555714D01*
X131262380Y-64650952D01*
X131262380Y-64841428D01*
X131214761Y-64936666D01*
X131167142Y-64984285D01*
X131071904Y-65031904D01*
X130262380Y-65031904D01*
X130262380Y-65365238D02*
X130262380Y-65936666D01*
X131262380Y-65650952D02*
X130262380Y-65650952D01*
X131262380Y-66270000D02*
X130262380Y-66270000D01*
X130262380Y-66650952D01*
X130310000Y-66746190D01*
X130357619Y-66793809D01*
X130452857Y-66841428D01*
X130595714Y-66841428D01*
X130690952Y-66793809D01*
X130738571Y-66746190D01*
X130786190Y-66650952D01*
X130786190Y-66270000D01*
X130262380Y-67270000D02*
X131071904Y-67270000D01*
X131167142Y-67317619D01*
X131214761Y-67365238D01*
X131262380Y-67460476D01*
X131262380Y-67650952D01*
X131214761Y-67746190D01*
X131167142Y-67793809D01*
X131071904Y-67841428D01*
X130262380Y-67841428D01*
X130262380Y-68174761D02*
X130262380Y-68746190D01*
X131262380Y-68460476D02*
X130262380Y-68460476D01*
D11*
%TO.C,E1*%
X170561000Y-116789497D02*
G75*
G03*
X170561000Y-116789497I-381000J0D01*
G01*
D12*
%TO.C,J5*%
X114620000Y-92440000D02*
X129020000Y-92440000D01*
X129020000Y-92440000D02*
X129020000Y-77740000D01*
X129020000Y-77740000D02*
X114620000Y-77740000D01*
X114620000Y-77740000D02*
X114620000Y-79590000D01*
X114620000Y-79590000D02*
X114620000Y-90590000D01*
X114620000Y-90590000D02*
X114620000Y-92440000D01*
D13*
X129592000Y-85090000D02*
G75*
G03*
X129592000Y-85090000I-100000J0D01*
G01*
D12*
%TO.C,J4*%
X114620000Y-72120000D02*
X129020000Y-72120000D01*
X129020000Y-72120000D02*
X129020000Y-57420000D01*
X129020000Y-57420000D02*
X114620000Y-57420000D01*
X114620000Y-57420000D02*
X114620000Y-59270000D01*
X114620000Y-59270000D02*
X114620000Y-70270000D01*
X114620000Y-70270000D02*
X114620000Y-72120000D01*
D13*
X129592000Y-64770000D02*
G75*
G03*
X129592000Y-64770000I-100000J0D01*
G01*
D12*
%TO.C,J3*%
X114620000Y-110220000D02*
X129020000Y-110220000D01*
X129020000Y-110220000D02*
X129020000Y-95520000D01*
X129020000Y-95520000D02*
X114620000Y-95520000D01*
X114620000Y-95520000D02*
X114620000Y-97370000D01*
X114620000Y-97370000D02*
X114620000Y-108370000D01*
X114620000Y-108370000D02*
X114620000Y-110220000D01*
D13*
X129592000Y-102870000D02*
G75*
G03*
X129592000Y-102870000I-100000J0D01*
G01*
D12*
%TO.C,J2*%
X114620000Y-128000000D02*
X129020000Y-128000000D01*
X129020000Y-128000000D02*
X129020000Y-113300000D01*
X129020000Y-113300000D02*
X114620000Y-113300000D01*
X114620000Y-113300000D02*
X114620000Y-115150000D01*
X114620000Y-115150000D02*
X114620000Y-126150000D01*
X114620000Y-126150000D02*
X114620000Y-128000000D01*
D13*
X129592000Y-120650000D02*
G75*
G03*
X129592000Y-120650000I-100000J0D01*
G01*
D12*
%TO.C,J1*%
X114620000Y-148320000D02*
X129020000Y-148320000D01*
X129020000Y-148320000D02*
X129020000Y-133620000D01*
X129020000Y-133620000D02*
X114620000Y-133620000D01*
X114620000Y-133620000D02*
X114620000Y-135470000D01*
X114620000Y-135470000D02*
X114620000Y-146470000D01*
X114620000Y-146470000D02*
X114620000Y-148320000D01*
D13*
X129592000Y-140970000D02*
G75*
G03*
X129592000Y-140970000I-100000J0D01*
G01*
%TO.C,J5*%
D14*
X97452935Y-91439295D02*
X97452935Y-92154925D01*
X97500644Y-92298051D01*
X97596061Y-92393468D01*
X97739187Y-92441177D01*
X97834605Y-92441177D01*
X96498762Y-91439295D02*
X96975849Y-91439295D01*
X97023557Y-91916382D01*
X96975849Y-91868673D01*
X96880431Y-91820964D01*
X96641888Y-91820964D01*
X96546471Y-91868673D01*
X96498762Y-91916382D01*
X96451053Y-92011799D01*
X96451053Y-92250342D01*
X96498762Y-92345760D01*
X96546471Y-92393468D01*
X96641888Y-92441177D01*
X96880431Y-92441177D01*
X96975849Y-92393468D01*
X97023557Y-92345760D01*
%TO.C,J4*%
X97452935Y-71119295D02*
X97452935Y-71834925D01*
X97500644Y-71978051D01*
X97596061Y-72073468D01*
X97739187Y-72121177D01*
X97834605Y-72121177D01*
X96546471Y-71453256D02*
X96546471Y-72121177D01*
X96785014Y-71071586D02*
X97023557Y-71787216D01*
X96403345Y-71787216D01*
%TO.C,J3*%
X97452935Y-109219295D02*
X97452935Y-109934925D01*
X97500644Y-110078051D01*
X97596061Y-110173468D01*
X97739187Y-110221177D01*
X97834605Y-110221177D01*
X97071266Y-109219295D02*
X96451053Y-109219295D01*
X96785014Y-109600964D01*
X96641888Y-109600964D01*
X96546471Y-109648673D01*
X96498762Y-109696382D01*
X96451053Y-109791799D01*
X96451053Y-110030342D01*
X96498762Y-110125760D01*
X96546471Y-110173468D01*
X96641888Y-110221177D01*
X96928140Y-110221177D01*
X97023557Y-110173468D01*
X97071266Y-110125760D01*
%TO.C,J2*%
X97452935Y-126999295D02*
X97452935Y-127714925D01*
X97500644Y-127858051D01*
X97596061Y-127953468D01*
X97739187Y-128001177D01*
X97834605Y-128001177D01*
X97023557Y-127094712D02*
X96975849Y-127047004D01*
X96880431Y-126999295D01*
X96641888Y-126999295D01*
X96546471Y-127047004D01*
X96498762Y-127094712D01*
X96451053Y-127190130D01*
X96451053Y-127285547D01*
X96498762Y-127428673D01*
X97071266Y-128001177D01*
X96451053Y-128001177D01*
%TO.C,J1*%
X97452935Y-147319295D02*
X97452935Y-148034925D01*
X97500644Y-148178051D01*
X97596061Y-148273468D01*
X97739187Y-148321177D01*
X97834605Y-148321177D01*
X96451053Y-148321177D02*
X97023557Y-148321177D01*
X96737305Y-148321177D02*
X96737305Y-147319295D01*
X96832723Y-147462421D01*
X96928140Y-147557838D01*
X97023557Y-147605547D01*
%TD*%
%LPC*%
D15*
%TO.C,H4*%
X175687056Y-153242944D03*
X173990000Y-152540000D03*
X172292944Y-153242944D03*
X171590000Y-154940000D03*
X172292944Y-156637056D03*
X173990000Y-157340000D03*
X175687056Y-156637056D03*
X176390000Y-154940000D03*
D16*
X173990000Y-154940000D03*
%TD*%
D15*
%TO.C,H3*%
X121077056Y-153242944D03*
X119380000Y-152540000D03*
X117682944Y-153242944D03*
X116980000Y-154940000D03*
X117682944Y-156637056D03*
X119380000Y-157340000D03*
X121077056Y-156637056D03*
X121780000Y-154940000D03*
D16*
X119380000Y-154940000D03*
%TD*%
D15*
%TO.C,H2*%
X175687056Y-47832944D03*
X173990000Y-47130000D03*
X172292944Y-47832944D03*
X171590000Y-49530000D03*
X172292944Y-51227056D03*
X173990000Y-51930000D03*
X175687056Y-51227056D03*
X176390000Y-49530000D03*
D16*
X173990000Y-49530000D03*
%TD*%
D15*
%TO.C,H1*%
X121077056Y-47832944D03*
X119380000Y-47130000D03*
X117682944Y-47832944D03*
X116980000Y-49530000D03*
X117682944Y-51227056D03*
X119380000Y-51930000D03*
X121077056Y-51227056D03*
X121780000Y-49530000D03*
D16*
X119380000Y-49530000D03*
%TD*%
D17*
%TO.C,E1*%
X170180000Y-113030000D03*
X170180000Y-109529997D03*
X170180000Y-106029996D03*
X170180000Y-102529995D03*
X170180000Y-99029995D03*
X170180000Y-95529994D03*
%TD*%
D18*
%TO.C,J5*%
X121920000Y-90170000D03*
X121920000Y-80010000D03*
D19*
X127000000Y-82550000D03*
D20*
X127000000Y-85090000D03*
%TD*%
D18*
%TO.C,J4*%
X121920000Y-69850000D03*
X121920000Y-59690000D03*
D19*
X127000000Y-62230000D03*
D20*
X127000000Y-64770000D03*
%TD*%
D18*
%TO.C,J3*%
X121920000Y-107950000D03*
X121920000Y-97790000D03*
D19*
X127000000Y-100330000D03*
D20*
X127000000Y-102870000D03*
%TD*%
D18*
%TO.C,J2*%
X121920000Y-125730000D03*
X121920000Y-115570000D03*
D19*
X127000000Y-118110000D03*
D20*
X127000000Y-120650000D03*
%TD*%
D18*
%TO.C,J1*%
X121920000Y-146050000D03*
X121920000Y-135890000D03*
D19*
X127000000Y-138430000D03*
D20*
X127000000Y-140970000D03*
%TD*%
M02*
