%TF.GenerationSoftware,KiCad,Pcbnew,(5.1.6)-1*%
%TF.CreationDate,2020-09-22T13:28:35-07:00*%
%TF.ProjectId,awg-tx-shunt,6177672d-7478-42d7-9368-756e742e6b69,rev?*%
%TF.SameCoordinates,Original*%
%TF.FileFunction,Copper,L2,Bot*%
%TF.FilePolarity,Positive*%
%FSLAX46Y46*%
G04 Gerber Fmt 4.6, Leading zero omitted, Abs format (unit mm)*
G04 Created by KiCad (PCBNEW (5.1.6)-1) date 2020-09-22 13:28:35*
%MOMM*%
%LPD*%
G01*
G04 APERTURE LIST*
%TA.AperFunction,ComponentPad*%
%ADD10C,0.800000*%
%TD*%
%TA.AperFunction,ComponentPad*%
%ADD11C,6.400000*%
%TD*%
%TA.AperFunction,ComponentPad*%
%ADD12C,1.701800*%
%TD*%
%TA.AperFunction,ComponentPad*%
%ADD13C,3.015000*%
%TD*%
%TA.AperFunction,ComponentPad*%
%ADD14C,1.398000*%
%TD*%
%TA.AperFunction,ComponentPad*%
%ADD15R,1.398000X1.398000*%
%TD*%
%TA.AperFunction,ViaPad*%
%ADD16C,2.500000*%
%TD*%
%TA.AperFunction,Conductor*%
%ADD17C,0.254000*%
%TD*%
G04 APERTURE END LIST*
D10*
%TO.P,H4,1*%
%TO.N,N/C*%
X175687056Y-153242944D03*
X173990000Y-152540000D03*
X172292944Y-153242944D03*
X171590000Y-154940000D03*
X172292944Y-156637056D03*
X173990000Y-157340000D03*
X175687056Y-156637056D03*
X176390000Y-154940000D03*
D11*
X173990000Y-154940000D03*
%TD*%
D10*
%TO.P,H3,1*%
%TO.N,N/C*%
X121077056Y-153242944D03*
X119380000Y-152540000D03*
X117682944Y-153242944D03*
X116980000Y-154940000D03*
X117682944Y-156637056D03*
X119380000Y-157340000D03*
X121077056Y-156637056D03*
X121780000Y-154940000D03*
D11*
X119380000Y-154940000D03*
%TD*%
D10*
%TO.P,H2,1*%
%TO.N,N/C*%
X175687056Y-47832944D03*
X173990000Y-47130000D03*
X172292944Y-47832944D03*
X171590000Y-49530000D03*
X172292944Y-51227056D03*
X173990000Y-51930000D03*
X175687056Y-51227056D03*
X176390000Y-49530000D03*
D11*
X173990000Y-49530000D03*
%TD*%
D10*
%TO.P,H1,1*%
%TO.N,N/C*%
X121077056Y-47832944D03*
X119380000Y-47130000D03*
X117682944Y-47832944D03*
X116980000Y-49530000D03*
X117682944Y-51227056D03*
X119380000Y-51930000D03*
X121077056Y-51227056D03*
X121780000Y-49530000D03*
D11*
X119380000Y-49530000D03*
%TD*%
D12*
%TO.P,E1,1*%
%TO.N,/POWERAMP_IN_N*%
X170180000Y-113030000D03*
%TO.P,E1,2*%
%TO.N,/POWERAMP_IN_P*%
X170180000Y-109529997D03*
%TO.P,E1,3*%
%TO.N,GNDS*%
X170180000Y-106029996D03*
%TO.P,E1,4*%
%TO.N,GNDREF*%
X170180000Y-102529995D03*
%TO.P,E1,5*%
%TO.N,/TX2_OUT*%
X170180000Y-99029995D03*
%TO.P,E1,6*%
%TO.N,/POWERAMP_OUT_P*%
X170180000Y-95529994D03*
%TD*%
D13*
%TO.P,J5,P2*%
%TO.N,GNDREF*%
X121920000Y-90170000D03*
%TO.P,J5,P1*%
X121920000Y-80010000D03*
D14*
%TO.P,J5,2*%
%TO.N,/HI_SHUNT_N*%
X127000000Y-82550000D03*
D15*
%TO.P,J5,1*%
%TO.N,/HI_SHUNT_P*%
X127000000Y-85090000D03*
%TD*%
D13*
%TO.P,J4,P2*%
%TO.N,GNDS*%
X121920000Y-69850000D03*
%TO.P,J4,P1*%
X121920000Y-59690000D03*
D14*
%TO.P,J4,2*%
%TO.N,/TX2_OUT*%
X127000000Y-62230000D03*
D15*
%TO.P,J4,1*%
%TO.N,/TX1_OUT*%
X127000000Y-64770000D03*
%TD*%
D13*
%TO.P,J3,P2*%
%TO.N,GNDS*%
X121920000Y-107950000D03*
%TO.P,J3,P1*%
X121920000Y-97790000D03*
D14*
%TO.P,J3,2*%
%TO.N,/LOW_SHUNT__ISO_N*%
X127000000Y-100330000D03*
D15*
%TO.P,J3,1*%
%TO.N,/LOW_SHUNT__ISO_P*%
X127000000Y-102870000D03*
%TD*%
D13*
%TO.P,J2,P2*%
%TO.N,GNDPWR*%
X121920000Y-125730000D03*
%TO.P,J2,P1*%
X121920000Y-115570000D03*
D14*
%TO.P,J2,2*%
%TO.N,/INSHUNT_N*%
X127000000Y-118110000D03*
D15*
%TO.P,J2,1*%
%TO.N,/INSHUNT_P*%
X127000000Y-120650000D03*
%TD*%
D13*
%TO.P,J1,P2*%
%TO.N,GNDPWR*%
X121920000Y-146050000D03*
%TO.P,J1,P1*%
X121920000Y-135890000D03*
D14*
%TO.P,J1,2*%
%TO.N,/TX2_IN*%
X127000000Y-138430000D03*
D15*
%TO.P,J1,1*%
%TO.N,/TX1_IN*%
X127000000Y-140970000D03*
%TD*%
D16*
%TO.N,GNDPWR*%
X135890000Y-119380000D03*
X133350000Y-152400000D03*
X148590000Y-152400000D03*
X140970000Y-142240000D03*
%TO.N,GNDS*%
X165100000Y-111760000D03*
X160020000Y-119380000D03*
X160020000Y-71120000D03*
X166370000Y-91440000D03*
X158750000Y-91440000D03*
X166370000Y-83820000D03*
X167640000Y-143510000D03*
X132080000Y-53340000D03*
X144780000Y-53340000D03*
X158750000Y-53340000D03*
%TO.N,GNDREF*%
X144780000Y-96520000D03*
X160020000Y-100330000D03*
%TD*%
D17*
%TO.N,GNDS*%
G36*
X171545330Y-46551161D02*
G01*
X171011161Y-47085330D01*
X170591467Y-47713446D01*
X170302377Y-48411372D01*
X170155000Y-49152285D01*
X170155000Y-49907715D01*
X170302377Y-50648628D01*
X170591467Y-51346554D01*
X171011161Y-51974670D01*
X171545330Y-52508839D01*
X172173446Y-52928533D01*
X172871372Y-53217623D01*
X173612285Y-53365000D01*
X174367715Y-53365000D01*
X175108628Y-53217623D01*
X175806554Y-52928533D01*
X176434670Y-52508839D01*
X176968839Y-51974670D01*
X177140000Y-51718510D01*
X177140001Y-144747581D01*
X177140000Y-152751491D01*
X176968839Y-152495330D01*
X176434670Y-151961161D01*
X175806554Y-151541467D01*
X175108628Y-151252377D01*
X174367715Y-151105000D01*
X173612285Y-151105000D01*
X172871372Y-151252377D01*
X172173446Y-151541467D01*
X171545330Y-151961161D01*
X171011161Y-152495330D01*
X170591467Y-153123446D01*
X170302377Y-153821372D01*
X170155000Y-154562285D01*
X170155000Y-155317715D01*
X170302377Y-156058628D01*
X170591467Y-156756554D01*
X171011161Y-157384670D01*
X171545330Y-157918839D01*
X171801490Y-158090000D01*
X159539606Y-158090000D01*
X158877000Y-157427394D01*
X158877000Y-120650000D01*
X158874560Y-120625224D01*
X158867333Y-120601399D01*
X158855597Y-120579443D01*
X158833630Y-120554423D01*
X150067035Y-112883652D01*
X168694100Y-112883652D01*
X168694100Y-113176348D01*
X168751202Y-113463421D01*
X168863212Y-113733838D01*
X169025826Y-113977206D01*
X169232794Y-114184174D01*
X169476162Y-114346788D01*
X169746579Y-114458798D01*
X170033652Y-114515900D01*
X170326348Y-114515900D01*
X170613421Y-114458798D01*
X170883838Y-114346788D01*
X171127206Y-114184174D01*
X171334174Y-113977206D01*
X171496788Y-113733838D01*
X171608798Y-113463421D01*
X171665900Y-113176348D01*
X171665900Y-112883652D01*
X171608798Y-112596579D01*
X171496788Y-112326162D01*
X171334174Y-112082794D01*
X171127206Y-111875826D01*
X170883838Y-111713212D01*
X170613421Y-111601202D01*
X170326348Y-111544100D01*
X170033652Y-111544100D01*
X169746579Y-111601202D01*
X169476162Y-111713212D01*
X169232794Y-111875826D01*
X169025826Y-112082794D01*
X168863212Y-112326162D01*
X168751202Y-112596579D01*
X168694100Y-112883652D01*
X150067035Y-112883652D01*
X148673630Y-111664423D01*
X148653377Y-111649944D01*
X148630688Y-111639694D01*
X148606436Y-111634068D01*
X148590000Y-111633000D01*
X116230000Y-111633000D01*
X116230000Y-109446994D01*
X120602611Y-109446994D01*
X120759525Y-109763322D01*
X121135585Y-109954877D01*
X121541790Y-110069386D01*
X121962528Y-110102447D01*
X122381633Y-110052792D01*
X122782997Y-109922327D01*
X123080475Y-109763322D01*
X123237389Y-109446994D01*
X123174044Y-109383649D01*
X168694100Y-109383649D01*
X168694100Y-109676345D01*
X168751202Y-109963418D01*
X168863212Y-110233835D01*
X169025826Y-110477203D01*
X169232794Y-110684171D01*
X169476162Y-110846785D01*
X169746579Y-110958795D01*
X170033652Y-111015897D01*
X170326348Y-111015897D01*
X170613421Y-110958795D01*
X170883838Y-110846785D01*
X171127206Y-110684171D01*
X171334174Y-110477203D01*
X171496788Y-110233835D01*
X171608798Y-109963418D01*
X171665900Y-109676345D01*
X171665900Y-109383649D01*
X171608798Y-109096576D01*
X171496788Y-108826159D01*
X171334174Y-108582791D01*
X171127206Y-108375823D01*
X170883838Y-108213209D01*
X170613421Y-108101199D01*
X170326348Y-108044097D01*
X170033652Y-108044097D01*
X169746579Y-108101199D01*
X169476162Y-108213209D01*
X169232794Y-108375823D01*
X169025826Y-108582791D01*
X168863212Y-108826159D01*
X168751202Y-109096576D01*
X168694100Y-109383649D01*
X123174044Y-109383649D01*
X121920000Y-108129605D01*
X120602611Y-109446994D01*
X116230000Y-109446994D01*
X116230000Y-107992528D01*
X119767553Y-107992528D01*
X119817208Y-108411633D01*
X119947673Y-108812997D01*
X120106678Y-109110475D01*
X120423006Y-109267389D01*
X121740395Y-107950000D01*
X122099605Y-107950000D01*
X123416994Y-109267389D01*
X123733322Y-109110475D01*
X123924877Y-108734415D01*
X124039386Y-108328210D01*
X124072447Y-107907472D01*
X124022792Y-107488367D01*
X123892327Y-107087003D01*
X123877379Y-107059036D01*
X169330565Y-107059036D01*
X169408310Y-107308203D01*
X169672503Y-107434192D01*
X169956199Y-107506219D01*
X170248496Y-107521515D01*
X170538161Y-107479493D01*
X170814062Y-107381767D01*
X170951690Y-107308203D01*
X171029435Y-107059036D01*
X170180000Y-106209601D01*
X169330565Y-107059036D01*
X123877379Y-107059036D01*
X123733322Y-106789525D01*
X123416994Y-106632611D01*
X122099605Y-107950000D01*
X121740395Y-107950000D01*
X120423006Y-106632611D01*
X120106678Y-106789525D01*
X119915123Y-107165585D01*
X119800614Y-107571790D01*
X119767553Y-107992528D01*
X116230000Y-107992528D01*
X116230000Y-106453006D01*
X120602611Y-106453006D01*
X121920000Y-107770395D01*
X123237389Y-106453006D01*
X123080475Y-106136678D01*
X122704415Y-105945123D01*
X122298210Y-105830614D01*
X121877472Y-105797553D01*
X121458367Y-105847208D01*
X121057003Y-105977673D01*
X120759525Y-106136678D01*
X120602611Y-106453006D01*
X116230000Y-106453006D01*
X116230000Y-102171000D01*
X125662928Y-102171000D01*
X125662928Y-103569000D01*
X125675188Y-103693482D01*
X125711498Y-103813180D01*
X125770463Y-103923494D01*
X125849815Y-104020185D01*
X125946506Y-104099537D01*
X126056820Y-104158502D01*
X126176518Y-104194812D01*
X126301000Y-104207072D01*
X127699000Y-104207072D01*
X127823482Y-104194812D01*
X127943180Y-104158502D01*
X128053494Y-104099537D01*
X128150185Y-104020185D01*
X128229537Y-103923494D01*
X128288502Y-103813180D01*
X128324812Y-103693482D01*
X128337072Y-103569000D01*
X128337072Y-102171000D01*
X128324812Y-102046518D01*
X128288502Y-101926820D01*
X128229537Y-101816506D01*
X128150185Y-101719815D01*
X128053494Y-101640463D01*
X127943180Y-101581498D01*
X127823482Y-101545188D01*
X127699000Y-101532928D01*
X127581786Y-101532928D01*
X127631886Y-101512176D01*
X127850376Y-101366186D01*
X128036186Y-101180376D01*
X128182176Y-100961886D01*
X128282735Y-100719114D01*
X128334000Y-100461388D01*
X128334000Y-100198612D01*
X128282735Y-99940886D01*
X128182176Y-99698114D01*
X128036186Y-99479624D01*
X127850376Y-99293814D01*
X127631886Y-99147824D01*
X127389114Y-99047265D01*
X127131388Y-98996000D01*
X126868612Y-98996000D01*
X126610886Y-99047265D01*
X126368114Y-99147824D01*
X126149624Y-99293814D01*
X125963814Y-99479624D01*
X125817824Y-99698114D01*
X125717265Y-99940886D01*
X125666000Y-100198612D01*
X125666000Y-100461388D01*
X125717265Y-100719114D01*
X125817824Y-100961886D01*
X125963814Y-101180376D01*
X126149624Y-101366186D01*
X126368114Y-101512176D01*
X126418214Y-101532928D01*
X126301000Y-101532928D01*
X126176518Y-101545188D01*
X126056820Y-101581498D01*
X125946506Y-101640463D01*
X125849815Y-101719815D01*
X125770463Y-101816506D01*
X125711498Y-101926820D01*
X125675188Y-102046518D01*
X125662928Y-102171000D01*
X116230000Y-102171000D01*
X116230000Y-99286994D01*
X120602611Y-99286994D01*
X120759525Y-99603322D01*
X121135585Y-99794877D01*
X121541790Y-99909386D01*
X121962528Y-99942447D01*
X122381633Y-99892792D01*
X122782997Y-99762327D01*
X123080475Y-99603322D01*
X123237389Y-99286994D01*
X121920000Y-97969605D01*
X120602611Y-99286994D01*
X116230000Y-99286994D01*
X116230000Y-97832528D01*
X119767553Y-97832528D01*
X119817208Y-98251633D01*
X119947673Y-98652997D01*
X120106678Y-98950475D01*
X120423006Y-99107389D01*
X121740395Y-97790000D01*
X122099605Y-97790000D01*
X123416994Y-99107389D01*
X123733322Y-98950475D01*
X123924877Y-98574415D01*
X124039386Y-98168210D01*
X124072447Y-97747472D01*
X124022792Y-97328367D01*
X123892327Y-96927003D01*
X123733322Y-96629525D01*
X123416994Y-96472611D01*
X122099605Y-97790000D01*
X121740395Y-97790000D01*
X120423006Y-96472611D01*
X120106678Y-96629525D01*
X119915123Y-97005585D01*
X119800614Y-97411790D01*
X119767553Y-97832528D01*
X116230000Y-97832528D01*
X116230000Y-96293006D01*
X120602611Y-96293006D01*
X121920000Y-97610395D01*
X123237389Y-96293006D01*
X123080475Y-95976678D01*
X122704415Y-95785123D01*
X122298210Y-95670614D01*
X121877472Y-95637553D01*
X121458367Y-95687208D01*
X121057003Y-95817673D01*
X120759525Y-95976678D01*
X120602611Y-96293006D01*
X116230000Y-96293006D01*
X116230000Y-95377000D01*
X129493019Y-95377000D01*
X138343646Y-102963252D01*
X140880197Y-105499803D01*
X140899443Y-105515597D01*
X140921399Y-105527333D01*
X140945224Y-105534560D01*
X140970000Y-105537000D01*
X168772122Y-105537000D01*
X168703777Y-105806195D01*
X168688481Y-106098492D01*
X168730503Y-106388157D01*
X168828229Y-106664058D01*
X168901793Y-106801686D01*
X169150960Y-106879431D01*
X170000395Y-106029996D01*
X169986253Y-106015854D01*
X170165858Y-105836249D01*
X170180000Y-105850391D01*
X170194143Y-105836249D01*
X170373748Y-106015854D01*
X170359605Y-106029996D01*
X171209040Y-106879431D01*
X171458207Y-106801686D01*
X171584196Y-106537493D01*
X171656223Y-106253797D01*
X171671519Y-105961500D01*
X171629497Y-105671835D01*
X171581738Y-105537000D01*
X172720000Y-105537000D01*
X172744776Y-105534560D01*
X172768601Y-105527333D01*
X172790557Y-105515597D01*
X172809803Y-105499803D01*
X174079803Y-104229803D01*
X174095597Y-104210557D01*
X174107333Y-104188601D01*
X174114560Y-104164776D01*
X174117000Y-104140000D01*
X174117000Y-100330000D01*
X174114560Y-100305224D01*
X174107333Y-100281399D01*
X174095597Y-100259443D01*
X174084398Y-100245041D01*
X172941398Y-98975041D01*
X172923010Y-98958258D01*
X172901700Y-98945384D01*
X172878289Y-98936915D01*
X172847000Y-98933000D01*
X171665900Y-98933000D01*
X171665900Y-98883647D01*
X171608798Y-98596574D01*
X171496788Y-98326157D01*
X171334174Y-98082789D01*
X171127206Y-97875821D01*
X170883838Y-97713207D01*
X170613421Y-97601197D01*
X170326348Y-97544095D01*
X170033652Y-97544095D01*
X169746579Y-97601197D01*
X169476162Y-97713207D01*
X169232794Y-97875821D01*
X169025826Y-98082789D01*
X168997017Y-98125905D01*
X165817994Y-95788388D01*
X165413252Y-95383646D01*
X168694100Y-95383646D01*
X168694100Y-95676342D01*
X168751202Y-95963415D01*
X168863212Y-96233832D01*
X169025826Y-96477200D01*
X169232794Y-96684168D01*
X169476162Y-96846782D01*
X169746579Y-96958792D01*
X170033652Y-97015894D01*
X170326348Y-97015894D01*
X170613421Y-96958792D01*
X170883838Y-96846782D01*
X171127206Y-96684168D01*
X171334174Y-96477200D01*
X171496788Y-96233832D01*
X171608798Y-95963415D01*
X171665900Y-95676342D01*
X171665900Y-95383646D01*
X171608798Y-95096573D01*
X171496788Y-94826156D01*
X171334174Y-94582788D01*
X171127206Y-94375820D01*
X170883838Y-94213206D01*
X170613421Y-94101196D01*
X170326348Y-94044094D01*
X170033652Y-94044094D01*
X169746579Y-94101196D01*
X169476162Y-94213206D01*
X169232794Y-94375820D01*
X169025826Y-94582788D01*
X168863212Y-94826156D01*
X168751202Y-95096573D01*
X168694100Y-95383646D01*
X165413252Y-95383646D01*
X165189803Y-95160197D01*
X165170557Y-95144403D01*
X165148601Y-95132667D01*
X165124776Y-95125440D01*
X165100000Y-95123000D01*
X157524548Y-95123000D01*
X151257000Y-90108961D01*
X151257000Y-76200000D01*
X151254560Y-76175224D01*
X151247333Y-76151399D01*
X151235597Y-76129443D01*
X151219803Y-76110197D01*
X149949803Y-74840197D01*
X149930557Y-74824403D01*
X149908601Y-74812667D01*
X149884776Y-74805440D01*
X149860000Y-74803000D01*
X116230000Y-74803000D01*
X116230000Y-71346994D01*
X120602611Y-71346994D01*
X120759525Y-71663322D01*
X121135585Y-71854877D01*
X121541790Y-71969386D01*
X121962528Y-72002447D01*
X122381633Y-71952792D01*
X122782997Y-71822327D01*
X123080475Y-71663322D01*
X123237389Y-71346994D01*
X121920000Y-70029605D01*
X120602611Y-71346994D01*
X116230000Y-71346994D01*
X116230000Y-69892528D01*
X119767553Y-69892528D01*
X119817208Y-70311633D01*
X119947673Y-70712997D01*
X120106678Y-71010475D01*
X120423006Y-71167389D01*
X121740395Y-69850000D01*
X122099605Y-69850000D01*
X123416994Y-71167389D01*
X123733322Y-71010475D01*
X123924877Y-70634415D01*
X124039386Y-70228210D01*
X124072447Y-69807472D01*
X124022792Y-69388367D01*
X123892327Y-68987003D01*
X123733322Y-68689525D01*
X123416994Y-68532611D01*
X122099605Y-69850000D01*
X121740395Y-69850000D01*
X120423006Y-68532611D01*
X120106678Y-68689525D01*
X119915123Y-69065585D01*
X119800614Y-69471790D01*
X119767553Y-69892528D01*
X116230000Y-69892528D01*
X116230000Y-68353006D01*
X120602611Y-68353006D01*
X121920000Y-69670395D01*
X123237389Y-68353006D01*
X123080475Y-68036678D01*
X122704415Y-67845123D01*
X122298210Y-67730614D01*
X121877472Y-67697553D01*
X121458367Y-67747208D01*
X121057003Y-67877673D01*
X120759525Y-68036678D01*
X120602611Y-68353006D01*
X116230000Y-68353006D01*
X116230000Y-64071000D01*
X125662928Y-64071000D01*
X125662928Y-65469000D01*
X125675188Y-65593482D01*
X125711498Y-65713180D01*
X125770463Y-65823494D01*
X125849815Y-65920185D01*
X125946506Y-65999537D01*
X126056820Y-66058502D01*
X126176518Y-66094812D01*
X126301000Y-66107072D01*
X127699000Y-66107072D01*
X127823482Y-66094812D01*
X127943180Y-66058502D01*
X128053494Y-65999537D01*
X128150185Y-65920185D01*
X128229537Y-65823494D01*
X128288502Y-65713180D01*
X128324812Y-65593482D01*
X128337072Y-65469000D01*
X128337072Y-64071000D01*
X128324812Y-63946518D01*
X128288502Y-63826820D01*
X128229537Y-63716506D01*
X128150185Y-63619815D01*
X128053494Y-63540463D01*
X127943180Y-63481498D01*
X127823482Y-63445188D01*
X127699000Y-63432928D01*
X127581786Y-63432928D01*
X127631886Y-63412176D01*
X127850376Y-63266186D01*
X128036186Y-63080376D01*
X128182176Y-62861886D01*
X128282735Y-62619114D01*
X128334000Y-62361388D01*
X128334000Y-62098612D01*
X128282735Y-61840886D01*
X128182176Y-61598114D01*
X128036186Y-61379624D01*
X127850376Y-61193814D01*
X127631886Y-61047824D01*
X127389114Y-60947265D01*
X127131388Y-60896000D01*
X126868612Y-60896000D01*
X126610886Y-60947265D01*
X126368114Y-61047824D01*
X126149624Y-61193814D01*
X125963814Y-61379624D01*
X125817824Y-61598114D01*
X125717265Y-61840886D01*
X125666000Y-62098612D01*
X125666000Y-62361388D01*
X125717265Y-62619114D01*
X125817824Y-62861886D01*
X125963814Y-63080376D01*
X126149624Y-63266186D01*
X126368114Y-63412176D01*
X126418214Y-63432928D01*
X126301000Y-63432928D01*
X126176518Y-63445188D01*
X126056820Y-63481498D01*
X125946506Y-63540463D01*
X125849815Y-63619815D01*
X125770463Y-63716506D01*
X125711498Y-63826820D01*
X125675188Y-63946518D01*
X125662928Y-64071000D01*
X116230000Y-64071000D01*
X116230000Y-61186994D01*
X120602611Y-61186994D01*
X120759525Y-61503322D01*
X121135585Y-61694877D01*
X121541790Y-61809386D01*
X121962528Y-61842447D01*
X122381633Y-61792792D01*
X122782997Y-61662327D01*
X123080475Y-61503322D01*
X123237389Y-61186994D01*
X121920000Y-59869605D01*
X120602611Y-61186994D01*
X116230000Y-61186994D01*
X116230000Y-59732528D01*
X119767553Y-59732528D01*
X119817208Y-60151633D01*
X119947673Y-60552997D01*
X120106678Y-60850475D01*
X120423006Y-61007389D01*
X121740395Y-59690000D01*
X122099605Y-59690000D01*
X123416994Y-61007389D01*
X123733322Y-60850475D01*
X123924877Y-60474415D01*
X124039386Y-60068210D01*
X124072447Y-59647472D01*
X124022792Y-59228367D01*
X123892327Y-58827003D01*
X123733322Y-58529525D01*
X123416994Y-58372611D01*
X122099605Y-59690000D01*
X121740395Y-59690000D01*
X120423006Y-58372611D01*
X120106678Y-58529525D01*
X119915123Y-58905585D01*
X119800614Y-59311790D01*
X119767553Y-59732528D01*
X116230000Y-59732528D01*
X116230000Y-58193006D01*
X120602611Y-58193006D01*
X121920000Y-59510395D01*
X123237389Y-58193006D01*
X123080475Y-57876678D01*
X122704415Y-57685123D01*
X122298210Y-57570614D01*
X121877472Y-57537553D01*
X121458367Y-57587208D01*
X121057003Y-57717673D01*
X120759525Y-57876678D01*
X120602611Y-58193006D01*
X116230000Y-58193006D01*
X116230000Y-51718510D01*
X116401161Y-51974670D01*
X116935330Y-52508839D01*
X117563446Y-52928533D01*
X118261372Y-53217623D01*
X119002285Y-53365000D01*
X119757715Y-53365000D01*
X120498628Y-53217623D01*
X121196554Y-52928533D01*
X121824670Y-52508839D01*
X122358839Y-51974670D01*
X122778533Y-51346554D01*
X123067623Y-50648628D01*
X123215000Y-49907715D01*
X123215000Y-49152285D01*
X123067623Y-48411372D01*
X122778533Y-47713446D01*
X122358839Y-47085330D01*
X121824670Y-46551161D01*
X121568510Y-46380000D01*
X171801490Y-46380000D01*
X171545330Y-46551161D01*
G37*
X171545330Y-46551161D02*
X171011161Y-47085330D01*
X170591467Y-47713446D01*
X170302377Y-48411372D01*
X170155000Y-49152285D01*
X170155000Y-49907715D01*
X170302377Y-50648628D01*
X170591467Y-51346554D01*
X171011161Y-51974670D01*
X171545330Y-52508839D01*
X172173446Y-52928533D01*
X172871372Y-53217623D01*
X173612285Y-53365000D01*
X174367715Y-53365000D01*
X175108628Y-53217623D01*
X175806554Y-52928533D01*
X176434670Y-52508839D01*
X176968839Y-51974670D01*
X177140000Y-51718510D01*
X177140001Y-144747581D01*
X177140000Y-152751491D01*
X176968839Y-152495330D01*
X176434670Y-151961161D01*
X175806554Y-151541467D01*
X175108628Y-151252377D01*
X174367715Y-151105000D01*
X173612285Y-151105000D01*
X172871372Y-151252377D01*
X172173446Y-151541467D01*
X171545330Y-151961161D01*
X171011161Y-152495330D01*
X170591467Y-153123446D01*
X170302377Y-153821372D01*
X170155000Y-154562285D01*
X170155000Y-155317715D01*
X170302377Y-156058628D01*
X170591467Y-156756554D01*
X171011161Y-157384670D01*
X171545330Y-157918839D01*
X171801490Y-158090000D01*
X159539606Y-158090000D01*
X158877000Y-157427394D01*
X158877000Y-120650000D01*
X158874560Y-120625224D01*
X158867333Y-120601399D01*
X158855597Y-120579443D01*
X158833630Y-120554423D01*
X150067035Y-112883652D01*
X168694100Y-112883652D01*
X168694100Y-113176348D01*
X168751202Y-113463421D01*
X168863212Y-113733838D01*
X169025826Y-113977206D01*
X169232794Y-114184174D01*
X169476162Y-114346788D01*
X169746579Y-114458798D01*
X170033652Y-114515900D01*
X170326348Y-114515900D01*
X170613421Y-114458798D01*
X170883838Y-114346788D01*
X171127206Y-114184174D01*
X171334174Y-113977206D01*
X171496788Y-113733838D01*
X171608798Y-113463421D01*
X171665900Y-113176348D01*
X171665900Y-112883652D01*
X171608798Y-112596579D01*
X171496788Y-112326162D01*
X171334174Y-112082794D01*
X171127206Y-111875826D01*
X170883838Y-111713212D01*
X170613421Y-111601202D01*
X170326348Y-111544100D01*
X170033652Y-111544100D01*
X169746579Y-111601202D01*
X169476162Y-111713212D01*
X169232794Y-111875826D01*
X169025826Y-112082794D01*
X168863212Y-112326162D01*
X168751202Y-112596579D01*
X168694100Y-112883652D01*
X150067035Y-112883652D01*
X148673630Y-111664423D01*
X148653377Y-111649944D01*
X148630688Y-111639694D01*
X148606436Y-111634068D01*
X148590000Y-111633000D01*
X116230000Y-111633000D01*
X116230000Y-109446994D01*
X120602611Y-109446994D01*
X120759525Y-109763322D01*
X121135585Y-109954877D01*
X121541790Y-110069386D01*
X121962528Y-110102447D01*
X122381633Y-110052792D01*
X122782997Y-109922327D01*
X123080475Y-109763322D01*
X123237389Y-109446994D01*
X123174044Y-109383649D01*
X168694100Y-109383649D01*
X168694100Y-109676345D01*
X168751202Y-109963418D01*
X168863212Y-110233835D01*
X169025826Y-110477203D01*
X169232794Y-110684171D01*
X169476162Y-110846785D01*
X169746579Y-110958795D01*
X170033652Y-111015897D01*
X170326348Y-111015897D01*
X170613421Y-110958795D01*
X170883838Y-110846785D01*
X171127206Y-110684171D01*
X171334174Y-110477203D01*
X171496788Y-110233835D01*
X171608798Y-109963418D01*
X171665900Y-109676345D01*
X171665900Y-109383649D01*
X171608798Y-109096576D01*
X171496788Y-108826159D01*
X171334174Y-108582791D01*
X171127206Y-108375823D01*
X170883838Y-108213209D01*
X170613421Y-108101199D01*
X170326348Y-108044097D01*
X170033652Y-108044097D01*
X169746579Y-108101199D01*
X169476162Y-108213209D01*
X169232794Y-108375823D01*
X169025826Y-108582791D01*
X168863212Y-108826159D01*
X168751202Y-109096576D01*
X168694100Y-109383649D01*
X123174044Y-109383649D01*
X121920000Y-108129605D01*
X120602611Y-109446994D01*
X116230000Y-109446994D01*
X116230000Y-107992528D01*
X119767553Y-107992528D01*
X119817208Y-108411633D01*
X119947673Y-108812997D01*
X120106678Y-109110475D01*
X120423006Y-109267389D01*
X121740395Y-107950000D01*
X122099605Y-107950000D01*
X123416994Y-109267389D01*
X123733322Y-109110475D01*
X123924877Y-108734415D01*
X124039386Y-108328210D01*
X124072447Y-107907472D01*
X124022792Y-107488367D01*
X123892327Y-107087003D01*
X123877379Y-107059036D01*
X169330565Y-107059036D01*
X169408310Y-107308203D01*
X169672503Y-107434192D01*
X169956199Y-107506219D01*
X170248496Y-107521515D01*
X170538161Y-107479493D01*
X170814062Y-107381767D01*
X170951690Y-107308203D01*
X171029435Y-107059036D01*
X170180000Y-106209601D01*
X169330565Y-107059036D01*
X123877379Y-107059036D01*
X123733322Y-106789525D01*
X123416994Y-106632611D01*
X122099605Y-107950000D01*
X121740395Y-107950000D01*
X120423006Y-106632611D01*
X120106678Y-106789525D01*
X119915123Y-107165585D01*
X119800614Y-107571790D01*
X119767553Y-107992528D01*
X116230000Y-107992528D01*
X116230000Y-106453006D01*
X120602611Y-106453006D01*
X121920000Y-107770395D01*
X123237389Y-106453006D01*
X123080475Y-106136678D01*
X122704415Y-105945123D01*
X122298210Y-105830614D01*
X121877472Y-105797553D01*
X121458367Y-105847208D01*
X121057003Y-105977673D01*
X120759525Y-106136678D01*
X120602611Y-106453006D01*
X116230000Y-106453006D01*
X116230000Y-102171000D01*
X125662928Y-102171000D01*
X125662928Y-103569000D01*
X125675188Y-103693482D01*
X125711498Y-103813180D01*
X125770463Y-103923494D01*
X125849815Y-104020185D01*
X125946506Y-104099537D01*
X126056820Y-104158502D01*
X126176518Y-104194812D01*
X126301000Y-104207072D01*
X127699000Y-104207072D01*
X127823482Y-104194812D01*
X127943180Y-104158502D01*
X128053494Y-104099537D01*
X128150185Y-104020185D01*
X128229537Y-103923494D01*
X128288502Y-103813180D01*
X128324812Y-103693482D01*
X128337072Y-103569000D01*
X128337072Y-102171000D01*
X128324812Y-102046518D01*
X128288502Y-101926820D01*
X128229537Y-101816506D01*
X128150185Y-101719815D01*
X128053494Y-101640463D01*
X127943180Y-101581498D01*
X127823482Y-101545188D01*
X127699000Y-101532928D01*
X127581786Y-101532928D01*
X127631886Y-101512176D01*
X127850376Y-101366186D01*
X128036186Y-101180376D01*
X128182176Y-100961886D01*
X128282735Y-100719114D01*
X128334000Y-100461388D01*
X128334000Y-100198612D01*
X128282735Y-99940886D01*
X128182176Y-99698114D01*
X128036186Y-99479624D01*
X127850376Y-99293814D01*
X127631886Y-99147824D01*
X127389114Y-99047265D01*
X127131388Y-98996000D01*
X126868612Y-98996000D01*
X126610886Y-99047265D01*
X126368114Y-99147824D01*
X126149624Y-99293814D01*
X125963814Y-99479624D01*
X125817824Y-99698114D01*
X125717265Y-99940886D01*
X125666000Y-100198612D01*
X125666000Y-100461388D01*
X125717265Y-100719114D01*
X125817824Y-100961886D01*
X125963814Y-101180376D01*
X126149624Y-101366186D01*
X126368114Y-101512176D01*
X126418214Y-101532928D01*
X126301000Y-101532928D01*
X126176518Y-101545188D01*
X126056820Y-101581498D01*
X125946506Y-101640463D01*
X125849815Y-101719815D01*
X125770463Y-101816506D01*
X125711498Y-101926820D01*
X125675188Y-102046518D01*
X125662928Y-102171000D01*
X116230000Y-102171000D01*
X116230000Y-99286994D01*
X120602611Y-99286994D01*
X120759525Y-99603322D01*
X121135585Y-99794877D01*
X121541790Y-99909386D01*
X121962528Y-99942447D01*
X122381633Y-99892792D01*
X122782997Y-99762327D01*
X123080475Y-99603322D01*
X123237389Y-99286994D01*
X121920000Y-97969605D01*
X120602611Y-99286994D01*
X116230000Y-99286994D01*
X116230000Y-97832528D01*
X119767553Y-97832528D01*
X119817208Y-98251633D01*
X119947673Y-98652997D01*
X120106678Y-98950475D01*
X120423006Y-99107389D01*
X121740395Y-97790000D01*
X122099605Y-97790000D01*
X123416994Y-99107389D01*
X123733322Y-98950475D01*
X123924877Y-98574415D01*
X124039386Y-98168210D01*
X124072447Y-97747472D01*
X124022792Y-97328367D01*
X123892327Y-96927003D01*
X123733322Y-96629525D01*
X123416994Y-96472611D01*
X122099605Y-97790000D01*
X121740395Y-97790000D01*
X120423006Y-96472611D01*
X120106678Y-96629525D01*
X119915123Y-97005585D01*
X119800614Y-97411790D01*
X119767553Y-97832528D01*
X116230000Y-97832528D01*
X116230000Y-96293006D01*
X120602611Y-96293006D01*
X121920000Y-97610395D01*
X123237389Y-96293006D01*
X123080475Y-95976678D01*
X122704415Y-95785123D01*
X122298210Y-95670614D01*
X121877472Y-95637553D01*
X121458367Y-95687208D01*
X121057003Y-95817673D01*
X120759525Y-95976678D01*
X120602611Y-96293006D01*
X116230000Y-96293006D01*
X116230000Y-95377000D01*
X129493019Y-95377000D01*
X138343646Y-102963252D01*
X140880197Y-105499803D01*
X140899443Y-105515597D01*
X140921399Y-105527333D01*
X140945224Y-105534560D01*
X140970000Y-105537000D01*
X168772122Y-105537000D01*
X168703777Y-105806195D01*
X168688481Y-106098492D01*
X168730503Y-106388157D01*
X168828229Y-106664058D01*
X168901793Y-106801686D01*
X169150960Y-106879431D01*
X170000395Y-106029996D01*
X169986253Y-106015854D01*
X170165858Y-105836249D01*
X170180000Y-105850391D01*
X170194143Y-105836249D01*
X170373748Y-106015854D01*
X170359605Y-106029996D01*
X171209040Y-106879431D01*
X171458207Y-106801686D01*
X171584196Y-106537493D01*
X171656223Y-106253797D01*
X171671519Y-105961500D01*
X171629497Y-105671835D01*
X171581738Y-105537000D01*
X172720000Y-105537000D01*
X172744776Y-105534560D01*
X172768601Y-105527333D01*
X172790557Y-105515597D01*
X172809803Y-105499803D01*
X174079803Y-104229803D01*
X174095597Y-104210557D01*
X174107333Y-104188601D01*
X174114560Y-104164776D01*
X174117000Y-104140000D01*
X174117000Y-100330000D01*
X174114560Y-100305224D01*
X174107333Y-100281399D01*
X174095597Y-100259443D01*
X174084398Y-100245041D01*
X172941398Y-98975041D01*
X172923010Y-98958258D01*
X172901700Y-98945384D01*
X172878289Y-98936915D01*
X172847000Y-98933000D01*
X171665900Y-98933000D01*
X171665900Y-98883647D01*
X171608798Y-98596574D01*
X171496788Y-98326157D01*
X171334174Y-98082789D01*
X171127206Y-97875821D01*
X170883838Y-97713207D01*
X170613421Y-97601197D01*
X170326348Y-97544095D01*
X170033652Y-97544095D01*
X169746579Y-97601197D01*
X169476162Y-97713207D01*
X169232794Y-97875821D01*
X169025826Y-98082789D01*
X168997017Y-98125905D01*
X165817994Y-95788388D01*
X165413252Y-95383646D01*
X168694100Y-95383646D01*
X168694100Y-95676342D01*
X168751202Y-95963415D01*
X168863212Y-96233832D01*
X169025826Y-96477200D01*
X169232794Y-96684168D01*
X169476162Y-96846782D01*
X169746579Y-96958792D01*
X170033652Y-97015894D01*
X170326348Y-97015894D01*
X170613421Y-96958792D01*
X170883838Y-96846782D01*
X171127206Y-96684168D01*
X171334174Y-96477200D01*
X171496788Y-96233832D01*
X171608798Y-95963415D01*
X171665900Y-95676342D01*
X171665900Y-95383646D01*
X171608798Y-95096573D01*
X171496788Y-94826156D01*
X171334174Y-94582788D01*
X171127206Y-94375820D01*
X170883838Y-94213206D01*
X170613421Y-94101196D01*
X170326348Y-94044094D01*
X170033652Y-94044094D01*
X169746579Y-94101196D01*
X169476162Y-94213206D01*
X169232794Y-94375820D01*
X169025826Y-94582788D01*
X168863212Y-94826156D01*
X168751202Y-95096573D01*
X168694100Y-95383646D01*
X165413252Y-95383646D01*
X165189803Y-95160197D01*
X165170557Y-95144403D01*
X165148601Y-95132667D01*
X165124776Y-95125440D01*
X165100000Y-95123000D01*
X157524548Y-95123000D01*
X151257000Y-90108961D01*
X151257000Y-76200000D01*
X151254560Y-76175224D01*
X151247333Y-76151399D01*
X151235597Y-76129443D01*
X151219803Y-76110197D01*
X149949803Y-74840197D01*
X149930557Y-74824403D01*
X149908601Y-74812667D01*
X149884776Y-74805440D01*
X149860000Y-74803000D01*
X116230000Y-74803000D01*
X116230000Y-71346994D01*
X120602611Y-71346994D01*
X120759525Y-71663322D01*
X121135585Y-71854877D01*
X121541790Y-71969386D01*
X121962528Y-72002447D01*
X122381633Y-71952792D01*
X122782997Y-71822327D01*
X123080475Y-71663322D01*
X123237389Y-71346994D01*
X121920000Y-70029605D01*
X120602611Y-71346994D01*
X116230000Y-71346994D01*
X116230000Y-69892528D01*
X119767553Y-69892528D01*
X119817208Y-70311633D01*
X119947673Y-70712997D01*
X120106678Y-71010475D01*
X120423006Y-71167389D01*
X121740395Y-69850000D01*
X122099605Y-69850000D01*
X123416994Y-71167389D01*
X123733322Y-71010475D01*
X123924877Y-70634415D01*
X124039386Y-70228210D01*
X124072447Y-69807472D01*
X124022792Y-69388367D01*
X123892327Y-68987003D01*
X123733322Y-68689525D01*
X123416994Y-68532611D01*
X122099605Y-69850000D01*
X121740395Y-69850000D01*
X120423006Y-68532611D01*
X120106678Y-68689525D01*
X119915123Y-69065585D01*
X119800614Y-69471790D01*
X119767553Y-69892528D01*
X116230000Y-69892528D01*
X116230000Y-68353006D01*
X120602611Y-68353006D01*
X121920000Y-69670395D01*
X123237389Y-68353006D01*
X123080475Y-68036678D01*
X122704415Y-67845123D01*
X122298210Y-67730614D01*
X121877472Y-67697553D01*
X121458367Y-67747208D01*
X121057003Y-67877673D01*
X120759525Y-68036678D01*
X120602611Y-68353006D01*
X116230000Y-68353006D01*
X116230000Y-64071000D01*
X125662928Y-64071000D01*
X125662928Y-65469000D01*
X125675188Y-65593482D01*
X125711498Y-65713180D01*
X125770463Y-65823494D01*
X125849815Y-65920185D01*
X125946506Y-65999537D01*
X126056820Y-66058502D01*
X126176518Y-66094812D01*
X126301000Y-66107072D01*
X127699000Y-66107072D01*
X127823482Y-66094812D01*
X127943180Y-66058502D01*
X128053494Y-65999537D01*
X128150185Y-65920185D01*
X128229537Y-65823494D01*
X128288502Y-65713180D01*
X128324812Y-65593482D01*
X128337072Y-65469000D01*
X128337072Y-64071000D01*
X128324812Y-63946518D01*
X128288502Y-63826820D01*
X128229537Y-63716506D01*
X128150185Y-63619815D01*
X128053494Y-63540463D01*
X127943180Y-63481498D01*
X127823482Y-63445188D01*
X127699000Y-63432928D01*
X127581786Y-63432928D01*
X127631886Y-63412176D01*
X127850376Y-63266186D01*
X128036186Y-63080376D01*
X128182176Y-62861886D01*
X128282735Y-62619114D01*
X128334000Y-62361388D01*
X128334000Y-62098612D01*
X128282735Y-61840886D01*
X128182176Y-61598114D01*
X128036186Y-61379624D01*
X127850376Y-61193814D01*
X127631886Y-61047824D01*
X127389114Y-60947265D01*
X127131388Y-60896000D01*
X126868612Y-60896000D01*
X126610886Y-60947265D01*
X126368114Y-61047824D01*
X126149624Y-61193814D01*
X125963814Y-61379624D01*
X125817824Y-61598114D01*
X125717265Y-61840886D01*
X125666000Y-62098612D01*
X125666000Y-62361388D01*
X125717265Y-62619114D01*
X125817824Y-62861886D01*
X125963814Y-63080376D01*
X126149624Y-63266186D01*
X126368114Y-63412176D01*
X126418214Y-63432928D01*
X126301000Y-63432928D01*
X126176518Y-63445188D01*
X126056820Y-63481498D01*
X125946506Y-63540463D01*
X125849815Y-63619815D01*
X125770463Y-63716506D01*
X125711498Y-63826820D01*
X125675188Y-63946518D01*
X125662928Y-64071000D01*
X116230000Y-64071000D01*
X116230000Y-61186994D01*
X120602611Y-61186994D01*
X120759525Y-61503322D01*
X121135585Y-61694877D01*
X121541790Y-61809386D01*
X121962528Y-61842447D01*
X122381633Y-61792792D01*
X122782997Y-61662327D01*
X123080475Y-61503322D01*
X123237389Y-61186994D01*
X121920000Y-59869605D01*
X120602611Y-61186994D01*
X116230000Y-61186994D01*
X116230000Y-59732528D01*
X119767553Y-59732528D01*
X119817208Y-60151633D01*
X119947673Y-60552997D01*
X120106678Y-60850475D01*
X120423006Y-61007389D01*
X121740395Y-59690000D01*
X122099605Y-59690000D01*
X123416994Y-61007389D01*
X123733322Y-60850475D01*
X123924877Y-60474415D01*
X124039386Y-60068210D01*
X124072447Y-59647472D01*
X124022792Y-59228367D01*
X123892327Y-58827003D01*
X123733322Y-58529525D01*
X123416994Y-58372611D01*
X122099605Y-59690000D01*
X121740395Y-59690000D01*
X120423006Y-58372611D01*
X120106678Y-58529525D01*
X119915123Y-58905585D01*
X119800614Y-59311790D01*
X119767553Y-59732528D01*
X116230000Y-59732528D01*
X116230000Y-58193006D01*
X120602611Y-58193006D01*
X121920000Y-59510395D01*
X123237389Y-58193006D01*
X123080475Y-57876678D01*
X122704415Y-57685123D01*
X122298210Y-57570614D01*
X121877472Y-57537553D01*
X121458367Y-57587208D01*
X121057003Y-57717673D01*
X120759525Y-57876678D01*
X120602611Y-58193006D01*
X116230000Y-58193006D01*
X116230000Y-51718510D01*
X116401161Y-51974670D01*
X116935330Y-52508839D01*
X117563446Y-52928533D01*
X118261372Y-53217623D01*
X119002285Y-53365000D01*
X119757715Y-53365000D01*
X120498628Y-53217623D01*
X121196554Y-52928533D01*
X121824670Y-52508839D01*
X122358839Y-51974670D01*
X122778533Y-51346554D01*
X123067623Y-50648628D01*
X123215000Y-49907715D01*
X123215000Y-49152285D01*
X123067623Y-48411372D01*
X122778533Y-47713446D01*
X122358839Y-47085330D01*
X121824670Y-46551161D01*
X121568510Y-46380000D01*
X171801490Y-46380000D01*
X171545330Y-46551161D01*
%TO.N,GNDPWR*%
G36*
X152273000Y-116903500D02*
G01*
X152273000Y-119327394D01*
X151077394Y-120523000D01*
X147320000Y-120523000D01*
X147295224Y-120525440D01*
X147271399Y-120532667D01*
X147249443Y-120544403D01*
X147230197Y-120560197D01*
X145960197Y-121830197D01*
X145944403Y-121849443D01*
X145932667Y-121871399D01*
X145925440Y-121895224D01*
X145923000Y-121920000D01*
X145923000Y-134620000D01*
X145925440Y-134644776D01*
X145932667Y-134668601D01*
X145944403Y-134690557D01*
X145960197Y-134709803D01*
X147230197Y-135979803D01*
X147249443Y-135995597D01*
X147271399Y-136007333D01*
X147295224Y-136014560D01*
X147320000Y-136017000D01*
X153617394Y-136017000D01*
X156083000Y-138482606D01*
X156083000Y-157435452D01*
X155559362Y-158090000D01*
X121568510Y-158090000D01*
X121824670Y-157918839D01*
X122358839Y-157384670D01*
X122778533Y-156756554D01*
X123067623Y-156058628D01*
X123215000Y-155317715D01*
X123215000Y-154562285D01*
X123067623Y-153821372D01*
X122778533Y-153123446D01*
X122358839Y-152495330D01*
X121824670Y-151961161D01*
X121196554Y-151541467D01*
X120498628Y-151252377D01*
X119757715Y-151105000D01*
X119002285Y-151105000D01*
X118261372Y-151252377D01*
X117563446Y-151541467D01*
X116935330Y-151961161D01*
X116401161Y-152495330D01*
X116230000Y-152751490D01*
X116230000Y-147546994D01*
X120602611Y-147546994D01*
X120759525Y-147863322D01*
X121135585Y-148054877D01*
X121541790Y-148169386D01*
X121962528Y-148202447D01*
X122381633Y-148152792D01*
X122782997Y-148022327D01*
X123080475Y-147863322D01*
X123237389Y-147546994D01*
X121920000Y-146229605D01*
X120602611Y-147546994D01*
X116230000Y-147546994D01*
X116230000Y-146092528D01*
X119767553Y-146092528D01*
X119817208Y-146511633D01*
X119947673Y-146912997D01*
X120106678Y-147210475D01*
X120423006Y-147367389D01*
X121740395Y-146050000D01*
X122099605Y-146050000D01*
X123416994Y-147367389D01*
X123733322Y-147210475D01*
X123924877Y-146834415D01*
X124039386Y-146428210D01*
X124072447Y-146007472D01*
X124022792Y-145588367D01*
X123892327Y-145187003D01*
X123733322Y-144889525D01*
X123416994Y-144732611D01*
X122099605Y-146050000D01*
X121740395Y-146050000D01*
X120423006Y-144732611D01*
X120106678Y-144889525D01*
X119915123Y-145265585D01*
X119800614Y-145671790D01*
X119767553Y-146092528D01*
X116230000Y-146092528D01*
X116230000Y-144553006D01*
X120602611Y-144553006D01*
X121920000Y-145870395D01*
X123237389Y-144553006D01*
X123080475Y-144236678D01*
X122704415Y-144045123D01*
X122298210Y-143930614D01*
X121877472Y-143897553D01*
X121458367Y-143947208D01*
X121057003Y-144077673D01*
X120759525Y-144236678D01*
X120602611Y-144553006D01*
X116230000Y-144553006D01*
X116230000Y-140271000D01*
X125662928Y-140271000D01*
X125662928Y-141669000D01*
X125675188Y-141793482D01*
X125711498Y-141913180D01*
X125770463Y-142023494D01*
X125849815Y-142120185D01*
X125946506Y-142199537D01*
X126056820Y-142258502D01*
X126176518Y-142294812D01*
X126301000Y-142307072D01*
X127699000Y-142307072D01*
X127823482Y-142294812D01*
X127943180Y-142258502D01*
X128053494Y-142199537D01*
X128150185Y-142120185D01*
X128229537Y-142023494D01*
X128288502Y-141913180D01*
X128324812Y-141793482D01*
X128337072Y-141669000D01*
X128337072Y-140271000D01*
X128324812Y-140146518D01*
X128288502Y-140026820D01*
X128229537Y-139916506D01*
X128150185Y-139819815D01*
X128053494Y-139740463D01*
X127943180Y-139681498D01*
X127823482Y-139645188D01*
X127699000Y-139632928D01*
X127581786Y-139632928D01*
X127631886Y-139612176D01*
X127850376Y-139466186D01*
X128036186Y-139280376D01*
X128182176Y-139061886D01*
X128282735Y-138819114D01*
X128334000Y-138561388D01*
X128334000Y-138298612D01*
X128282735Y-138040886D01*
X128182176Y-137798114D01*
X128036186Y-137579624D01*
X127850376Y-137393814D01*
X127631886Y-137247824D01*
X127389114Y-137147265D01*
X127131388Y-137096000D01*
X126868612Y-137096000D01*
X126610886Y-137147265D01*
X126368114Y-137247824D01*
X126149624Y-137393814D01*
X125963814Y-137579624D01*
X125817824Y-137798114D01*
X125717265Y-138040886D01*
X125666000Y-138298612D01*
X125666000Y-138561388D01*
X125717265Y-138819114D01*
X125817824Y-139061886D01*
X125963814Y-139280376D01*
X126149624Y-139466186D01*
X126368114Y-139612176D01*
X126418214Y-139632928D01*
X126301000Y-139632928D01*
X126176518Y-139645188D01*
X126056820Y-139681498D01*
X125946506Y-139740463D01*
X125849815Y-139819815D01*
X125770463Y-139916506D01*
X125711498Y-140026820D01*
X125675188Y-140146518D01*
X125662928Y-140271000D01*
X116230000Y-140271000D01*
X116230000Y-137386994D01*
X120602611Y-137386994D01*
X120759525Y-137703322D01*
X121135585Y-137894877D01*
X121541790Y-138009386D01*
X121962528Y-138042447D01*
X122381633Y-137992792D01*
X122782997Y-137862327D01*
X123080475Y-137703322D01*
X123237389Y-137386994D01*
X121920000Y-136069605D01*
X120602611Y-137386994D01*
X116230000Y-137386994D01*
X116230000Y-135932528D01*
X119767553Y-135932528D01*
X119817208Y-136351633D01*
X119947673Y-136752997D01*
X120106678Y-137050475D01*
X120423006Y-137207389D01*
X121740395Y-135890000D01*
X122099605Y-135890000D01*
X123416994Y-137207389D01*
X123733322Y-137050475D01*
X123924877Y-136674415D01*
X124039386Y-136268210D01*
X124072447Y-135847472D01*
X124022792Y-135428367D01*
X123892327Y-135027003D01*
X123733322Y-134729525D01*
X123416994Y-134572611D01*
X122099605Y-135890000D01*
X121740395Y-135890000D01*
X120423006Y-134572611D01*
X120106678Y-134729525D01*
X119915123Y-135105585D01*
X119800614Y-135511790D01*
X119767553Y-135932528D01*
X116230000Y-135932528D01*
X116230000Y-134393006D01*
X120602611Y-134393006D01*
X121920000Y-135710395D01*
X123237389Y-134393006D01*
X123080475Y-134076678D01*
X122704415Y-133885123D01*
X122298210Y-133770614D01*
X121877472Y-133737553D01*
X121458367Y-133787208D01*
X121057003Y-133917673D01*
X120759525Y-134076678D01*
X120602611Y-134393006D01*
X116230000Y-134393006D01*
X116230000Y-127226994D01*
X120602611Y-127226994D01*
X120759525Y-127543322D01*
X121135585Y-127734877D01*
X121541790Y-127849386D01*
X121962528Y-127882447D01*
X122381633Y-127832792D01*
X122782997Y-127702327D01*
X123080475Y-127543322D01*
X123237389Y-127226994D01*
X121920000Y-125909605D01*
X120602611Y-127226994D01*
X116230000Y-127226994D01*
X116230000Y-125772528D01*
X119767553Y-125772528D01*
X119817208Y-126191633D01*
X119947673Y-126592997D01*
X120106678Y-126890475D01*
X120423006Y-127047389D01*
X121740395Y-125730000D01*
X122099605Y-125730000D01*
X123416994Y-127047389D01*
X123733322Y-126890475D01*
X123924877Y-126514415D01*
X124039386Y-126108210D01*
X124072447Y-125687472D01*
X124022792Y-125268367D01*
X123892327Y-124867003D01*
X123733322Y-124569525D01*
X123416994Y-124412611D01*
X122099605Y-125730000D01*
X121740395Y-125730000D01*
X120423006Y-124412611D01*
X120106678Y-124569525D01*
X119915123Y-124945585D01*
X119800614Y-125351790D01*
X119767553Y-125772528D01*
X116230000Y-125772528D01*
X116230000Y-124233006D01*
X120602611Y-124233006D01*
X121920000Y-125550395D01*
X123237389Y-124233006D01*
X123080475Y-123916678D01*
X122704415Y-123725123D01*
X122298210Y-123610614D01*
X121877472Y-123577553D01*
X121458367Y-123627208D01*
X121057003Y-123757673D01*
X120759525Y-123916678D01*
X120602611Y-124233006D01*
X116230000Y-124233006D01*
X116230000Y-119951000D01*
X125662928Y-119951000D01*
X125662928Y-121349000D01*
X125675188Y-121473482D01*
X125711498Y-121593180D01*
X125770463Y-121703494D01*
X125849815Y-121800185D01*
X125946506Y-121879537D01*
X126056820Y-121938502D01*
X126176518Y-121974812D01*
X126301000Y-121987072D01*
X127699000Y-121987072D01*
X127823482Y-121974812D01*
X127943180Y-121938502D01*
X128053494Y-121879537D01*
X128150185Y-121800185D01*
X128229537Y-121703494D01*
X128288502Y-121593180D01*
X128324812Y-121473482D01*
X128337072Y-121349000D01*
X128337072Y-119951000D01*
X128324812Y-119826518D01*
X128288502Y-119706820D01*
X128229537Y-119596506D01*
X128150185Y-119499815D01*
X128053494Y-119420463D01*
X127943180Y-119361498D01*
X127823482Y-119325188D01*
X127699000Y-119312928D01*
X127581786Y-119312928D01*
X127631886Y-119292176D01*
X127850376Y-119146186D01*
X128036186Y-118960376D01*
X128182176Y-118741886D01*
X128282735Y-118499114D01*
X128334000Y-118241388D01*
X128334000Y-117978612D01*
X128282735Y-117720886D01*
X128182176Y-117478114D01*
X128036186Y-117259624D01*
X127850376Y-117073814D01*
X127631886Y-116927824D01*
X127389114Y-116827265D01*
X127131388Y-116776000D01*
X126868612Y-116776000D01*
X126610886Y-116827265D01*
X126368114Y-116927824D01*
X126149624Y-117073814D01*
X125963814Y-117259624D01*
X125817824Y-117478114D01*
X125717265Y-117720886D01*
X125666000Y-117978612D01*
X125666000Y-118241388D01*
X125717265Y-118499114D01*
X125817824Y-118741886D01*
X125963814Y-118960376D01*
X126149624Y-119146186D01*
X126368114Y-119292176D01*
X126418214Y-119312928D01*
X126301000Y-119312928D01*
X126176518Y-119325188D01*
X126056820Y-119361498D01*
X125946506Y-119420463D01*
X125849815Y-119499815D01*
X125770463Y-119596506D01*
X125711498Y-119706820D01*
X125675188Y-119826518D01*
X125662928Y-119951000D01*
X116230000Y-119951000D01*
X116230000Y-117066994D01*
X120602611Y-117066994D01*
X120759525Y-117383322D01*
X121135585Y-117574877D01*
X121541790Y-117689386D01*
X121962528Y-117722447D01*
X122381633Y-117672792D01*
X122782997Y-117542327D01*
X123080475Y-117383322D01*
X123237389Y-117066994D01*
X121920000Y-115749605D01*
X120602611Y-117066994D01*
X116230000Y-117066994D01*
X116230000Y-115612528D01*
X119767553Y-115612528D01*
X119817208Y-116031633D01*
X119947673Y-116432997D01*
X120106678Y-116730475D01*
X120423006Y-116887389D01*
X121740395Y-115570000D01*
X122099605Y-115570000D01*
X123416994Y-116887389D01*
X123733322Y-116730475D01*
X123924877Y-116354415D01*
X124039386Y-115948210D01*
X124072447Y-115527472D01*
X124022792Y-115108367D01*
X123892327Y-114707003D01*
X123733322Y-114409525D01*
X123416994Y-114252611D01*
X122099605Y-115570000D01*
X121740395Y-115570000D01*
X120423006Y-114252611D01*
X120106678Y-114409525D01*
X119915123Y-114785585D01*
X119800614Y-115191790D01*
X119767553Y-115612528D01*
X116230000Y-115612528D01*
X116230000Y-114073006D01*
X120602611Y-114073006D01*
X121920000Y-115390395D01*
X123237389Y-114073006D01*
X123080475Y-113756678D01*
X122704415Y-113565123D01*
X122298210Y-113450614D01*
X121877472Y-113417553D01*
X121458367Y-113467208D01*
X121057003Y-113597673D01*
X120759525Y-113756678D01*
X120602611Y-114073006D01*
X116230000Y-114073006D01*
X116230000Y-113157000D01*
X147277667Y-113157000D01*
X152273000Y-116903500D01*
G37*
X152273000Y-116903500D02*
X152273000Y-119327394D01*
X151077394Y-120523000D01*
X147320000Y-120523000D01*
X147295224Y-120525440D01*
X147271399Y-120532667D01*
X147249443Y-120544403D01*
X147230197Y-120560197D01*
X145960197Y-121830197D01*
X145944403Y-121849443D01*
X145932667Y-121871399D01*
X145925440Y-121895224D01*
X145923000Y-121920000D01*
X145923000Y-134620000D01*
X145925440Y-134644776D01*
X145932667Y-134668601D01*
X145944403Y-134690557D01*
X145960197Y-134709803D01*
X147230197Y-135979803D01*
X147249443Y-135995597D01*
X147271399Y-136007333D01*
X147295224Y-136014560D01*
X147320000Y-136017000D01*
X153617394Y-136017000D01*
X156083000Y-138482606D01*
X156083000Y-157435452D01*
X155559362Y-158090000D01*
X121568510Y-158090000D01*
X121824670Y-157918839D01*
X122358839Y-157384670D01*
X122778533Y-156756554D01*
X123067623Y-156058628D01*
X123215000Y-155317715D01*
X123215000Y-154562285D01*
X123067623Y-153821372D01*
X122778533Y-153123446D01*
X122358839Y-152495330D01*
X121824670Y-151961161D01*
X121196554Y-151541467D01*
X120498628Y-151252377D01*
X119757715Y-151105000D01*
X119002285Y-151105000D01*
X118261372Y-151252377D01*
X117563446Y-151541467D01*
X116935330Y-151961161D01*
X116401161Y-152495330D01*
X116230000Y-152751490D01*
X116230000Y-147546994D01*
X120602611Y-147546994D01*
X120759525Y-147863322D01*
X121135585Y-148054877D01*
X121541790Y-148169386D01*
X121962528Y-148202447D01*
X122381633Y-148152792D01*
X122782997Y-148022327D01*
X123080475Y-147863322D01*
X123237389Y-147546994D01*
X121920000Y-146229605D01*
X120602611Y-147546994D01*
X116230000Y-147546994D01*
X116230000Y-146092528D01*
X119767553Y-146092528D01*
X119817208Y-146511633D01*
X119947673Y-146912997D01*
X120106678Y-147210475D01*
X120423006Y-147367389D01*
X121740395Y-146050000D01*
X122099605Y-146050000D01*
X123416994Y-147367389D01*
X123733322Y-147210475D01*
X123924877Y-146834415D01*
X124039386Y-146428210D01*
X124072447Y-146007472D01*
X124022792Y-145588367D01*
X123892327Y-145187003D01*
X123733322Y-144889525D01*
X123416994Y-144732611D01*
X122099605Y-146050000D01*
X121740395Y-146050000D01*
X120423006Y-144732611D01*
X120106678Y-144889525D01*
X119915123Y-145265585D01*
X119800614Y-145671790D01*
X119767553Y-146092528D01*
X116230000Y-146092528D01*
X116230000Y-144553006D01*
X120602611Y-144553006D01*
X121920000Y-145870395D01*
X123237389Y-144553006D01*
X123080475Y-144236678D01*
X122704415Y-144045123D01*
X122298210Y-143930614D01*
X121877472Y-143897553D01*
X121458367Y-143947208D01*
X121057003Y-144077673D01*
X120759525Y-144236678D01*
X120602611Y-144553006D01*
X116230000Y-144553006D01*
X116230000Y-140271000D01*
X125662928Y-140271000D01*
X125662928Y-141669000D01*
X125675188Y-141793482D01*
X125711498Y-141913180D01*
X125770463Y-142023494D01*
X125849815Y-142120185D01*
X125946506Y-142199537D01*
X126056820Y-142258502D01*
X126176518Y-142294812D01*
X126301000Y-142307072D01*
X127699000Y-142307072D01*
X127823482Y-142294812D01*
X127943180Y-142258502D01*
X128053494Y-142199537D01*
X128150185Y-142120185D01*
X128229537Y-142023494D01*
X128288502Y-141913180D01*
X128324812Y-141793482D01*
X128337072Y-141669000D01*
X128337072Y-140271000D01*
X128324812Y-140146518D01*
X128288502Y-140026820D01*
X128229537Y-139916506D01*
X128150185Y-139819815D01*
X128053494Y-139740463D01*
X127943180Y-139681498D01*
X127823482Y-139645188D01*
X127699000Y-139632928D01*
X127581786Y-139632928D01*
X127631886Y-139612176D01*
X127850376Y-139466186D01*
X128036186Y-139280376D01*
X128182176Y-139061886D01*
X128282735Y-138819114D01*
X128334000Y-138561388D01*
X128334000Y-138298612D01*
X128282735Y-138040886D01*
X128182176Y-137798114D01*
X128036186Y-137579624D01*
X127850376Y-137393814D01*
X127631886Y-137247824D01*
X127389114Y-137147265D01*
X127131388Y-137096000D01*
X126868612Y-137096000D01*
X126610886Y-137147265D01*
X126368114Y-137247824D01*
X126149624Y-137393814D01*
X125963814Y-137579624D01*
X125817824Y-137798114D01*
X125717265Y-138040886D01*
X125666000Y-138298612D01*
X125666000Y-138561388D01*
X125717265Y-138819114D01*
X125817824Y-139061886D01*
X125963814Y-139280376D01*
X126149624Y-139466186D01*
X126368114Y-139612176D01*
X126418214Y-139632928D01*
X126301000Y-139632928D01*
X126176518Y-139645188D01*
X126056820Y-139681498D01*
X125946506Y-139740463D01*
X125849815Y-139819815D01*
X125770463Y-139916506D01*
X125711498Y-140026820D01*
X125675188Y-140146518D01*
X125662928Y-140271000D01*
X116230000Y-140271000D01*
X116230000Y-137386994D01*
X120602611Y-137386994D01*
X120759525Y-137703322D01*
X121135585Y-137894877D01*
X121541790Y-138009386D01*
X121962528Y-138042447D01*
X122381633Y-137992792D01*
X122782997Y-137862327D01*
X123080475Y-137703322D01*
X123237389Y-137386994D01*
X121920000Y-136069605D01*
X120602611Y-137386994D01*
X116230000Y-137386994D01*
X116230000Y-135932528D01*
X119767553Y-135932528D01*
X119817208Y-136351633D01*
X119947673Y-136752997D01*
X120106678Y-137050475D01*
X120423006Y-137207389D01*
X121740395Y-135890000D01*
X122099605Y-135890000D01*
X123416994Y-137207389D01*
X123733322Y-137050475D01*
X123924877Y-136674415D01*
X124039386Y-136268210D01*
X124072447Y-135847472D01*
X124022792Y-135428367D01*
X123892327Y-135027003D01*
X123733322Y-134729525D01*
X123416994Y-134572611D01*
X122099605Y-135890000D01*
X121740395Y-135890000D01*
X120423006Y-134572611D01*
X120106678Y-134729525D01*
X119915123Y-135105585D01*
X119800614Y-135511790D01*
X119767553Y-135932528D01*
X116230000Y-135932528D01*
X116230000Y-134393006D01*
X120602611Y-134393006D01*
X121920000Y-135710395D01*
X123237389Y-134393006D01*
X123080475Y-134076678D01*
X122704415Y-133885123D01*
X122298210Y-133770614D01*
X121877472Y-133737553D01*
X121458367Y-133787208D01*
X121057003Y-133917673D01*
X120759525Y-134076678D01*
X120602611Y-134393006D01*
X116230000Y-134393006D01*
X116230000Y-127226994D01*
X120602611Y-127226994D01*
X120759525Y-127543322D01*
X121135585Y-127734877D01*
X121541790Y-127849386D01*
X121962528Y-127882447D01*
X122381633Y-127832792D01*
X122782997Y-127702327D01*
X123080475Y-127543322D01*
X123237389Y-127226994D01*
X121920000Y-125909605D01*
X120602611Y-127226994D01*
X116230000Y-127226994D01*
X116230000Y-125772528D01*
X119767553Y-125772528D01*
X119817208Y-126191633D01*
X119947673Y-126592997D01*
X120106678Y-126890475D01*
X120423006Y-127047389D01*
X121740395Y-125730000D01*
X122099605Y-125730000D01*
X123416994Y-127047389D01*
X123733322Y-126890475D01*
X123924877Y-126514415D01*
X124039386Y-126108210D01*
X124072447Y-125687472D01*
X124022792Y-125268367D01*
X123892327Y-124867003D01*
X123733322Y-124569525D01*
X123416994Y-124412611D01*
X122099605Y-125730000D01*
X121740395Y-125730000D01*
X120423006Y-124412611D01*
X120106678Y-124569525D01*
X119915123Y-124945585D01*
X119800614Y-125351790D01*
X119767553Y-125772528D01*
X116230000Y-125772528D01*
X116230000Y-124233006D01*
X120602611Y-124233006D01*
X121920000Y-125550395D01*
X123237389Y-124233006D01*
X123080475Y-123916678D01*
X122704415Y-123725123D01*
X122298210Y-123610614D01*
X121877472Y-123577553D01*
X121458367Y-123627208D01*
X121057003Y-123757673D01*
X120759525Y-123916678D01*
X120602611Y-124233006D01*
X116230000Y-124233006D01*
X116230000Y-119951000D01*
X125662928Y-119951000D01*
X125662928Y-121349000D01*
X125675188Y-121473482D01*
X125711498Y-121593180D01*
X125770463Y-121703494D01*
X125849815Y-121800185D01*
X125946506Y-121879537D01*
X126056820Y-121938502D01*
X126176518Y-121974812D01*
X126301000Y-121987072D01*
X127699000Y-121987072D01*
X127823482Y-121974812D01*
X127943180Y-121938502D01*
X128053494Y-121879537D01*
X128150185Y-121800185D01*
X128229537Y-121703494D01*
X128288502Y-121593180D01*
X128324812Y-121473482D01*
X128337072Y-121349000D01*
X128337072Y-119951000D01*
X128324812Y-119826518D01*
X128288502Y-119706820D01*
X128229537Y-119596506D01*
X128150185Y-119499815D01*
X128053494Y-119420463D01*
X127943180Y-119361498D01*
X127823482Y-119325188D01*
X127699000Y-119312928D01*
X127581786Y-119312928D01*
X127631886Y-119292176D01*
X127850376Y-119146186D01*
X128036186Y-118960376D01*
X128182176Y-118741886D01*
X128282735Y-118499114D01*
X128334000Y-118241388D01*
X128334000Y-117978612D01*
X128282735Y-117720886D01*
X128182176Y-117478114D01*
X128036186Y-117259624D01*
X127850376Y-117073814D01*
X127631886Y-116927824D01*
X127389114Y-116827265D01*
X127131388Y-116776000D01*
X126868612Y-116776000D01*
X126610886Y-116827265D01*
X126368114Y-116927824D01*
X126149624Y-117073814D01*
X125963814Y-117259624D01*
X125817824Y-117478114D01*
X125717265Y-117720886D01*
X125666000Y-117978612D01*
X125666000Y-118241388D01*
X125717265Y-118499114D01*
X125817824Y-118741886D01*
X125963814Y-118960376D01*
X126149624Y-119146186D01*
X126368114Y-119292176D01*
X126418214Y-119312928D01*
X126301000Y-119312928D01*
X126176518Y-119325188D01*
X126056820Y-119361498D01*
X125946506Y-119420463D01*
X125849815Y-119499815D01*
X125770463Y-119596506D01*
X125711498Y-119706820D01*
X125675188Y-119826518D01*
X125662928Y-119951000D01*
X116230000Y-119951000D01*
X116230000Y-117066994D01*
X120602611Y-117066994D01*
X120759525Y-117383322D01*
X121135585Y-117574877D01*
X121541790Y-117689386D01*
X121962528Y-117722447D01*
X122381633Y-117672792D01*
X122782997Y-117542327D01*
X123080475Y-117383322D01*
X123237389Y-117066994D01*
X121920000Y-115749605D01*
X120602611Y-117066994D01*
X116230000Y-117066994D01*
X116230000Y-115612528D01*
X119767553Y-115612528D01*
X119817208Y-116031633D01*
X119947673Y-116432997D01*
X120106678Y-116730475D01*
X120423006Y-116887389D01*
X121740395Y-115570000D01*
X122099605Y-115570000D01*
X123416994Y-116887389D01*
X123733322Y-116730475D01*
X123924877Y-116354415D01*
X124039386Y-115948210D01*
X124072447Y-115527472D01*
X124022792Y-115108367D01*
X123892327Y-114707003D01*
X123733322Y-114409525D01*
X123416994Y-114252611D01*
X122099605Y-115570000D01*
X121740395Y-115570000D01*
X120423006Y-114252611D01*
X120106678Y-114409525D01*
X119915123Y-114785585D01*
X119800614Y-115191790D01*
X119767553Y-115612528D01*
X116230000Y-115612528D01*
X116230000Y-114073006D01*
X120602611Y-114073006D01*
X121920000Y-115390395D01*
X123237389Y-114073006D01*
X123080475Y-113756678D01*
X122704415Y-113565123D01*
X122298210Y-113450614D01*
X121877472Y-113417553D01*
X121458367Y-113467208D01*
X121057003Y-113597673D01*
X120759525Y-113756678D01*
X120602611Y-114073006D01*
X116230000Y-114073006D01*
X116230000Y-113157000D01*
X147277667Y-113157000D01*
X152273000Y-116903500D01*
%TO.N,GNDREF*%
G36*
X138303000Y-77522606D02*
G01*
X138303000Y-90170000D01*
X138305440Y-90194776D01*
X138312667Y-90218601D01*
X138324403Y-90240557D01*
X138340197Y-90259803D01*
X139610197Y-91529803D01*
X139629443Y-91545597D01*
X139651399Y-91557333D01*
X139675224Y-91564560D01*
X139700000Y-91567000D01*
X149815451Y-91567000D01*
X156130664Y-96619170D01*
X156151535Y-96632743D01*
X156174654Y-96641982D01*
X156210000Y-96647000D01*
X163787667Y-96647000D01*
X168833800Y-100431600D01*
X168855085Y-100444514D01*
X168878481Y-100453027D01*
X168910000Y-100457000D01*
X169742250Y-100457000D01*
X169746579Y-100458793D01*
X170033652Y-100515895D01*
X170326348Y-100515895D01*
X170613421Y-100458793D01*
X170617750Y-100457000D01*
X171397394Y-100457000D01*
X172593000Y-101652606D01*
X172593000Y-104013000D01*
X170307184Y-104013000D01*
X170538161Y-103979492D01*
X170814062Y-103881766D01*
X170951690Y-103808202D01*
X171029435Y-103559035D01*
X170180000Y-102709600D01*
X169330565Y-103559035D01*
X169408310Y-103808202D01*
X169672503Y-103934191D01*
X169956199Y-104006218D01*
X170085799Y-104013000D01*
X142288285Y-104013000D01*
X140696963Y-102598491D01*
X168688481Y-102598491D01*
X168730503Y-102888156D01*
X168828229Y-103164057D01*
X168901793Y-103301685D01*
X169150960Y-103379430D01*
X170000395Y-102529995D01*
X170359605Y-102529995D01*
X171209040Y-103379430D01*
X171458207Y-103301685D01*
X171584196Y-103037492D01*
X171656223Y-102753796D01*
X171671519Y-102461499D01*
X171629497Y-102171834D01*
X171531771Y-101895933D01*
X171458207Y-101758305D01*
X171209040Y-101680560D01*
X170359605Y-102529995D01*
X170000395Y-102529995D01*
X169150960Y-101680560D01*
X168901793Y-101758305D01*
X168775804Y-102022498D01*
X168703777Y-102306194D01*
X168688481Y-102598491D01*
X140696963Y-102598491D01*
X139462235Y-101500955D01*
X169330565Y-101500955D01*
X170180000Y-102350390D01*
X171029435Y-101500955D01*
X170951690Y-101251788D01*
X170687497Y-101125799D01*
X170403801Y-101053772D01*
X170111504Y-101038476D01*
X169821839Y-101080498D01*
X169545938Y-101178224D01*
X169408310Y-101251788D01*
X169330565Y-101500955D01*
X139462235Y-101500955D01*
X130894374Y-93885079D01*
X130874235Y-93870442D01*
X130851627Y-93860016D01*
X130827419Y-93854200D01*
X130810000Y-93853000D01*
X116230000Y-93853000D01*
X116230000Y-91666994D01*
X120602611Y-91666994D01*
X120759525Y-91983322D01*
X121135585Y-92174877D01*
X121541790Y-92289386D01*
X121962528Y-92322447D01*
X122381633Y-92272792D01*
X122782997Y-92142327D01*
X123080475Y-91983322D01*
X123237389Y-91666994D01*
X121920000Y-90349605D01*
X120602611Y-91666994D01*
X116230000Y-91666994D01*
X116230000Y-90212528D01*
X119767553Y-90212528D01*
X119817208Y-90631633D01*
X119947673Y-91032997D01*
X120106678Y-91330475D01*
X120423006Y-91487389D01*
X121740395Y-90170000D01*
X122099605Y-90170000D01*
X123416994Y-91487389D01*
X123733322Y-91330475D01*
X123924877Y-90954415D01*
X124039386Y-90548210D01*
X124072447Y-90127472D01*
X124022792Y-89708367D01*
X123892327Y-89307003D01*
X123733322Y-89009525D01*
X123416994Y-88852611D01*
X122099605Y-90170000D01*
X121740395Y-90170000D01*
X120423006Y-88852611D01*
X120106678Y-89009525D01*
X119915123Y-89385585D01*
X119800614Y-89791790D01*
X119767553Y-90212528D01*
X116230000Y-90212528D01*
X116230000Y-88673006D01*
X120602611Y-88673006D01*
X121920000Y-89990395D01*
X123237389Y-88673006D01*
X123080475Y-88356678D01*
X122704415Y-88165123D01*
X122298210Y-88050614D01*
X121877472Y-88017553D01*
X121458367Y-88067208D01*
X121057003Y-88197673D01*
X120759525Y-88356678D01*
X120602611Y-88673006D01*
X116230000Y-88673006D01*
X116230000Y-84391000D01*
X125662928Y-84391000D01*
X125662928Y-85789000D01*
X125675188Y-85913482D01*
X125711498Y-86033180D01*
X125770463Y-86143494D01*
X125849815Y-86240185D01*
X125946506Y-86319537D01*
X126056820Y-86378502D01*
X126176518Y-86414812D01*
X126301000Y-86427072D01*
X127699000Y-86427072D01*
X127823482Y-86414812D01*
X127943180Y-86378502D01*
X128053494Y-86319537D01*
X128150185Y-86240185D01*
X128229537Y-86143494D01*
X128288502Y-86033180D01*
X128324812Y-85913482D01*
X128337072Y-85789000D01*
X128337072Y-84391000D01*
X128324812Y-84266518D01*
X128288502Y-84146820D01*
X128229537Y-84036506D01*
X128150185Y-83939815D01*
X128053494Y-83860463D01*
X127943180Y-83801498D01*
X127823482Y-83765188D01*
X127699000Y-83752928D01*
X127581786Y-83752928D01*
X127631886Y-83732176D01*
X127850376Y-83586186D01*
X128036186Y-83400376D01*
X128182176Y-83181886D01*
X128282735Y-82939114D01*
X128334000Y-82681388D01*
X128334000Y-82418612D01*
X128282735Y-82160886D01*
X128182176Y-81918114D01*
X128036186Y-81699624D01*
X127850376Y-81513814D01*
X127631886Y-81367824D01*
X127389114Y-81267265D01*
X127131388Y-81216000D01*
X126868612Y-81216000D01*
X126610886Y-81267265D01*
X126368114Y-81367824D01*
X126149624Y-81513814D01*
X125963814Y-81699624D01*
X125817824Y-81918114D01*
X125717265Y-82160886D01*
X125666000Y-82418612D01*
X125666000Y-82681388D01*
X125717265Y-82939114D01*
X125817824Y-83181886D01*
X125963814Y-83400376D01*
X126149624Y-83586186D01*
X126368114Y-83732176D01*
X126418214Y-83752928D01*
X126301000Y-83752928D01*
X126176518Y-83765188D01*
X126056820Y-83801498D01*
X125946506Y-83860463D01*
X125849815Y-83939815D01*
X125770463Y-84036506D01*
X125711498Y-84146820D01*
X125675188Y-84266518D01*
X125662928Y-84391000D01*
X116230000Y-84391000D01*
X116230000Y-81506994D01*
X120602611Y-81506994D01*
X120759525Y-81823322D01*
X121135585Y-82014877D01*
X121541790Y-82129386D01*
X121962528Y-82162447D01*
X122381633Y-82112792D01*
X122782997Y-81982327D01*
X123080475Y-81823322D01*
X123237389Y-81506994D01*
X121920000Y-80189605D01*
X120602611Y-81506994D01*
X116230000Y-81506994D01*
X116230000Y-80052528D01*
X119767553Y-80052528D01*
X119817208Y-80471633D01*
X119947673Y-80872997D01*
X120106678Y-81170475D01*
X120423006Y-81327389D01*
X121740395Y-80010000D01*
X122099605Y-80010000D01*
X123416994Y-81327389D01*
X123733322Y-81170475D01*
X123924877Y-80794415D01*
X124039386Y-80388210D01*
X124072447Y-79967472D01*
X124022792Y-79548367D01*
X123892327Y-79147003D01*
X123733322Y-78849525D01*
X123416994Y-78692611D01*
X122099605Y-80010000D01*
X121740395Y-80010000D01*
X120423006Y-78692611D01*
X120106678Y-78849525D01*
X119915123Y-79225585D01*
X119800614Y-79631790D01*
X119767553Y-80052528D01*
X116230000Y-80052528D01*
X116230000Y-78513006D01*
X120602611Y-78513006D01*
X121920000Y-79830395D01*
X123237389Y-78513006D01*
X123080475Y-78196678D01*
X122704415Y-78005123D01*
X122298210Y-77890614D01*
X121877472Y-77857553D01*
X121458367Y-77907208D01*
X121057003Y-78037673D01*
X120759525Y-78196678D01*
X120602611Y-78513006D01*
X116230000Y-78513006D01*
X116230000Y-76327000D01*
X137107394Y-76327000D01*
X138303000Y-77522606D01*
G37*
X138303000Y-77522606D02*
X138303000Y-90170000D01*
X138305440Y-90194776D01*
X138312667Y-90218601D01*
X138324403Y-90240557D01*
X138340197Y-90259803D01*
X139610197Y-91529803D01*
X139629443Y-91545597D01*
X139651399Y-91557333D01*
X139675224Y-91564560D01*
X139700000Y-91567000D01*
X149815451Y-91567000D01*
X156130664Y-96619170D01*
X156151535Y-96632743D01*
X156174654Y-96641982D01*
X156210000Y-96647000D01*
X163787667Y-96647000D01*
X168833800Y-100431600D01*
X168855085Y-100444514D01*
X168878481Y-100453027D01*
X168910000Y-100457000D01*
X169742250Y-100457000D01*
X169746579Y-100458793D01*
X170033652Y-100515895D01*
X170326348Y-100515895D01*
X170613421Y-100458793D01*
X170617750Y-100457000D01*
X171397394Y-100457000D01*
X172593000Y-101652606D01*
X172593000Y-104013000D01*
X170307184Y-104013000D01*
X170538161Y-103979492D01*
X170814062Y-103881766D01*
X170951690Y-103808202D01*
X171029435Y-103559035D01*
X170180000Y-102709600D01*
X169330565Y-103559035D01*
X169408310Y-103808202D01*
X169672503Y-103934191D01*
X169956199Y-104006218D01*
X170085799Y-104013000D01*
X142288285Y-104013000D01*
X140696963Y-102598491D01*
X168688481Y-102598491D01*
X168730503Y-102888156D01*
X168828229Y-103164057D01*
X168901793Y-103301685D01*
X169150960Y-103379430D01*
X170000395Y-102529995D01*
X170359605Y-102529995D01*
X171209040Y-103379430D01*
X171458207Y-103301685D01*
X171584196Y-103037492D01*
X171656223Y-102753796D01*
X171671519Y-102461499D01*
X171629497Y-102171834D01*
X171531771Y-101895933D01*
X171458207Y-101758305D01*
X171209040Y-101680560D01*
X170359605Y-102529995D01*
X170000395Y-102529995D01*
X169150960Y-101680560D01*
X168901793Y-101758305D01*
X168775804Y-102022498D01*
X168703777Y-102306194D01*
X168688481Y-102598491D01*
X140696963Y-102598491D01*
X139462235Y-101500955D01*
X169330565Y-101500955D01*
X170180000Y-102350390D01*
X171029435Y-101500955D01*
X170951690Y-101251788D01*
X170687497Y-101125799D01*
X170403801Y-101053772D01*
X170111504Y-101038476D01*
X169821839Y-101080498D01*
X169545938Y-101178224D01*
X169408310Y-101251788D01*
X169330565Y-101500955D01*
X139462235Y-101500955D01*
X130894374Y-93885079D01*
X130874235Y-93870442D01*
X130851627Y-93860016D01*
X130827419Y-93854200D01*
X130810000Y-93853000D01*
X116230000Y-93853000D01*
X116230000Y-91666994D01*
X120602611Y-91666994D01*
X120759525Y-91983322D01*
X121135585Y-92174877D01*
X121541790Y-92289386D01*
X121962528Y-92322447D01*
X122381633Y-92272792D01*
X122782997Y-92142327D01*
X123080475Y-91983322D01*
X123237389Y-91666994D01*
X121920000Y-90349605D01*
X120602611Y-91666994D01*
X116230000Y-91666994D01*
X116230000Y-90212528D01*
X119767553Y-90212528D01*
X119817208Y-90631633D01*
X119947673Y-91032997D01*
X120106678Y-91330475D01*
X120423006Y-91487389D01*
X121740395Y-90170000D01*
X122099605Y-90170000D01*
X123416994Y-91487389D01*
X123733322Y-91330475D01*
X123924877Y-90954415D01*
X124039386Y-90548210D01*
X124072447Y-90127472D01*
X124022792Y-89708367D01*
X123892327Y-89307003D01*
X123733322Y-89009525D01*
X123416994Y-88852611D01*
X122099605Y-90170000D01*
X121740395Y-90170000D01*
X120423006Y-88852611D01*
X120106678Y-89009525D01*
X119915123Y-89385585D01*
X119800614Y-89791790D01*
X119767553Y-90212528D01*
X116230000Y-90212528D01*
X116230000Y-88673006D01*
X120602611Y-88673006D01*
X121920000Y-89990395D01*
X123237389Y-88673006D01*
X123080475Y-88356678D01*
X122704415Y-88165123D01*
X122298210Y-88050614D01*
X121877472Y-88017553D01*
X121458367Y-88067208D01*
X121057003Y-88197673D01*
X120759525Y-88356678D01*
X120602611Y-88673006D01*
X116230000Y-88673006D01*
X116230000Y-84391000D01*
X125662928Y-84391000D01*
X125662928Y-85789000D01*
X125675188Y-85913482D01*
X125711498Y-86033180D01*
X125770463Y-86143494D01*
X125849815Y-86240185D01*
X125946506Y-86319537D01*
X126056820Y-86378502D01*
X126176518Y-86414812D01*
X126301000Y-86427072D01*
X127699000Y-86427072D01*
X127823482Y-86414812D01*
X127943180Y-86378502D01*
X128053494Y-86319537D01*
X128150185Y-86240185D01*
X128229537Y-86143494D01*
X128288502Y-86033180D01*
X128324812Y-85913482D01*
X128337072Y-85789000D01*
X128337072Y-84391000D01*
X128324812Y-84266518D01*
X128288502Y-84146820D01*
X128229537Y-84036506D01*
X128150185Y-83939815D01*
X128053494Y-83860463D01*
X127943180Y-83801498D01*
X127823482Y-83765188D01*
X127699000Y-83752928D01*
X127581786Y-83752928D01*
X127631886Y-83732176D01*
X127850376Y-83586186D01*
X128036186Y-83400376D01*
X128182176Y-83181886D01*
X128282735Y-82939114D01*
X128334000Y-82681388D01*
X128334000Y-82418612D01*
X128282735Y-82160886D01*
X128182176Y-81918114D01*
X128036186Y-81699624D01*
X127850376Y-81513814D01*
X127631886Y-81367824D01*
X127389114Y-81267265D01*
X127131388Y-81216000D01*
X126868612Y-81216000D01*
X126610886Y-81267265D01*
X126368114Y-81367824D01*
X126149624Y-81513814D01*
X125963814Y-81699624D01*
X125817824Y-81918114D01*
X125717265Y-82160886D01*
X125666000Y-82418612D01*
X125666000Y-82681388D01*
X125717265Y-82939114D01*
X125817824Y-83181886D01*
X125963814Y-83400376D01*
X126149624Y-83586186D01*
X126368114Y-83732176D01*
X126418214Y-83752928D01*
X126301000Y-83752928D01*
X126176518Y-83765188D01*
X126056820Y-83801498D01*
X125946506Y-83860463D01*
X125849815Y-83939815D01*
X125770463Y-84036506D01*
X125711498Y-84146820D01*
X125675188Y-84266518D01*
X125662928Y-84391000D01*
X116230000Y-84391000D01*
X116230000Y-81506994D01*
X120602611Y-81506994D01*
X120759525Y-81823322D01*
X121135585Y-82014877D01*
X121541790Y-82129386D01*
X121962528Y-82162447D01*
X122381633Y-82112792D01*
X122782997Y-81982327D01*
X123080475Y-81823322D01*
X123237389Y-81506994D01*
X121920000Y-80189605D01*
X120602611Y-81506994D01*
X116230000Y-81506994D01*
X116230000Y-80052528D01*
X119767553Y-80052528D01*
X119817208Y-80471633D01*
X119947673Y-80872997D01*
X120106678Y-81170475D01*
X120423006Y-81327389D01*
X121740395Y-80010000D01*
X122099605Y-80010000D01*
X123416994Y-81327389D01*
X123733322Y-81170475D01*
X123924877Y-80794415D01*
X124039386Y-80388210D01*
X124072447Y-79967472D01*
X124022792Y-79548367D01*
X123892327Y-79147003D01*
X123733322Y-78849525D01*
X123416994Y-78692611D01*
X122099605Y-80010000D01*
X121740395Y-80010000D01*
X120423006Y-78692611D01*
X120106678Y-78849525D01*
X119915123Y-79225585D01*
X119800614Y-79631790D01*
X119767553Y-80052528D01*
X116230000Y-80052528D01*
X116230000Y-78513006D01*
X120602611Y-78513006D01*
X121920000Y-79830395D01*
X123237389Y-78513006D01*
X123080475Y-78196678D01*
X122704415Y-78005123D01*
X122298210Y-77890614D01*
X121877472Y-77857553D01*
X121458367Y-77907208D01*
X121057003Y-78037673D01*
X120759525Y-78196678D01*
X120602611Y-78513006D01*
X116230000Y-78513006D01*
X116230000Y-76327000D01*
X137107394Y-76327000D01*
X138303000Y-77522606D01*
%TD*%
M02*
