%TF.GenerationSoftware,KiCad,Pcbnew,(5.1.6)-1*%
%TF.CreationDate,2020-09-22T13:28:35-07:00*%
%TF.ProjectId,awg-tx-shunt,6177672d-7478-42d7-9368-756e742e6b69,rev?*%
%TF.SameCoordinates,Original*%
%TF.FileFunction,Soldermask,Bot*%
%TF.FilePolarity,Negative*%
%FSLAX46Y46*%
G04 Gerber Fmt 4.6, Leading zero omitted, Abs format (unit mm)*
G04 Created by KiCad (PCBNEW (5.1.6)-1) date 2020-09-22 13:28:35*
%MOMM*%
%LPD*%
G01*
G04 APERTURE LIST*
%ADD10C,0.900000*%
%ADD11C,6.500000*%
%ADD12C,1.801800*%
%ADD13C,3.115000*%
%ADD14C,1.498000*%
%ADD15R,1.498000X1.498000*%
G04 APERTURE END LIST*
D10*
%TO.C,H4*%
X175687056Y-153242944D03*
X173990000Y-152540000D03*
X172292944Y-153242944D03*
X171590000Y-154940000D03*
X172292944Y-156637056D03*
X173990000Y-157340000D03*
X175687056Y-156637056D03*
X176390000Y-154940000D03*
D11*
X173990000Y-154940000D03*
%TD*%
D10*
%TO.C,H3*%
X121077056Y-153242944D03*
X119380000Y-152540000D03*
X117682944Y-153242944D03*
X116980000Y-154940000D03*
X117682944Y-156637056D03*
X119380000Y-157340000D03*
X121077056Y-156637056D03*
X121780000Y-154940000D03*
D11*
X119380000Y-154940000D03*
%TD*%
D10*
%TO.C,H2*%
X175687056Y-47832944D03*
X173990000Y-47130000D03*
X172292944Y-47832944D03*
X171590000Y-49530000D03*
X172292944Y-51227056D03*
X173990000Y-51930000D03*
X175687056Y-51227056D03*
X176390000Y-49530000D03*
D11*
X173990000Y-49530000D03*
%TD*%
D10*
%TO.C,H1*%
X121077056Y-47832944D03*
X119380000Y-47130000D03*
X117682944Y-47832944D03*
X116980000Y-49530000D03*
X117682944Y-51227056D03*
X119380000Y-51930000D03*
X121077056Y-51227056D03*
X121780000Y-49530000D03*
D11*
X119380000Y-49530000D03*
%TD*%
D12*
%TO.C,E1*%
X170180000Y-113030000D03*
X170180000Y-109529997D03*
X170180000Y-106029996D03*
X170180000Y-102529995D03*
X170180000Y-99029995D03*
X170180000Y-95529994D03*
%TD*%
D13*
%TO.C,J5*%
X121920000Y-90170000D03*
X121920000Y-80010000D03*
D14*
X127000000Y-82550000D03*
D15*
X127000000Y-85090000D03*
%TD*%
D13*
%TO.C,J4*%
X121920000Y-69850000D03*
X121920000Y-59690000D03*
D14*
X127000000Y-62230000D03*
D15*
X127000000Y-64770000D03*
%TD*%
D13*
%TO.C,J3*%
X121920000Y-107950000D03*
X121920000Y-97790000D03*
D14*
X127000000Y-100330000D03*
D15*
X127000000Y-102870000D03*
%TD*%
D13*
%TO.C,J2*%
X121920000Y-125730000D03*
X121920000Y-115570000D03*
D14*
X127000000Y-118110000D03*
D15*
X127000000Y-120650000D03*
%TD*%
D13*
%TO.C,J1*%
X121920000Y-146050000D03*
X121920000Y-135890000D03*
D14*
X127000000Y-138430000D03*
D15*
X127000000Y-140970000D03*
%TD*%
M02*
