M48
; DRILL file {KiCad (5.1.6)-1} date 09/22/20 13:28:26
; FORMAT={-:-/ absolute / inch / decimal}
; #@! TF.CreationDate,2020-09-22T13:28:26-07:00
; #@! TF.GenerationSoftware,Kicad,Pcbnew,(5.1.6)-1
FMAT,2
INCH
T1C0.0197
T2C0.0350
T3C0.0470
T4C0.0791
T5C0.0827
T6C0.1260
%
G90
G05
T1
X4.6055Y-1.95
X4.6332Y-1.8832
X4.6332Y-2.0168
X4.7Y-1.8555
X4.7Y-2.0445
X4.7668Y-1.8832
X4.7668Y-2.0168
X4.7945Y-1.95
X6.7555Y-1.95
X6.7832Y-1.8832
X6.7832Y-2.0168
X6.85Y-1.8555
X6.85Y-2.0445
X6.9168Y-1.8832
X6.9168Y-2.0168
X6.9445Y-1.95
X6.7555Y-6.1
X6.7832Y-6.0332
X6.7832Y-6.1668
X6.85Y-6.0055
X6.85Y-6.1945
X6.9168Y-6.0332
X6.9168Y-6.1668
X6.9445Y-6.1
X4.6055Y-6.1
X4.6332Y-6.0332
X4.6332Y-6.1668
X4.7Y-6.0055
X4.7Y-6.1945
X4.7668Y-6.0332
X4.7668Y-6.1668
X4.7945Y-6.1
T2
X5.0Y-3.95
X5.0Y-4.05
X5.0Y-5.45
X5.0Y-5.55
X5.0Y-2.45
X5.0Y-2.55
X5.0Y-3.25
X5.0Y-3.35
X5.0Y-4.65
X5.0Y-4.75
T3
X6.7Y-3.761
X6.7Y-3.8988
X6.7Y-4.0366
X6.7Y-4.1744
X6.7Y-4.3122
X6.7Y-4.45
T4
X4.8Y-3.85
X4.8Y-4.25
X4.8Y-5.35
X4.8Y-5.75
X4.8Y-2.35
X4.8Y-2.75
X4.8Y-3.15
X4.8Y-3.55
X4.8Y-4.55
X4.8Y-4.95
T5
X5.2Y-2.1
X5.25Y-6.0
X5.35Y-4.7
X5.55Y-5.6
X5.7Y-2.1
X5.7Y-3.8
X5.85Y-6.0
X6.25Y-2.1
X6.25Y-3.6
X6.3Y-2.8
X6.3Y-3.95
X6.3Y-4.7
X6.5Y-4.4
X6.55Y-3.3
X6.55Y-3.6
X6.6Y-5.65
T6
X4.7Y-1.95
X6.85Y-1.95
X6.85Y-6.1
X4.7Y-6.1
T0
M30
