%TF.GenerationSoftware,KiCad,Pcbnew,(5.1.6)-1*%
%TF.CreationDate,2020-09-14T11:12:27-07:00*%
%TF.ProjectId,awg-tx-shunt,6177672d-7478-42d7-9368-756e742e6b69,rev?*%
%TF.SameCoordinates,Original*%
%TF.FileFunction,Copper,L1,Top*%
%TF.FilePolarity,Positive*%
%FSLAX46Y46*%
G04 Gerber Fmt 4.6, Leading zero omitted, Abs format (unit mm)*
G04 Created by KiCad (PCBNEW (5.1.6)-1) date 2020-09-14 11:12:27*
%MOMM*%
%LPD*%
G01*
G04 APERTURE LIST*
%TA.AperFunction,ComponentPad*%
%ADD10C,0.800000*%
%TD*%
%TA.AperFunction,ComponentPad*%
%ADD11C,6.400000*%
%TD*%
%TA.AperFunction,SMDPad,CuDef*%
%ADD12R,2.946400X7.620000*%
%TD*%
%TA.AperFunction,SMDPad,CuDef*%
%ADD13R,2.946400X1.676400*%
%TD*%
%TA.AperFunction,ComponentPad*%
%ADD14C,1.701800*%
%TD*%
%TA.AperFunction,ComponentPad*%
%ADD15O,2.500000X1.600000*%
%TD*%
%TA.AperFunction,ComponentPad*%
%ADD16O,7.000000X3.500000*%
%TD*%
%TA.AperFunction,SMDPad,CuDef*%
%ADD17R,2.540000X1.300000*%
%TD*%
%TA.AperFunction,ViaPad*%
%ADD18C,0.800000*%
%TD*%
%TA.AperFunction,Conductor*%
%ADD19C,1.900000*%
%TD*%
%TA.AperFunction,Conductor*%
%ADD20C,1.400000*%
%TD*%
%TA.AperFunction,Conductor*%
%ADD21C,0.600000*%
%TD*%
%TA.AperFunction,Conductor*%
%ADD22C,0.254000*%
%TD*%
G04 APERTURE END LIST*
D10*
%TO.P,H4,1*%
%TO.N,N/C*%
X140127056Y-127842944D03*
X138430000Y-127140000D03*
X136732944Y-127842944D03*
X136030000Y-129540000D03*
X136732944Y-131237056D03*
X138430000Y-131940000D03*
X140127056Y-131237056D03*
X140830000Y-129540000D03*
D11*
X138430000Y-129540000D03*
%TD*%
D10*
%TO.P,H3,1*%
%TO.N,N/C*%
X140127056Y-78312944D03*
X138430000Y-77610000D03*
X136732944Y-78312944D03*
X136030000Y-80010000D03*
X136732944Y-81707056D03*
X138430000Y-82410000D03*
X140127056Y-81707056D03*
X140830000Y-80010000D03*
D11*
X138430000Y-80010000D03*
%TD*%
D10*
%TO.P,H2,1*%
%TO.N,N/C*%
X81707056Y-127842944D03*
X80010000Y-127140000D03*
X78312944Y-127842944D03*
X77610000Y-129540000D03*
X78312944Y-131237056D03*
X80010000Y-131940000D03*
X81707056Y-131237056D03*
X82410000Y-129540000D03*
D11*
X80010000Y-129540000D03*
%TD*%
D10*
%TO.P,H1,1*%
%TO.N,N/C*%
X81707056Y-78312944D03*
X80010000Y-77610000D03*
X78312944Y-78312944D03*
X77610000Y-80010000D03*
X78312944Y-81707056D03*
X80010000Y-82410000D03*
X81707056Y-81707056D03*
X82410000Y-80010000D03*
D11*
X80010000Y-80010000D03*
%TD*%
D12*
%TO.P,R1,4*%
%TO.N,/TX2*%
X91516200Y-101625400D03*
D13*
%TO.P,R1,3*%
%TO.N,/SHUNT_P*%
X91516200Y-107086400D03*
%TO.P,R1,2*%
%TO.N,/SHUNT_N*%
X98983800Y-107086400D03*
D12*
%TO.P,R1,1*%
%TO.N,Net-(L1-PadP$4)*%
X98983800Y-101625400D03*
%TD*%
D14*
%TO.P,J1,6*%
%TO.N,/TX1*%
X82550000Y-94259994D03*
%TO.P,J1,5*%
%TO.N,/TX2*%
X82550000Y-97759995D03*
%TO.P,J1,4*%
%TO.N,GNDPWR*%
X82550000Y-101259995D03*
%TO.P,J1,3*%
X82550000Y-104759996D03*
%TO.P,J1,2*%
X82550000Y-108259997D03*
%TO.P,J1,1*%
X82550000Y-111760000D03*
%TD*%
D15*
%TO.P,J2,2*%
%TO.N,Net-(J2-Pad2)*%
X129540000Y-91440000D03*
%TO.P,J2,1*%
%TO.N,Net-(J2-Pad1)*%
X129540000Y-93980000D03*
D16*
%TO.P,J2,2*%
%TO.N,Net-(J2-Pad2)*%
X134620000Y-99060000D03*
X134620000Y-88900000D03*
%TD*%
%TO.P,J3,2*%
%TO.N,Net-(J3-Pad2)*%
X134620000Y-113030000D03*
X134620000Y-123190000D03*
D15*
%TO.P,J3,1*%
%TO.N,Net-(J3-Pad1)*%
X129540000Y-118110000D03*
%TO.P,J3,2*%
%TO.N,Net-(J3-Pad2)*%
X129540000Y-115570000D03*
%TD*%
D17*
%TO.P,L1,P$1*%
%TO.N,N/C*%
X104080000Y-88980000D03*
%TO.P,L1,P$2*%
%TO.N,/TX1*%
X104080000Y-91480000D03*
%TO.P,L1,P$3*%
%TO.N,N/C*%
X104080000Y-93980000D03*
%TO.P,L1,P$4*%
%TO.N,Net-(L1-PadP$4)*%
X104080000Y-96480000D03*
%TO.P,L1,P$5*%
%TO.N,N/C*%
X104080000Y-98980000D03*
%TO.P,L1,P$6*%
X119440000Y-98980000D03*
%TO.P,L1,P$7*%
%TO.N,Net-(J2-Pad1)*%
X119440000Y-96480000D03*
%TO.P,L1,P$8*%
%TO.N,N/C*%
X119440000Y-93980000D03*
%TO.P,L1,P$9*%
%TO.N,Net-(J2-Pad2)*%
X119440000Y-91480000D03*
%TO.P,L1,P$10*%
%TO.N,N/C*%
X119440000Y-88980000D03*
%TD*%
%TO.P,L2,P$10*%
%TO.N,N/C*%
X119440000Y-110570000D03*
%TO.P,L2,P$9*%
%TO.N,Net-(J3-Pad1)*%
X119440000Y-113070000D03*
%TO.P,L2,P$8*%
%TO.N,N/C*%
X119440000Y-115570000D03*
%TO.P,L2,P$7*%
%TO.N,Net-(J3-Pad2)*%
X119440000Y-118070000D03*
%TO.P,L2,P$6*%
%TO.N,N/C*%
X119440000Y-120570000D03*
%TO.P,L2,P$5*%
X104080000Y-120570000D03*
%TO.P,L2,P$4*%
%TO.N,/SHUNT_P*%
X104080000Y-118070000D03*
%TO.P,L2,P$3*%
%TO.N,N/C*%
X104080000Y-115570000D03*
%TO.P,L2,P$2*%
%TO.N,/SHUNT_N*%
X104080000Y-113070000D03*
%TO.P,L2,P$1*%
%TO.N,N/C*%
X104080000Y-110570000D03*
%TD*%
D18*
%TO.N,GNDPWR*%
X96520000Y-82550000D03*
X129540000Y-105410000D03*
X111760000Y-105410000D03*
X111760000Y-82550000D03*
X127000000Y-82550000D03*
X127000000Y-129540000D03*
X111760000Y-128270000D03*
X96520000Y-128270000D03*
X87630000Y-120650000D03*
X87630000Y-87630000D03*
X138430000Y-118110000D03*
X138430000Y-93980000D03*
%TD*%
D19*
%TO.N,Net-(J2-Pad2)*%
X129500000Y-91480000D02*
X129540000Y-91440000D01*
X119440000Y-91480000D02*
X129500000Y-91480000D01*
X132080000Y-91440000D02*
X134620000Y-88900000D01*
X130810000Y-91440000D02*
X132080000Y-91440000D01*
X129540000Y-91440000D02*
X130810000Y-91440000D01*
X119440000Y-91480000D02*
X121290002Y-91480000D01*
X134620000Y-88900000D02*
X134620000Y-99060000D01*
D20*
%TO.N,Net-(J2-Pad1)*%
X120840002Y-96480000D02*
X123190000Y-94130002D01*
X119440000Y-96480000D02*
X120840002Y-96480000D01*
X129389998Y-94130002D02*
X129540000Y-93980000D01*
X123190000Y-94130002D02*
X129389998Y-94130002D01*
D21*
%TO.N,Net-(J3-Pad2)*%
X131765823Y-123190000D02*
X134620000Y-123190000D01*
X119440000Y-118070000D02*
X126645823Y-118070000D01*
X129854177Y-115570000D02*
X129540000Y-115570000D01*
X128185833Y-119610010D02*
X130611324Y-119610010D01*
X134620000Y-123190000D02*
X131765822Y-123190000D01*
X131765822Y-123190000D02*
X127477911Y-118902089D01*
X126645823Y-118070000D02*
X127477911Y-118902089D01*
X127477911Y-118902089D02*
X128185833Y-119610010D01*
X131390000Y-115570000D02*
X129540000Y-115570000D01*
X132095667Y-116275667D02*
X131390000Y-115570000D01*
X130611324Y-119610010D02*
X132095667Y-118125667D01*
X132095667Y-115554333D02*
X134620000Y-113030000D01*
X132095667Y-116855667D02*
X132095667Y-115554333D01*
X132095667Y-116855667D02*
X132095667Y-116275667D01*
X132095667Y-118125667D02*
X132095667Y-116855667D01*
%TO.N,Net-(J3-Pad1)*%
X129225823Y-118110000D02*
X129540000Y-118110000D01*
X129090000Y-118110000D02*
X129540000Y-118110000D01*
X123890002Y-116840000D02*
X127820000Y-116840000D01*
X127820000Y-116840000D02*
X129090000Y-118110000D01*
X119440000Y-113070000D02*
X120120002Y-113070000D01*
X120120002Y-113070000D02*
X123890002Y-116840000D01*
D20*
%TO.N,/TX1*%
X104080000Y-91480000D02*
X102830000Y-91480000D01*
X100050006Y-94259994D02*
X82550000Y-94259994D01*
X102830000Y-91480000D02*
X100050006Y-94259994D01*
D19*
%TO.N,/TX2*%
X86415405Y-101625400D02*
X82550000Y-97759995D01*
X91516200Y-101625400D02*
X86415405Y-101625400D01*
D21*
%TO.N,/SHUNT_P*%
X91516200Y-108524600D02*
X101061600Y-118070000D01*
X101061600Y-118070000D02*
X104080000Y-118070000D01*
X91516200Y-107086400D02*
X91516200Y-108524600D01*
%TO.N,/SHUNT_N*%
X98983800Y-109843800D02*
X98983800Y-107086400D01*
X102210000Y-113070000D02*
X98983800Y-109843800D01*
X102210000Y-113070000D02*
X101909999Y-112769999D01*
X104080000Y-113070000D02*
X102210000Y-113070000D01*
D19*
%TO.N,Net-(L1-PadP$4)*%
X98983800Y-98406200D02*
X98983800Y-101625400D01*
X100910000Y-96480000D02*
X98983800Y-98406200D01*
X104080000Y-96480000D02*
X100910000Y-96480000D01*
%TD*%
D22*
%TO.N,GNDPWR*%
G36*
X135985330Y-77031161D02*
G01*
X135451161Y-77565330D01*
X135031467Y-78193446D01*
X134742377Y-78891372D01*
X134595000Y-79632285D01*
X134595000Y-80387715D01*
X134742377Y-81128628D01*
X135031467Y-81826554D01*
X135451161Y-82454670D01*
X135985330Y-82988839D01*
X136613446Y-83408533D01*
X137311372Y-83697623D01*
X138052285Y-83845000D01*
X138807715Y-83845000D01*
X139548628Y-83697623D01*
X140246554Y-83408533D01*
X140874670Y-82988839D01*
X141408839Y-82454670D01*
X141580000Y-82198509D01*
X141580001Y-93947572D01*
X141580000Y-93947582D01*
X141580001Y-126967572D01*
X141580000Y-126967582D01*
X141580000Y-127351491D01*
X141408839Y-127095330D01*
X140874670Y-126561161D01*
X140246554Y-126141467D01*
X139548628Y-125852377D01*
X138807715Y-125705000D01*
X138052285Y-125705000D01*
X137311372Y-125852377D01*
X136613446Y-126141467D01*
X135985330Y-126561161D01*
X135451161Y-127095330D01*
X135031467Y-127723446D01*
X134742377Y-128421372D01*
X134595000Y-129162285D01*
X134595000Y-129917715D01*
X134742377Y-130658628D01*
X135031467Y-131356554D01*
X135451161Y-131984670D01*
X135985330Y-132518839D01*
X136241490Y-132690000D01*
X82198510Y-132690000D01*
X82454670Y-132518839D01*
X82988839Y-131984670D01*
X83408533Y-131356554D01*
X83697623Y-130658628D01*
X83845000Y-129917715D01*
X83845000Y-129162285D01*
X83697623Y-128421372D01*
X83408533Y-127723446D01*
X82988839Y-127095330D01*
X82454670Y-126561161D01*
X81826554Y-126141467D01*
X81128628Y-125852377D01*
X80387715Y-125705000D01*
X79632285Y-125705000D01*
X78891372Y-125852377D01*
X78193446Y-126141467D01*
X77565330Y-126561161D01*
X77031161Y-127095330D01*
X76860000Y-127351490D01*
X76860000Y-112789040D01*
X81700565Y-112789040D01*
X81778310Y-113038207D01*
X82042503Y-113164196D01*
X82326199Y-113236223D01*
X82618496Y-113251519D01*
X82908161Y-113209497D01*
X83184062Y-113111771D01*
X83321690Y-113038207D01*
X83399435Y-112789040D01*
X82550000Y-111939605D01*
X81700565Y-112789040D01*
X76860000Y-112789040D01*
X76860000Y-111828496D01*
X81058481Y-111828496D01*
X81100503Y-112118161D01*
X81198229Y-112394062D01*
X81271793Y-112531690D01*
X81520960Y-112609435D01*
X82370395Y-111760000D01*
X82729605Y-111760000D01*
X83579040Y-112609435D01*
X83828207Y-112531690D01*
X83954196Y-112267497D01*
X84026223Y-111983801D01*
X84041519Y-111691504D01*
X83999497Y-111401839D01*
X83901771Y-111125938D01*
X83828207Y-110988310D01*
X83579040Y-110910565D01*
X82729605Y-111760000D01*
X82370395Y-111760000D01*
X81520960Y-110910565D01*
X81271793Y-110988310D01*
X81145804Y-111252503D01*
X81073777Y-111536199D01*
X81058481Y-111828496D01*
X76860000Y-111828496D01*
X76860000Y-110730960D01*
X81700565Y-110730960D01*
X82550000Y-111580395D01*
X83399435Y-110730960D01*
X83321690Y-110481793D01*
X83057497Y-110355804D01*
X82773801Y-110283777D01*
X82481504Y-110268481D01*
X82191839Y-110310503D01*
X81915938Y-110408229D01*
X81778310Y-110481793D01*
X81700565Y-110730960D01*
X76860000Y-110730960D01*
X76860000Y-109289037D01*
X81700565Y-109289037D01*
X81778310Y-109538204D01*
X82042503Y-109664193D01*
X82326199Y-109736220D01*
X82618496Y-109751516D01*
X82908161Y-109709494D01*
X83184062Y-109611768D01*
X83321690Y-109538204D01*
X83399435Y-109289037D01*
X82550000Y-108439602D01*
X81700565Y-109289037D01*
X76860000Y-109289037D01*
X76860000Y-108328493D01*
X81058481Y-108328493D01*
X81100503Y-108618158D01*
X81198229Y-108894059D01*
X81271793Y-109031687D01*
X81520960Y-109109432D01*
X82370395Y-108259997D01*
X82729605Y-108259997D01*
X83579040Y-109109432D01*
X83828207Y-109031687D01*
X83954196Y-108767494D01*
X84026223Y-108483798D01*
X84041519Y-108191501D01*
X83999497Y-107901836D01*
X83901771Y-107625935D01*
X83828207Y-107488307D01*
X83579040Y-107410562D01*
X82729605Y-108259997D01*
X82370395Y-108259997D01*
X81520960Y-107410562D01*
X81271793Y-107488307D01*
X81145804Y-107752500D01*
X81073777Y-108036196D01*
X81058481Y-108328493D01*
X76860000Y-108328493D01*
X76860000Y-107230957D01*
X81700565Y-107230957D01*
X82550000Y-108080392D01*
X83399435Y-107230957D01*
X83321690Y-106981790D01*
X83057497Y-106855801D01*
X82773801Y-106783774D01*
X82481504Y-106768478D01*
X82191839Y-106810500D01*
X81915938Y-106908226D01*
X81778310Y-106981790D01*
X81700565Y-107230957D01*
X76860000Y-107230957D01*
X76860000Y-105789036D01*
X81700565Y-105789036D01*
X81778310Y-106038203D01*
X82042503Y-106164192D01*
X82326199Y-106236219D01*
X82618496Y-106251515D01*
X82908161Y-106209493D01*
X83184062Y-106111767D01*
X83321690Y-106038203D01*
X83399435Y-105789036D01*
X82550000Y-104939601D01*
X81700565Y-105789036D01*
X76860000Y-105789036D01*
X76860000Y-104828492D01*
X81058481Y-104828492D01*
X81100503Y-105118157D01*
X81198229Y-105394058D01*
X81271793Y-105531686D01*
X81520960Y-105609431D01*
X82370395Y-104759996D01*
X82729605Y-104759996D01*
X83579040Y-105609431D01*
X83828207Y-105531686D01*
X83954196Y-105267493D01*
X84026223Y-104983797D01*
X84041519Y-104691500D01*
X83999497Y-104401835D01*
X83901771Y-104125934D01*
X83828207Y-103988306D01*
X83579040Y-103910561D01*
X82729605Y-104759996D01*
X82370395Y-104759996D01*
X81520960Y-103910561D01*
X81271793Y-103988306D01*
X81145804Y-104252499D01*
X81073777Y-104536195D01*
X81058481Y-104828492D01*
X76860000Y-104828492D01*
X76860000Y-103730956D01*
X81700565Y-103730956D01*
X82550000Y-104580391D01*
X83399435Y-103730956D01*
X83321690Y-103481789D01*
X83057497Y-103355800D01*
X82773801Y-103283773D01*
X82481504Y-103268477D01*
X82191839Y-103310499D01*
X81915938Y-103408225D01*
X81778310Y-103481789D01*
X81700565Y-103730956D01*
X76860000Y-103730956D01*
X76860000Y-102289035D01*
X81700565Y-102289035D01*
X81778310Y-102538202D01*
X82042503Y-102664191D01*
X82326199Y-102736218D01*
X82618496Y-102751514D01*
X82908161Y-102709492D01*
X83184062Y-102611766D01*
X83321690Y-102538202D01*
X83399435Y-102289035D01*
X82550000Y-101439600D01*
X81700565Y-102289035D01*
X76860000Y-102289035D01*
X76860000Y-101328491D01*
X81058481Y-101328491D01*
X81100503Y-101618156D01*
X81198229Y-101894057D01*
X81271793Y-102031685D01*
X81520960Y-102109430D01*
X82370395Y-101259995D01*
X81520960Y-100410560D01*
X81271793Y-100488305D01*
X81145804Y-100752498D01*
X81073777Y-101036194D01*
X81058481Y-101328491D01*
X76860000Y-101328491D01*
X76860000Y-97759995D01*
X80957332Y-97759995D01*
X80987934Y-98070709D01*
X81078566Y-98369482D01*
X81225745Y-98644834D01*
X81374178Y-98825701D01*
X82337800Y-99789323D01*
X82191839Y-99810498D01*
X81915938Y-99908224D01*
X81778310Y-99981788D01*
X81700565Y-100230955D01*
X82550000Y-101080390D01*
X82564143Y-101066248D01*
X82743748Y-101245853D01*
X82729605Y-101259995D01*
X83579040Y-102109430D01*
X83828207Y-102031685D01*
X83954196Y-101767492D01*
X84026223Y-101483796D01*
X84026524Y-101478047D01*
X85239585Y-102691109D01*
X85289218Y-102751587D01*
X85530566Y-102949656D01*
X85805917Y-103096834D01*
X86104691Y-103187466D01*
X86337541Y-103210400D01*
X86337550Y-103210400D01*
X86415404Y-103218068D01*
X86493258Y-103210400D01*
X89404928Y-103210400D01*
X89404928Y-105435400D01*
X89417188Y-105559882D01*
X89453498Y-105679580D01*
X89512463Y-105789894D01*
X89555061Y-105841800D01*
X89512463Y-105893706D01*
X89453498Y-106004020D01*
X89417188Y-106123718D01*
X89404928Y-106248200D01*
X89404928Y-107924600D01*
X89417188Y-108049082D01*
X89453498Y-108168780D01*
X89512463Y-108279094D01*
X89591815Y-108375785D01*
X89688506Y-108455137D01*
X89798820Y-108514102D01*
X89918518Y-108550412D01*
X90043000Y-108562672D01*
X90580426Y-108562672D01*
X90594729Y-108707891D01*
X90612810Y-108767494D01*
X90648194Y-108884140D01*
X90735015Y-109046572D01*
X90851857Y-109188944D01*
X90887536Y-109218225D01*
X100367975Y-118698665D01*
X100397256Y-118734344D01*
X100539628Y-118851186D01*
X100702060Y-118938007D01*
X100824843Y-118975253D01*
X100878307Y-118991471D01*
X101061599Y-119009524D01*
X101107531Y-119005000D01*
X102242317Y-119005000D01*
X102279463Y-119074494D01*
X102358815Y-119171185D01*
X102455506Y-119250537D01*
X102565820Y-119309502D01*
X102600427Y-119320000D01*
X102565820Y-119330498D01*
X102455506Y-119389463D01*
X102358815Y-119468815D01*
X102279463Y-119565506D01*
X102220498Y-119675820D01*
X102184188Y-119795518D01*
X102171928Y-119920000D01*
X102171928Y-121220000D01*
X102184188Y-121344482D01*
X102220498Y-121464180D01*
X102279463Y-121574494D01*
X102358815Y-121671185D01*
X102455506Y-121750537D01*
X102565820Y-121809502D01*
X102685518Y-121845812D01*
X102810000Y-121858072D01*
X105350000Y-121858072D01*
X105474482Y-121845812D01*
X105594180Y-121809502D01*
X105704494Y-121750537D01*
X105801185Y-121671185D01*
X105880537Y-121574494D01*
X105939502Y-121464180D01*
X105975812Y-121344482D01*
X105988072Y-121220000D01*
X105988072Y-119920000D01*
X105975812Y-119795518D01*
X105939502Y-119675820D01*
X105880537Y-119565506D01*
X105801185Y-119468815D01*
X105704494Y-119389463D01*
X105594180Y-119330498D01*
X105559573Y-119320000D01*
X105594180Y-119309502D01*
X105704494Y-119250537D01*
X105801185Y-119171185D01*
X105880537Y-119074494D01*
X105939502Y-118964180D01*
X105975812Y-118844482D01*
X105988072Y-118720000D01*
X105988072Y-117420000D01*
X105975812Y-117295518D01*
X105939502Y-117175820D01*
X105880537Y-117065506D01*
X105801185Y-116968815D01*
X105704494Y-116889463D01*
X105594180Y-116830498D01*
X105559573Y-116820000D01*
X105594180Y-116809502D01*
X105704494Y-116750537D01*
X105801185Y-116671185D01*
X105880537Y-116574494D01*
X105939502Y-116464180D01*
X105975812Y-116344482D01*
X105988072Y-116220000D01*
X105988072Y-114920000D01*
X105975812Y-114795518D01*
X105939502Y-114675820D01*
X105880537Y-114565506D01*
X105801185Y-114468815D01*
X105704494Y-114389463D01*
X105594180Y-114330498D01*
X105559573Y-114320000D01*
X105594180Y-114309502D01*
X105704494Y-114250537D01*
X105801185Y-114171185D01*
X105880537Y-114074494D01*
X105939502Y-113964180D01*
X105975812Y-113844482D01*
X105988072Y-113720000D01*
X105988072Y-112420000D01*
X105975812Y-112295518D01*
X105939502Y-112175820D01*
X105880537Y-112065506D01*
X105801185Y-111968815D01*
X105704494Y-111889463D01*
X105594180Y-111830498D01*
X105559573Y-111820000D01*
X105594180Y-111809502D01*
X105704494Y-111750537D01*
X105801185Y-111671185D01*
X105880537Y-111574494D01*
X105939502Y-111464180D01*
X105975812Y-111344482D01*
X105988072Y-111220000D01*
X105988072Y-109920000D01*
X117531928Y-109920000D01*
X117531928Y-111220000D01*
X117544188Y-111344482D01*
X117580498Y-111464180D01*
X117639463Y-111574494D01*
X117718815Y-111671185D01*
X117815506Y-111750537D01*
X117925820Y-111809502D01*
X117960427Y-111820000D01*
X117925820Y-111830498D01*
X117815506Y-111889463D01*
X117718815Y-111968815D01*
X117639463Y-112065506D01*
X117580498Y-112175820D01*
X117544188Y-112295518D01*
X117531928Y-112420000D01*
X117531928Y-113720000D01*
X117544188Y-113844482D01*
X117580498Y-113964180D01*
X117639463Y-114074494D01*
X117718815Y-114171185D01*
X117815506Y-114250537D01*
X117925820Y-114309502D01*
X117960427Y-114320000D01*
X117925820Y-114330498D01*
X117815506Y-114389463D01*
X117718815Y-114468815D01*
X117639463Y-114565506D01*
X117580498Y-114675820D01*
X117544188Y-114795518D01*
X117531928Y-114920000D01*
X117531928Y-116220000D01*
X117544188Y-116344482D01*
X117580498Y-116464180D01*
X117639463Y-116574494D01*
X117718815Y-116671185D01*
X117815506Y-116750537D01*
X117925820Y-116809502D01*
X117960427Y-116820000D01*
X117925820Y-116830498D01*
X117815506Y-116889463D01*
X117718815Y-116968815D01*
X117639463Y-117065506D01*
X117580498Y-117175820D01*
X117544188Y-117295518D01*
X117531928Y-117420000D01*
X117531928Y-118720000D01*
X117544188Y-118844482D01*
X117580498Y-118964180D01*
X117639463Y-119074494D01*
X117718815Y-119171185D01*
X117815506Y-119250537D01*
X117925820Y-119309502D01*
X117960427Y-119320000D01*
X117925820Y-119330498D01*
X117815506Y-119389463D01*
X117718815Y-119468815D01*
X117639463Y-119565506D01*
X117580498Y-119675820D01*
X117544188Y-119795518D01*
X117531928Y-119920000D01*
X117531928Y-121220000D01*
X117544188Y-121344482D01*
X117580498Y-121464180D01*
X117639463Y-121574494D01*
X117718815Y-121671185D01*
X117815506Y-121750537D01*
X117925820Y-121809502D01*
X118045518Y-121845812D01*
X118170000Y-121858072D01*
X120710000Y-121858072D01*
X120834482Y-121845812D01*
X120954180Y-121809502D01*
X121064494Y-121750537D01*
X121161185Y-121671185D01*
X121240537Y-121574494D01*
X121299502Y-121464180D01*
X121335812Y-121344482D01*
X121348072Y-121220000D01*
X121348072Y-119920000D01*
X121335812Y-119795518D01*
X121299502Y-119675820D01*
X121240537Y-119565506D01*
X121161185Y-119468815D01*
X121064494Y-119389463D01*
X120954180Y-119330498D01*
X120919573Y-119320000D01*
X120954180Y-119309502D01*
X121064494Y-119250537D01*
X121161185Y-119171185D01*
X121240537Y-119074494D01*
X121277683Y-119005000D01*
X126258533Y-119005000D01*
X126849244Y-119595712D01*
X126849250Y-119595717D01*
X127492208Y-120238675D01*
X127521489Y-120274354D01*
X127557168Y-120303635D01*
X130476731Y-123223198D01*
X130519510Y-123657542D01*
X130655887Y-124107116D01*
X130877351Y-124521446D01*
X131175391Y-124884609D01*
X131538554Y-125182649D01*
X131952884Y-125404113D01*
X132402458Y-125540490D01*
X132752843Y-125575000D01*
X136487157Y-125575000D01*
X136837542Y-125540490D01*
X137287116Y-125404113D01*
X137701446Y-125182649D01*
X138064609Y-124884609D01*
X138362649Y-124521446D01*
X138584113Y-124107116D01*
X138720490Y-123657542D01*
X138766539Y-123190000D01*
X138720490Y-122722458D01*
X138584113Y-122272884D01*
X138362649Y-121858554D01*
X138064609Y-121495391D01*
X137701446Y-121197351D01*
X137287116Y-120975887D01*
X136837542Y-120839510D01*
X136487157Y-120805000D01*
X132752843Y-120805000D01*
X132402458Y-120839510D01*
X131952884Y-120975887D01*
X131538554Y-121197351D01*
X131295188Y-121397077D01*
X130443121Y-120545010D01*
X130565392Y-120545010D01*
X130611324Y-120549534D01*
X130657256Y-120545010D01*
X130794616Y-120531481D01*
X130970864Y-120478017D01*
X131133296Y-120391196D01*
X131275668Y-120274354D01*
X131304954Y-120238669D01*
X132724332Y-118819291D01*
X132760011Y-118790011D01*
X132876853Y-118647639D01*
X132963674Y-118485207D01*
X133017138Y-118308959D01*
X133030667Y-118171599D01*
X133030667Y-118171598D01*
X133035191Y-118125668D01*
X133030667Y-118079736D01*
X133030667Y-116321599D01*
X133035191Y-116275667D01*
X133030667Y-116229735D01*
X133030667Y-115941622D01*
X133557289Y-115415000D01*
X136487157Y-115415000D01*
X136837542Y-115380490D01*
X137287116Y-115244113D01*
X137701446Y-115022649D01*
X138064609Y-114724609D01*
X138362649Y-114361446D01*
X138584113Y-113947116D01*
X138720490Y-113497542D01*
X138766539Y-113030000D01*
X138720490Y-112562458D01*
X138584113Y-112112884D01*
X138362649Y-111698554D01*
X138064609Y-111335391D01*
X137701446Y-111037351D01*
X137287116Y-110815887D01*
X136837542Y-110679510D01*
X136487157Y-110645000D01*
X132752843Y-110645000D01*
X132402458Y-110679510D01*
X131952884Y-110815887D01*
X131538554Y-111037351D01*
X131175391Y-111335391D01*
X130877351Y-111698554D01*
X130655887Y-112112884D01*
X130519510Y-112562458D01*
X130473461Y-113030000D01*
X130519510Y-113497542D01*
X130655887Y-113947116D01*
X130877351Y-114361446D01*
X131101851Y-114635000D01*
X131079044Y-114635000D01*
X131009608Y-114550392D01*
X130791101Y-114371068D01*
X130541808Y-114237818D01*
X130271309Y-114155764D01*
X130060492Y-114135000D01*
X129019508Y-114135000D01*
X128808691Y-114155764D01*
X128538192Y-114237818D01*
X128288899Y-114371068D01*
X128070392Y-114550392D01*
X127891068Y-114768899D01*
X127757818Y-115018192D01*
X127675764Y-115288691D01*
X127648057Y-115570000D01*
X127675764Y-115851309D01*
X127692051Y-115905000D01*
X124277292Y-115905000D01*
X121348072Y-112975781D01*
X121348072Y-112420000D01*
X121335812Y-112295518D01*
X121299502Y-112175820D01*
X121240537Y-112065506D01*
X121161185Y-111968815D01*
X121064494Y-111889463D01*
X120954180Y-111830498D01*
X120919573Y-111820000D01*
X120954180Y-111809502D01*
X121064494Y-111750537D01*
X121161185Y-111671185D01*
X121240537Y-111574494D01*
X121299502Y-111464180D01*
X121335812Y-111344482D01*
X121348072Y-111220000D01*
X121348072Y-109920000D01*
X121335812Y-109795518D01*
X121299502Y-109675820D01*
X121240537Y-109565506D01*
X121161185Y-109468815D01*
X121064494Y-109389463D01*
X120954180Y-109330498D01*
X120834482Y-109294188D01*
X120710000Y-109281928D01*
X118170000Y-109281928D01*
X118045518Y-109294188D01*
X117925820Y-109330498D01*
X117815506Y-109389463D01*
X117718815Y-109468815D01*
X117639463Y-109565506D01*
X117580498Y-109675820D01*
X117544188Y-109795518D01*
X117531928Y-109920000D01*
X105988072Y-109920000D01*
X105975812Y-109795518D01*
X105939502Y-109675820D01*
X105880537Y-109565506D01*
X105801185Y-109468815D01*
X105704494Y-109389463D01*
X105594180Y-109330498D01*
X105474482Y-109294188D01*
X105350000Y-109281928D01*
X102810000Y-109281928D01*
X102685518Y-109294188D01*
X102565820Y-109330498D01*
X102455506Y-109389463D01*
X102358815Y-109468815D01*
X102279463Y-109565506D01*
X102220498Y-109675820D01*
X102184188Y-109795518D01*
X102171928Y-109920000D01*
X102171928Y-111220000D01*
X102184188Y-111344482D01*
X102220498Y-111464180D01*
X102279463Y-111574494D01*
X102358815Y-111671185D01*
X102455506Y-111750537D01*
X102565820Y-111809502D01*
X102600427Y-111820000D01*
X102565820Y-111830498D01*
X102455506Y-111889463D01*
X102398519Y-111936230D01*
X99918800Y-109456511D01*
X99918800Y-108562672D01*
X100457000Y-108562672D01*
X100581482Y-108550412D01*
X100701180Y-108514102D01*
X100811494Y-108455137D01*
X100908185Y-108375785D01*
X100987537Y-108279094D01*
X101046502Y-108168780D01*
X101082812Y-108049082D01*
X101095072Y-107924600D01*
X101095072Y-106248200D01*
X101082812Y-106123718D01*
X101046502Y-106004020D01*
X100987537Y-105893706D01*
X100944939Y-105841800D01*
X100987537Y-105789894D01*
X101046502Y-105679580D01*
X101082812Y-105559882D01*
X101095072Y-105435400D01*
X101095072Y-98536457D01*
X101566529Y-98065000D01*
X102231627Y-98065000D01*
X102220498Y-98085820D01*
X102184188Y-98205518D01*
X102171928Y-98330000D01*
X102171928Y-99630000D01*
X102184188Y-99754482D01*
X102220498Y-99874180D01*
X102279463Y-99984494D01*
X102358815Y-100081185D01*
X102455506Y-100160537D01*
X102565820Y-100219502D01*
X102685518Y-100255812D01*
X102810000Y-100268072D01*
X105350000Y-100268072D01*
X105474482Y-100255812D01*
X105594180Y-100219502D01*
X105704494Y-100160537D01*
X105801185Y-100081185D01*
X105880537Y-99984494D01*
X105939502Y-99874180D01*
X105975812Y-99754482D01*
X105988072Y-99630000D01*
X105988072Y-98330000D01*
X105975812Y-98205518D01*
X105939502Y-98085820D01*
X105880537Y-97975506D01*
X105801185Y-97878815D01*
X105704494Y-97799463D01*
X105594180Y-97740498D01*
X105559573Y-97730000D01*
X105594180Y-97719502D01*
X105704494Y-97660537D01*
X105801185Y-97581185D01*
X105880537Y-97484494D01*
X105939502Y-97374180D01*
X105975812Y-97254482D01*
X105988072Y-97130000D01*
X105988072Y-95830000D01*
X105975812Y-95705518D01*
X105939502Y-95585820D01*
X105880537Y-95475506D01*
X105801185Y-95378815D01*
X105704494Y-95299463D01*
X105594180Y-95240498D01*
X105559573Y-95230000D01*
X105594180Y-95219502D01*
X105704494Y-95160537D01*
X105801185Y-95081185D01*
X105880537Y-94984494D01*
X105939502Y-94874180D01*
X105975812Y-94754482D01*
X105988072Y-94630000D01*
X105988072Y-93330000D01*
X105975812Y-93205518D01*
X105939502Y-93085820D01*
X105880537Y-92975506D01*
X105801185Y-92878815D01*
X105704494Y-92799463D01*
X105594180Y-92740498D01*
X105559573Y-92730000D01*
X105594180Y-92719502D01*
X105704494Y-92660537D01*
X105801185Y-92581185D01*
X105880537Y-92484494D01*
X105939502Y-92374180D01*
X105975812Y-92254482D01*
X105988072Y-92130000D01*
X105988072Y-90830000D01*
X105975812Y-90705518D01*
X105939502Y-90585820D01*
X105880537Y-90475506D01*
X105801185Y-90378815D01*
X105704494Y-90299463D01*
X105594180Y-90240498D01*
X105559573Y-90230000D01*
X105594180Y-90219502D01*
X105704494Y-90160537D01*
X105801185Y-90081185D01*
X105880537Y-89984494D01*
X105939502Y-89874180D01*
X105975812Y-89754482D01*
X105988072Y-89630000D01*
X105988072Y-88330000D01*
X117531928Y-88330000D01*
X117531928Y-89630000D01*
X117544188Y-89754482D01*
X117580498Y-89874180D01*
X117639463Y-89984494D01*
X117718815Y-90081185D01*
X117815506Y-90160537D01*
X117925820Y-90219502D01*
X117960427Y-90230000D01*
X117925820Y-90240498D01*
X117815506Y-90299463D01*
X117718815Y-90378815D01*
X117639463Y-90475506D01*
X117580498Y-90585820D01*
X117544188Y-90705518D01*
X117531928Y-90830000D01*
X117531928Y-92130000D01*
X117544188Y-92254482D01*
X117580498Y-92374180D01*
X117639463Y-92484494D01*
X117718815Y-92581185D01*
X117815506Y-92660537D01*
X117925820Y-92719502D01*
X117960427Y-92730000D01*
X117925820Y-92740498D01*
X117815506Y-92799463D01*
X117718815Y-92878815D01*
X117639463Y-92975506D01*
X117580498Y-93085820D01*
X117544188Y-93205518D01*
X117531928Y-93330000D01*
X117531928Y-94630000D01*
X117544188Y-94754482D01*
X117580498Y-94874180D01*
X117639463Y-94984494D01*
X117718815Y-95081185D01*
X117815506Y-95160537D01*
X117925820Y-95219502D01*
X117960427Y-95230000D01*
X117925820Y-95240498D01*
X117815506Y-95299463D01*
X117718815Y-95378815D01*
X117639463Y-95475506D01*
X117580498Y-95585820D01*
X117544188Y-95705518D01*
X117531928Y-95830000D01*
X117531928Y-97130000D01*
X117544188Y-97254482D01*
X117580498Y-97374180D01*
X117639463Y-97484494D01*
X117718815Y-97581185D01*
X117815506Y-97660537D01*
X117925820Y-97719502D01*
X117960427Y-97730000D01*
X117925820Y-97740498D01*
X117815506Y-97799463D01*
X117718815Y-97878815D01*
X117639463Y-97975506D01*
X117580498Y-98085820D01*
X117544188Y-98205518D01*
X117531928Y-98330000D01*
X117531928Y-99630000D01*
X117544188Y-99754482D01*
X117580498Y-99874180D01*
X117639463Y-99984494D01*
X117718815Y-100081185D01*
X117815506Y-100160537D01*
X117925820Y-100219502D01*
X118045518Y-100255812D01*
X118170000Y-100268072D01*
X120710000Y-100268072D01*
X120834482Y-100255812D01*
X120954180Y-100219502D01*
X121064494Y-100160537D01*
X121161185Y-100081185D01*
X121240537Y-99984494D01*
X121299502Y-99874180D01*
X121335812Y-99754482D01*
X121348072Y-99630000D01*
X121348072Y-98330000D01*
X121335812Y-98205518D01*
X121299502Y-98085820D01*
X121240537Y-97975506D01*
X121161185Y-97878815D01*
X121064494Y-97799463D01*
X121064313Y-97799366D01*
X121101708Y-97795683D01*
X121353356Y-97719347D01*
X121585277Y-97595382D01*
X121788557Y-97428555D01*
X121830368Y-97377608D01*
X123742975Y-95465002D01*
X129324419Y-95465002D01*
X129389998Y-95471461D01*
X129455577Y-95465002D01*
X129651704Y-95445685D01*
X129752860Y-95415000D01*
X130060492Y-95415000D01*
X130271309Y-95394236D01*
X130541808Y-95312182D01*
X130791101Y-95178932D01*
X131009608Y-94999608D01*
X131188932Y-94781101D01*
X131322182Y-94531808D01*
X131404236Y-94261309D01*
X131431943Y-93980000D01*
X131404236Y-93698691D01*
X131322182Y-93428192D01*
X131188932Y-93178899D01*
X131062630Y-93025000D01*
X132002144Y-93025000D01*
X132080000Y-93032668D01*
X132157856Y-93025000D01*
X132157864Y-93025000D01*
X132390714Y-93002066D01*
X132689488Y-92911434D01*
X132964839Y-92764256D01*
X133035000Y-92706676D01*
X133035001Y-96675000D01*
X132752843Y-96675000D01*
X132402458Y-96709510D01*
X131952884Y-96845887D01*
X131538554Y-97067351D01*
X131175391Y-97365391D01*
X130877351Y-97728554D01*
X130655887Y-98142884D01*
X130519510Y-98592458D01*
X130473461Y-99060000D01*
X130519510Y-99527542D01*
X130655887Y-99977116D01*
X130877351Y-100391446D01*
X131175391Y-100754609D01*
X131538554Y-101052649D01*
X131952884Y-101274113D01*
X132402458Y-101410490D01*
X132752843Y-101445000D01*
X136487157Y-101445000D01*
X136837542Y-101410490D01*
X137287116Y-101274113D01*
X137701446Y-101052649D01*
X138064609Y-100754609D01*
X138362649Y-100391446D01*
X138584113Y-99977116D01*
X138720490Y-99527542D01*
X138766539Y-99060000D01*
X138720490Y-98592458D01*
X138584113Y-98142884D01*
X138362649Y-97728554D01*
X138064609Y-97365391D01*
X137701446Y-97067351D01*
X137287116Y-96845887D01*
X136837542Y-96709510D01*
X136487157Y-96675000D01*
X136205000Y-96675000D01*
X136205000Y-91285000D01*
X136487157Y-91285000D01*
X136837542Y-91250490D01*
X137287116Y-91114113D01*
X137701446Y-90892649D01*
X138064609Y-90594609D01*
X138362649Y-90231446D01*
X138584113Y-89817116D01*
X138720490Y-89367542D01*
X138766539Y-88900000D01*
X138720490Y-88432458D01*
X138584113Y-87982884D01*
X138362649Y-87568554D01*
X138064609Y-87205391D01*
X137701446Y-86907351D01*
X137287116Y-86685887D01*
X136837542Y-86549510D01*
X136487157Y-86515000D01*
X132752843Y-86515000D01*
X132402458Y-86549510D01*
X131952884Y-86685887D01*
X131538554Y-86907351D01*
X131175391Y-87205391D01*
X130877351Y-87568554D01*
X130655887Y-87982884D01*
X130519510Y-88432458D01*
X130473461Y-88900000D01*
X130519510Y-89367542D01*
X130655887Y-89817116D01*
X130676136Y-89855000D01*
X129617864Y-89855000D01*
X129540000Y-89847331D01*
X129462136Y-89855000D01*
X129229286Y-89877934D01*
X129173027Y-89895000D01*
X121288373Y-89895000D01*
X121299502Y-89874180D01*
X121335812Y-89754482D01*
X121348072Y-89630000D01*
X121348072Y-88330000D01*
X121335812Y-88205518D01*
X121299502Y-88085820D01*
X121240537Y-87975506D01*
X121161185Y-87878815D01*
X121064494Y-87799463D01*
X120954180Y-87740498D01*
X120834482Y-87704188D01*
X120710000Y-87691928D01*
X118170000Y-87691928D01*
X118045518Y-87704188D01*
X117925820Y-87740498D01*
X117815506Y-87799463D01*
X117718815Y-87878815D01*
X117639463Y-87975506D01*
X117580498Y-88085820D01*
X117544188Y-88205518D01*
X117531928Y-88330000D01*
X105988072Y-88330000D01*
X105975812Y-88205518D01*
X105939502Y-88085820D01*
X105880537Y-87975506D01*
X105801185Y-87878815D01*
X105704494Y-87799463D01*
X105594180Y-87740498D01*
X105474482Y-87704188D01*
X105350000Y-87691928D01*
X102810000Y-87691928D01*
X102685518Y-87704188D01*
X102565820Y-87740498D01*
X102455506Y-87799463D01*
X102358815Y-87878815D01*
X102279463Y-87975506D01*
X102220498Y-88085820D01*
X102184188Y-88205518D01*
X102171928Y-88330000D01*
X102171928Y-89630000D01*
X102184188Y-89754482D01*
X102220498Y-89874180D01*
X102279463Y-89984494D01*
X102358815Y-90081185D01*
X102455506Y-90160537D01*
X102500852Y-90184775D01*
X102316646Y-90240653D01*
X102084725Y-90364618D01*
X101881445Y-90531445D01*
X101839639Y-90582386D01*
X99497032Y-92924994D01*
X83209870Y-92924994D01*
X82983421Y-92831196D01*
X82696348Y-92774094D01*
X82403652Y-92774094D01*
X82116579Y-92831196D01*
X81846162Y-92943206D01*
X81602794Y-93105820D01*
X81395826Y-93312788D01*
X81233212Y-93556156D01*
X81121202Y-93826573D01*
X81064100Y-94113646D01*
X81064100Y-94406342D01*
X81121202Y-94693415D01*
X81233212Y-94963832D01*
X81395826Y-95207200D01*
X81602794Y-95414168D01*
X81846162Y-95576782D01*
X82116579Y-95688792D01*
X82403652Y-95745894D01*
X82696348Y-95745894D01*
X82983421Y-95688792D01*
X83209870Y-95594994D01*
X99553477Y-95594994D01*
X97971144Y-97177328D01*
X97510600Y-97177328D01*
X97386118Y-97189588D01*
X97266420Y-97225898D01*
X97156106Y-97284863D01*
X97059415Y-97364215D01*
X96980063Y-97460906D01*
X96921098Y-97571220D01*
X96884788Y-97690918D01*
X96872528Y-97815400D01*
X96872528Y-105435400D01*
X96884788Y-105559882D01*
X96921098Y-105679580D01*
X96980063Y-105789894D01*
X97022661Y-105841800D01*
X96980063Y-105893706D01*
X96921098Y-106004020D01*
X96884788Y-106123718D01*
X96872528Y-106248200D01*
X96872528Y-107924600D01*
X96884788Y-108049082D01*
X96921098Y-108168780D01*
X96980063Y-108279094D01*
X97059415Y-108375785D01*
X97156106Y-108455137D01*
X97266420Y-108514102D01*
X97386118Y-108550412D01*
X97510600Y-108562672D01*
X98048800Y-108562672D01*
X98048800Y-109797868D01*
X98044276Y-109843800D01*
X98048800Y-109889731D01*
X98062329Y-110027091D01*
X98115793Y-110203339D01*
X98202614Y-110365771D01*
X98319456Y-110508144D01*
X98355141Y-110537430D01*
X101516370Y-113698659D01*
X101545656Y-113734344D01*
X101688028Y-113851186D01*
X101850460Y-113938007D01*
X101922828Y-113959959D01*
X102026708Y-113991472D01*
X102210000Y-114009524D01*
X102242998Y-114006274D01*
X102279463Y-114074494D01*
X102358815Y-114171185D01*
X102455506Y-114250537D01*
X102565820Y-114309502D01*
X102600427Y-114320000D01*
X102565820Y-114330498D01*
X102455506Y-114389463D01*
X102358815Y-114468815D01*
X102279463Y-114565506D01*
X102220498Y-114675820D01*
X102184188Y-114795518D01*
X102171928Y-114920000D01*
X102171928Y-116220000D01*
X102184188Y-116344482D01*
X102220498Y-116464180D01*
X102279463Y-116574494D01*
X102358815Y-116671185D01*
X102455506Y-116750537D01*
X102565820Y-116809502D01*
X102600427Y-116820000D01*
X102565820Y-116830498D01*
X102455506Y-116889463D01*
X102358815Y-116968815D01*
X102279463Y-117065506D01*
X102242317Y-117135000D01*
X101448890Y-117135000D01*
X92876561Y-108562672D01*
X92989400Y-108562672D01*
X93113882Y-108550412D01*
X93233580Y-108514102D01*
X93343894Y-108455137D01*
X93440585Y-108375785D01*
X93519937Y-108279094D01*
X93578902Y-108168780D01*
X93615212Y-108049082D01*
X93627472Y-107924600D01*
X93627472Y-106248200D01*
X93615212Y-106123718D01*
X93578902Y-106004020D01*
X93519937Y-105893706D01*
X93477339Y-105841800D01*
X93519937Y-105789894D01*
X93578902Y-105679580D01*
X93615212Y-105559882D01*
X93627472Y-105435400D01*
X93627472Y-97815400D01*
X93615212Y-97690918D01*
X93578902Y-97571220D01*
X93519937Y-97460906D01*
X93440585Y-97364215D01*
X93343894Y-97284863D01*
X93233580Y-97225898D01*
X93113882Y-97189588D01*
X92989400Y-97177328D01*
X90043000Y-97177328D01*
X89918518Y-97189588D01*
X89798820Y-97225898D01*
X89688506Y-97284863D01*
X89591815Y-97364215D01*
X89512463Y-97460906D01*
X89453498Y-97571220D01*
X89417188Y-97690918D01*
X89404928Y-97815400D01*
X89404928Y-100040400D01*
X87071934Y-100040400D01*
X83615706Y-96584173D01*
X83434839Y-96435740D01*
X83159487Y-96288561D01*
X82860714Y-96197929D01*
X82550000Y-96167327D01*
X82239286Y-96197929D01*
X81940513Y-96288561D01*
X81665161Y-96435740D01*
X81423813Y-96633808D01*
X81225745Y-96875156D01*
X81078566Y-97150508D01*
X80987934Y-97449281D01*
X80957332Y-97759995D01*
X76860000Y-97759995D01*
X76860000Y-82198510D01*
X77031161Y-82454670D01*
X77565330Y-82988839D01*
X78193446Y-83408533D01*
X78891372Y-83697623D01*
X79632285Y-83845000D01*
X80387715Y-83845000D01*
X81128628Y-83697623D01*
X81826554Y-83408533D01*
X82454670Y-82988839D01*
X82988839Y-82454670D01*
X83408533Y-81826554D01*
X83697623Y-81128628D01*
X83845000Y-80387715D01*
X83845000Y-79632285D01*
X83697623Y-78891372D01*
X83408533Y-78193446D01*
X82988839Y-77565330D01*
X82454670Y-77031161D01*
X82198510Y-76860000D01*
X136241490Y-76860000D01*
X135985330Y-77031161D01*
G37*
X135985330Y-77031161D02*
X135451161Y-77565330D01*
X135031467Y-78193446D01*
X134742377Y-78891372D01*
X134595000Y-79632285D01*
X134595000Y-80387715D01*
X134742377Y-81128628D01*
X135031467Y-81826554D01*
X135451161Y-82454670D01*
X135985330Y-82988839D01*
X136613446Y-83408533D01*
X137311372Y-83697623D01*
X138052285Y-83845000D01*
X138807715Y-83845000D01*
X139548628Y-83697623D01*
X140246554Y-83408533D01*
X140874670Y-82988839D01*
X141408839Y-82454670D01*
X141580000Y-82198509D01*
X141580001Y-93947572D01*
X141580000Y-93947582D01*
X141580001Y-126967572D01*
X141580000Y-126967582D01*
X141580000Y-127351491D01*
X141408839Y-127095330D01*
X140874670Y-126561161D01*
X140246554Y-126141467D01*
X139548628Y-125852377D01*
X138807715Y-125705000D01*
X138052285Y-125705000D01*
X137311372Y-125852377D01*
X136613446Y-126141467D01*
X135985330Y-126561161D01*
X135451161Y-127095330D01*
X135031467Y-127723446D01*
X134742377Y-128421372D01*
X134595000Y-129162285D01*
X134595000Y-129917715D01*
X134742377Y-130658628D01*
X135031467Y-131356554D01*
X135451161Y-131984670D01*
X135985330Y-132518839D01*
X136241490Y-132690000D01*
X82198510Y-132690000D01*
X82454670Y-132518839D01*
X82988839Y-131984670D01*
X83408533Y-131356554D01*
X83697623Y-130658628D01*
X83845000Y-129917715D01*
X83845000Y-129162285D01*
X83697623Y-128421372D01*
X83408533Y-127723446D01*
X82988839Y-127095330D01*
X82454670Y-126561161D01*
X81826554Y-126141467D01*
X81128628Y-125852377D01*
X80387715Y-125705000D01*
X79632285Y-125705000D01*
X78891372Y-125852377D01*
X78193446Y-126141467D01*
X77565330Y-126561161D01*
X77031161Y-127095330D01*
X76860000Y-127351490D01*
X76860000Y-112789040D01*
X81700565Y-112789040D01*
X81778310Y-113038207D01*
X82042503Y-113164196D01*
X82326199Y-113236223D01*
X82618496Y-113251519D01*
X82908161Y-113209497D01*
X83184062Y-113111771D01*
X83321690Y-113038207D01*
X83399435Y-112789040D01*
X82550000Y-111939605D01*
X81700565Y-112789040D01*
X76860000Y-112789040D01*
X76860000Y-111828496D01*
X81058481Y-111828496D01*
X81100503Y-112118161D01*
X81198229Y-112394062D01*
X81271793Y-112531690D01*
X81520960Y-112609435D01*
X82370395Y-111760000D01*
X82729605Y-111760000D01*
X83579040Y-112609435D01*
X83828207Y-112531690D01*
X83954196Y-112267497D01*
X84026223Y-111983801D01*
X84041519Y-111691504D01*
X83999497Y-111401839D01*
X83901771Y-111125938D01*
X83828207Y-110988310D01*
X83579040Y-110910565D01*
X82729605Y-111760000D01*
X82370395Y-111760000D01*
X81520960Y-110910565D01*
X81271793Y-110988310D01*
X81145804Y-111252503D01*
X81073777Y-111536199D01*
X81058481Y-111828496D01*
X76860000Y-111828496D01*
X76860000Y-110730960D01*
X81700565Y-110730960D01*
X82550000Y-111580395D01*
X83399435Y-110730960D01*
X83321690Y-110481793D01*
X83057497Y-110355804D01*
X82773801Y-110283777D01*
X82481504Y-110268481D01*
X82191839Y-110310503D01*
X81915938Y-110408229D01*
X81778310Y-110481793D01*
X81700565Y-110730960D01*
X76860000Y-110730960D01*
X76860000Y-109289037D01*
X81700565Y-109289037D01*
X81778310Y-109538204D01*
X82042503Y-109664193D01*
X82326199Y-109736220D01*
X82618496Y-109751516D01*
X82908161Y-109709494D01*
X83184062Y-109611768D01*
X83321690Y-109538204D01*
X83399435Y-109289037D01*
X82550000Y-108439602D01*
X81700565Y-109289037D01*
X76860000Y-109289037D01*
X76860000Y-108328493D01*
X81058481Y-108328493D01*
X81100503Y-108618158D01*
X81198229Y-108894059D01*
X81271793Y-109031687D01*
X81520960Y-109109432D01*
X82370395Y-108259997D01*
X82729605Y-108259997D01*
X83579040Y-109109432D01*
X83828207Y-109031687D01*
X83954196Y-108767494D01*
X84026223Y-108483798D01*
X84041519Y-108191501D01*
X83999497Y-107901836D01*
X83901771Y-107625935D01*
X83828207Y-107488307D01*
X83579040Y-107410562D01*
X82729605Y-108259997D01*
X82370395Y-108259997D01*
X81520960Y-107410562D01*
X81271793Y-107488307D01*
X81145804Y-107752500D01*
X81073777Y-108036196D01*
X81058481Y-108328493D01*
X76860000Y-108328493D01*
X76860000Y-107230957D01*
X81700565Y-107230957D01*
X82550000Y-108080392D01*
X83399435Y-107230957D01*
X83321690Y-106981790D01*
X83057497Y-106855801D01*
X82773801Y-106783774D01*
X82481504Y-106768478D01*
X82191839Y-106810500D01*
X81915938Y-106908226D01*
X81778310Y-106981790D01*
X81700565Y-107230957D01*
X76860000Y-107230957D01*
X76860000Y-105789036D01*
X81700565Y-105789036D01*
X81778310Y-106038203D01*
X82042503Y-106164192D01*
X82326199Y-106236219D01*
X82618496Y-106251515D01*
X82908161Y-106209493D01*
X83184062Y-106111767D01*
X83321690Y-106038203D01*
X83399435Y-105789036D01*
X82550000Y-104939601D01*
X81700565Y-105789036D01*
X76860000Y-105789036D01*
X76860000Y-104828492D01*
X81058481Y-104828492D01*
X81100503Y-105118157D01*
X81198229Y-105394058D01*
X81271793Y-105531686D01*
X81520960Y-105609431D01*
X82370395Y-104759996D01*
X82729605Y-104759996D01*
X83579040Y-105609431D01*
X83828207Y-105531686D01*
X83954196Y-105267493D01*
X84026223Y-104983797D01*
X84041519Y-104691500D01*
X83999497Y-104401835D01*
X83901771Y-104125934D01*
X83828207Y-103988306D01*
X83579040Y-103910561D01*
X82729605Y-104759996D01*
X82370395Y-104759996D01*
X81520960Y-103910561D01*
X81271793Y-103988306D01*
X81145804Y-104252499D01*
X81073777Y-104536195D01*
X81058481Y-104828492D01*
X76860000Y-104828492D01*
X76860000Y-103730956D01*
X81700565Y-103730956D01*
X82550000Y-104580391D01*
X83399435Y-103730956D01*
X83321690Y-103481789D01*
X83057497Y-103355800D01*
X82773801Y-103283773D01*
X82481504Y-103268477D01*
X82191839Y-103310499D01*
X81915938Y-103408225D01*
X81778310Y-103481789D01*
X81700565Y-103730956D01*
X76860000Y-103730956D01*
X76860000Y-102289035D01*
X81700565Y-102289035D01*
X81778310Y-102538202D01*
X82042503Y-102664191D01*
X82326199Y-102736218D01*
X82618496Y-102751514D01*
X82908161Y-102709492D01*
X83184062Y-102611766D01*
X83321690Y-102538202D01*
X83399435Y-102289035D01*
X82550000Y-101439600D01*
X81700565Y-102289035D01*
X76860000Y-102289035D01*
X76860000Y-101328491D01*
X81058481Y-101328491D01*
X81100503Y-101618156D01*
X81198229Y-101894057D01*
X81271793Y-102031685D01*
X81520960Y-102109430D01*
X82370395Y-101259995D01*
X81520960Y-100410560D01*
X81271793Y-100488305D01*
X81145804Y-100752498D01*
X81073777Y-101036194D01*
X81058481Y-101328491D01*
X76860000Y-101328491D01*
X76860000Y-97759995D01*
X80957332Y-97759995D01*
X80987934Y-98070709D01*
X81078566Y-98369482D01*
X81225745Y-98644834D01*
X81374178Y-98825701D01*
X82337800Y-99789323D01*
X82191839Y-99810498D01*
X81915938Y-99908224D01*
X81778310Y-99981788D01*
X81700565Y-100230955D01*
X82550000Y-101080390D01*
X82564143Y-101066248D01*
X82743748Y-101245853D01*
X82729605Y-101259995D01*
X83579040Y-102109430D01*
X83828207Y-102031685D01*
X83954196Y-101767492D01*
X84026223Y-101483796D01*
X84026524Y-101478047D01*
X85239585Y-102691109D01*
X85289218Y-102751587D01*
X85530566Y-102949656D01*
X85805917Y-103096834D01*
X86104691Y-103187466D01*
X86337541Y-103210400D01*
X86337550Y-103210400D01*
X86415404Y-103218068D01*
X86493258Y-103210400D01*
X89404928Y-103210400D01*
X89404928Y-105435400D01*
X89417188Y-105559882D01*
X89453498Y-105679580D01*
X89512463Y-105789894D01*
X89555061Y-105841800D01*
X89512463Y-105893706D01*
X89453498Y-106004020D01*
X89417188Y-106123718D01*
X89404928Y-106248200D01*
X89404928Y-107924600D01*
X89417188Y-108049082D01*
X89453498Y-108168780D01*
X89512463Y-108279094D01*
X89591815Y-108375785D01*
X89688506Y-108455137D01*
X89798820Y-108514102D01*
X89918518Y-108550412D01*
X90043000Y-108562672D01*
X90580426Y-108562672D01*
X90594729Y-108707891D01*
X90612810Y-108767494D01*
X90648194Y-108884140D01*
X90735015Y-109046572D01*
X90851857Y-109188944D01*
X90887536Y-109218225D01*
X100367975Y-118698665D01*
X100397256Y-118734344D01*
X100539628Y-118851186D01*
X100702060Y-118938007D01*
X100824843Y-118975253D01*
X100878307Y-118991471D01*
X101061599Y-119009524D01*
X101107531Y-119005000D01*
X102242317Y-119005000D01*
X102279463Y-119074494D01*
X102358815Y-119171185D01*
X102455506Y-119250537D01*
X102565820Y-119309502D01*
X102600427Y-119320000D01*
X102565820Y-119330498D01*
X102455506Y-119389463D01*
X102358815Y-119468815D01*
X102279463Y-119565506D01*
X102220498Y-119675820D01*
X102184188Y-119795518D01*
X102171928Y-119920000D01*
X102171928Y-121220000D01*
X102184188Y-121344482D01*
X102220498Y-121464180D01*
X102279463Y-121574494D01*
X102358815Y-121671185D01*
X102455506Y-121750537D01*
X102565820Y-121809502D01*
X102685518Y-121845812D01*
X102810000Y-121858072D01*
X105350000Y-121858072D01*
X105474482Y-121845812D01*
X105594180Y-121809502D01*
X105704494Y-121750537D01*
X105801185Y-121671185D01*
X105880537Y-121574494D01*
X105939502Y-121464180D01*
X105975812Y-121344482D01*
X105988072Y-121220000D01*
X105988072Y-119920000D01*
X105975812Y-119795518D01*
X105939502Y-119675820D01*
X105880537Y-119565506D01*
X105801185Y-119468815D01*
X105704494Y-119389463D01*
X105594180Y-119330498D01*
X105559573Y-119320000D01*
X105594180Y-119309502D01*
X105704494Y-119250537D01*
X105801185Y-119171185D01*
X105880537Y-119074494D01*
X105939502Y-118964180D01*
X105975812Y-118844482D01*
X105988072Y-118720000D01*
X105988072Y-117420000D01*
X105975812Y-117295518D01*
X105939502Y-117175820D01*
X105880537Y-117065506D01*
X105801185Y-116968815D01*
X105704494Y-116889463D01*
X105594180Y-116830498D01*
X105559573Y-116820000D01*
X105594180Y-116809502D01*
X105704494Y-116750537D01*
X105801185Y-116671185D01*
X105880537Y-116574494D01*
X105939502Y-116464180D01*
X105975812Y-116344482D01*
X105988072Y-116220000D01*
X105988072Y-114920000D01*
X105975812Y-114795518D01*
X105939502Y-114675820D01*
X105880537Y-114565506D01*
X105801185Y-114468815D01*
X105704494Y-114389463D01*
X105594180Y-114330498D01*
X105559573Y-114320000D01*
X105594180Y-114309502D01*
X105704494Y-114250537D01*
X105801185Y-114171185D01*
X105880537Y-114074494D01*
X105939502Y-113964180D01*
X105975812Y-113844482D01*
X105988072Y-113720000D01*
X105988072Y-112420000D01*
X105975812Y-112295518D01*
X105939502Y-112175820D01*
X105880537Y-112065506D01*
X105801185Y-111968815D01*
X105704494Y-111889463D01*
X105594180Y-111830498D01*
X105559573Y-111820000D01*
X105594180Y-111809502D01*
X105704494Y-111750537D01*
X105801185Y-111671185D01*
X105880537Y-111574494D01*
X105939502Y-111464180D01*
X105975812Y-111344482D01*
X105988072Y-111220000D01*
X105988072Y-109920000D01*
X117531928Y-109920000D01*
X117531928Y-111220000D01*
X117544188Y-111344482D01*
X117580498Y-111464180D01*
X117639463Y-111574494D01*
X117718815Y-111671185D01*
X117815506Y-111750537D01*
X117925820Y-111809502D01*
X117960427Y-111820000D01*
X117925820Y-111830498D01*
X117815506Y-111889463D01*
X117718815Y-111968815D01*
X117639463Y-112065506D01*
X117580498Y-112175820D01*
X117544188Y-112295518D01*
X117531928Y-112420000D01*
X117531928Y-113720000D01*
X117544188Y-113844482D01*
X117580498Y-113964180D01*
X117639463Y-114074494D01*
X117718815Y-114171185D01*
X117815506Y-114250537D01*
X117925820Y-114309502D01*
X117960427Y-114320000D01*
X117925820Y-114330498D01*
X117815506Y-114389463D01*
X117718815Y-114468815D01*
X117639463Y-114565506D01*
X117580498Y-114675820D01*
X117544188Y-114795518D01*
X117531928Y-114920000D01*
X117531928Y-116220000D01*
X117544188Y-116344482D01*
X117580498Y-116464180D01*
X117639463Y-116574494D01*
X117718815Y-116671185D01*
X117815506Y-116750537D01*
X117925820Y-116809502D01*
X117960427Y-116820000D01*
X117925820Y-116830498D01*
X117815506Y-116889463D01*
X117718815Y-116968815D01*
X117639463Y-117065506D01*
X117580498Y-117175820D01*
X117544188Y-117295518D01*
X117531928Y-117420000D01*
X117531928Y-118720000D01*
X117544188Y-118844482D01*
X117580498Y-118964180D01*
X117639463Y-119074494D01*
X117718815Y-119171185D01*
X117815506Y-119250537D01*
X117925820Y-119309502D01*
X117960427Y-119320000D01*
X117925820Y-119330498D01*
X117815506Y-119389463D01*
X117718815Y-119468815D01*
X117639463Y-119565506D01*
X117580498Y-119675820D01*
X117544188Y-119795518D01*
X117531928Y-119920000D01*
X117531928Y-121220000D01*
X117544188Y-121344482D01*
X117580498Y-121464180D01*
X117639463Y-121574494D01*
X117718815Y-121671185D01*
X117815506Y-121750537D01*
X117925820Y-121809502D01*
X118045518Y-121845812D01*
X118170000Y-121858072D01*
X120710000Y-121858072D01*
X120834482Y-121845812D01*
X120954180Y-121809502D01*
X121064494Y-121750537D01*
X121161185Y-121671185D01*
X121240537Y-121574494D01*
X121299502Y-121464180D01*
X121335812Y-121344482D01*
X121348072Y-121220000D01*
X121348072Y-119920000D01*
X121335812Y-119795518D01*
X121299502Y-119675820D01*
X121240537Y-119565506D01*
X121161185Y-119468815D01*
X121064494Y-119389463D01*
X120954180Y-119330498D01*
X120919573Y-119320000D01*
X120954180Y-119309502D01*
X121064494Y-119250537D01*
X121161185Y-119171185D01*
X121240537Y-119074494D01*
X121277683Y-119005000D01*
X126258533Y-119005000D01*
X126849244Y-119595712D01*
X126849250Y-119595717D01*
X127492208Y-120238675D01*
X127521489Y-120274354D01*
X127557168Y-120303635D01*
X130476731Y-123223198D01*
X130519510Y-123657542D01*
X130655887Y-124107116D01*
X130877351Y-124521446D01*
X131175391Y-124884609D01*
X131538554Y-125182649D01*
X131952884Y-125404113D01*
X132402458Y-125540490D01*
X132752843Y-125575000D01*
X136487157Y-125575000D01*
X136837542Y-125540490D01*
X137287116Y-125404113D01*
X137701446Y-125182649D01*
X138064609Y-124884609D01*
X138362649Y-124521446D01*
X138584113Y-124107116D01*
X138720490Y-123657542D01*
X138766539Y-123190000D01*
X138720490Y-122722458D01*
X138584113Y-122272884D01*
X138362649Y-121858554D01*
X138064609Y-121495391D01*
X137701446Y-121197351D01*
X137287116Y-120975887D01*
X136837542Y-120839510D01*
X136487157Y-120805000D01*
X132752843Y-120805000D01*
X132402458Y-120839510D01*
X131952884Y-120975887D01*
X131538554Y-121197351D01*
X131295188Y-121397077D01*
X130443121Y-120545010D01*
X130565392Y-120545010D01*
X130611324Y-120549534D01*
X130657256Y-120545010D01*
X130794616Y-120531481D01*
X130970864Y-120478017D01*
X131133296Y-120391196D01*
X131275668Y-120274354D01*
X131304954Y-120238669D01*
X132724332Y-118819291D01*
X132760011Y-118790011D01*
X132876853Y-118647639D01*
X132963674Y-118485207D01*
X133017138Y-118308959D01*
X133030667Y-118171599D01*
X133030667Y-118171598D01*
X133035191Y-118125668D01*
X133030667Y-118079736D01*
X133030667Y-116321599D01*
X133035191Y-116275667D01*
X133030667Y-116229735D01*
X133030667Y-115941622D01*
X133557289Y-115415000D01*
X136487157Y-115415000D01*
X136837542Y-115380490D01*
X137287116Y-115244113D01*
X137701446Y-115022649D01*
X138064609Y-114724609D01*
X138362649Y-114361446D01*
X138584113Y-113947116D01*
X138720490Y-113497542D01*
X138766539Y-113030000D01*
X138720490Y-112562458D01*
X138584113Y-112112884D01*
X138362649Y-111698554D01*
X138064609Y-111335391D01*
X137701446Y-111037351D01*
X137287116Y-110815887D01*
X136837542Y-110679510D01*
X136487157Y-110645000D01*
X132752843Y-110645000D01*
X132402458Y-110679510D01*
X131952884Y-110815887D01*
X131538554Y-111037351D01*
X131175391Y-111335391D01*
X130877351Y-111698554D01*
X130655887Y-112112884D01*
X130519510Y-112562458D01*
X130473461Y-113030000D01*
X130519510Y-113497542D01*
X130655887Y-113947116D01*
X130877351Y-114361446D01*
X131101851Y-114635000D01*
X131079044Y-114635000D01*
X131009608Y-114550392D01*
X130791101Y-114371068D01*
X130541808Y-114237818D01*
X130271309Y-114155764D01*
X130060492Y-114135000D01*
X129019508Y-114135000D01*
X128808691Y-114155764D01*
X128538192Y-114237818D01*
X128288899Y-114371068D01*
X128070392Y-114550392D01*
X127891068Y-114768899D01*
X127757818Y-115018192D01*
X127675764Y-115288691D01*
X127648057Y-115570000D01*
X127675764Y-115851309D01*
X127692051Y-115905000D01*
X124277292Y-115905000D01*
X121348072Y-112975781D01*
X121348072Y-112420000D01*
X121335812Y-112295518D01*
X121299502Y-112175820D01*
X121240537Y-112065506D01*
X121161185Y-111968815D01*
X121064494Y-111889463D01*
X120954180Y-111830498D01*
X120919573Y-111820000D01*
X120954180Y-111809502D01*
X121064494Y-111750537D01*
X121161185Y-111671185D01*
X121240537Y-111574494D01*
X121299502Y-111464180D01*
X121335812Y-111344482D01*
X121348072Y-111220000D01*
X121348072Y-109920000D01*
X121335812Y-109795518D01*
X121299502Y-109675820D01*
X121240537Y-109565506D01*
X121161185Y-109468815D01*
X121064494Y-109389463D01*
X120954180Y-109330498D01*
X120834482Y-109294188D01*
X120710000Y-109281928D01*
X118170000Y-109281928D01*
X118045518Y-109294188D01*
X117925820Y-109330498D01*
X117815506Y-109389463D01*
X117718815Y-109468815D01*
X117639463Y-109565506D01*
X117580498Y-109675820D01*
X117544188Y-109795518D01*
X117531928Y-109920000D01*
X105988072Y-109920000D01*
X105975812Y-109795518D01*
X105939502Y-109675820D01*
X105880537Y-109565506D01*
X105801185Y-109468815D01*
X105704494Y-109389463D01*
X105594180Y-109330498D01*
X105474482Y-109294188D01*
X105350000Y-109281928D01*
X102810000Y-109281928D01*
X102685518Y-109294188D01*
X102565820Y-109330498D01*
X102455506Y-109389463D01*
X102358815Y-109468815D01*
X102279463Y-109565506D01*
X102220498Y-109675820D01*
X102184188Y-109795518D01*
X102171928Y-109920000D01*
X102171928Y-111220000D01*
X102184188Y-111344482D01*
X102220498Y-111464180D01*
X102279463Y-111574494D01*
X102358815Y-111671185D01*
X102455506Y-111750537D01*
X102565820Y-111809502D01*
X102600427Y-111820000D01*
X102565820Y-111830498D01*
X102455506Y-111889463D01*
X102398519Y-111936230D01*
X99918800Y-109456511D01*
X99918800Y-108562672D01*
X100457000Y-108562672D01*
X100581482Y-108550412D01*
X100701180Y-108514102D01*
X100811494Y-108455137D01*
X100908185Y-108375785D01*
X100987537Y-108279094D01*
X101046502Y-108168780D01*
X101082812Y-108049082D01*
X101095072Y-107924600D01*
X101095072Y-106248200D01*
X101082812Y-106123718D01*
X101046502Y-106004020D01*
X100987537Y-105893706D01*
X100944939Y-105841800D01*
X100987537Y-105789894D01*
X101046502Y-105679580D01*
X101082812Y-105559882D01*
X101095072Y-105435400D01*
X101095072Y-98536457D01*
X101566529Y-98065000D01*
X102231627Y-98065000D01*
X102220498Y-98085820D01*
X102184188Y-98205518D01*
X102171928Y-98330000D01*
X102171928Y-99630000D01*
X102184188Y-99754482D01*
X102220498Y-99874180D01*
X102279463Y-99984494D01*
X102358815Y-100081185D01*
X102455506Y-100160537D01*
X102565820Y-100219502D01*
X102685518Y-100255812D01*
X102810000Y-100268072D01*
X105350000Y-100268072D01*
X105474482Y-100255812D01*
X105594180Y-100219502D01*
X105704494Y-100160537D01*
X105801185Y-100081185D01*
X105880537Y-99984494D01*
X105939502Y-99874180D01*
X105975812Y-99754482D01*
X105988072Y-99630000D01*
X105988072Y-98330000D01*
X105975812Y-98205518D01*
X105939502Y-98085820D01*
X105880537Y-97975506D01*
X105801185Y-97878815D01*
X105704494Y-97799463D01*
X105594180Y-97740498D01*
X105559573Y-97730000D01*
X105594180Y-97719502D01*
X105704494Y-97660537D01*
X105801185Y-97581185D01*
X105880537Y-97484494D01*
X105939502Y-97374180D01*
X105975812Y-97254482D01*
X105988072Y-97130000D01*
X105988072Y-95830000D01*
X105975812Y-95705518D01*
X105939502Y-95585820D01*
X105880537Y-95475506D01*
X105801185Y-95378815D01*
X105704494Y-95299463D01*
X105594180Y-95240498D01*
X105559573Y-95230000D01*
X105594180Y-95219502D01*
X105704494Y-95160537D01*
X105801185Y-95081185D01*
X105880537Y-94984494D01*
X105939502Y-94874180D01*
X105975812Y-94754482D01*
X105988072Y-94630000D01*
X105988072Y-93330000D01*
X105975812Y-93205518D01*
X105939502Y-93085820D01*
X105880537Y-92975506D01*
X105801185Y-92878815D01*
X105704494Y-92799463D01*
X105594180Y-92740498D01*
X105559573Y-92730000D01*
X105594180Y-92719502D01*
X105704494Y-92660537D01*
X105801185Y-92581185D01*
X105880537Y-92484494D01*
X105939502Y-92374180D01*
X105975812Y-92254482D01*
X105988072Y-92130000D01*
X105988072Y-90830000D01*
X105975812Y-90705518D01*
X105939502Y-90585820D01*
X105880537Y-90475506D01*
X105801185Y-90378815D01*
X105704494Y-90299463D01*
X105594180Y-90240498D01*
X105559573Y-90230000D01*
X105594180Y-90219502D01*
X105704494Y-90160537D01*
X105801185Y-90081185D01*
X105880537Y-89984494D01*
X105939502Y-89874180D01*
X105975812Y-89754482D01*
X105988072Y-89630000D01*
X105988072Y-88330000D01*
X117531928Y-88330000D01*
X117531928Y-89630000D01*
X117544188Y-89754482D01*
X117580498Y-89874180D01*
X117639463Y-89984494D01*
X117718815Y-90081185D01*
X117815506Y-90160537D01*
X117925820Y-90219502D01*
X117960427Y-90230000D01*
X117925820Y-90240498D01*
X117815506Y-90299463D01*
X117718815Y-90378815D01*
X117639463Y-90475506D01*
X117580498Y-90585820D01*
X117544188Y-90705518D01*
X117531928Y-90830000D01*
X117531928Y-92130000D01*
X117544188Y-92254482D01*
X117580498Y-92374180D01*
X117639463Y-92484494D01*
X117718815Y-92581185D01*
X117815506Y-92660537D01*
X117925820Y-92719502D01*
X117960427Y-92730000D01*
X117925820Y-92740498D01*
X117815506Y-92799463D01*
X117718815Y-92878815D01*
X117639463Y-92975506D01*
X117580498Y-93085820D01*
X117544188Y-93205518D01*
X117531928Y-93330000D01*
X117531928Y-94630000D01*
X117544188Y-94754482D01*
X117580498Y-94874180D01*
X117639463Y-94984494D01*
X117718815Y-95081185D01*
X117815506Y-95160537D01*
X117925820Y-95219502D01*
X117960427Y-95230000D01*
X117925820Y-95240498D01*
X117815506Y-95299463D01*
X117718815Y-95378815D01*
X117639463Y-95475506D01*
X117580498Y-95585820D01*
X117544188Y-95705518D01*
X117531928Y-95830000D01*
X117531928Y-97130000D01*
X117544188Y-97254482D01*
X117580498Y-97374180D01*
X117639463Y-97484494D01*
X117718815Y-97581185D01*
X117815506Y-97660537D01*
X117925820Y-97719502D01*
X117960427Y-97730000D01*
X117925820Y-97740498D01*
X117815506Y-97799463D01*
X117718815Y-97878815D01*
X117639463Y-97975506D01*
X117580498Y-98085820D01*
X117544188Y-98205518D01*
X117531928Y-98330000D01*
X117531928Y-99630000D01*
X117544188Y-99754482D01*
X117580498Y-99874180D01*
X117639463Y-99984494D01*
X117718815Y-100081185D01*
X117815506Y-100160537D01*
X117925820Y-100219502D01*
X118045518Y-100255812D01*
X118170000Y-100268072D01*
X120710000Y-100268072D01*
X120834482Y-100255812D01*
X120954180Y-100219502D01*
X121064494Y-100160537D01*
X121161185Y-100081185D01*
X121240537Y-99984494D01*
X121299502Y-99874180D01*
X121335812Y-99754482D01*
X121348072Y-99630000D01*
X121348072Y-98330000D01*
X121335812Y-98205518D01*
X121299502Y-98085820D01*
X121240537Y-97975506D01*
X121161185Y-97878815D01*
X121064494Y-97799463D01*
X121064313Y-97799366D01*
X121101708Y-97795683D01*
X121353356Y-97719347D01*
X121585277Y-97595382D01*
X121788557Y-97428555D01*
X121830368Y-97377608D01*
X123742975Y-95465002D01*
X129324419Y-95465002D01*
X129389998Y-95471461D01*
X129455577Y-95465002D01*
X129651704Y-95445685D01*
X129752860Y-95415000D01*
X130060492Y-95415000D01*
X130271309Y-95394236D01*
X130541808Y-95312182D01*
X130791101Y-95178932D01*
X131009608Y-94999608D01*
X131188932Y-94781101D01*
X131322182Y-94531808D01*
X131404236Y-94261309D01*
X131431943Y-93980000D01*
X131404236Y-93698691D01*
X131322182Y-93428192D01*
X131188932Y-93178899D01*
X131062630Y-93025000D01*
X132002144Y-93025000D01*
X132080000Y-93032668D01*
X132157856Y-93025000D01*
X132157864Y-93025000D01*
X132390714Y-93002066D01*
X132689488Y-92911434D01*
X132964839Y-92764256D01*
X133035000Y-92706676D01*
X133035001Y-96675000D01*
X132752843Y-96675000D01*
X132402458Y-96709510D01*
X131952884Y-96845887D01*
X131538554Y-97067351D01*
X131175391Y-97365391D01*
X130877351Y-97728554D01*
X130655887Y-98142884D01*
X130519510Y-98592458D01*
X130473461Y-99060000D01*
X130519510Y-99527542D01*
X130655887Y-99977116D01*
X130877351Y-100391446D01*
X131175391Y-100754609D01*
X131538554Y-101052649D01*
X131952884Y-101274113D01*
X132402458Y-101410490D01*
X132752843Y-101445000D01*
X136487157Y-101445000D01*
X136837542Y-101410490D01*
X137287116Y-101274113D01*
X137701446Y-101052649D01*
X138064609Y-100754609D01*
X138362649Y-100391446D01*
X138584113Y-99977116D01*
X138720490Y-99527542D01*
X138766539Y-99060000D01*
X138720490Y-98592458D01*
X138584113Y-98142884D01*
X138362649Y-97728554D01*
X138064609Y-97365391D01*
X137701446Y-97067351D01*
X137287116Y-96845887D01*
X136837542Y-96709510D01*
X136487157Y-96675000D01*
X136205000Y-96675000D01*
X136205000Y-91285000D01*
X136487157Y-91285000D01*
X136837542Y-91250490D01*
X137287116Y-91114113D01*
X137701446Y-90892649D01*
X138064609Y-90594609D01*
X138362649Y-90231446D01*
X138584113Y-89817116D01*
X138720490Y-89367542D01*
X138766539Y-88900000D01*
X138720490Y-88432458D01*
X138584113Y-87982884D01*
X138362649Y-87568554D01*
X138064609Y-87205391D01*
X137701446Y-86907351D01*
X137287116Y-86685887D01*
X136837542Y-86549510D01*
X136487157Y-86515000D01*
X132752843Y-86515000D01*
X132402458Y-86549510D01*
X131952884Y-86685887D01*
X131538554Y-86907351D01*
X131175391Y-87205391D01*
X130877351Y-87568554D01*
X130655887Y-87982884D01*
X130519510Y-88432458D01*
X130473461Y-88900000D01*
X130519510Y-89367542D01*
X130655887Y-89817116D01*
X130676136Y-89855000D01*
X129617864Y-89855000D01*
X129540000Y-89847331D01*
X129462136Y-89855000D01*
X129229286Y-89877934D01*
X129173027Y-89895000D01*
X121288373Y-89895000D01*
X121299502Y-89874180D01*
X121335812Y-89754482D01*
X121348072Y-89630000D01*
X121348072Y-88330000D01*
X121335812Y-88205518D01*
X121299502Y-88085820D01*
X121240537Y-87975506D01*
X121161185Y-87878815D01*
X121064494Y-87799463D01*
X120954180Y-87740498D01*
X120834482Y-87704188D01*
X120710000Y-87691928D01*
X118170000Y-87691928D01*
X118045518Y-87704188D01*
X117925820Y-87740498D01*
X117815506Y-87799463D01*
X117718815Y-87878815D01*
X117639463Y-87975506D01*
X117580498Y-88085820D01*
X117544188Y-88205518D01*
X117531928Y-88330000D01*
X105988072Y-88330000D01*
X105975812Y-88205518D01*
X105939502Y-88085820D01*
X105880537Y-87975506D01*
X105801185Y-87878815D01*
X105704494Y-87799463D01*
X105594180Y-87740498D01*
X105474482Y-87704188D01*
X105350000Y-87691928D01*
X102810000Y-87691928D01*
X102685518Y-87704188D01*
X102565820Y-87740498D01*
X102455506Y-87799463D01*
X102358815Y-87878815D01*
X102279463Y-87975506D01*
X102220498Y-88085820D01*
X102184188Y-88205518D01*
X102171928Y-88330000D01*
X102171928Y-89630000D01*
X102184188Y-89754482D01*
X102220498Y-89874180D01*
X102279463Y-89984494D01*
X102358815Y-90081185D01*
X102455506Y-90160537D01*
X102500852Y-90184775D01*
X102316646Y-90240653D01*
X102084725Y-90364618D01*
X101881445Y-90531445D01*
X101839639Y-90582386D01*
X99497032Y-92924994D01*
X83209870Y-92924994D01*
X82983421Y-92831196D01*
X82696348Y-92774094D01*
X82403652Y-92774094D01*
X82116579Y-92831196D01*
X81846162Y-92943206D01*
X81602794Y-93105820D01*
X81395826Y-93312788D01*
X81233212Y-93556156D01*
X81121202Y-93826573D01*
X81064100Y-94113646D01*
X81064100Y-94406342D01*
X81121202Y-94693415D01*
X81233212Y-94963832D01*
X81395826Y-95207200D01*
X81602794Y-95414168D01*
X81846162Y-95576782D01*
X82116579Y-95688792D01*
X82403652Y-95745894D01*
X82696348Y-95745894D01*
X82983421Y-95688792D01*
X83209870Y-95594994D01*
X99553477Y-95594994D01*
X97971144Y-97177328D01*
X97510600Y-97177328D01*
X97386118Y-97189588D01*
X97266420Y-97225898D01*
X97156106Y-97284863D01*
X97059415Y-97364215D01*
X96980063Y-97460906D01*
X96921098Y-97571220D01*
X96884788Y-97690918D01*
X96872528Y-97815400D01*
X96872528Y-105435400D01*
X96884788Y-105559882D01*
X96921098Y-105679580D01*
X96980063Y-105789894D01*
X97022661Y-105841800D01*
X96980063Y-105893706D01*
X96921098Y-106004020D01*
X96884788Y-106123718D01*
X96872528Y-106248200D01*
X96872528Y-107924600D01*
X96884788Y-108049082D01*
X96921098Y-108168780D01*
X96980063Y-108279094D01*
X97059415Y-108375785D01*
X97156106Y-108455137D01*
X97266420Y-108514102D01*
X97386118Y-108550412D01*
X97510600Y-108562672D01*
X98048800Y-108562672D01*
X98048800Y-109797868D01*
X98044276Y-109843800D01*
X98048800Y-109889731D01*
X98062329Y-110027091D01*
X98115793Y-110203339D01*
X98202614Y-110365771D01*
X98319456Y-110508144D01*
X98355141Y-110537430D01*
X101516370Y-113698659D01*
X101545656Y-113734344D01*
X101688028Y-113851186D01*
X101850460Y-113938007D01*
X101922828Y-113959959D01*
X102026708Y-113991472D01*
X102210000Y-114009524D01*
X102242998Y-114006274D01*
X102279463Y-114074494D01*
X102358815Y-114171185D01*
X102455506Y-114250537D01*
X102565820Y-114309502D01*
X102600427Y-114320000D01*
X102565820Y-114330498D01*
X102455506Y-114389463D01*
X102358815Y-114468815D01*
X102279463Y-114565506D01*
X102220498Y-114675820D01*
X102184188Y-114795518D01*
X102171928Y-114920000D01*
X102171928Y-116220000D01*
X102184188Y-116344482D01*
X102220498Y-116464180D01*
X102279463Y-116574494D01*
X102358815Y-116671185D01*
X102455506Y-116750537D01*
X102565820Y-116809502D01*
X102600427Y-116820000D01*
X102565820Y-116830498D01*
X102455506Y-116889463D01*
X102358815Y-116968815D01*
X102279463Y-117065506D01*
X102242317Y-117135000D01*
X101448890Y-117135000D01*
X92876561Y-108562672D01*
X92989400Y-108562672D01*
X93113882Y-108550412D01*
X93233580Y-108514102D01*
X93343894Y-108455137D01*
X93440585Y-108375785D01*
X93519937Y-108279094D01*
X93578902Y-108168780D01*
X93615212Y-108049082D01*
X93627472Y-107924600D01*
X93627472Y-106248200D01*
X93615212Y-106123718D01*
X93578902Y-106004020D01*
X93519937Y-105893706D01*
X93477339Y-105841800D01*
X93519937Y-105789894D01*
X93578902Y-105679580D01*
X93615212Y-105559882D01*
X93627472Y-105435400D01*
X93627472Y-97815400D01*
X93615212Y-97690918D01*
X93578902Y-97571220D01*
X93519937Y-97460906D01*
X93440585Y-97364215D01*
X93343894Y-97284863D01*
X93233580Y-97225898D01*
X93113882Y-97189588D01*
X92989400Y-97177328D01*
X90043000Y-97177328D01*
X89918518Y-97189588D01*
X89798820Y-97225898D01*
X89688506Y-97284863D01*
X89591815Y-97364215D01*
X89512463Y-97460906D01*
X89453498Y-97571220D01*
X89417188Y-97690918D01*
X89404928Y-97815400D01*
X89404928Y-100040400D01*
X87071934Y-100040400D01*
X83615706Y-96584173D01*
X83434839Y-96435740D01*
X83159487Y-96288561D01*
X82860714Y-96197929D01*
X82550000Y-96167327D01*
X82239286Y-96197929D01*
X81940513Y-96288561D01*
X81665161Y-96435740D01*
X81423813Y-96633808D01*
X81225745Y-96875156D01*
X81078566Y-97150508D01*
X80987934Y-97449281D01*
X80957332Y-97759995D01*
X76860000Y-97759995D01*
X76860000Y-82198510D01*
X77031161Y-82454670D01*
X77565330Y-82988839D01*
X78193446Y-83408533D01*
X78891372Y-83697623D01*
X79632285Y-83845000D01*
X80387715Y-83845000D01*
X81128628Y-83697623D01*
X81826554Y-83408533D01*
X82454670Y-82988839D01*
X82988839Y-82454670D01*
X83408533Y-81826554D01*
X83697623Y-81128628D01*
X83845000Y-80387715D01*
X83845000Y-79632285D01*
X83697623Y-78891372D01*
X83408533Y-78193446D01*
X82988839Y-77565330D01*
X82454670Y-77031161D01*
X82198510Y-76860000D01*
X136241490Y-76860000D01*
X135985330Y-77031161D01*
%TD*%
M02*
